<svg width="359" height="360" viewBox="0 0 359 360" fill="none" xmlns="http://www.w3.org/2000/svg">
<path d="M344.6 110.05C327.335 68.9384 295.456 35.7286 255.153 16.8679C214.849 -1.99281 168.996 -5.15872 126.496 7.9848C83.9956 21.1283 47.8807 49.6435 25.1625 87.9943C2.44435 126.345 -5.25619 171.795 3.55591 215.521C12.368 259.246 37.064 298.128 72.8493 324.616C108.635 351.104 152.956 363.31 197.209 358.863C241.462 354.416 282.488 333.634 312.324 300.552C342.16 267.469 358.675 224.447 358.665 179.837C358.688 155.864 353.905 132.131 344.6 110.05ZM182.915 178.914C179.406 179.349 172.637 179.915 172.898 179.937C129.041 183.504 94.4343 220.443 94.4343 265.343C94.4343 308.331 126.132 344.024 167.353 350.117C79.3148 343.667 9.64878 269.759 9.64878 179.82C9.64878 88.8824 80.8997 14.313 170.344 9.35215C173.623 9.35215 177.676 9.04291 179 9.35215C225.422 9.35215 264.053 47.9587 264.053 94.5096C264.057 140.067 227.93 177.298 182.915 178.914Z" fill="black"/>
<path d="M179.867 293.966C195.112 293.966 207.47 281.57 207.47 266.278C207.47 250.987 195.112 238.591 179.867 238.591C164.622 238.591 152.263 250.987 152.263 266.278C152.263 281.57 164.622 293.966 179.867 293.966Z" fill="url(#paint0_linear)"/>
<path d="M179.867 122.967C195.112 122.967 207.47 110.571 207.47 95.2797C207.47 79.9883 195.112 67.5922 179.867 67.5922C164.622 67.5922 152.263 79.9883 152.263 95.2797C152.263 110.571 164.622 122.967 179.867 122.967Z" fill="black"/>
<defs>
<linearGradient id="paint0_linear" x1="179.867" y1="254.096" x2="181.241" y2="280.493" gradientUnits="userSpaceOnUse">
<stop offset="0.177083" stop-color="#FFE321"/>
<stop offset="0.880208" stop-color="#F5C001"/>
</linearGradient>
</defs>
</svg>
