<svg width="48" height="48" viewBox="0 0 48 48" fill="none" xmlns="http://www.w3.org/2000/svg">
<path d="M6.52673 44.1913C6.52673 44.1913 6.4841 45.2642 7.53221 45.2642C8.83613 45.2642 19.6317 45.25 19.6317 45.25L19.6495 35.3356C19.6495 35.3356 19.4789 33.7013 21.0653 33.7013H26.0856C27.9615 33.7013 27.846 35.3356 27.846 35.3356L27.8247 45.2181C27.8247 45.2181 38.0607 45.2181 39.6684 45.2181C40.999 45.2181 40.9386 43.8822 40.9386 43.8822V25.6041L24.2469 10.7565L6.52673 25.6041V44.1913Z" fill="white"/>
<path d="M0 24.2221C0 24.2221 1.50466 26.9951 4.78579 24.2221L24.3944 7.63345L42.779 24.119C46.5771 26.8583 48 24.119 48 24.119L24.3944 2.73575L0 24.2221Z" fill="white"/>
<path d="M42.3331 7.59436H37.6041L37.6237 13.3288L42.3331 17.324V7.59436Z" fill="white"/>
</svg>
