<svg width="1550" height="1440" viewBox="0 0 1550 1440" fill="none" xmlns="http://www.w3.org/2000/svg">
<g clip-path="url(#clip0)">
<g filter="url(#filter0_f)">
<path d="M1278 1414H259L622.862 511H914.149L1278 1414Z" fill="#ECEE9D"/>
<path d="M1278 1414H259L622.862 511H914.149L1278 1414Z" fill="url(#paint0_linear)"/>
</g>
<path d="M833.537 547.077H774.871H705.354C705.354 562.117 734.053 574.324 769.446 574.324C804.839 574.324 833.537 562.117 833.537 547.077Z" fill="#F0D01D"/>
<path d="M881.387 314.556V367.742C881.387 380.203 884.038 392.55 889.193 404.097L943.973 526.906C948.275 536.547 940.435 547.065 928.956 547.065H929.382C940.862 547.065 948.702 536.547 944.4 526.906L889.62 404.097C884.464 392.537 881.814 380.203 881.814 367.742V314.556C881.814 301.002 869.683 290.014 854.71 290.014H854.283C869.245 290.027 881.387 301.002 881.387 314.556Z" fill="#151533"/>
<path d="M786.283 277.819H763.459V0H786.283V277.819ZM767.929 272.763H781.812V5.06835H767.929V272.763Z" fill="#12122B"/>
<path d="M774.871 295.07V275.292H761.976C757.292 275.292 753.507 279.586 753.507 284.87V290.014H695.885C680.913 290.014 668.782 301.002 668.782 314.556V367.742C668.782 380.203 666.131 392.55 660.975 404.097L606.195 526.906C601.893 536.547 609.734 547.065 621.213 547.065H705.343H774.86V295.07H774.871Z" fill="#151533"/>
<path d="M774.871 295.07V547.065H833.537H928.944C940.424 547.065 948.264 536.547 943.962 526.906L889.182 404.097C884.026 392.537 881.376 380.203 881.376 367.742V314.556C881.376 301.002 869.245 290.014 854.272 290.014H796.223V284.87C796.223 279.573 792.427 275.292 787.754 275.292H774.86V295.07H774.871Z" fill="#12122B"/>
</g>
<defs>
<filter id="filter0_f" x="209" y="461" width="1119" height="1003" filterUnits="userSpaceOnUse" color-interpolation-filters="sRGB">
<feFlood flood-opacity="0" result="BackgroundImageFix"/>
<feBlend mode="normal" in="SourceGraphic" in2="BackgroundImageFix" result="shape"/>
<feGaussianBlur stdDeviation="25" result="effect1_foregroundBlur"/>
</filter>
<linearGradient id="paint0_linear" x1="768.5" y1="511" x2="768.5" y2="1414" gradientUnits="userSpaceOnUse">
<stop stop-color="#EEF09F"/>
<stop offset="1" stop-color="#040400"/>
</linearGradient>
<clipPath id="clip0">
<rect width="1550" height="1440" fill="white"/>
</clipPath>
</defs>
</svg>
