<?xml version="1.0" encoding="utf-8"?>
<svg version="1.1" xmlns="http://www.w3.org/2000/svg" xmlns:xlink="http://www.w3.org/1999/xlink" x="0px" y="0px"
	 viewBox="0 0 1280 1024" style="enable-background:new 0 0 1280 1024;" xml:space="preserve">
<style type="text/css">
	.st0{fill:#D2DC00;}
	.st1{fill:#FFFBC4;}
	.st2{fill:#282828;stroke:#D2DC00;stroke-width:3;stroke-miterlimit:10;}
	.st3{fill:#282828;}
	.st4{fill:#282828;stroke:#FFDC00;stroke-miterlimit:10;}
	.st5{fill:#282828;stroke:#D2DC00;stroke-width:2.52;stroke-miterlimit:10;}
</style>
<g id="background">
	<rect x="0.49" y="0" class="st0" width="1280" height="1024"/>
</g>
<g id="Lamp">
	<polygon class="st1" points="999.13,1024 281.85,1024 444.91,457.46 836.06,457.46 	"/>
	<circle class="st2" cx="640" cy="457.46" r="61.79"/>
	<path class="st3" d="M709.47,29.6H571.51c-3.88,0-7.03-3.15-7.03-7.03V0.49H716.5v22.08C716.5,26.45,713.35,29.6,709.47,29.6z"/>
	<rect x="626.03" y="25.51" class="st4" width="27.94" height="219.06"/>
	<path class="st2" d="M639.98,457.46l-192.43-0.37c-9.51-0.02-17.07-8.14-16.24-17.61c9.24-106.64,99.84-191.47,208.67-191.47
		c108.98,0,199.66,85.06,208.71,191.87c0.8,9.48-6.77,17.58-16.28,17.58H639.98z"/>
	<path class="st5" d="M686.97,269.46h-93.94c-5.54,0-10.08-4.54-10.08-10.08v-22.73c0-5.54,4.54-10.08,10.08-10.08h93.94
		c5.54,0,10.08,4.54,10.08,10.08v22.73C697.05,264.92,692.51,269.46,686.97,269.46z"/>
</g>
</svg>
