<svg width="478" height="750" viewBox="0 0 478 750" fill="none" xmlns="http://www.w3.org/2000/svg">
<g clip-path="url(#clip0)">
<path d="M478 0H0V566.621H478V0Z" fill="black"/>
<g filter="url(#filter0_f)">
<path d="M369.313 550.137H109.796L168.792 168.956H310.313L369.313 550.137Z" fill="#FFFBC4"/>
<path d="M369.313 550.137H109.796L168.792 168.956H310.313L369.313 550.137Z" fill="url(#paint0_linear)"/>
</g>
<path d="M240.109 191.621C252.666 191.621 262.845 181.474 262.845 168.957C262.845 156.438 252.666 146.291 240.109 146.291C227.552 146.291 217.374 156.438 217.374 168.957C217.374 181.474 227.552 191.621 240.109 191.621Z" fill="#282828" stroke="black" stroke-width="3" stroke-miterlimit="10"/>
<path d="M243.991 -16.4835H234.009V81.3874H243.991V-16.4835Z" fill="#282828" stroke="black" stroke-miterlimit="10"/>
<path d="M238.993 168.956L166.918 168.818C163.356 168.81 160.525 165.774 160.835 162.234C164.296 122.37 198.231 90.6593 238.993 90.6593C279.812 90.6593 313.777 122.456 317.166 162.384C317.465 165.927 314.63 168.956 311.068 168.956H238.993Z" fill="#282828" stroke="black" stroke-width="3" stroke-miterlimit="10"/>
<path d="M256.806 99.9313H221.194C219.095 99.9313 217.374 97.9684 217.374 95.573V85.7455C217.374 83.3501 219.095 81.3873 221.194 81.3873H256.806C258.905 81.3873 260.626 83.3501 260.626 85.7455V95.573C260.626 97.9684 258.905 99.9313 256.806 99.9313Z" fill="#282828" stroke="black" stroke-width="2.52" stroke-miterlimit="10"/>
</g>
<defs>
<filter id="filter0_f" x="93.7958" y="152.956" width="291.517" height="413.181" filterUnits="userSpaceOnUse" color-interpolation-filters="sRGB">
<feFlood flood-opacity="0" result="BackgroundImageFix"/>
<feBlend mode="normal" in="SourceGraphic" in2="BackgroundImageFix" result="shape"/>
<feGaussianBlur stdDeviation="8" result="effect1_foregroundBlur"/>
</filter>
<linearGradient id="paint0_linear" x1="239.555" y1="168.956" x2="239.555" y2="550.137" gradientUnits="userSpaceOnUse">
<stop stop-color="white"/>
<stop offset="1"/>
</linearGradient>
<clipPath id="clip0">
<rect width="478" height="750" fill="white"/>
</clipPath>
</defs>
</svg>
