<svg width="100" height="100" viewBox="0 0 100 100" fill="none" xmlns="http://www.w3.org/2000/svg">
<path d="M93.0662 36.4256L90.4877 44.8631L61.7188 73.6328H38.2812L9.27754 44.6289L6.93359 36.4256L18.6523 24.7068C19.1797 24.1211 19.9414 23.8281 20.7031 23.8281H79.2969C80.0586 23.8281 80.8203 24.1211 81.3475 24.7068L93.0662 36.4256Z" fill="#FEDB41"/>
<path d="M93.0662 36.4256L90.4877 44.8631L61.7187 73.6328H50V23.8281H79.2969C80.0586 23.8281 80.8203 24.1211 81.3475 24.7068L93.0662 36.4256Z" fill="#FFCC33"/>
<path d="M79.2969 0H20.7031C19.0623 0 17.7734 1.28887 17.7734 2.92969V79.4922C17.7734 81.1326 19.0623 82.4219 20.7031 82.4219H79.2969C80.9377 82.4219 82.2266 81.1326 82.2266 79.4922V2.92969C82.2266 1.28887 80.9377 0 79.2969 0Z" fill="#CAE8F9"/>
<path d="M82.2266 2.92969V79.4922C82.2266 81.1326 80.9377 82.4219 79.2969 82.4219H50V0H79.2969C80.9377 0 82.2266 1.28887 82.2266 2.92969Z" fill="#B7E0F6"/>
<path d="M58.7891 32.6172C58.7891 27.7537 54.8637 23.8281 50 23.8281C45.1363 23.8281 41.2109 27.7537 41.2109 32.6172C41.2109 37.4803 45.1363 41.4062 50 41.4062C52.2852 41.4062 54.2771 40.5271 55.8594 39.1211C61.5428 44.2773 70.5078 40.1758 70.5078 32.6172C70.5078 21.3086 61.3082 12.1094 50 12.1094C38.6918 12.1094 29.4922 21.3086 29.4922 32.6172C29.4922 39.6484 33.0076 46.0938 38.9844 49.9023C42.3826 52.0703 46.1334 53.125 50 53.125C53.1643 53.125 56.3285 52.4219 59.3748 51.0156C60.8396 50.3121 61.4842 48.6131 60.7816 47.1482C60.1365 45.6248 58.3783 45.0389 56.9135 45.6834C54.6291 46.7381 52.2852 47.2656 50 47.2656C47.2463 47.2656 44.5512 46.5039 42.1479 44.9805C37.8707 42.2266 35.3516 37.6562 35.3516 32.6172C35.3516 24.5312 41.9141 17.9688 50 17.9688C58.0859 17.9688 64.6484 24.5312 64.6484 32.6172C64.6484 36.4842 58.7891 36.4842 58.7891 32.6172ZM52.8711 32.9688C52.6951 34.4336 51.4648 35.5469 50 35.5469C48.3592 35.5469 47.0703 34.2576 47.0703 32.6172C47.0703 30.9764 48.3592 29.6875 50 29.6875C51.5234 29.6875 52.7537 30.9178 52.8711 32.4412V32.9688Z" fill="#17ACE8"/>
<path d="M60.7818 47.1483C61.4842 48.6131 60.8398 50.3122 59.375 51.0157C56.3285 52.4219 53.1643 53.1251 50 53.1251V47.2657C52.2852 47.2657 54.6291 46.7381 56.9137 45.6835C58.3785 45.0391 60.1365 45.6249 60.7818 47.1483Z" fill="#1689FC"/>
<path d="M70.5078 32.6172C70.5078 40.1756 61.5428 44.2773 55.8594 39.1211C54.2771 40.5273 52.2852 41.4062 50 41.4062V35.5469C51.4648 35.5469 52.6951 34.4336 52.8711 32.9687V32.4412C52.7537 30.9178 51.5234 29.6875 50 29.6875V23.8281C54.8637 23.8281 58.7891 27.7537 58.7891 32.6172C58.7891 36.4842 64.6484 36.4842 64.6484 32.6172C64.6484 24.5312 58.0859 17.9687 50 17.9687V12.1094C61.3082 12.1094 70.5078 21.3086 70.5078 32.6172Z" fill="#1689FC"/>
<path d="M6.91309 36.4053C6.36367 36.9545 6.05469 37.6984 6.05469 38.4766V91.2109C6.05469 93.493 6.91367 95.6002 8.62383 97.4305L17.1783 94.7355L40.3869 71.5273L38.2813 67.7734L6.91309 36.4053Z" fill="#FEA832"/>
<path d="M93.9453 91.2109V38.4766C93.9453 37.6984 93.6363 36.9545 93.0869 36.4053L61.7187 67.7734L59.2037 71.1178L82.8244 94.7383L91.3762 97.4305C91.3976 97.4104 91.4234 97.4055 91.4449 97.385C93.0812 95.6541 93.9453 93.5197 93.9453 91.2109Z" fill="#FE9923"/>
<path d="M91.3676 97.4219C89.5508 99.1209 87.4414 100 85.1563 100H14.8438C12.5586 100 10.3906 99.1209 8.69122 97.4805C8.63263 97.4805 8.63263 97.4805 8.63263 97.4219L38.2813 67.7734H61.7188L91.3676 97.4219Z" fill="#FEDB41"/>
<path d="M91.3676 97.4219C89.5508 99.1209 87.4414 100 85.1562 100H50V67.7734H61.7187L91.3676 97.4219Z" fill="#FFCC33"/>
</svg>
