<svg width="100" height="100" viewBox="0 0 100 100" fill="none" xmlns="http://www.w3.org/2000/svg">
<g clip-path="url(#clip0)">
<path d="M38.6697 19.8634L26.2471 7.44109C22.9664 4.10164 17.107 4.10164 13.7674 7.44128L11.7748 9.49226C11.7039 9.56316 9.60762 11.6274 9.60762 11.7188C8.55255 12.8321 8.61055 14.6485 9.72423 15.7032L30.408 36.3866C31.4629 37.5596 33.4543 37.5589 34.51 36.3866L38.6697 32.2266C42.0121 28.9997 42.2158 23.2864 38.6697 19.8634Z" fill="#1689FC"/>
<path d="M92.5172 73.8239L80.0953 61.4021C76.8145 58.0626 71.0137 58.0626 67.732 61.4021L65.6814 63.5116L63.5721 65.5622C62.4004 66.6755 62.4004 68.5505 63.5721 69.6638L84.3145 90.4058C85.327 91.5331 87.2557 91.6237 88.4744 90.4058L90.4664 88.3552L92.517 86.2458C95.9746 82.8478 95.9746 77.2226 92.5172 73.8239Z" fill="#136EF1"/>
<path d="M90.4664 88.3555L88.4744 90.406C72.4785 104.82 53.7867 101.363 43.2402 90.7576L9.31424 56.7187C-3.04962 44.4139 -3.04962 24.3162 9.31424 11.9531C9.37284 11.9531 9.84139 11.4842 9.84139 11.426L11.7748 9.49219L36.5598 34.2771L35.3881 35.5078L34.5098 36.3865C32.6344 38.4375 31.1109 39.7264 31.1109 42.5975C31.1109 44.4139 31.8141 46.0547 33.0449 47.3435L42.8297 57.1289L52.6144 67.0271C55.1344 69.5467 59.5289 69.5467 62.0486 67.0271L63.5721 65.5623L65.6814 63.5117L90.4664 88.3555Z" fill="#17ACE8"/>
<path d="M99.9586 49.8047C99.9586 53.6717 94.0992 53.6717 94.0992 49.8047C94.0992 37.6758 89.1768 26.7188 81.2088 18.75C73.2395 10.7811 62.2832 5.85938 50.1539 5.85938C46.2873 5.85938 46.2873 0 50.1539 0C63.8654 0 76.3451 5.56641 85.3688 14.5898C94.3924 23.6133 99.9586 36.0936 99.9586 49.8047Z" fill="#1DE8F1"/>
<path d="M88.2398 49.8047C88.2398 53.6717 82.3805 53.6717 82.3805 49.8047C82.3805 40.8982 78.7477 32.8711 72.9469 27.0117C67.0875 21.2109 59.0602 17.5781 50.1539 17.5781C46.2873 17.5781 46.2873 11.7188 50.1539 11.7188C60.6424 11.7188 70.1926 15.9959 77.049 22.91C83.9627 29.7654 88.2398 39.3162 88.2398 49.8047Z" fill="#1DE8F1"/>
<path d="M76.5211 49.8047C76.5211 53.6717 70.6617 53.6717 70.6617 49.8047C70.6617 44.1795 68.3766 39.0232 64.6264 35.3318C60.9357 31.582 55.7787 29.2969 50.1539 29.2969C46.2873 29.2969 46.2873 23.4375 50.1539 23.4375C57.4195 23.4375 63.982 26.3672 68.7863 31.1719C73.5914 35.9766 76.5211 42.5391 76.5211 49.8047Z" fill="#1DE8F1"/>
<path d="M64.8023 49.8047C64.8023 53.6717 58.943 53.6717 58.943 49.8047C58.943 47.3436 57.9473 45.1756 56.3652 43.5937C54.783 42.0115 52.6145 41.0156 50.1539 41.0156C46.2873 41.0156 46.2873 35.1562 50.1539 35.1562C54.1965 35.1562 57.8887 36.7967 60.5252 39.4334C63.1617 42.0701 64.8023 45.7617 64.8023 49.8047Z" fill="#1DE8F1"/>
<path d="M58.943 49.8049C58.943 47.3438 57.9473 45.1758 56.3652 43.5939L60.5252 39.4336C63.1617 42.0703 64.8023 45.7619 64.8023 49.8049C64.8023 53.6719 58.943 53.6719 58.943 49.8049Z" fill="#1BD9DE"/>
<path d="M70.6617 49.8047C70.6617 44.1795 68.3765 39.0232 64.6264 35.3318L68.7863 31.1719C73.5914 35.9766 76.5211 42.5391 76.5211 49.8047C76.5211 53.6717 70.6617 53.6717 70.6617 49.8047Z" fill="#1BD9DE"/>
<path d="M82.3804 49.8047C82.3804 40.8982 78.7476 32.8711 72.9469 27.0117L77.0488 22.9102C83.9625 29.7654 88.2396 39.3164 88.2396 49.8049C88.2398 53.6717 82.3804 53.6717 82.3804 49.8047Z" fill="#1BD9DE"/>
<path d="M65.6815 63.5115L90.4664 88.3553L88.4744 90.4059C72.4785 104.82 53.7867 101.363 43.2402 90.7574L26.3059 73.7105C26.3059 73.6523 26.3059 73.6523 26.3059 73.6523L42.8297 57.1289L52.6145 67.0271C55.1344 69.5467 59.5289 69.5467 62.0486 67.0271L63.5721 65.5623L65.6815 63.5115Z" fill="#1689FC"/>
<path d="M99.9586 49.8047C99.9586 53.6717 94.0992 53.6717 94.0992 49.8047C94.0992 37.6758 89.1768 26.7187 81.2088 18.75L85.3689 14.5898C94.3926 23.6131 99.9586 36.0936 99.9586 49.8047Z" fill="#1BD9DE"/>
</g>
<defs>
<clipPath id="clip0">
<rect width="100" height="100" fill="white"/>
</clipPath>
</defs>
</svg>
