<?xml version="1.0" encoding="utf-8"?>
<!-- Generator: Adobe Illustrator 25.0.0, SVG Export Plug-In . SVG Version: 6.00 Build 0)  -->
<svg version="1.1" id="Warstwa_1" xmlns="http://www.w3.org/2000/svg" xmlns:xlink="http://www.w3.org/1999/xlink" x="0px" y="0px"
	 viewBox="0 0 1280 1024" style="enable-background:new 0 0 1280 1024;" xml:space="preserve">
<style type="text/css">
	.st0{fill:none;}
	.st1{fill:#00131A;}
	.st2{fill:none;}
	.st3{fill:#242622;}
	.st4{fill:#4AA87D;}
	.st5{fill:#06A106;}
	.st6{fill:#8CFF30;}
	.st7{fill:#72CF3A;}
	.st8{fill:#75D43B;}
	.st9{fill:#5EA886;}
	.st10{fill:#115500;}
	.st11{fill:#388762;}
	.st12{fill:#4BA318;}
	.st13{fill:#377812;}
	.st14{fill:#5AC41D;}
	.st15{fill:#7FE640;}
	.st16{fill:#649C83;}
	.st17{fill:#6CA88D;}
	.st18{fill:#8BC9BB;}
	.st19{fill:#3B9C70;}
	.st20{fill:#3D946B;}
	.st21{fill:#60CF1E;}
	.st22{display:none;}
	.st23{display:inline;opacity:0.4;fill:#392D54;enable-background:new    ;}
	.st24{opacity:0.15;fill:url(#SVGID_1_);enable-background:new    ;}
	.st25{opacity:0.5;fill:url(#SVGID_2_);enable-background:new    ;}
	.st26{fill:url(#SVGID_3_);}
	.st27{opacity:0.85;fill:#05002A;enable-background:new    ;}
	.st28{fill:#C8C8C8;}
	.st29{fill:#969696;}
	.st30{fill:#B4B4B4;}
	.st31{fill:#B4B4B4;stroke:#C8C8C8;stroke-width:0.7214;stroke-miterlimit:10;}
	.st32{fill:#BEBEBE;}
	.st33{fill:#BEBEB4;}
	.st34{opacity:0.72;fill:#E6E6E6;enable-background:new    ;}
	.st35{opacity:0.63;fill:#E6E6E6;enable-background:new    ;}
	.st36{fill:#E6E6E6;}
	.st37{opacity:0.07;fill:#004CAE;enable-background:new    ;}
	.st38{opacity:0.15;}
	.st39{fill:#335697;}
</style>
<g id="Bakground">
	<rect class="st0" width="1280" height="1024"/>
</g>
<g id="sky_background">
	<rect x="481.15" y="275.13" class="st1" width="318" height="257.72"/>
</g>
<g id="view">
	<g>
		<polygon class="st2" points="799.02,679.17 799.02,720.85 799.02,748.49 799.15,748.49 799.15,721.14 799.15,666.67
			799.15,643.07 799.02,643.08 799.02,666.38 		"/>
		<path class="st3" d="M799.02,570.7L799.02,570.7L799.02,570.7z"/>
		<path class="st3" d="M757.36,570.55c0.39-0.04,0.79-0.08,1.18-0.12C758.15,570.47,757.75,570.51,757.36,570.55z"/>
		<path class="st3" d="M752.91,571.02c0.45-0.05,0.9-0.1,1.35-0.15C753.8,570.92,753.35,570.97,752.91,571.02z"/>
		<path class="st3" d="M799.02,570.7c-1.23-0.17-2.46-0.32-3.69-0.46C796.56,570.37,797.79,570.52,799.02,570.7z"/>
		<path class="st3" d="M762.01,570.12c0.27-0.02,0.55-0.05,0.82-0.07C762.55,570.07,762.28,570.1,762.01,570.12z"/>
		<path class="st3" d="M739.97,572.71c0.4-0.06,0.8-0.11,1.2-0.17C740.77,572.6,740.37,572.65,739.97,572.71z"/>
		<path class="st3" d="M744.24,572.11c0.46-0.06,0.93-0.12,1.39-0.19C745.16,571.99,744.7,572.05,744.24,572.11z"/>
		<path class="st3" d="M748.54,571.55c0.47-0.06,0.94-0.12,1.41-0.17C749.48,571.43,749.01,571.49,748.54,571.55z"/>
		<path class="st3" d="M786.29,569.55c-0.68-0.03-1.35-0.06-2.03-0.08C784.94,569.49,785.61,569.51,786.29,569.55z"/>
		<path class="st3" d="M563.71,633.65c-1.65,0.38-3.29,0.78-4.93,1.19C560.42,634.43,562.06,634.02,563.71,633.65z"/>
		<path class="st3" d="M550.08,637.19c-0.04,0.01-0.09,0.03-0.13,0.04C549.99,637.22,550.04,637.2,550.08,637.19z"/>
		<path class="st3" d="M778.51,569.38c-0.52,0-1.05,0.01-1.57,0.02c0.61-0.01,1.23-0.02,1.84-0.02
			C778.69,569.38,778.6,569.37,778.51,569.38z"/>
		<path class="st3" d="M530.8,643.49c-0.09,0.03-0.17,0.06-0.26,0.09C530.63,643.55,530.72,643.52,530.8,643.49z"/>
		<path class="st3" d="M794.07,570.11c-0.81-0.08-1.62-0.16-2.43-0.23C792.45,569.95,793.26,570.03,794.07,570.11z"/>
		<path class="st3" d="M790.11,569.77c-0.72-0.05-1.44-0.1-2.16-0.14C788.67,569.67,789.39,569.72,790.11,569.77z"/>
		<path class="st3" d="M554.38,635.99c0.39-0.11,0.78-0.21,1.17-0.31c-0.19,0.05-0.39,0.1-0.58,0.15
			C554.77,635.88,554.57,635.94,554.38,635.99z"/>
		<path class="st3" d="M782.53,569.42c-0.65-0.01-1.29-0.02-1.94-0.03C781.23,569.4,781.88,569.4,782.53,569.42z"/>
		<path class="st4" d="M794.07,570.11L794.07,570.11c-0.81-0.08-1.62-0.16-2.43-0.23l0,0C792.45,569.95,793.26,570.03,794.07,570.11
			z"/>
		<path class="st4" d="M790.11,569.77L790.11,569.77c-0.72-0.05-1.44-0.1-2.16-0.14l0,0C788.67,569.67,789.39,569.72,790.11,569.77z
			"/>
		<path class="st4" d="M786.29,569.55L786.29,569.55c-0.68-0.03-1.35-0.06-2.03-0.08l0,0C784.94,569.49,785.61,569.51,786.29,569.55
			z"/>
		<path class="st4" d="M799.02,570.7L799.02,570.7L799.02,570.7c-1.23-0.17-2.46-0.32-3.69-0.46l0,0
			C796.56,570.37,797.79,570.52,799.02,570.7z"/>
		<path class="st4" d="M778.78,569.38c-0.09,0-0.18,0-0.27,0C778.6,569.37,778.69,569.38,778.78,569.38L778.78,569.38z"/>
		<path class="st4" d="M782.53,569.42L782.53,569.42c-0.65-0.01-1.29-0.02-1.94-0.03l0,0C781.23,569.4,781.88,569.4,782.53,569.42z"
			/>
		<path class="st4" d="M688.26,567.94c0.72,0.24,1.46,0.49,2.21,0.74h-0.01C689.72,568.43,688.98,568.18,688.26,567.94z"/>
		<path class="st4" d="M498.29,615.55L498.29,615.55c0.16,0.04,0.33,0.07,0.5,0.11l0,0C498.62,615.62,498.45,615.59,498.29,615.55z"
			/>
		<path class="st4" d="M539.79,628.76c-0.41-0.17-0.82-0.35-1.23-0.52C538.97,628.42,539.38,628.59,539.79,628.76z"/>
		<path class="st4" d="M485.47,612.94c-1.45-0.26-2.89-0.5-4.31-0.72C482.58,612.45,484.02,612.69,485.47,612.94z"/>
		<path class="st4" d="M535.2,626.9c-0.28-0.11-0.56-0.22-0.84-0.33C534.64,626.68,534.92,626.79,535.2,626.9z"/>
		<path class="st4" d="M544.4,630.75c-0.56-0.25-1.11-0.5-1.67-0.74C543.29,630.26,543.84,630.51,544.4,630.75z"/>
		<path class="st4" d="M489.71,613.73c-0.29-0.06-0.57-0.11-0.86-0.16C489.14,613.62,489.42,613.67,489.71,613.73z"/>
		<path class="st4" d="M526.11,623.54c-0.07-0.02-0.14-0.05-0.21-0.07C525.97,623.49,526.04,623.52,526.11,623.54z"/>
		<path class="st4" d="M530.64,625.17c-0.17-0.06-0.33-0.12-0.5-0.18C530.31,625.04,530.47,625.11,530.64,625.17z"/>
		<path class="st4" d="M549.14,632.94c-0.76-0.36-1.51-0.72-2.28-1.08C547.63,632.22,548.38,632.58,549.14,632.94z"/>
		<path class="st4" d="M520.76,621.75c0.29,0.09,0.57,0.19,0.86,0.28l0,0C521.33,621.93,521.05,621.84,520.76,621.75z"/>
		<path class="st4" d="M554.96,635.83c-1.32-0.69-2.66-1.36-4.02-2.03C552.3,634.47,553.64,635.14,554.96,635.83z"/>
		<path class="st4" d="M710.73,577.46c3.59-0.64,7.18-1.26,10.77-1.86C717.91,576.2,714.32,576.82,710.73,577.46z"/>
		<path class="st4" d="M735.27,557.21c-4.32-1.4-8.66-2.77-13.01-4.13l0,0C726.61,554.43,730.95,555.81,735.27,557.21z"/>
		<path class="st4" d="M704.79,560.27c-0.71,0.38-1.42,0.76-2.12,1.15C703.37,561.03,704.08,560.66,704.79,560.27z"/>
		<path class="st4" d="M696.79,564.86c-2.1,1.26-4.2,2.54-6.33,3.82C692.59,567.39,694.69,566.12,696.79,564.86z"/>
		<path class="st4" d="M694.39,570.04c0.19,0.07,0.38,0.14,0.57,0.2C694.77,570.18,694.58,570.11,694.39,570.04z"/>
		<path class="st4" d="M700.77,562.52c-0.73,0.42-1.46,0.83-2.18,1.26C699.31,563.35,700.04,562.94,700.77,562.52z"/>
		<path class="st4" d="M691.69,569.1c0.36,0.12,0.72,0.25,1.09,0.37C692.41,569.34,692.05,569.22,691.69,569.1z"/>
		<path class="st5" d="M481.15,664.39c0,28.03,0,56.07,0,84.1c0-17.86,0-35.73,0-53.59C481.15,684.73,481.15,674.56,481.15,664.39z"
			/>
		<path class="st5" d="M481.26,694.94c2.12,0.59,4.24,1.14,6.36,1.67C485.5,696.08,483.38,695.52,481.26,694.94z"/>
		<path class="st6" d="M614.21,619.94c0.03-0.03,0.07-0.06,0.11-0.09C614.28,619.88,614.24,619.91,614.21,619.94z"/>
		<path class="st6" d="M612.91,621.49c0.02-0.04,0.05-0.08,0.07-0.11C612.96,621.42,612.93,621.46,612.91,621.49z"/>
		<path class="st6" d="M612.43,622.31c0.02-0.04,0.04-0.07,0.06-0.11C612.47,622.24,612.45,622.27,612.43,622.31z"/>
		<path class="st6" d="M614.94,619.36c0.08-0.06,0.17-0.11,0.25-0.17C615.11,619.25,615.02,619.3,614.94,619.36z"/>
		<path class="st6" d="M597.99,619.82c-0.04-0.05-0.08-0.09-0.12-0.14C597.92,619.73,597.96,619.77,597.99,619.82z"/>
		<path class="st6" d="M594.82,616.53c-0.06-0.05-0.12-0.1-0.19-0.16C594.7,616.42,594.76,616.47,594.82,616.53z"/>
		<path class="st6" d="M597.04,618.73c-0.06-0.07-0.12-0.14-0.19-0.2C596.91,618.59,596.97,618.66,597.04,618.73z"/>
		<path class="st6" d="M593.79,615.67c-0.11-0.09-0.22-0.17-0.33-0.25C593.57,615.5,593.68,615.58,593.79,615.67z"/>
		<path class="st6" d="M592.69,614.85c-0.11-0.07-0.21-0.15-0.32-0.22C592.48,614.7,592.58,614.78,592.69,614.85z"/>
		<path class="st6" d="M595.85,617.49c0.03,0.03,0.06,0.06,0.08,0.09C595.91,617.55,595.88,617.52,595.85,617.49z"/>
		<path class="st6" d="M612.03,623.14L612.03,623.14L612.03,623.14z"/>
		<path class="st6" d="M616.8,618.39c0.11-0.04,0.21-0.08,0.32-0.12C617.01,618.3,616.91,618.35,616.8,618.39z"/>
		<path class="st6" d="M615.79,618.84c0.1-0.05,0.21-0.11,0.31-0.16C616,618.73,615.9,618.78,615.79,618.84z"/>
		<path class="st2" d="M477.26,638.94c1.3-0.52,2.59-0.93,3.89-1.26"/>
		<path class="st2" d="M475.26,579.94c2-1.5,3.96-3.22,5.89-5.07"/>
		<path class="st7" d="M516.33,649.04c-10.18-8.7-22.57-14.5-35.18-11.35c0,8.21,0,16.43,0,24.64c0,0.69,0,1.38,0,2.06
			C492.78,659.09,504.48,653.83,516.33,649.04z"/>
		<path class="st8" d="M516.33,649.04L516.33,649.04c4.71-1.9,9.45-3.72,14.22-5.45c0.09-0.03,0.17-0.06,0.26-0.09
			c6.33-2.29,12.7-4.4,19.15-6.26c0.04-0.01,0.09-0.03,0.13-0.04c1.43-0.41,2.86-0.81,4.29-1.2c0.19-0.05,0.39-0.11,0.58-0.16
			c-1.32-0.69-2.66-1.36-4.02-2.03c-0.6-0.29-1.2-0.57-1.81-0.86c-0.76-0.36-1.51-0.72-2.28-1.08c-0.81-0.38-1.64-0.74-2.46-1.11
			c-0.56-0.25-1.11-0.5-1.67-0.74c-0.97-0.42-1.96-0.84-2.94-1.25c-0.41-0.17-0.82-0.35-1.23-0.52c-1.11-0.46-2.23-0.9-3.36-1.34
			c-0.28-0.11-0.56-0.22-0.84-0.33c-1.23-0.48-2.47-0.95-3.72-1.41c-0.17-0.06-0.33-0.12-0.5-0.18c-1.34-0.49-2.68-0.97-4.03-1.44
			c-0.07-0.02-0.14-0.05-0.21-0.07c-1.42-0.49-2.85-0.97-4.28-1.44c-0.29-0.09-0.57-0.19-0.86-0.28c-0.19-0.06-0.37-0.12-0.56-0.18
			c-7.1-2.28-14.3-4.26-21.42-5.91c-0.17-0.04-0.33-0.07-0.5-0.11c-2.88-0.66-5.74-1.27-8.58-1.82c-0.29-0.06-0.57-0.11-0.86-0.16
			c-1.13-0.22-2.26-0.43-3.39-0.63c-1.45-0.25-2.89-0.5-4.31-0.72c0,8.49,0,16.98,0,25.46
			C493.76,634.54,506.15,640.33,516.33,649.04z"/>
		<path class="st9" d="M721.6,552.97c-0.12,0.04-0.24,0.08-0.36,0.12l0,0C721.36,553.06,721.48,553.01,721.6,552.97z"/>
		<path class="st9" d="M722.26,553.08c-0.17-0.05-0.33-0.11-0.5-0.16h0.01C721.94,552.97,722.1,553.02,722.26,553.08L722.26,553.08z
			"/>
		<path class="st10" d="M782.26,564.94c-3,0-5-2-7-3c-4.97,0-8.95,2.96-13.9,3.98c-0.03,0.01-0.06,0.02-0.1,0.02
			c0-0.02,0-0.04,0-0.06c-4.17-1.44-8.37-2.87-12.58-4.28c-3.67,2.63-7.11,5.87-11.42,5.33c-4,0-9-1-13,0
			c-0.75,0.5-1.51,1.26-2.3,2.06c-2.34,2.39-4.96,5.18-8.7,2.94c-1,0,1-4,0-5c-5.71-3.57-10.91,0-14.15,4.88l0,0
			c-1.3,1.96-2.28,4.12-2.85,6.12c0-3-1-6-3-6c-8-1-14,15-23,6c-6,8-14,6-23,6c-4,0-7,6-9,6c-11,0-20,5-30,11c-1,0-2-3-3-3s-2,3-2,4
			c-1,1-4,0-5-2c-3,3-5,3-9,4c-1,0-2,6-4,6c-3,2-7-5-10,1c-1.84,3.67-2.81,8.19-2.18,12.77c1.73-1.55,3.52-3.04,5.36-4.45
			c-2.64,3.64-4.67,8.32-5.64,12.52c1.65-0.3,3.3-0.59,4.97-0.86c8.39-1.32,17.15-2.08,26.06-2.48c-1.74-3.07-3.67-6.05-5.83-8.62
			c-0.04-0.05-0.08-0.09-0.12-0.14c-0.28-0.33-0.56-0.64-0.84-0.96c-0.06-0.07-0.12-0.14-0.19-0.2c-0.3-0.32-0.6-0.64-0.91-0.94
			c-0.03-0.03-0.06-0.06-0.08-0.09c-0.34-0.33-0.68-0.66-1.03-0.97c-0.06-0.05-0.12-0.1-0.19-0.16c-0.28-0.24-0.56-0.47-0.84-0.7
			c-0.11-0.09-0.22-0.17-0.33-0.25c-0.26-0.2-0.51-0.38-0.78-0.56c-0.11-0.07-0.21-0.15-0.32-0.22c-0.36-0.24-0.73-0.47-1.11-0.69
			c-1.23-0.68-2.45-0.96-3.66-0.93c3.13-1.9,6.35-3.64,9.62-5.24c13.54-6.59,28.08-10.82,42.64-14.65
			c23.4-6.16,47.05-11.39,70.87-15.66c3.59-0.64,7.18-1.26,10.77-1.86c4.75-0.79,9.5-1.56,14.25-2.28c1.4-0.21,2.81-0.42,4.21-0.62
			c0.4-0.06,0.8-0.11,1.2-0.17c1.02-0.15,2.04-0.29,3.06-0.43c0.46-0.06,0.93-0.12,1.39-0.19c0.97-0.13,1.94-0.26,2.92-0.38
			c0.47-0.06,0.94-0.12,1.41-0.17c0.98-0.12,1.97-0.24,2.95-0.35c0.45-0.05,0.9-0.1,1.35-0.15c1.03-0.11,2.07-0.22,3.1-0.32
			c0.39-0.04,0.79-0.08,1.18-0.12c1.15-0.11,2.31-0.21,3.46-0.31c0.27-0.02,0.55-0.05,0.82-0.07c4.71-0.37,9.41-0.6,14.12-0.66
			c0.52-0.01,1.05-0.02,1.57-0.02c0.09,0,0.18,0,0.27,0c0.6,0,1.2,0.01,1.8,0.01c0.65,0.01,1.29,0.01,1.94,0.03
			c0.58,0.01,1.16,0.03,1.74,0.05c0.68,0.02,1.35,0.05,2.03,0.08c0.55,0.03,1.11,0.05,1.66,0.08c0.72,0.04,1.44,0.09,2.16,0.14
			c0.51,0.04,1.02,0.07,1.53,0.11c0.81,0.07,1.62,0.15,2.43,0.23c0.42,0.04,0.84,0.08,1.26,0.13c1.23,0.14,2.46,0.29,3.69,0.46l0,0
			v-0.44v-1.52C793.41,566.96,788.43,564.17,782.26,564.94z"/>
		<path class="st11" d="M489.26,599.94c3.08,0.77,5.41,2.73,6.94,5.3c2.3-1.18,6.06-0.3,8.06-0.3c1,0.33,1.66,1.22,2.18,2.25
			c2.37-1.02,5.04-0.99,7.82,0.75c1.98,1.19,3.32,3,4.23,5.13c3,0.93,5.51,2.54,7.41,5.17c1.03-0.45,2.14-0.6,3.35-0.3c3,1,4,5,6,4
			c9-2,18,1,19,10c3.93-2.95,7.86-5.88,12.73-2.19c1.91-2.12,3.95-4.13,6.08-6.04c-0.62-4.58,0.35-9.1,2.18-12.77c3-6,7,1,10-1
			c2,0,3-6,4-6c4-1,6-1,9-4c1,2,4,3,5,2c0-1,1-4,2-4s2,3,3,3c10-6,19-11,30-11c2,0,5-6,9-6c9,0,17,2,23-6c9,9,15-7,23-6c2,0,3,3,3,6
			c0.57-2,1.55-4.17,2.85-6.12l0,0c-1.4-0.56-2.79-1.08-4.16-1.57c-0.19-0.07-0.38-0.14-0.57-0.2c-0.54-0.19-1.08-0.39-1.62-0.57
			c-0.37-0.13-0.73-0.25-1.09-0.37c-0.4-0.14-0.81-0.28-1.21-0.41c-0.75-0.25-1.5-0.5-2.21-0.74c-12-4-29-1-43-8c-4-2-10,2-15,2
			c-14,2-28,2-42-5c-8.87-3.94-14.83,7.65-23.61,8.94c0.2,0.02,0.41,0.04,0.61,0.06h-1c0.13-0.01,0.26-0.04,0.39-0.06
			c-13.71-1.27-24.58-12-37.39-15.94c-20.12-7-32.59,12.03-46.11,24.93c0,9.15,0,18.3,0,27.45
			C483.48,600.5,486.37,599.53,489.26,599.94z"/>
		<path class="st10" d="M485.47,612.94c1.12,0.2,2.25,0.41,3.39,0.63c0.29,0.05,0.57,0.1,0.86,0.16c2.83,0.55,5.7,1.16,8.58,1.82
			l0,0c0.17,0.04,0.33,0.07,0.5,0.11l0,0c7.12,1.65,14.32,3.63,21.42,5.91c0.19,0.06,0.37,0.12,0.56,0.18
			c0.28,0.09,0.57,0.19,0.85,0.28l0,0c1.43,0.47,2.86,0.95,4.28,1.44c0.07,0.02,0.14,0.05,0.21,0.07c1.35,0.47,2.7,0.95,4.03,1.44
			c0.17,0.06,0.33,0.12,0.5,0.18c1.25,0.46,2.49,0.93,3.72,1.41c0.28,0.11,0.56,0.22,0.84,0.33c1.13,0.44,2.25,0.89,3.36,1.34
			c0.41,0.17,0.82,0.34,1.23,0.52c0.99,0.41,1.97,0.82,2.94,1.25c0.56,0.24,1.11,0.49,1.67,0.74c0.82,0.37,1.65,0.73,2.46,1.11
			c0.77,0.35,1.52,0.72,2.28,1.08c0.6,0.29,1.21,0.57,1.81,0.86c1.36,0.67,2.7,1.34,4.02,2.03c0.19-0.05,0.39-0.1,0.58-0.15
			c1.08-0.29,2.15-0.57,3.23-0.84c1.64-0.42,3.28-0.82,4.93-1.19c1.05-1.34,2.15-2.64,3.29-3.9c-4.88-3.68-8.81-0.75-12.73,2.19
			c-1-9-10-12-19-10c-2,1-3-3-6-4c-1.21-0.3-2.33-0.15-3.35,0.3c-1.9-2.63-4.41-4.25-7.41-5.17c-0.91-2.13-2.26-3.94-4.23-5.13
			c-2.79-1.74-5.45-1.77-7.82-0.75c-0.52-1.03-1.18-1.92-2.18-2.25c-2,0-5.76-0.87-8.06,0.3c-1.54-2.57-3.86-4.53-6.94-5.3
			c-2.89-0.41-5.78,0.56-8.11,2.38c0,3.3,0,6.6,0,9.9C482.58,612.45,484.02,612.69,485.47,612.94z"/>
		<path class="st4" d="M565.26,565.94c-0.21-0.01-0.41-0.04-0.61-0.06c-0.13,0.02-0.26,0.04-0.39,0.06H565.26z"/>
		<path class="st12" d="M532.03,748.49c2.28-0.99,4.71-1.55,7.23-1.55c71-6,141,1,213-18c15.33-4.09,30.91-6.6,46.76-8.09v-41.68
			c-47.44,26.07-100.61,21.63-153.76,25.77c-50.97,3.97-104.97,4.96-157.64-8.33c-2.12-0.53-4.24-1.08-6.36-1.67
			c-0.04-0.01-0.07-0.03-0.11-0.04c0,17.86,0,35.73,0,53.59L532.03,748.49L532.03,748.49z"/>
		<path class="st13" d="M752.26,728.94c-72,19-142,12-213,18c-2.52,0-4.95,0.57-7.23,1.55h266.99v-27.64
			C783.18,722.34,767.59,724.86,752.26,728.94z"/>
		<path class="st14" d="M481.26,694.94c2.12,0.58,4.24,1.13,6.36,1.67c52.68,13.29,106.67,12.3,157.64,8.33
			c53.15-4.14,106.32,0.3,153.76-25.77v-12.79c-43.19-29.74-102.06-36.35-154.48-37.94c-9.31-0.28-18.82-0.47-28.28-0.35
			c-1.93,0.02-3.85,0.06-5.77,0.11c-2.23,0.06-4.45,0.14-6.66,0.24c-8.9,0.41-17.66,1.16-26.06,2.48c-1.66,0.26-3.31,0.55-4.97,0.86
			c-3.05,0.56-6.08,1.18-9.09,1.87c-1.65,0.38-3.29,0.78-4.93,1.19c-1.08,0.27-2.16,0.55-3.23,0.84c-0.39,0.1-0.78,0.21-1.17,0.31
			c-1.43,0.39-2.87,0.78-4.29,1.2c-0.04,0.01-0.09,0.03-0.13,0.04c-6.44,1.87-12.82,3.97-19.15,6.26c-0.09,0.03-0.17,0.06-0.26,0.09
			c-4.77,1.73-9.51,3.55-14.22,5.45l0,0c-11.85,4.79-23.55,10.06-35.18,15.36c0,10.17,0,20.34,0,30.51
			C481.19,694.91,481.22,694.93,481.26,694.94z M618.43,704.96c-31.95-6.88-118.91-44.1-118.1-47.85c0.47-2.19,9.73-2.23,23.72-0.52
			c9.96,1.22,22.31,3.33,35.6,6.19c31.95,6.88,61.89,15.28,61.08,19.03C619.92,685.56,650.39,711.84,618.43,704.96z M669.36,649.75
			c69.96,12.23,83.49,20.87,64.16,29.87c-14.48,6.74-29.56,9.35-56.62,1.13c-27.73-8.42-87.41-32.99-86.04-38
			S640.81,644.75,669.36,649.75z"/>
		<path class="st7" d="M724.09,620.1c0.65,2.89,1.42,5.73,3.17,7.84c2,4,5-4,9-3c2,1,1,6,3,6c6,3,10,5,16,7c2,1,7-1,11,1
			c3,3,5,11,7,9c6.65-8.87,16.59-7.36,25.76-5.16v-12.93C774.1,624.41,749.15,621.19,724.09,620.1L724.09,620.1z"/>
		<path class="st10" d="M773.26,647.94c-2,2-4-6-7-9c-4-2-9,0-11-1c-6-2-10-4-16-7c-2,0-1-5-3-6c-4-1-7,7-9,3
			c-1.75-2.11-2.52-4.95-3.17-7.84l0,0c-1.2-5.35-1.99-10.86-7.83-12.16c-11.79-3.14-21.72,2.98-28.35,12.05l0,0
			c-1.8,2.47-3.36,5.16-4.65,7.95c-3-3-7-1-9-3c-3.28-2.3-5.91-3.3-8.32-3.61c-2.72,0.23-5.44,0.48-8.16,0.76
			c-2.19,0.43-4.6,0.85-7.52,0.85c-0.31,0.15-0.59,0.16-0.86,0.07h0.01c-1.48-0.46-2.46-3.92-4.15-3.07c-6,0-7-1-12,0c-3,0-7,5-11,2
			c-1,0-4-1-4-4c-0.4,0.09-0.78,0.2-1.14,0.32c-0.11,0.04-0.21,0.08-0.32,0.12c-0.24,0.09-0.48,0.19-0.7,0.29
			c-0.11,0.05-0.21,0.11-0.31,0.16c-0.21,0.11-0.41,0.23-0.6,0.35c-0.08,0.05-0.17,0.11-0.25,0.17c-0.22,0.16-0.43,0.32-0.63,0.5
			c-0.03,0.03-0.07,0.06-0.11,0.09c-0.47,0.43-0.88,0.92-1.23,1.44c-0.03,0.04-0.05,0.08-0.07,0.11c-0.15,0.23-0.29,0.47-0.42,0.71
			c-0.02,0.04-0.04,0.07-0.06,0.11c-0.14,0.27-0.27,0.55-0.4,0.83l0,0c-0.67,1.57-1.09,3.32-1.55,5.05
			c1.92-0.05,3.85-0.09,5.77-0.11c9.46-0.12,18.97,0.07,28.28,0.35c52.42,1.59,111.29,8.2,154.48,37.94v-23.3v-0.3
			C789.85,640.59,779.92,639.07,773.26,647.94z"/>
		<path class="st7" d="M650.26,622.94c2.92,0,5.32-0.43,7.52-0.85l0,0c-2.79,0.28-5.57,0.59-8.36,0.92h-0.01
			C649.67,623.1,649.95,623.1,650.26,622.94z"/>
		<path class="st7" d="M683.26,627.94c1.28-2.78,2.84-5.47,4.65-7.95c-7.31,0.27-14.63,0.72-21.97,1.34l0,0
			c2.41,0.31,5.05,1.31,8.32,3.61C676.26,626.94,680.26,624.94,683.26,627.94z"/>
		<path class="st15" d="M799.02,570.7c-1.23-0.17-2.46-0.32-3.69-0.46l0,0c-0.42-0.05-0.84-0.08-1.26-0.13l0,0
			c-0.81-0.08-1.62-0.16-2.43-0.23l0,0c-0.51-0.04-1.02-0.08-1.53-0.11l0,0c-0.72-0.05-1.44-0.1-2.16-0.14l0,0
			c-0.55-0.03-1.11-0.06-1.66-0.08l0,0c-0.68-0.03-1.35-0.06-2.03-0.08l0,0c-0.58-0.02-1.16-0.04-1.74-0.05l0,0
			c-0.65-0.01-1.29-0.02-1.94-0.03l0,0c-0.6-0.01-1.2-0.01-1.8-0.01l0,0c-0.61,0-1.23,0.01-1.84,0.02
			c-4.7,0.05-9.41,0.28-14.12,0.66c-0.27,0.02-0.55,0.05-0.82,0.07c-1.16,0.1-2.31,0.2-3.46,0.31c-0.39,0.04-0.79,0.08-1.18,0.12
			c-1.04,0.1-2.07,0.21-3.1,0.32c-0.45,0.05-0.9,0.1-1.35,0.15c-0.98,0.11-1.97,0.23-2.95,0.35c-0.47,0.06-0.94,0.11-1.41,0.17
			c-0.97,0.12-1.95,0.25-2.92,0.38c-0.46,0.06-0.93,0.12-1.39,0.19c-1.02,0.14-2.04,0.28-3.06,0.43c-0.4,0.06-0.8,0.11-1.2,0.17
			c-1.4,0.2-2.81,0.41-4.21,0.62c-4.76,0.72-9.51,1.48-14.25,2.28c-3.59,0.6-7.19,1.21-10.77,1.86
			c-23.82,4.27-47.47,9.49-70.87,15.66c-14.56,3.84-29.1,8.07-42.64,14.65c-3.28,1.6-6.5,3.34-9.62,5.24
			c1.21-0.03,2.43,0.25,3.66,0.93c0.37,0.21,0.74,0.45,1.11,0.69c0.11,0.07,0.21,0.15,0.32,0.22c0.26,0.18,0.52,0.37,0.78,0.56
			c0.11,0.08,0.22,0.17,0.33,0.25c0.28,0.23,0.57,0.46,0.84,0.7c0.06,0.05,0.12,0.1,0.19,0.16c0.35,0.31,0.7,0.63,1.03,0.97
			c0.03,0.03,0.06,0.06,0.08,0.09c0.31,0.31,0.61,0.62,0.91,0.94c0.06,0.07,0.12,0.14,0.19,0.2c0.28,0.31,0.56,0.63,0.84,0.96
			c0.04,0.05,0.08,0.09,0.12,0.14c2.16,2.57,4.08,5.55,5.83,8.62c2.21-0.1,4.44-0.18,6.66-0.24c0.46-1.73,0.87-3.48,1.55-5.05l0,0
			l0,0c0.12-0.28,0.26-0.56,0.4-0.83c0.02-0.04,0.04-0.07,0.06-0.11c0.13-0.24,0.27-0.48,0.42-0.71c0.02-0.04,0.05-0.08,0.07-0.11
			c0.35-0.52,0.75-1,1.23-1.44c0.03-0.03,0.07-0.06,0.11-0.09c0.2-0.17,0.4-0.34,0.63-0.5c0.08-0.06,0.17-0.11,0.25-0.17
			c0.19-0.12,0.39-0.24,0.6-0.35c0.1-0.05,0.21-0.11,0.31-0.16c0.22-0.11,0.45-0.2,0.7-0.29c0.11-0.04,0.21-0.08,0.32-0.12
			c0.36-0.12,0.73-0.23,1.14-0.32c0,3,3,4,4,4c4,3,8-2,11-2c5-1,6,0,12,0c1.7-0.85,2.67,2.61,4.15,3.07
			c2.79-0.33,5.58-0.64,8.36-0.92l0,0c2.72-0.28,5.44-0.53,8.16-0.76l0,0c7.34-0.62,14.66-1.06,21.97-1.34l0,0
			c6.63-9.08,16.56-15.2,28.35-12.05c5.84,1.3,6.63,6.81,7.83,12.16c25.06,1.09,50.01,4.31,74.93,9.75v-11.2L799.02,570.7
			L799.02,570.7L799.02,570.7z"/>
		<path class="st15" d="M578.44,619.26c-1.85,1.42-3.64,2.9-5.36,4.45c-2.13,1.91-4.17,3.92-6.08,6.04
			c-1.14,1.26-2.23,2.56-3.29,3.9c3.01-0.69,6.04-1.31,9.09-1.87C573.77,627.58,575.8,622.9,578.44,619.26z"/>
		<g>
			<path class="st2" d="M548.94,506.94c28.11,6.82,56.24,13.65,84.26,20.9c10.67-8.1,21.33-16.19,32-24.29
				c0.32-0.24,0.64-0.49,0.96-0.73l0,0c0,0,0,0,0.01,0c0.34-0.25,0.68-0.51,1.02-0.76c0.19-0.14,0.37-0.28,0.56-0.42
				c0.27-0.2,0.55-0.4,0.83-0.6c0.23-0.17,0.46-0.33,0.69-0.49c0.25-0.18,0.51-0.36,0.76-0.53s0.5-0.35,0.76-0.52
				c0.24-0.16,0.48-0.32,0.72-0.48c0.27-0.18,0.55-0.35,0.82-0.52c0.23-0.14,0.46-0.29,0.7-0.43c0.3-0.18,0.6-0.35,0.9-0.52
				c0.22-0.12,0.43-0.25,0.65-0.37c0.34-0.19,0.69-0.36,1.04-0.53c0.18-0.09,0.36-0.19,0.55-0.28c0.54-0.26,1.09-0.5,1.64-0.72
				c3.49-1.4,7.26-2.09,11.02-2c0.46,0.01,0.91,0.04,1.36,0.07c0.15,0.01,0.3,0.03,0.45,0.04c0.3,0.03,0.61,0.06,0.91,0.09
				c0.18,0.02,0.35,0.05,0.53,0.07c0.27,0.04,0.55,0.08,0.82,0.12c0.19,0.03,0.37,0.06,0.55,0.1c0.26,0.05,0.52,0.1,0.78,0.15
				c0.19,0.04,0.38,0.08,0.56,0.12c0.26,0.06,0.51,0.12,0.77,0.18c0.19,0.05,0.37,0.09,0.56,0.14c0.26,0.07,0.52,0.14,0.78,0.21
				c0.18,0.05,0.36,0.1,0.54,0.15c0.28,0.08,0.55,0.17,0.83,0.26c0.16,0.05,0.32,0.1,0.48,0.15c0.37,0.12,0.75,0.25,1.12,0.38
				c0.17,0.06,0.34,0.12,0.51,0.18c0.31,0.11,0.61,0.22,0.92,0.34c0.19,0.07,0.39,0.15,0.58,0.23c0.23,0.09,0.46,0.18,0.69,0.27
				c0.21,0.09,0.42,0.17,0.64,0.26c0.21,0.09,0.42,0.17,0.62,0.26c0.22,0.1,0.45,0.19,0.67,0.29c0.19,0.08,0.38,0.17,0.57,0.25
				c0.23,0.1,0.47,0.21,0.7,0.31c0.18,0.08,0.35,0.16,0.53,0.24c0.25,0.11,0.5,0.23,0.74,0.34c0.14,0.06,0.27,0.13,0.41,0.19
				c0.29,0.14,0.58,0.27,0.87,0.41c0,0,0,0-0.01,0c0.79,0.37,1.57,0.74,2.35,1.12c11.48,5.52,23.14,11.2,33.83,18.09
				c6.58-6.81,13.33-13.44,20.26-19.89c3.62-3.38,7.5-6.82,12.31-8.03c4.18-1.06,8.65-0.28,12.64,1.36
				c3.32,1.37,6.37,3.31,9.35,5.34v-90.87V402v-33.72v-93.16c-30.83,0-61.67,0-92.5,0h-225.4V378.9v23.13v4.55
				c0,37.36,0,74.71,0,112.07c12.04-7.51,24.73-14.64,38.79-15.65C529.71,502.3,539.42,504.63,548.94,506.94z"/>
			<path class="st2" d="M721.24,553.1L721.24,553.1c0.12-0.04,0.24-0.08,0.36-0.12C721.48,553.01,721.36,553.06,721.24,553.1z"/>
			<path class="st2" d="M721.76,552.92h0.01c0.16,0.05,0.33,0.1,0.49,0.16C722.09,553.02,721.93,552.97,721.76,552.92z"/>
			<path class="st2" d="M799.02,642.79v-12.93v-11.2V570.7v-0.44v-1.52c-5.62-1.78-10.6-4.57-16.76-3.8c-3,0-5-2-7-3
				c-4.97,0-8.95,2.96-13.9,3.98c-0.03,0.01-0.06,0.02-0.1,0.02c0-0.02,0-0.04,0-0.06c-4.17-1.44-8.37-2.87-12.58-4.28
				c-3.67,2.63-7.11,5.87-11.42,5.33c-4,0-9-1-13,0c-0.75,0.5-1.51,1.26-2.3,2.06c-2.34,2.39-4.96,5.18-8.7,2.94c-1,0,1-4,0-5
				c-5.71-3.57-10.91,0-14.15,4.88c-1.4-0.56-2.79-1.08-4.16-1.57c-0.19-0.07-0.38-0.14-0.57-0.2c-0.54-0.19-1.08-0.39-1.62-0.57
				c-0.37-0.13-0.73-0.25-1.09-0.37c-0.4-0.14-0.81-0.28-1.21-0.41h-0.01c-0.75-0.25-1.49-0.5-2.2-0.74c-12-4-29-1-43-8
				c-4-2-10,2-15,2c-14,2-28,2-42-5c-8.87-3.94-14.83,7.65-23.61,8.94c-13.71-1.27-24.58-12-37.39-15.94
				c-20.12-7-32.59,12.03-46.11,24.93c0,9.15,0,18.3,0,27.45c0,3.3,0,6.6,0,9.9c0,8.49,0,16.98,0,25.46c0,8.21,0,16.43,0,24.64
				c0,0.69,0,1.38,0,2.06c0,28.03,0,56.07,0,84.1h50.88h266.99h0.13v-27.36v-54.47v-23.59l-0.13,0.01v-0.29H799.02z"/>
			<path class="st16" d="M786.26,507.94c-11.13,3.42-17.86,14.9-28.35,20.65c2.97,2.53,5.8,5.22,8.45,8.11c1.5-0.55,3-1.09,4.5-1.64
				c3.61-1.31,7.41-2.65,11.21-2.07c6.61,1.01,11.03,7.35,16.94,10.4v-26.28C795.03,512.98,791.77,506.72,786.26,507.94z"/>
			<path class="st17" d="M777.04,490.75c-4.8,1.21-8.68,4.65-12.31,8.03c-6.93,6.45-13.68,13.09-20.26,19.89
				c4.7,3.03,9.21,6.32,13.43,9.92c10.49-5.75,17.22-17.22,28.35-20.65c5.51-1.22,8.77,5.04,12.76,9.17v-19.66
				c-2.98-2.03-6.02-3.97-9.35-5.34C785.69,490.47,781.22,489.69,777.04,490.75z"/>
			<path class="st18" d="M707.03,498.86c-0.25-0.11-0.49-0.23-0.74-0.34c-0.18-0.08-0.35-0.16-0.53-0.24
				c-0.23-0.1-0.47-0.21-0.7-0.31c-0.19-0.08-0.38-0.17-0.57-0.25c-0.22-0.1-0.45-0.19-0.67-0.29c-0.21-0.09-0.42-0.17-0.62-0.26
				c-0.21-0.09-0.42-0.18-0.64-0.26c-0.23-0.09-0.46-0.18-0.69-0.27c-0.19-0.08-0.39-0.15-0.58-0.23c-0.31-0.12-0.61-0.23-0.92-0.34
				c-0.17-0.06-0.34-0.12-0.51-0.18c-0.37-0.13-0.74-0.26-1.12-0.38c-0.16-0.05-0.32-0.1-0.48-0.15c-0.28-0.09-0.55-0.17-0.83-0.26
				c-0.18-0.05-0.36-0.1-0.54-0.15c-0.26-0.07-0.52-0.14-0.78-0.21c-0.19-0.05-0.37-0.09-0.56-0.14c-0.26-0.06-0.51-0.12-0.77-0.18
				c-0.19-0.04-0.37-0.08-0.56-0.12c-0.26-0.05-0.52-0.1-0.78-0.15c-0.18-0.03-0.37-0.07-0.55-0.1c-0.27-0.04-0.54-0.08-0.82-0.12
				c-0.18-0.02-0.35-0.05-0.53-0.07c-0.3-0.04-0.6-0.06-0.91-0.09c-0.15-0.01-0.3-0.03-0.45-0.04c-0.45-0.03-0.91-0.06-1.36-0.07
				c-3.76-0.1-7.53,0.6-11.02,2c-0.56,0.22-1.1,0.47-1.64,0.72c-0.19,0.09-0.37,0.19-0.55,0.28c-0.35,0.17-0.7,0.35-1.04,0.53
				c-0.22,0.12-0.44,0.25-0.65,0.37c-0.3,0.17-0.6,0.34-0.9,0.52c-0.23,0.14-0.46,0.29-0.7,0.43c-0.27,0.17-0.55,0.34-0.82,0.52
				c-0.24,0.16-0.48,0.32-0.72,0.48c-0.25,0.17-0.51,0.34-0.76,0.52s-0.51,0.35-0.76,0.53c-0.23,0.16-0.46,0.33-0.69,0.49
				c-0.28,0.2-0.55,0.4-0.83,0.6c-0.19,0.14-0.38,0.28-0.56,0.42c-0.34,0.25-0.68,0.51-1.02,0.76c0,0,0,0-0.01,0l0,0
				c13.92-0.28,29.23,3.42,42.14-3.36c-0.29-0.14-0.58-0.28-0.87-0.41C707.3,498.99,707.16,498.92,707.03,498.86z"/>
			<path class="st9" d="M757.66,528.72c-4.15-3.52-8.57-6.74-13.18-9.71c-10.69-6.9-22.35-12.57-33.83-18.09
				c-0.78-0.37-1.56-0.75-2.34-1.12c-12.91,6.78-28.23,3.08-42.14,3.36c-0.32,0.24-0.64,0.49-0.96,0.73
				c-10.56,8.01-21.11,16.02-31.67,24.03c29.12,7.53,58.93,15.85,88.23,24.99c14.44-5.25,29.92-10.88,44.36-16.13
				C763.47,533.92,760.63,531.24,757.66,528.72z"/>
			<path class="st19" d="M770.87,535.06c-1.5,0.55-3,1.09-4.5,1.64c-0.08,0.03-0.16,0.06-0.24,0.09
				c-14.44,5.25-29.92,10.88-44.36,16.13c0.17,0.05,0.33,0.11,0.5,0.16c-0.16-0.05-0.33-0.1-0.49-0.16
				c-0.06,0.02-0.11,0.04-0.17,0.05c-0.12,0.04-0.24,0.08-0.36,0.12c-5.12,1.6-9.86,3.7-14.43,6.08c-0.02,0.01-0.04,0.02-0.06,0.03
				c5.31,2.74,10.07,6.56,15.21,9.8c0.79-0.8,1.54-1.56,2.3-2.06c4-1,9,0,13,0c4.31,0.54,7.76-2.7,11.42-5.33
				c4.21,1.41,8.41,2.83,12.58,4.28c0,0.02,0,0.04,0,0.06c0.03-0.01,0.06-0.02,0.1-0.02c4.95-1.02,8.94-3.98,13.9-3.98c2,1,4,3,7,3
				c6.16-0.77,11.14,2.02,16.76,3.8v-25.34c-5.92-3.05-10.33-9.39-16.94-10.4C778.28,532.41,774.48,533.75,770.87,535.06z"/>
			<path class="st4" d="M548.26,544.94c9,9,23-1,33,1c21,3,42,0,62,1c21.21,1.7,42.42,5.56,63.63,12.19
				c-0.03,0.01-0.05,0.03-0.08,0.04c4.57-2.38,9.31-4.47,14.43-6.08l0,0c0.12-0.04,0.24-0.08,0.36-0.12
				c0.06-0.02,0.11-0.04,0.17-0.05h-0.01c-29.31-9.14-59.11-17.46-88.23-24.99c10.56-8.01,21.11-16.02,31.67-24.03
				c0.32-0.24,0.64-0.49,0.96-0.73c13.92-0.28,29.23,3.42,42.14-3.36c0.78,0.37,1.57,0.75,2.34,1.12
				c11.48,5.52,23.14,11.2,33.83,18.09c4.61,2.97,9.03,6.19,13.18,9.71c2.97,2.52,5.8,5.19,8.46,8.06c0.08-0.03,0.16-0.06,0.24-0.09
				c-2.65-2.89-5.49-5.58-8.45-8.11c-4.22-3.6-8.73-6.89-13.43-9.92c-10.69-6.9-22.35-12.57-33.83-18.09
				c-0.78-0.37-1.56-0.75-2.35-1.12c-12.91,6.78-28.22,3.08-42.14,3.36c-0.32,0.24-0.64,0.49-0.96,0.73
				c-10.67,8.1-21.33,16.19-32,24.29c-28.01-7.24-56.15-14.08-84.26-20.9c-9.52-2.31-19.23-4.64-29-3.94
				c-14.06,1.01-26.75,8.13-38.79,15.65c0,10.1,0,20.21,0,30.31C499.84,532.4,527.95,524.63,548.26,544.94z"/>
			<path class="st4" d="M707.43,499.05c0.29,0.14,0.58,0.28,0.87,0.41c0,0,0,0,0.01,0C708.02,499.32,707.73,499.18,707.43,499.05z"
				/>
			<path class="st20" d="M527.26,549.94c12.81,3.94,23.68,14.67,37.39,15.94c8.79-1.29,14.74-12.88,23.61-8.94c14,7,28,7,42,5
				c5,0,11-4,15-2c14,7,31,4,43,8c0.71,0.24,1.45,0.49,2.2,0.74h0.01c0.4,0.13,0.81,0.27,1.21,0.41c0.36,0.12,0.72,0.25,1.09,0.37
				c0.53,0.19,1.07,0.38,1.62,0.57c0.19,0.07,0.38,0.14,0.57,0.2c1.36,0.49,2.75,1.01,4.16,1.57c3.24-4.88,8.44-8.45,14.15-4.88
				c1,1-1,5,0,5c3.74,2.25,6.36-0.55,8.7-2.94c-5.14-3.24-9.9-7.06-15.21-9.8c0.02-0.01,0.04-0.02,0.06-0.03
				c0.03-0.01,0.05-0.03,0.08-0.04c-21.21-6.63-42.42-10.49-63.63-12.19c-20-1-41,2-62-1c-10-2-24,8-33-1
				c-20.31-20.31-48.42-12.54-67.11,4.02c0,8.64,0,17.28,0,25.91C494.67,561.97,507.14,542.94,527.26,549.94z"/>
			<path class="st3" d="M872.8,771.52l-14.01-15.93c-3.96-4.51-9.67-7.09-15.67-7.09h-7.18v-29.2V255.96
				c0-11.69-9.48-21.17-21.17-21.17h-349.1c-11.69,0-21.17,9.48-21.17,21.17V748.5h-7.43c-6,0-11.71,2.58-15.67,7.09l-14.01,15.93
				c-6.01,6.84-1.16,17.58,7.95,17.58h449.53C873.96,789.09,878.81,778.35,872.8,771.52z M481.15,518.65
				c-1.25,0.78-2.5,1.57-3.74,2.35C478.65,520.22,479.9,519.43,481.15,518.65z M799.15,666.66v54.47v27.36h-0.13H532.03h-50.88
				c0-28.03,0-56.07,0-84.1c0-0.69,0-1.38,0-2.06c0-8.21,0-16.43,0-24.64c0-8.49,0-16.98,0-25.46c0-3.3,0-6.6,0-9.9
				c0-9.15,0-18.3,0-27.45c0-8.64,0-17.28,0-25.91c0-10.1,0-20.21,0-30.31c0-37.36,0-74.71,0-112.07v-4.55V378.9V275.13h225.37
				c30.83,0,61.67,0,92.5,0v93.16v33.72v4.57v90.87v19.66v26.28v25.34v1.52v0.44v47.96v11.2v12.93v0.3l0.13-0.01V666.66z"/>
			<path class="st2" d="M477.42,521c1.24-0.78,2.48-1.57,3.74-2.35"/>
		</g>
		<path class="st21" d="M620.73,681.81c0.81-3.75-29.13-12.15-61.08-19.03c-13.29-2.86-25.64-4.97-35.6-6.19
			c-13.98-1.71-23.25-1.67-23.72,0.52c-0.81,3.75,86.15,40.97,118.1,47.85C650.39,711.84,619.92,685.56,620.73,681.81z"/>
		<path class="st21" d="M590.86,642.75c-1.36,5,58.31,29.58,86.04,38c27.06,8.21,42.14,5.61,56.62-1.13
			c19.33-9,5.8-17.64-64.16-29.87C640.81,644.75,592.22,637.75,590.86,642.75z"/>
	</g>
</g>
<g id="light" class="st22">
	<path class="st23" d="M682.07,950.46L481.15,748.49l318.51,0.46l-0.42-473.84L1185.5,578.2c60.44,47.43,89.66,120.05,89.48,196.88
		l0,0c-0.15,61.2,7.69,156.2-28.99,199.53c-45.77,54.07-138.14,42.38-214.51,42.38l-172.53-1
		C792.56,1016,728.9,997.53,682.07,950.46z"/>
</g>
<g id="flare">
	<g>
		<line class="st2" x1="561.64" y1="348.79" x2="588.29" y2="371.98"/>
		<circle class="st2" cx="561.64" cy="348.79" r="30.11"/>
		<circle class="st2" cx="561.64" cy="348.79" r="35.33"/>

			<radialGradient id="SVGID_1_" cx="561.64" cy="675.21" r="70.65" gradientTransform="matrix(1 0 0 -1 0 1024)" gradientUnits="userSpaceOnUse">
			<stop  offset="0" style="stop-color:#220000"/>
			<stop  offset="0.73" style="stop-color:#984023"/>
			<stop  offset="1" style="stop-color:#220000"/>
		</radialGradient>
		<circle class="st24" cx="561.64" cy="348.79" r="70.65"/>

			<radialGradient id="SVGID_2_" cx="561.64" cy="675.21" r="35.33" gradientTransform="matrix(1 0 0 -1 0 1024)" gradientUnits="userSpaceOnUse">
			<stop  offset="0.15" style="stop-color:#FFFFFF"/>
			<stop  offset="0.2094" style="stop-color:#E5D3D3"/>
			<stop  offset="0.2904" style="stop-color:#C49C9E"/>
			<stop  offset="0.3605" style="stop-color:#AD7477"/>
			<stop  offset="0.416" style="stop-color:#9E5C5F"/>
			<stop  offset="0.45" style="stop-color:#995356"/>
			<stop  offset="0.5718" style="stop-color:#6B3335"/>
			<stop  offset="0.6936" style="stop-color:#431718"/>
			<stop  offset="0.7905" style="stop-color:#2B0606"/>
			<stop  offset="0.85" style="stop-color:#220000"/>
			<stop  offset="0.8573" style="stop-color:#260201"/>
			<stop  offset="0.8648" style="stop-color:#330704"/>
			<stop  offset="0.8725" style="stop-color:#471009"/>
			<stop  offset="0.8802" style="stop-color:#641D0F"/>
			<stop  offset="0.888" style="stop-color:#8A2E18"/>
			<stop  offset="0.8958" style="stop-color:#B74223"/>
			<stop  offset="0.9" style="stop-color:#D34E29"/>
			<stop  offset="0.9025" style="stop-color:#C84927"/>
			<stop  offset="0.9142" style="stop-color:#9C361C"/>
			<stop  offset="0.9263" style="stop-color:#772514"/>
			<stop  offset="0.9389" style="stop-color:#58180C"/>
			<stop  offset="0.952" style="stop-color:#400D07"/>
			<stop  offset="0.9659" style="stop-color:#2F0603"/>
			<stop  offset="0.9811" style="stop-color:#250101"/>
			<stop  offset="1" style="stop-color:#220000"/>
		</radialGradient>
		<circle class="st25" cx="561.64" cy="348.79" r="35.33"/>

			<radialGradient id="SVGID_3_" cx="561.64" cy="675.21" r="30.11" gradientTransform="matrix(1 0 0 -1 0 1024)" gradientUnits="userSpaceOnUse">
			<stop  offset="0.15" style="stop-color:#FFFFFF"/>
			<stop  offset="0.2824" style="stop-color:#C2C2C2"/>
			<stop  offset="0.4253" style="stop-color:#888888"/>
			<stop  offset="0.5636" style="stop-color:#575757"/>
			<stop  offset="0.6936" style="stop-color:#313131"/>
			<stop  offset="0.8134" style="stop-color:#161616"/>
			<stop  offset="0.9192" style="stop-color:#060606"/>
			<stop  offset="1" style="stop-color:#000000"/>
		</radialGradient>
		<circle class="st26" cx="561.64" cy="348.79" r="30.11"/>
	</g>
</g>
<g id="night">
	<rect x="481.25" y="275.13" class="st27" width="318" height="473.36"/>
	<g>
		<g>
			<circle class="st28" cx="547.37" cy="338.88" r="30.57"/>
		</g>
		<path class="st29" d="M556.59,309.72c9.13,5.27,14.71,15.23,15.17,26.76c0.02,0.45,0.75,0.9,0.75,1.36c0,2.73-1.05,5.39-1.67,7.92
			c-2.95,12.11-11.77,21.46-23.69,23.68c0.07,0,0.14,0.01,0.21,0.01c16.89,0,30.57-13.69,30.57-30.57
			C577.94,325.2,568.97,313.63,556.59,309.72z"/>
		<circle class="st30" cx="547.05" cy="358.63" r="6.86"/>
		<circle class="st30" cx="536.73" cy="331.92" r="5.66"/>
		<circle class="st30" cx="564.68" cy="326.9" r="3.04"/>
		<circle class="st31" cx="570.8" cy="341.03" r="4.18"/>
		<circle class="st30" cx="543.27" cy="317.19" r="0.87"/>
		<circle class="st30" cx="525.17" cy="335.19" r="1.29"/>
		<circle class="st30" cx="525.77" cy="346.93" r="1.43"/>
		<circle class="st30" cx="553.08" cy="338.97" r="0.83"/>
		<circle class="st30" cx="557.29" cy="315.55" r="1.63"/>
		<circle class="st30" cx="562.38" cy="356.28" r="1.57"/>
		<circle class="st30" cx="529.78" cy="357.66" r="0.64"/>
		<ellipse class="st32" cx="537.23" cy="332.06" rx="5.24" ry="5.53"/>
		<circle class="st33" cx="547.69" cy="358.63" r="6.22"/>
		<ellipse class="st32" cx="564.96" cy="327.02" rx="2.76" ry="2.92"/>
	</g>
	<polygon class="st34" points="657.78,336.34 660.37,345.82 669.58,345.52 661.97,351.09 665.07,360.39 657.78,354.35
		650.48,360.39 653.59,351.09 645.97,345.52 655.19,345.82 	"/>
	<polygon class="st34" points="521.19,416.01 522.98,424.14 529.94,421.87 524.77,427.74 529.94,433.6 522.98,431.34 521.19,439.47
		519.4,431.34 512.45,433.6 517.61,427.74 512.45,421.87 519.4,424.14 	"/>
	<polygon class="st34" points="748.54,307.89 750.35,314.94 757.36,312.98 752.15,318.06 757.36,323.15 750.35,321.19
		748.54,328.24 746.74,321.19 739.73,323.15 744.94,318.06 739.73,312.98 746.74,314.94 	"/>
	<polygon class="st34" points="633.06,300.97 634.36,306.05 639.41,304.64 635.67,308.3 639.41,311.97 634.36,310.55 633.06,315.63
		631.76,310.55 626.71,311.97 630.46,308.3 626.71,304.64 631.76,306.05 	"/>
	<polygon class="st35" points="668.62,464.97 664.98,460.18 658.98,460.21 663.76,456.57 663.74,450.56 667.37,455.35
		673.38,455.33 668.6,458.96 	"/>
	<polygon class="st34" points="642.42,411.32 637.5,409.93 633.42,413.02 634.82,408.1 631.73,404.02 636.65,405.41 640.72,402.32
		639.33,407.24 	"/>
	<polygon class="st34" points="567.59,463.13 563.75,459.95 558.9,461.1 562.08,457.26 560.93,452.4 564.77,455.59 569.62,454.44
		566.44,458.28 	"/>
	<polygon class="st36" points="500.33,300.97 499.12,297.36 495.51,296.15 499.12,294.94 500.33,291.33 501.54,294.94
		505.15,296.15 501.54,297.36 	"/>
	<polygon class="st34" points="701.24,301.48 695.66,300.44 691.47,304.27 692.51,298.69 688.68,294.5 694.26,295.54 698.45,291.71
		697.41,297.29 	"/>
	<polygon class="st36" points="754.25,397.88 749.63,399.42 748.09,404.04 746.54,399.42 741.93,397.88 746.54,396.33
		748.09,391.71 749.63,396.33 	"/>
	<polygon class="st34" points="773.09,435.48 764.84,436.39 760.6,443.51 759.7,435.27 752.57,431.03 760.81,430.12 765.05,423
		765.96,431.24 	"/>
	<circle class="st36" cx="507.64" cy="376.69" r="4.34"/>
	<circle class="st36" cx="571.35" cy="404.04" r="3.63"/>
	<circle class="st36" cx="580.27" cy="290.32" r="1.83"/>
	<circle class="st36" cx="777.86" cy="297.07" r="0.92"/>
	<circle class="st36" cx="769.25" cy="354.66" r="2.89"/>
	<circle class="st36" cx="687.09" cy="389.24" r="1.17"/>
</g>
<g id="skło">
	<rect x="480.73" y="274.66" class="st37" width="319.05" height="474.3"/>
	<g class="st38">
		<g>
			<polygon class="st39" points="481.06,652.41 798.94,383.36 798.94,303.01 481.06,572.05 			"/>
		</g>
		<polygon class="st39" points="481.06,716.25 798.94,447.21 798.94,407.95 481.06,676.99 		"/>
	</g>
</g>
</svg>
