<svg width="32" height="32" viewBox="0 0 32 32" fill="none" xmlns="http://www.w3.org/2000/svg">
<path fill-rule="evenodd" clip-rule="evenodd" d="M21.4399 29.3334H10.5465C5.83987 29.3334 2.66653 26.3054 2.66653 21.7867V10.2267C2.66653 5.70675 5.83987 2.66675 10.5465 2.66675H21.4399C26.1599 2.66675 29.3332 5.70675 29.3332 10.2267V21.7867C29.3332 26.3054 26.1599 29.3334 21.4399 29.3334ZM19.0265 15.0001H10.5599C9.99987 15.0001 9.55987 15.4534 9.55987 16.0001C9.55987 16.5601 9.99987 17.0001 10.5599 17.0001H19.0265L15.7199 20.2934C15.5332 20.4801 15.4265 20.7467 15.4265 21.0001C15.4265 21.2521 15.5332 21.5067 15.7199 21.7067C16.1065 22.0934 16.7465 22.0934 17.1332 21.7067L22.1599 16.7067C22.5332 16.3334 22.5332 15.6667 22.1599 15.2934L17.1332 10.2934C16.7465 9.90675 16.1065 9.90675 15.7199 10.2934C15.3332 10.6934 15.3332 11.3201 15.7199 11.7201L19.0265 15.0001Z" fill="#171820"/>
</svg>
