<svg xmlns="http://www.w3.org/2000/svg" xmlns:xlink="http://www.w3.org/1999/xlink" viewBox="0 0 953.38 828.82"><defs><style>.cls-1,.cls-2,.cls-4,.cls-5{stroke:#000;stroke-miterlimit:10;}.cls-1,.cls-2{stroke-width:2px;}.cls-1{fill:url(#Gradient_bez_nazwy_33);}.cls-2{fill:url(#Gradient_bez_nazwy_45);}.cls-3{font-size:12px;font-family:MyriadPro-Regular, Myriad Pro;}.cls-5{fill:none;stroke-width:18.04px;}</style><linearGradient id="Gradient_bez_nazwy_33" x1="438.11" y1="477.86" x2="438.11" y2="260.25" gradientUnits="userSpaceOnUse"><stop offset="0" stop-color="#f5c001" stop-opacity="0"/><stop offset="0.64" stop-color="#d7a905"/></linearGradient><linearGradient id="Gradient_bez_nazwy_45" x1="544.98" y1="499.41" x2="607.41" y2="395.98" gradientUnits="userSpaceOnUse"><stop offset="0" stop-color="#f5c001" stop-opacity="0"/><stop offset="0.06" stop-color="#f4bf01" stop-opacity="0.03"/><stop offset="0.97" stop-color="#d7a905"/></linearGradient></defs><g id="Warstwa_2" data-name="Warstwa 2"><g id="Warstwa_2-2" data-name="Warstwa 2"><path class="cls-1" d="M491.67,439.22a100.75,100.75,0,0,0,20.81-25.94c1.66-3,3.16-6.18,4.51-9.36,1.63-3.83,5.94-12.29,5.77-15.51-.32-5.76-6.66-9.32-11.58-11.11a27.18,27.18,0,0,0-7.44-1.62,14.5,14.5,0,0,0-6,.68,5.19,5.19,0,0,0-1.73.91,3.69,3.69,0,0,0-1.33,2.54,61.29,61.29,0,0,1-2.37,8.62,74,74,0,0,1-4.87,9.24,99.92,99.92,0,0,1-12.76,16.56c-1.49,1.57-3,3.07-4.61,4.54-8.75-10.83-15.76-23.15-21.75-35.81,19.57-10,37.9-22.58,47.51-43,12.46-26.53,1.76-56.39-22.49-72.06-22.94-14.81-54.47-7.62-65.47,18.3-10.74,25.31,1.35,55.39,12.13,79.56-14,6.52-41.63,16.33-50.31,26.08a96.69,96.69,0,0,0-3.74,9.63c-5.47,11.19-8.75,23.81-11.83,35.44l-.13.51a17.44,17.44,0,0,0,3,14.95,68,68,0,0,0,32,22.72c30.6,10,65.9-8.43,90.5-26.09,10.28,8.12,26.58,19.61,32.95,22.72,5.41-6.72,3.08-13.91,6-17.61C512.94,452.42,501.84,446.32,491.67,439.22Zm-48.9-150c6.43-5,15.37-8,23.23-6.59a9.86,9.86,0,0,1,6.7,4.77,26.21,26.21,0,0,1,1.74,3.52,33.94,33.94,0,0,1,1.87,17.43c-3.2,22.43-20.27,37.54-39.06,48.5C428.7,334.37,421.37,305.76,442.77,289.18ZM395.22,455.36c-10.11.55-19.78-1.15-22.2-10-3.42-12.49,7-24.26,15.85-31.47,11.59-9.41,25.93-15.42,39.43-21.5l3.85-1.74a208.63,208.63,0,0,0,26,37.86,161.71,161.71,0,0,1-19.77,12C425.14,447.48,410.37,454.53,395.22,455.36Z"/><path class="cls-2" d="M632.32,399.94c-22.7,18.94-58.13,46.48-87.45,52.79-4.67,1-10.44,2.52-15.06,2.72-4.89,6.45-8.75,10.22-13.77,16.57,12.66,3.23,33,1.28,46.33-.68,16.89-2.48,44.21-15.28,59.23-23.53,8.76-17.23,5.21-23.37,15.25-39.86C633.92,407.1,634.34,398.26,632.32,399.94Z"/><path d="M342.33,395.93c.62-.32-.62.3,0,0Z"/><path d="M385,366.14a15.09,15.09,0,0,0-15.44-3.56,320.64,320.64,0,0,0-77.8,38c-4.93,3.29-3,9.88.85,13.08,4.59,3.78,11.74,4.64,16.77,1.29a296.09,296.09,0,0,1,31.11-18.12c.62-.32,1.24-.62,1.86-.92h0c-13,13.62-26,29.79-38.85,43.64-11.74,12.65-40.19,39.52-55.87,18.83-16-21-2.29-53.94,6.89-75.23a228.61,228.61,0,0,1,40.42-62.58,223.85,223.85,0,0,1,36.82-32.67,108.26,108.26,0,0,0-6.63,64.67c1.12,5.31,3.56,11.84,11.73,11.07,5.7-.53,7.91-5.78,6.85-10.78-6.12-29.12,7.64-62.11,28.77-83.15,7.08-7-6.32-26.2-14.25-20.59-1,.74-8.44,5.18-8.88,5.39C297.52,280,255.49,323.18,232.14,376.07c-11.69,26.48-24.48,62.07-7.13,88.75a43,43,0,0,0,38.29,19.27c15.84-.78,30.69-8.48,42.95-18.18,7.62-6,14.94-15.49,21.32-22.77a15.22,15.22,0,0,1-.34,2.36,468.13,468.13,0,0,0-10.32,71.7c-.77,11.35,22.81,14.56,23.69,1.6a434,434,0,0,1,11.59-74.13c.64-2.61,1.29-5.21,2-7.8,3.08-11.63,6.36-24.25,11.83-35.44l8.63-13.68a51.37,51.37,0,0,1,10.23-9.54C389.2,375.18,388.29,369.49,385,366.14Z"/><path d="M718,362.24c-39.65,19.29-55.15,53.94-86.07,83.27q7-19.25,15.09-38.08c.61-1.41,1.21-2.84,1.83-4.25a731.46,731.46,0,0,1,68.77-123.1C722,273.75,704.24,263,699,267a434.12,434.12,0,0,0-89.13,90.55,374.41,374.41,0,0,1,8.46-96.36c1.59-7.26-18.84-17.8-20.78-9-8.74,39.85-27.55,77.3-45.41,114-13.48,27.72-30.61,54-46.28,80.65q-4.45,7.59-9,15.1c-4.23,6.95-20.5,31.77-26.59,40.56-2.39,3.46-12.67,15.28-12.05,19.29.87,5.65,23.39,6.84,28.35,4.94a19.46,19.46,0,0,0,3.28-3c1.34-1.68,2.51-3.54,3.74-5.3q3.7-5.29,7.31-10.66c5.4-8,5.54-9,10.68-17.22,4.56-7.26,9-14.58,13.41-21.94q6.13-10.27,12.08-20.67,3.48-6.09,6.89-12.21c16.29-29.3,31.66-59.23,45.05-89.93a373,373,0,0,0,3.32,38.58c.65,4.68,4.54,8,8.66,10.09,2.76,1.39,9.36,4.1,11.65.42a423.46,423.46,0,0,1,42.35-56.73q-13.44,25-24.89,51t-20.94,52.93c-3.4,9.68-10.35,35.17-13.35,45-1,3.44,5,8,7.29,9.37,3.05,1.85,8.77,4.85,11.84,2.22,43-36.86,69.15-97.21,120.61-122.24C742.9,372.83,725.21,358.75,718,362.24Z"/><path d="M10.76,593.76c5.92,2.06,9.51,3.66,15.47,2.56,3.67-.68,7.33-1.37,11-2q12.18-2.22,24.39-4.31,22.07-3.76,44.2-7.1,45.39-6.82,91-11.85,91.23-10,183.06-12.86a2315.34,2315.34,0,0,1,363.85,17.31q102.15,13,202.86,35.14c5.26,1.16,8.19-2.27,6.1-7.27-2.31-5.55-8.63-10.92-14.55-12.21a2335.51,2335.51,0,0,0-731.36-42.67q-51.22,5.12-102.2,12.51-25.47,3.69-50.86,8Q41.1,571,28.5,573.3q-6.62,1.19-13.22,2.4l-4.4.82c-4.53.84-5.7,1.7-9.39,4.82-5.64,4.79,6.32,11.4,9.27,12.42Z"/><text class="cls-3" transform="translate(421.15 75.47) rotate(-9.44)">F</text><text class="cls-3" transform="translate(426.61 74.57) rotate(-8.68)">r</text><text class="cls-3" transform="translate(430.34 73.99) rotate(-7.82)">o</text><text class="cls-3" transform="translate(436.8 73.1) rotate(-6.72)">n</text><text class="cls-3" transform="matrix(0.99, -0.1, 0.1, 0.99, 443.36, 72.34)">t</text><text class="cls-3" transform="translate(447.19 71.94) rotate(-5.02)">e</text><text class="cls-3" transform="translate(453.15 71.41) rotate(-3.96)">n</text><text class="cls-3" transform="matrix(1, -0.05, 0.05, 1, 459.76, 70.95)">d</text><text class="cls-3" transform="translate(466.5 70.63) rotate(-2.06)"> </text><text class="cls-3" transform="matrix(1, -0.02, 0.02, 1, 469.02, 70.52)">D</text><text class="cls-3" transform="translate(477.01 70.37) rotate(-0.01)">e</text><text class="cls-3" transform="matrix(1, 0.02, -0.02, 1, 482.97, 70.37)">v</text><text class="cls-3" transform="matrix(1, 0.03, -0.03, 1, 488.61, 70.46)">e</text><text class="cls-3" transform="translate(494.58 70.67) rotate(2.66)">l</text><text class="cls-3" transform="matrix(1, 0.06, -0.06, 1, 497.37, 70.79)">o</text><text class="cls-3" transform="matrix(1, 0.08, -0.08, 1, 503.93, 71.18)">p</text><text class="cls-3" transform="matrix(0.99, 0.1, -0.1, 0.99, 510.68, 71.7)">m</text><text class="cls-3" transform="translate(520.58 72.75) rotate(7.26)">e</text><text class="cls-3" transform="translate(526.5 73.5) rotate(8.29)">n</text><text class="cls-3" transform="translate(533.02 74.46) rotate(9.15)">t</text><text class="cls-3" transform="matrix(0.99, 0.17, -0.17, 0.99, 536.93, 75.09)"> </text><text class="cls-3" transform="translate(539.43 75.52) rotate(9.94)"> <tspan x="2.53" y="0.02"> </tspan></text><text class="cls-3" transform="translate(544.39 76.4) rotate(11.79)"> <tspan x="2.54" y="-0.03"> </tspan><tspan x="5.07" y="-0.04"> </tspan></text><text class="cls-3" transform="matrix(0.98, 0.21, -0.21, 0.98, 551.83, 77.91)"> </text><text class="cls-3" transform="matrix(0.97, 0.23, -0.23, 0.97, 554.32, 78.43)">U</text><text class="cls-3" transform="translate(561.83 80.17) rotate(14.2)">X</text><text class="cls-3" transform="matrix(0.97, 0.26, -0.26, 0.97, 568.44, 81.86)"> </text><text class="cls-3" transform="translate(570.87 82.49) rotate(15.84)">D</text><text class="cls-3" transform="translate(578.57 84.68) rotate(17)">e</text><text class="cls-3" transform="matrix(0.95, 0.31, -0.31, 0.95, 584.27, 86.43)">s</text><text class="cls-3" transform="translate(588.78 87.89) rotate(18.52)">i</text><text class="cls-3" transform="matrix(0.94, 0.33, -0.33, 0.94, 591.42, 88.76)">g</text><text class="cls-3" transform="translate(597.65 90.94) rotate(20.4)">n</text><text class="cls-3" transform="translate(603.86 93.27) rotate(21.17)"> </text><text class="cls-3" transform="translate(606.21 94.17) rotate(21.59)"> </text><text class="cls-3" transform="translate(608.58 95.11) rotate(22.02)"> </text><text class="cls-3" transform="translate(610.91 96.05) rotate(22.44)"> </text><text class="cls-3" transform="translate(613.26 97.02) rotate(22.86)"> </text><text class="cls-3" transform="translate(615.6 98.01) rotate(23.29)"> </text><text class="cls-3" transform="matrix(0.92, 0.4, -0.4, 0.92, 617.9, 99)"> </text><text class="cls-3" transform="translate(620.22 100.02) rotate(24.13)"> </text><text class="cls-3" transform="translate(622.53 101.03) rotate(24.99)">U</text><text class="cls-3" transform="matrix(0.9, 0.44, -0.44, 0.9, 629.53, 104.32)">I</text><text class="cls-3" transform="matrix(0.9, 0.44, -0.44, 0.9, 632.09, 105.56)"> </text><text class="cls-3" transform="translate(634.35 106.66) rotate(27.21)">D</text><text class="cls-3" transform="translate(641.47 110.32) rotate(28.39)">e</text><text class="cls-3" transform="matrix(0.87, 0.49, -0.49, 0.87, 646.72, 113.17)">s</text><text class="cls-3" transform="translate(650.84 115.49) rotate(29.92)">i</text><text class="cls-3" transform="matrix(0.86, 0.51, -0.51, 0.86, 653.27, 116.87)">g</text><text class="cls-3" transform="translate(658.94 120.23) rotate(31.81)">n</text><text class="cls-3" transform="matrix(0.84, 0.54, -0.54, 0.84, 664.56, 123.74)"> </text><text class="cls-3" transform="translate(666.68 125.09) rotate(33)"> </text><text class="cls-3" transform="translate(668.83 126.49) rotate(33.43)"> </text><text class="cls-3" transform="matrix(0.83, 0.56, -0.56, 0.83, 670.93, 127.87)"> </text><text class="cls-3" transform="translate(673.02 129.28) rotate(34.27)"> </text><text class="cls-3" transform="matrix(0.82, 0.57, -0.57, 0.82, 675.13, 130.71)"> </text><text class="cls-3" transform="translate(677.2 132.15) rotate(35.12)"> </text><text class="cls-3" transform="translate(679.25 133.59) rotate(35.54)"> </text><text class="cls-3" transform="matrix(0.8, 0.59, -0.59, 0.8, 681.31, 135.04)">G</text><text class="cls-3" transform="translate(687.51 139.63) rotate(37.37)">r</text><text class="cls-3" transform="translate(690.58 141.97) rotate(38.17)">a</text><text class="cls-3" transform="translate(695.11 145.52) rotate(39.22)">p</text><text class="cls-3" transform="matrix(0.76, 0.65, -0.65, 0.76, 700.36, 149.81)">h</text><text class="cls-3" transform="translate(705.41 154.11) rotate(41.12)">i</text><text class="cls-3" transform="translate(707.5 155.92) rotate(41.8)">c</text><text class="cls-3" transform="translate(711.5 159.51) rotate(42.46)"> </text><text class="cls-3" transform="matrix(0.73, 0.69, -0.69, 0.73, 713.38, 161.2)">D</text><text class="cls-3" transform="matrix(0.71, 0.7, -0.7, 0.71, 719.18, 166.68)">e</text><text class="cls-3" transform="matrix(0.7, 0.71, -0.71, 0.7, 723.43, 170.87)">s</text><text class="cls-3" transform="matrix(0.69, 0.72, -0.72, 0.69, 726.77, 174.26)">i</text><text class="cls-3" transform="translate(728.7 176.24) rotate(46.79)">g</text><text class="cls-3" transform="matrix(0.67, 0.74, -0.74, 0.67, 733.23, 181.06)">n</text><text class="cls-3" transform="translate(737.65 185.97) rotate(48.64)"> </text><text class="cls-3" transform="matrix(0.66, 0.76, -0.76, 0.66, 739.34, 187.89)"> </text><text class="cls-3" transform="matrix(0.65, 0.76, -0.76, 0.65, 740.99, 189.79)"> </text><text class="cls-3" transform="matrix(0.64, 0.76, -0.76, 0.64, 742.62, 191.7)"> </text><text class="cls-3" transform="translate(744.26 193.65) rotate(50.32)"> </text><text class="cls-3" transform="matrix(0.63, 0.77, -0.77, 0.63, 745.87, 195.59)"> </text><text class="cls-3" transform="translate(747.46 197.54) rotate(51.16)"> </text><text class="cls-3" transform="translate(749.06 199.53) rotate(51.58)"> </text><text class="cls-3" transform="translate(750.63 201.5) rotate(51.99)"> </text><text class="cls-3" transform="matrix(0.6, 0.8, -0.8, 0.6, 751.95, 203.13)">W</text><text class="cls-3" transform="matrix(0.58, 0.81, -0.81, 0.58, 757.78, 210.89)">e</text><text class="cls-3" transform="translate(761.28 215.74) rotate(55.29)">b</text><text class="cls-3" transform="matrix(0.56, 0.83, -0.83, 0.56, 765.13, 221.31)">s</text><text class="cls-3" transform="matrix(0.55, 0.84, -0.84, 0.55, 767.76, 225.26)">i</text><text class="cls-3" transform="matrix(0.54, 0.84, -0.84, 0.54, 769.28, 227.58)">t</text><text class="cls-3" transform="translate(771.37 230.85) rotate(58.23)">e</text><text class="cls-3" transform="matrix(0.52, 0.86, -0.86, 0.52, 774.52, 235.94)"> </text><text class="cls-3" transform="translate(775.83 238.08) rotate(59.8)">D</text><text class="cls-3" transform="translate(779.85 245.01) rotate(60.97)">e</text><text class="cls-3" transform="translate(782.74 250.21) rotate(62.02)">p</text><text class="cls-3" transform="matrix(0.46, 0.89, -0.89, 0.46, 785.92, 256.23)">l</text><text class="cls-3" transform="translate(787.22 258.72) rotate(63.6)">o</text><text class="cls-3" transform="matrix(0.43, 0.9, -0.9, 0.43, 790.09, 264.52)">y</text><text class="cls-3" transform="translate(792.52 269.58) rotate(65.89)">m</text><text class="cls-3" transform="matrix(0.39, 0.92, -0.92, 0.39, 796.57, 278.68)">e</text><text class="cls-3" transform="matrix(0.37, 0.93, -0.93, 0.37, 798.89, 284.2)">n</text><text class="cls-3" transform="translate(801.31 290.29) rotate(69.13)">t</text><text class="cls-3" transform="translate(802.72 293.99) rotate(69.67)"> </text><text class="cls-3" transform="translate(803.6 296.36) rotate(70.09)"> </text><text class="cls-3" transform="matrix(0.33, 0.94, -0.94, 0.33, 804.46, 298.74)"> </text><text class="cls-3" transform="translate(805.3 301.13) rotate(70.93)"> </text><text class="cls-3" transform="translate(806.13 303.52) rotate(71.36)"> </text><text class="cls-3" transform="translate(806.94 305.92) rotate(71.78)"> </text><text class="cls-3" transform="matrix(0.31, 0.95, -0.95, 0.31, 807.73, 308.33)"> </text><text class="cls-3" transform="matrix(0.3, 0.95, -0.95, 0.3, 808.51, 310.74)"> </text><text class="cls-3" transform="translate(809.26 313.13) rotate(73.04)"> </text><text class="cls-3" transform="translate(810.01 315.56) rotate(73.73)">L</text><text class="cls-3" transform="translate(811.54 320.8) rotate(74.72)">o</text><text class="cls-3" transform="matrix(0.24, 0.97, -0.97, 0.24, 813.26, 327.1)">g</text><text class="cls-3" transform="matrix(0.23, 0.97, -0.97, 0.23, 814.9, 333.58)">o</text><text class="cls-3" transform="translate(816.38 339.98) rotate(77.69)"> </text><text class="cls-3" transform="translate(816.93 342.44) rotate(78.57)">D</text><text class="cls-3" transform="translate(818.5 350.25) rotate(79.74)">e</text><text class="cls-3" transform="translate(819.56 356.14) rotate(80.64)">s</text><text class="cls-3" transform="translate(820.33 360.82) rotate(81.27)">i</text><text class="cls-3" transform="translate(820.76 363.56) rotate(82.06)">g</text><text class="cls-3" transform="translate(821.67 370.08) rotate(83.17)">n</text><text class="cls-3" transform="matrix(0.11, 0.99, -0.99, 0.11, 822.45, 376.69)"> </text><text class="cls-3" transform="matrix(0.1, 1, -1, 0.1, 822.72, 379.19)"> </text><text class="cls-3" transform="translate(822.97 381.73) rotate(84.79)"> </text><text class="cls-3" transform="matrix(0.08, 1, -1, 0.08, 823.2, 384.23)"> </text><text class="cls-3" transform="translate(823.41 386.75) rotate(85.63)"> </text><text class="cls-3" transform="translate(823.6 389.26) rotate(86.06)"> </text><text class="cls-3" transform="translate(823.78 391.82) rotate(86.49)"> </text><text class="cls-3" transform="matrix(0.05, 1, -1, 0.05, 823.93, 394.32)"> </text><text class="cls-3" transform="translate(824.09 396.81) rotate(87.92)">M</text><text class="cls-3" transform="matrix(0.01, 1, -1, 0.01, 824.43, 406.49)">o</text><text class="cls-3" transform="translate(824.51 413.04) rotate(90.4)">d</text><text class="cls-3" transform="translate(824.46 419.78) rotate(91.46)">e</text><text class="cls-3" transform="translate(824.3 425.74) rotate(92.28)">r</text><text class="cls-3" transform="matrix(-0.06, 1, -1, -0.06, 824.15, 429.68)">n</text><text class="cls-3" transform="matrix(-0.07, 1, -1, -0.07, 823.77, 436.3)"> </text><text class="cls-3" transform="translate(823.63 438.83) rotate(94.94)">M</text><text class="cls-3" transform="matrix(-0.11, 0.99, -0.99, -0.11, 822.78, 448.45)">e</text><text class="cls-3" transform="matrix(-0.13, 0.99, -0.99, -0.13, 822.13, 454.39)">d</text><text class="cls-3" transform="translate(821.26 461.08) rotate(98.08)">i</text><text class="cls-3" transform="matrix(-0.15, 0.99, -0.99, -0.15, 820.88, 463.84)">a</text><text class="cls-3" transform="matrix(-0.16, 0.99, -0.99, -0.16, 819.99, 469.53)"> </text><text class="cls-3" transform="translate(819.57 472.01) rotate(99.94)">U</text><text class="cls-3" transform="translate(818.32 479.21) rotate(101.79)">A</text><text class="cls-3" transform="translate(816.97 485.76) rotate(102.5)">V</text><text class="cls-3" transform="translate(815.51 492.27) rotate(103.25)"> </text><text class="cls-3" transform="translate(814.95 494.72) rotate(103.94)">S</text><text class="cls-3" transform="matrix(-0.26, 0.97, -0.97, -0.26, 813.51, 500.5)">e</text><text class="cls-3" transform="translate(811.97 506.27) rotate(105.75)">r</text><text class="cls-3" transform="translate(810.83 510.3) rotate(106.6)">v</text><text class="cls-3" transform="translate(809.18 515.83) rotate(107.31)">i</text><text class="cls-3" transform="translate(808.36 518.46) rotate(107.98)">c</text><text class="cls-3" transform="translate(806.74 523.47) rotate(108.91)">e</text><text class="cls-3" transform="matrix(-0.34, 0.94, -0.94, -0.34, 804.79, 529.15)">s</text><text class="cls-3" transform="translate(803.18 533.61) rotate(110.41)"> </text><text class="cls-3" transform="translate(802.3 535.97) rotate(110.84)"> </text><text class="cls-3" transform="translate(801.4 538.33) rotate(111.26)"> </text><text class="cls-3" transform="translate(800.49 540.67) rotate(111.68)"> </text><text class="cls-3" transform="translate(799.55 543.04) rotate(112.1)"> </text><text class="cls-3" transform="matrix(-0.38, 0.92, -0.92, -0.38, 798.6, 545.37)"> </text><text class="cls-3" transform="translate(797.63 547.72) rotate(112.95)"> </text><text class="cls-3" transform="translate(796.64 550.06) rotate(113.38)"> </text><text class="cls-3" transform="translate(795.65 552.36) rotate(113.8)"> </text><text class="cls-3" transform="translate(794.62 554.67) rotate(114.22)"> </text><text class="cls-3" transform="translate(793.59 557) rotate(114.98)">R</text><text class="cls-3" transform="translate(790.87 562.83) rotate(116.02)">e</text><text class="cls-3" transform="translate(788.25 568.21) rotate(117)">a</text><text class="cls-3" transform="translate(785.63 573.34) rotate(117.94)">c</text><text class="cls-3" transform="translate(783.05 578.19) rotate(118.74)">t</text><text class="cls-3" transform="translate(781.15 581.65) rotate(119.28)"> </text><text class="cls-3" transform="translate(779.94 583.85) rotate(120.16)">D</text><text class="cls-3" transform="translate(775.91 590.76) rotate(121.34)">e</text><text class="cls-3" transform="matrix(-0.53, 0.85, -0.85, -0.53, 772.79, 595.88)">v</text><text class="cls-3" transform="matrix(-0.55, 0.84, -0.84, -0.55, 769.79, 600.63)">e</text><text class="cls-3" transform="translate(766.5 605.62) rotate(124.02)">l</text><text class="cls-3" transform="translate(764.95 607.95) rotate(124.81)">o</text><text class="cls-3" transform="translate(761.2 613.35) rotate(125.93)">p</text><text class="cls-3" transform="matrix(-0.61, 0.8, -0.8, -0.61, 757.25, 618.83)">m</text><text class="cls-3" transform="matrix(-0.62, 0.78, -0.78, -0.62, 751.19, 626.75)">e</text><text class="cls-3" transform="translate(747.45 631.42) rotate(129.71)">n</text><text class="cls-3" transform="translate(743.24 636.47) rotate(130.58)">t</text><text class="cls-3" transform="translate(740.67 639.47) rotate(131.12)"> </text><text class="cls-3" transform="translate(739 641.38) rotate(131.54)"> </text><text class="cls-3" transform="matrix(-0.67, 0.74, -0.74, -0.67, 737.32, 643.27)"> </text><text class="cls-3" transform="translate(735.63 645.15) rotate(132.39)"> </text><text class="cls-3" transform="translate(733.93 647.02) rotate(132.81)"> </text><text class="cls-3" transform="translate(732.21 648.87) rotate(133.23)"> </text><text class="cls-3" transform="matrix(-0.69, 0.72, -0.72, -0.69, 730.48, 650.71)"> </text><text class="cls-3" transform="matrix(-0.7, 0.72, -0.72, -0.7, 728.74, 652.54)"> </text><text class="cls-3" transform="matrix(-0.7, 0.71, -0.71, -0.7, 726.98, 654.36)"> </text><text class="cls-3" transform="translate(725.19 656.18) rotate(134.91)"> </text><text class="cls-3" transform="translate(723.77 657.66) rotate(135.89)">W</text><text class="cls-3" transform="translate(716.77 664.42) rotate(137.16)">e</text><text class="cls-3" transform="translate(712.39 668.49) rotate(138.22)">b</text><text class="cls-3" transform="translate(707.31 673.01) rotate(138.99)"> </text><text class="cls-3" transform="matrix(-0.76, 0.64, -0.64, -0.76, 705.43, 674.67)">D</text><text class="cls-3" transform="matrix(-0.78, 0.63, -0.63, -0.78, 699.32, 679.81)">e</text><text class="cls-3" transform="translate(694.66 683.58) rotate(141.99)">v</text><text class="cls-3" transform="translate(690.23 687.04) rotate(142.94)">e</text><text class="cls-3" transform="matrix(-0.81, 0.59, -0.59, -0.81, 685.46, 690.63)">l</text><text class="cls-3" transform="matrix(-0.81, 0.58, -0.58, -0.81, 683.21, 692.3)">o</text><text class="cls-3" transform="translate(677.88 696.11) rotate(145.55)">p</text><text class="cls-3" transform="matrix(-0.84, 0.55, -0.55, -0.84, 672.29, 699.97)">m</text><text class="cls-3" transform="translate(663.93 705.39) rotate(148.25)">e</text><text class="cls-3" transform="matrix(-0.86, 0.51, -0.51, -0.86, 658.86, 708.53)">n</text><text class="cls-3" transform="translate(653.18 711.89) rotate(150.16)">t</text><text class="cls-3" transform="translate(649.76 713.85) rotate(150.7)"> </text><text class="cls-3" transform="translate(647.57 715.08) rotate(151.11)"> </text><text class="cls-3" transform="matrix(-0.88, 0.48, -0.48, -0.88, 645.34, 716.31)"> </text><text class="cls-3" transform="matrix(-0.88, 0.47, -0.47, -0.88, 643.12, 717.51)"> </text><text class="cls-3" transform="translate(640.87 718.71) rotate(152.38)"> </text><text class="cls-3" transform="translate(638.64 719.88) rotate(152.79)"> </text><text class="cls-3" transform="translate(636.4 721.03) rotate(153.21)"> </text><text class="cls-3" transform="matrix(-0.9, 0.44, -0.44, -0.9, 634.13, 722.18)"> </text><text class="cls-3" transform="matrix(-0.9, 0.44, -0.44, -0.9, 631.87, 723.3)"> </text><text class="cls-3" transform="translate(629.6 724.4) rotate(154.47)"> </text><text class="cls-3" transform="translate(627.33 725.49) rotate(154.89)"> </text><text class="cls-3" transform="translate(625.46 726.41) rotate(155.87)">W</text><text class="cls-3" transform="matrix(-0.92, 0.39, -0.39, -0.92, 616.57, 730.37)">o</text><text class="cls-3" transform="matrix(-0.93, 0.37, -0.37, -0.93, 610.53, 732.9)">r</text><text class="cls-3" transform="translate(607.05 734.32) rotate(158.92)">d</text><text class="cls-3" transform="translate(600.76 736.74) rotate(160.05)">p</text><text class="cls-3" transform="translate(594.36 739.05) rotate(160.94)">r</text><text class="cls-3" transform="matrix(-0.95, 0.31, -0.31, -0.95, 590.8, 740.29)">e</text><text class="cls-3" transform="translate(585.11 742.16) rotate(162.64)">s</text><text class="cls-3" transform="matrix(-0.96, 0.29, -0.29, -0.96, 580.61, 743.57)">s</text><text class="cls-3" transform="matrix(-0.96, 0.28, -0.28, -0.96, 576.06, 744.92)"> </text><text class="cls-3" transform="translate(573.64 745.62) rotate(164.73)">S</text><text class="cls-3" transform="translate(567.9 747.19) rotate(165.74)">e</text><text class="cls-3" transform="matrix(-0.97, 0.23, -0.23, -0.97, 562.11, 748.66)">r</text><text class="cls-3" transform="translate(558.02 749.64) rotate(167.42)">v</text><text class="cls-3" transform="translate(552.42 750.88) rotate(168.14)">i</text><text class="cls-3" transform="matrix(-0.98, 0.19, -0.19, -0.98, 549.7, 751.46)">c</text><text class="cls-3" transform="translate(544.51 752.49) rotate(169.76)">e</text><text class="cls-3" transform="translate(538.65 753.54) rotate(170.65)">s</text><text class="cls-3" transform="translate(533.96 754.31) rotate(171.26)"> </text><text class="cls-3" transform="translate(531.46 754.69) rotate(171.69)"> </text><text class="cls-3" transform="translate(528.98 755.05) rotate(172.11)"> </text><text class="cls-3" transform="translate(526.47 755.4) rotate(172.53)"> </text><text class="cls-3" transform="matrix(-0.99, 0.12, -0.12, -0.99, 523.95, 755.73)"> </text><text class="cls-3" transform="translate(521.46 756.04) rotate(173.38)"> </text><text class="cls-3" transform="translate(518.93 756.33) rotate(173.81)"> </text><text class="cls-3" transform="matrix(-0.99, 0.1, -0.1, -0.99, 516.43, 756.6)"> </text><text class="cls-3" transform="translate(513.92 756.87) rotate(174.93)">F</text><text class="cls-3" transform="translate(508.44 757.35) rotate(175.7)">r</text><text class="cls-3" transform="matrix(-1, 0.06, -0.06, -1, 504.66, 757.64)">o</text><text class="cls-3" transform="translate(498.12 758.04) rotate(177.66)">n</text><text class="cls-3" transform="matrix(-1, 0.03, -0.03, -1, 491.54, 758.3)">t</text><text class="cls-3" transform="translate(487.68 758.41) rotate(179.36)">e</text><text class="cls-3" transform="translate(481.7 758.48) rotate(-179.59)">n</text><text class="cls-3" transform="translate(475.09 758.43) rotate(-178.48)">d</text><text class="cls-3" transform="translate(468.36 758.24) rotate(-177.7)"> </text><text class="cls-3" transform="translate(465.85 758.16) rotate(-176.83)">D</text><text class="cls-3" transform="translate(457.85 757.7) rotate(-175.66)">e</text><text class="cls-3" transform="translate(451.9 757.25) rotate(-174.69)">v</text><text class="cls-3" transform="translate(446.3 756.73) rotate(-173.74)">e</text><text class="cls-3" transform="matrix(-0.99, -0.12, 0.12, -0.99, 440.34, 756.07)">l</text><text class="cls-3" transform="translate(437.57 755.74) rotate(-172.24)">o</text><text class="cls-3" transform="translate(431.06 754.86) rotate(-171.14)">p</text><text class="cls-3" transform="matrix(-0.98, -0.17, 0.17, -0.98, 424.36, 753.81)">m</text><text class="cls-3" transform="translate(414.56 752.06) rotate(-168.21)">e</text><text class="cls-3" transform="translate(408.71 750.85) rotate(-167.44)">n</text><text class="cls-3" transform="translate(402.28 749.41) rotate(-166.58)">t</text><text class="cls-3" transform="matrix(-0.97, -0.24, 0.24, -0.97, 398.44, 748.49)"> </text><text class="cls-3" transform="translate(395.99 747.88) rotate(-165.63)"> </text><text class="cls-3" transform="translate(393.55 747.25) rotate(-165.21)"> </text><text class="cls-3" transform="matrix(-0.96, -0.26, 0.26, -0.96, 391.1, 746.61)"> </text><text class="cls-3" transform="translate(388.65 745.94) rotate(-164.38)"> </text><text class="cls-3" transform="translate(386.22 745.26) rotate(-163.96)"> </text><text class="cls-3" transform="translate(383.8 744.57) rotate(-163.54)"> </text><text class="cls-3" transform="translate(381.35 743.84) rotate(-163.12)"> </text><text class="cls-3" transform="matrix(-0.95, -0.3, 0.3, -0.95, 378.96, 743.14)">U</text><text class="cls-3" transform="matrix(-0.95, -0.32, 0.32, -0.95, 371.59, 740.78)">X</text><text class="cls-3" transform="translate(365.15 738.55) rotate(-160.28)"> </text><text class="cls-3" transform="matrix(-0.94, -0.35, 0.35, -0.94, 362.76, 737.72)">D</text><text class="cls-3" transform="translate(355.3 734.9) rotate(-158.23)">e</text><text class="cls-3" transform="translate(349.74 732.68) rotate(-157.33)">s</text><text class="cls-3" transform="translate(345.38 730.85) rotate(-156.71)">i</text><text class="cls-3" transform="matrix(-0.91, -0.41, 0.41, -0.91, 342.82, 729.76)">g</text><text class="cls-3" transform="matrix(-0.9, -0.43, 0.43, -0.9, 336.77, 727.06)">n</text><text class="cls-3" transform="translate(330.8 724.24) rotate(-154.04)"> </text><text class="cls-3" transform="matrix(-0.9, -0.44, 0.44, -0.9, 328.5, 723.12)"> </text><text class="cls-3" transform="matrix(-0.89, -0.45, 0.45, -0.89, 326.25, 722)"> </text><text class="cls-3" transform="translate(324 720.86) rotate(-152.77)"> </text><text class="cls-3" transform="translate(321.73 719.7) rotate(-152.34)"> </text><text class="cls-3" transform="translate(319.51 718.53) rotate(-151.92)"> </text><text class="cls-3" transform="matrix(-0.88, -0.48, 0.48, -0.88, 317.26, 717.33)"> </text><text class="cls-3" transform="translate(315.06 716.14) rotate(-151.07)"> </text><text class="cls-3" transform="matrix(-0.87, -0.5, 0.5, -0.87, 312.83, 714.93)">U</text><text class="cls-3" transform="translate(306.15 711.08) rotate(-149.32)">I</text><text class="cls-3" transform="translate(303.69 709.62) rotate(-148.87)"> </text><text class="cls-3" transform="matrix(-0.85, -0.53, 0.53, -0.85, 301.54, 708.35)">D</text><text class="cls-3" transform="translate(294.75 704.09) rotate(-146.82)">e</text><text class="cls-3" transform="matrix(-0.83, -0.56, 0.56, -0.83, 289.74, 700.81)">s</text><text class="cls-3" transform="translate(285.82 698.15) rotate(-145.29)">i</text><text class="cls-3" transform="matrix(-0.81, -0.58, 0.58, -0.81, 283.55, 696.59)">g</text><text class="cls-3" transform="matrix(-0.8, -0.6, 0.6, -0.8, 278.16, 692.75)">n</text><text class="cls-3" transform="matrix(-0.79, -0.61, 0.61, -0.79, 272.86, 688.8)"> </text><text class="cls-3" transform="translate(270.84 687.25) rotate(-142.21)"> </text><text class="cls-3" transform="translate(268.83 685.7) rotate(-141.78)"> </text><text class="cls-3" transform="matrix(-0.78, -0.62, 0.62, -0.78, 266.86, 684.15)"> </text><text class="cls-3" transform="translate(264.88 682.56) rotate(-140.94)"> </text><text class="cls-3" transform="matrix(-0.77, -0.64, 0.64, -0.77, 262.91, 680.97)"> </text><text class="cls-3" transform="translate(260.96 679.36) rotate(-140.1)"> </text><text class="cls-3" transform="translate(259.01 677.73) rotate(-139.67)"> </text><text class="cls-3" transform="translate(257.1 676.13) rotate(-138.82)">G</text><text class="cls-3" transform="translate(251.3 671.04) rotate(-137.86)">r</text><text class="cls-3" transform="matrix(-0.73, -0.68, 0.68, -0.73, 248.43, 668.45)">a</text><text class="cls-3" transform="translate(244.23 664.55) rotate(-136.02)">p</text><text class="cls-3" transform="translate(239.35 659.84) rotate(-134.9)">h</text><text class="cls-3" transform="translate(234.67 655.12) rotate(-134.12)">i</text><text class="cls-3" transform="matrix(-0.69, -0.73, 0.73, -0.69, 232.72, 653.13)">c</text><text class="cls-3" transform="translate(229.04 649.23) rotate(-132.79)"> </text><text class="cls-3" transform="translate(227.32 647.4) rotate(-131.92)">D</text><text class="cls-3" transform="matrix(-0.65, -0.76, 0.76, -0.65, 221.99, 641.45)">e</text><text class="cls-3" transform="translate(218.08 636.91) rotate(-129.87)">s</text><text class="cls-3" transform="translate(215.06 633.29) rotate(-129.25)">i</text><text class="cls-3" transform="translate(213.29 631.13) rotate(-128.46)">g</text><text class="cls-3" transform="translate(209.2 625.99) rotate(-127.38)">n</text><text class="cls-3" transform="translate(205.18 620.71) rotate(-126.62)"> </text><text class="cls-3" transform="translate(203.66 618.66) rotate(-126.2)"> </text><text class="cls-3" transform="matrix(-0.58, -0.81, 0.81, -0.58, 202.18, 616.63)"> </text><text class="cls-3" transform="matrix(-0.58, -0.82, 0.82, -0.58, 200.69, 614.57)"> </text><text class="cls-3" transform="translate(199.23 612.52) rotate(-124.95)"> </text><text class="cls-3" transform="translate(197.77 610.43) rotate(-124.52)"> </text><text class="cls-3" transform="translate(196.35 608.36) rotate(-124.11)"> </text><text class="cls-3" transform="translate(194.92 606.25) rotate(-123.69)"> </text><text class="cls-3" transform="translate(193.52 604.16) rotate(-123.27)"> </text><text class="cls-3" transform="translate(192.36 602.45) rotate(-122.3)">W</text><text class="cls-3" transform="matrix(-0.52, -0.86, 0.86, -0.52, 187.19, 594.23)">e</text><text class="cls-3" transform="matrix(-0.5, -0.87, 0.87, -0.5, 184.1, 589.11)">b</text><text class="cls-3" transform="translate(180.71 583.2) rotate(-119.02)">s</text><text class="cls-3" transform="translate(178.42 579.08) rotate(-118.4)">i</text><text class="cls-3" transform="translate(177.09 576.61) rotate(-117.84)">t</text><text class="cls-3" transform="translate(175.28 573.21) rotate(-117.03)">e</text><text class="cls-3" transform="translate(172.56 567.86) rotate(-116.32)"> </text><text class="cls-3" transform="matrix(-0.43, -0.9, 0.9, -0.43, 171.43, 565.62)">D</text><text class="cls-3" transform="translate(168 558.39) rotate(-114.29)">e</text><text class="cls-3" transform="translate(165.54 552.96) rotate(-113.23)">p</text><text class="cls-3" transform="translate(162.87 546.69) rotate(-112.43)">l</text><text class="cls-3" transform="translate(161.79 544.12) rotate(-111.65)">o</text><text class="cls-3" transform="translate(159.4 538.08) rotate(-110.65)">y</text><text class="cls-3" transform="translate(157.4 532.84) rotate(-109.35)">m</text><text class="cls-3" transform="translate(154.12 523.45) rotate(-108.03)">e</text><text class="cls-3" transform="translate(152.27 517.76) rotate(-106.97)">n</text><text class="cls-3" transform="matrix(-0.28, -0.96, 0.96, -0.28, 150.36, 511.46)">t</text><text class="cls-3" transform="translate(149.27 507.67) rotate(-105.56)"> </text><text class="cls-3" transform="matrix(-0.26, -0.97, 0.97, -0.26, 148.58, 505.23)"> </text><text class="cls-3" transform="translate(147.93 502.8) rotate(-104.71)"> </text><text class="cls-3" transform="matrix(-0.25, -0.97, 0.97, -0.25, 147.28, 500.34)"> </text><text class="cls-3" transform="translate(146.66 497.91) rotate(-103.87)"> </text><text class="cls-3" transform="translate(146.05 495.43) rotate(-103.44)"> </text><text class="cls-3" transform="translate(145.47 492.99) rotate(-103.02)"> </text><text class="cls-3" transform="translate(144.89 490.5) rotate(-102.59)"> </text><text class="cls-3" transform="translate(144.34 488.04) rotate(-102.17)"> </text><text class="cls-3" transform="matrix(-0.2, -0.98, 0.98, -0.2, 143.8, 485.57)">L</text><text class="cls-3" transform="translate(142.71 480.24) rotate(-100.5)">o</text><text class="cls-3" transform="translate(141.51 473.78) rotate(-99.38)">g</text><text class="cls-3" transform="matrix(-0.14, -0.99, 0.99, -0.14, 140.43, 467.23)">o</text><text class="cls-3" transform="translate(139.5 460.73) rotate(-97.51)"> </text><text class="cls-3" transform="translate(139.15 458.23) rotate(-96.63)">D</text><text class="cls-3" transform="translate(138.23 450.28) rotate(-95.46)">e</text><text class="cls-3" transform="translate(137.67 444.34) rotate(-94.56)">s</text><text class="cls-3" transform="translate(137.3 439.63) rotate(-93.93)">i</text><text class="cls-3" transform="translate(137.09 436.83) rotate(-93.13)">g</text><text class="cls-3" transform="translate(136.73 430.25) rotate(-92.03)">n</text><text class="cls-3" transform="translate(136.51 423.62) rotate(-91.27)"> </text><text class="cls-3" transform="matrix(-0.01, -1, 1, -0.01, 136.45, 421.08)"> </text><text class="cls-3" transform="translate(136.42 418.57) rotate(-90.42)"> </text><text class="cls-3" transform="translate(136.4 416.04) rotate(-90)"> </text><text class="cls-3" transform="translate(136.4 413.5) rotate(-89.57)"> </text><text class="cls-3" transform="matrix(0.01, -1, 1, 0.01, 136.42, 410.98)"> </text><text class="cls-3" transform="matrix(0.02, -1, 1, 0.02, 136.46, 408.46)"> </text><text class="cls-3" transform="matrix(0.03, -1, 1, 0.03, 136.51, 405.94)"> </text><text class="cls-3" transform="translate(136.56 403.41) rotate(-87.29)">M</text><text class="cls-3" transform="matrix(0.07, -1, 1, 0.07, 137.03, 393.76)">o</text><text class="cls-3" transform="translate(137.49 387.21) rotate(-84.83)">d</text><text class="cls-3" transform="translate(138.1 380.51) rotate(-83.78)">e</text><text class="cls-3" transform="translate(138.76 374.57) rotate(-82.97)">r</text><text class="cls-3" transform="translate(139.23 370.65) rotate(-82.09)">n</text><text class="cls-3" transform="translate(140.16 364.07) rotate(-81.33)"> </text><text class="cls-3" transform="matrix(0.17, -0.99, 0.99, 0.17, 140.5, 361.6)">M</text><text class="cls-3" transform="translate(142.1 352.07) rotate(-78.21)">e</text><text class="cls-3" transform="matrix(0.21, -0.98, 0.98, 0.21, 143.27, 346.21)">d</text><text class="cls-3" transform="matrix(0.22, -0.98, 0.98, 0.22, 144.69, 339.61)">i</text><text class="cls-3" transform="matrix(0.23, -0.97, 0.97, 0.23, 145.3, 336.89)">a</text><text class="cls-3" transform="translate(146.64 331.3) rotate(-75.86)"> </text><text class="cls-3" transform="matrix(0.26, -0.97, 0.97, 0.26, 147.24, 328.84)">U</text><text class="cls-3" transform="matrix(0.28, -0.96, 0.96, 0.28, 149.13, 321.77)">A</text><text class="cls-3" transform="translate(150.98 315.38) rotate(-72.78)">V</text><text class="cls-3" transform="matrix(0.31, -0.95, 0.95, 0.31, 152.97, 309.02)"> </text><text class="cls-3" transform="translate(153.73 306.62) rotate(-71.32)">S</text><text class="cls-3" transform="translate(155.65 300.97) rotate(-70.32)">e</text><text class="cls-3" transform="translate(157.67 295.33) rotate(-69.49)">r</text><text class="cls-3" transform="translate(159.13 291.41) rotate(-68.64)">v</text><text class="cls-3" transform="translate(161.23 286.06) rotate(-67.92)">i</text><text class="cls-3" transform="translate(162.28 283.46) rotate(-67.24)">c</text><text class="cls-3" transform="translate(164.31 278.61) rotate(-66.3)">e</text><text class="cls-3" transform="translate(166.71 273.15) rotate(-65.41)">s</text><text class="cls-3" transform="matrix(0.43, -0.9, 0.9, 0.43, 168.69, 268.85)"> </text><text class="cls-3" transform="matrix(0.43, -0.9, 0.9, 0.43, 169.77, 266.55)"> </text><text class="cls-3" transform="translate(170.87 264.26) rotate(-63.95)"> </text><text class="cls-3" transform="translate(171.98 261.99) rotate(-63.52)"> </text><text class="cls-3" transform="matrix(0.45, -0.89, 0.89, 0.45, 173.1, 259.74)"> </text><text class="cls-3" transform="translate(174.25 257.46) rotate(-62.67)"> </text><text class="cls-3" transform="translate(175.41 255.23) rotate(-62.25)"> </text><text class="cls-3" transform="translate(176.58 252.99) rotate(-61.83)"> </text><text class="cls-3" transform="translate(177.78 250.76) rotate(-61.4)"> </text><text class="cls-3" transform="translate(178.99 248.53) rotate(-60.98)"> </text><text class="cls-3" transform="matrix(0.5, -0.87, 0.87, 0.5, 180.19, 246.35)">R</text><text class="cls-3" transform="translate(183.41 240.72) rotate(-59.18)">e</text><text class="cls-3" transform="matrix(0.53, -0.85, 0.85, 0.53, 186.48, 235.58)">a</text><text class="cls-3" transform="matrix(0.54, -0.84, 0.84, 0.54, 189.51, 230.69)">c</text><text class="cls-3" transform="translate(192.48 226.08) rotate(-56.46)">t</text><text class="cls-3" transform="translate(194.67 222.79) rotate(-55.92)"> </text><text class="cls-3" transform="matrix(0.57, -0.82, 0.82, 0.57, 196.06, 220.7)">D</text><text class="cls-3" transform="matrix(0.59, -0.81, 0.81, 0.59, 200.66, 214.14)">e</text><text class="cls-3" transform="matrix(0.6, -0.8, 0.8, 0.6, 204.19, 209.31)">v</text><text class="cls-3" transform="translate(207.57 204.83) rotate(-51.93)">e</text><text class="cls-3" transform="translate(211.27 200.13) rotate(-51.19)">l</text><text class="cls-3" transform="translate(213.02 197.93) rotate(-50.41)">o</text><text class="cls-3" transform="matrix(0.65, -0.76, 0.76, 0.65, 217.2, 192.87)">p</text><text class="cls-3" transform="matrix(0.67, -0.74, 0.74, 0.67, 221.61, 187.72)">m</text><text class="cls-3" transform="matrix(0.69, -0.73, 0.73, 0.69, 228.29, 180.36)">e</text><text class="cls-3" transform="matrix(0.7, -0.71, 0.71, 0.7, 232.4, 176.01)">n</text><text class="cls-3" transform="translate(237.02 171.32) rotate(-44.66)">t</text><text class="cls-3" transform="matrix(0.72, -0.7, 0.7, 0.72, 239.83, 168.54)"> </text><text class="cls-3" transform="matrix(0.72, -0.69, 0.69, 0.72, 241.64, 166.79)"> </text><text class="cls-3" transform="translate(243.49 165.02) rotate(-43.28)"> </text><text class="cls-3" transform="translate(245.32 163.3) rotate(-42.86)"> </text><text class="cls-3" transform="matrix(0.74, -0.67, 0.67, 0.74, 247.17, 161.58)"> </text><text class="cls-3" transform="matrix(0.74, -0.67, 0.67, 0.74, 249.03, 159.88)"> </text><text class="cls-3" transform="translate(250.92 158.17) rotate(-41.6)"> </text><text class="cls-3" transform="translate(252.81 156.5) rotate(-41.18)"> </text><text class="cls-3" transform="translate(254.7 154.84) rotate(-40.76)"> </text><text class="cls-3" transform="translate(256.63 153.18) rotate(-40.34)"> </text><text class="cls-3" transform="translate(258.19 151.81) rotate(-39.37)">W</text><text class="cls-3" transform="translate(265.71 145.66) rotate(-38.1)">e</text><text class="cls-3" transform="translate(270.41 141.97) rotate(-37.04)">b</text><text class="cls-3" transform="translate(275.84 137.9) rotate(-36.27)"> </text><text class="cls-3" transform="matrix(0.82, -0.58, 0.58, 0.82, 277.86, 136.38)">D</text><text class="cls-3" transform="translate(284.38 131.76) rotate(-34.25)">e</text><text class="cls-3" transform="matrix(0.84, -0.55, 0.55, 0.84, 289.33, 128.39)">v</text><text class="cls-3" transform="translate(294.03 125.31) rotate(-32.33)">e</text><text class="cls-3" transform="translate(299.08 122.12) rotate(-31.6)">l</text><text class="cls-3" transform="translate(301.48 120.63) rotate(-30.82)">o</text><text class="cls-3" transform="matrix(0.87, -0.5, 0.5, 0.87, 307.09, 117.28)">p</text><text class="cls-3" transform="matrix(0.88, -0.47, 0.47, 0.88, 312.98, 113.9)">m</text><text class="cls-3" transform="matrix(0.89, -0.45, 0.45, 0.89, 321.74, 109.2)">e</text><text class="cls-3" transform="translate(327.06 106.48) rotate(-25.97)">n</text><text class="cls-3" transform="translate(333.01 103.6) rotate(-25.09)">t</text><text class="cls-3" transform="translate(336.58 101.93) rotate(-24.56)"> </text><text class="cls-3" transform="translate(338.87 100.88) rotate(-24.14)"> </text><text class="cls-3" transform="translate(341.18 99.85) rotate(-23.72)"> </text><text class="cls-3" transform="translate(343.49 98.83) rotate(-23.3)"> </text><text class="cls-3" transform="matrix(0.92, -0.39, 0.39, 0.92, 345.83, 97.82)"> </text><text class="cls-3" transform="translate(348.16 96.84) rotate(-22.46)"> </text><text class="cls-3" transform="matrix(0.93, -0.38, 0.38, 0.93, 350.49, 95.88)"> </text><text class="cls-3" transform="matrix(0.93, -0.37, 0.37, 0.93, 352.83, 94.93)"> </text><text class="cls-3" transform="translate(354.77 94.12) rotate(-20.63)">W</text><text class="cls-3" transform="translate(363.84 90.72) rotate(-19.32)">o</text><text class="cls-3" transform="matrix(0.95, -0.32, 0.32, 0.95, 370.04, 88.56)">r</text><text class="cls-3" transform="translate(373.62 87.36) rotate(-17.58)">d</text><text class="cls-3" transform="translate(380.04 85.32) rotate(-16.45)">p</text><text class="cls-3" transform="translate(386.55 83.41) rotate(-15.55)">r</text><text class="cls-3" transform="matrix(0.97, -0.25, 0.25, 0.97, 390.19, 82.39)">e</text><text class="cls-3" transform="matrix(0.97, -0.24, 0.24, 0.97, 395.98, 80.87)">s</text><text class="cls-3" transform="translate(400.58 79.74) rotate(-13.06)">s</text><text class="cls-3" transform="translate(405.16 78.68) rotate(-12.46)"> </text><circle class="cls-4" cx="748.46" cy="193.62" r="3.06"/><circle class="cls-4" cx="810.12" cy="305.7" r="3.06"/><circle class="cls-4" cx="826.29" cy="388.73" r="3.06"/><circle class="cls-4" cx="801.4" cy="547.84" r="3.06"/><circle class="cls-4" cx="734.35" cy="652.22" r="3.06"/><circle class="cls-4" cx="637.82" cy="723.47" r="3.06"/><circle class="cls-4" cx="522.83" cy="759.47" r="3.06"/><circle class="cls-4" cx="385.86" cy="749.41" r="3.06"/><circle class="cls-4" cx="318.18" cy="722.47" r="3.06"/><circle class="cls-4" cx="260.97" cy="683.77" r="3.06"/><circle class="cls-4" cx="194.69" cy="613.35" r="3.06"/><circle class="cls-4" cx="142.44" cy="496.21" r="3.06"/><circle class="cls-4" cx="132.39" cy="412.13" r="3.06"/><circle class="cls-4" cx="171.84" cy="254.31" r="3.06"/><circle class="cls-4" cx="247.24" cy="156.94" r="3.06"/><circle class="cls-4" cx="345.29" cy="94.3" r="3.06"/><circle class="cls-4" cx="412.2" cy="72.5" r="3.06"/><circle class="cls-4" cx="546.9" cy="72.44" r="3.06"/><circle class="cls-4" cx="616.37" cy="94.23" r="3.06"/><circle class="cls-4" cx="676.88" cy="128.23" r="3.06"/><circle class="cls-5" cx="476.69" cy="417.35" r="386.94"/></g></g></svg>