<svg width="179" height="69" viewBox="0 0 179 69" fill="none" xmlns="http://www.w3.org/2000/svg">
<path d="M91.7746 35.9088L92.0895 35.6277C93.6251 34.2571 94.922 32.6405 95.9271 30.8442C96.2316 30.2937 96.5081 29.7079 96.7581 29.119L96.7582 29.1187C96.8253 28.9612 96.9155 28.7638 97.0131 28.5502C97.03 28.5131 97.0472 28.4755 97.0646 28.4375C97.1828 28.1783 97.3099 27.8974 97.4261 27.6211C97.5426 27.344 97.6456 27.0776 97.7171 26.8474C97.7918 26.6071 97.8199 26.4433 97.8154 26.3555C97.7923 25.9442 97.5542 25.5855 97.1739 25.274C96.7935 24.9623 96.3034 24.7265 95.8605 24.5653L95.8586 24.5646C95.4389 24.4091 94.9995 24.3134 94.5531 24.2804L94.5463 24.2799L94.5463 24.2798C94.2121 24.2482 93.875 24.2864 93.5563 24.392L93.5462 24.3954L93.5461 24.3952C93.4595 24.4209 93.3796 24.4653 93.312 24.5252C93.2746 24.5585 93.2414 24.5961 93.2132 24.6371C93.2132 24.6375 93.2133 24.6378 93.2133 24.6382L93.2133 24.6396C93.2166 24.7158 93.2039 24.8043 93.1909 24.8779C93.1629 25.0373 93.11 25.2505 93.0524 25.462C92.939 25.8789 92.7896 26.3531 92.7389 26.472L92.7375 26.4755C92.4681 27.0888 92.1554 27.6822 91.8017 28.2511C91.8015 28.2515 91.8012 28.2519 91.801 28.2522L91.5175 28.076L91.7746 35.9088ZM91.7746 35.9088L92.1206 36.1504C93.8348 37.3471 95.7116 38.4055 96.8877 38.8578M91.7746 35.9088L96.8877 38.8578M96.8877 38.8578C96.8396 38.9817 96.8054 39.1091 96.7786 39.2349C96.7399 39.4166 96.7124 39.6203 96.6855 39.8195C96.6743 39.9023 96.6632 39.9844 96.6514 40.0638C96.579 40.5535 96.4685 41.058 96.1426 41.5508C95.5404 41.2235 94.6165 40.6244 93.6073 39.9241C92.4553 39.1247 91.2133 38.2084 90.2544 37.4509L90.0571 37.2951L89.8529 37.4417C87.5577 39.0894 84.7749 40.7643 81.8632 41.7947C78.9507 42.8254 75.9386 43.2013 73.1618 42.2943C70.8468 41.5147 68.8126 40.0705 67.3134 38.1419C67.0439 37.7881 66.8583 37.3776 66.7708 36.9415C66.6832 36.5048 66.6962 36.054 66.8087 35.6231L66.8092 35.6212L66.8328 35.5285L66.8336 35.5254L66.8723 35.3795C67.4408 33.2338 68.0441 30.9569 69.0311 28.9359L69.0465 28.9042L69.0551 28.87C69.1293 28.5718 69.1543 28.5114 69.2655 28.243C69.3022 28.1544 69.3482 28.0431 69.4086 27.8932C69.5519 27.635 69.6449 27.4547 69.7035 27.3289C69.7333 27.2646 69.7565 27.2098 69.773 27.1632C69.7812 27.14 69.7914 27.109 69.7988 27.0737C70.1739 26.6943 70.7217 26.3012 71.3918 25.9033C72.1341 25.4625 73.0057 25.028 73.9154 24.609C74.8247 24.1904 75.766 23.79 76.6477 23.4165L76.7806 23.3602C77.6096 23.0091 78.3838 22.6811 79.014 22.3877L79.3116 22.2491L79.1779 21.9492C78.1663 19.681 77.1056 17.1623 76.5452 14.6257C75.9851 12.0901 75.932 9.56784 76.903 7.27861C78.8763 2.62881 84.5491 1.30924 88.7061 3.99291L96.8877 38.8578ZM74.2226 39.2458L74.222 39.2458C73.2566 39.2983 72.2747 39.2472 71.4636 38.9497C70.6367 38.6463 69.9754 38.08 69.714 37.123C69.3605 35.8318 69.7299 34.5973 70.3748 33.5359C71.0187 32.476 71.9548 31.5574 72.8009 30.8681L72.8015 30.8676C74.8288 29.2233 77.2912 28.1221 79.6247 27.0785C79.8434 26.9807 80.061 26.8834 80.277 26.7862L74.2226 39.2458ZM74.2226 39.2458C77.1469 39.0817 79.9781 37.722 82.4601 36.4305C83.7638 35.7587 85.0178 34.9944 86.2122 34.1435L86.5106 33.9309L86.2712 33.6535C84.4035 31.4897 82.7805 29.1262 81.4315 26.6062L81.2842 26.331L80.9998 26.4595L80.2775 26.786L74.2226 39.2458ZM83.4648 7.07526V7.02695L82.9267 7.44391C80.8126 9.08185 80.1267 11.3182 80.1706 13.6523C80.2142 15.9727 80.9774 18.4155 81.7828 20.5311L81.9228 20.8988L82.2628 20.7007C85.815 18.6306 89.1343 15.722 89.7581 11.3559C89.9376 10.1962 89.8101 9.00965 89.3884 7.91448L89.3884 7.91445L89.386 7.90846C89.2824 7.65431 89.1595 7.40847 89.0184 7.17307C88.8619 6.90746 88.6501 6.67862 88.3974 6.50208C88.1442 6.32527 87.856 6.20508 87.5522 6.14968L87.5513 6.14952C86.1758 5.90278 84.6648 6.32245 83.4648 7.07526ZM88.7062 3.99299C93.1367 6.85596 95.0669 12.2884 92.8076 17.0992L88.7062 3.99299Z" fill="url(#paint0_linear)" stroke="black" stroke-width="0.667531"/>
<path d="M102.369 38.7395L102.37 38.7394C105.183 38.134 108.263 36.5184 111.157 34.6262C113.955 32.7973 116.604 30.6935 118.703 28.9486C118.718 29.0076 118.735 29.0764 118.755 29.1557C118.802 29.3488 118.861 29.59 118.951 29.7942C118.991 29.8859 119.048 29.9946 119.128 30.0916C118.282 31.5409 117.987 32.5773 117.723 33.6133C117.703 33.6905 117.684 33.7676 117.665 33.8449C117.417 34.8269 117.165 35.8275 116.454 37.2465C115.059 38.0081 113.124 38.9671 111.148 39.7967C109.122 40.6469 107.079 41.3503 105.537 41.5768L105.537 41.5768C104.292 41.7597 102.725 41.9416 101.176 42.0027C99.8455 42.0552 98.548 42.0176 97.4863 41.8234C97.7786 41.4682 98.0535 41.1514 98.3277 40.8354C98.3654 40.7919 98.4032 40.7484 98.4409 40.7048C98.8277 40.2586 99.2161 39.8055 99.6446 39.248C100.335 39.1978 101.133 39.0172 101.832 38.8591C102.02 38.8166 102.2 38.7757 102.369 38.7395ZM118.627 28.7159C118.624 28.7122 118.623 28.7099 118.623 28.7097C118.623 28.7095 118.625 28.7113 118.627 28.7159Z" fill="url(#paint1_linear)" stroke="black" stroke-width="0.667531"/>
<path d="M67.2556 0.190504C67.0584 0.329434 65.671 1.16301 65.5884 1.20432C55.8614 5.97674 47.9706 14.0929 43.5868 24.0207C41.3921 28.9922 38.9909 35.6739 42.2482 40.6829C43.0258 41.8617 44.0987 42.8161 45.3599 43.4512C46.6212 44.0863 48.0269 44.3798 49.4369 44.3026C52.4107 44.1543 55.1987 42.7087 57.5098 40.8876C58.9592 39.7423 60.3541 37.9287 61.5632 36.5544C61.8129 35.4543 61.9669 34.8648 62.2635 33.774C62.8061 31.767 63.4162 29.6849 64.2836 27.7493C61.8429 30.3064 59.4023 33.344 56.9898 35.9424C54.7819 38.3174 49.435 43.362 46.4893 39.4757C43.4948 35.5331 46.0613 29.3489 47.7847 25.3537C49.6539 21.0483 52.2176 17.0792 55.3733 13.6047C57.4464 11.3116 59.7666 9.25455 62.2916 7.47118C60.6427 11.2959 60.2082 15.5347 61.0469 19.6144C61.2572 20.6094 61.7153 21.8354 63.2491 21.6927C64.3193 21.5913 64.7323 20.6057 64.5352 19.667C63.3862 14.2018 65.9695 8.00625 69.9365 4.05613C71.2601 2.73442 68.7444 -0.862734 67.2556 0.190504Z" fill="black"/>
<path d="M70.3364 26.2136C70.8919 25.5318 71.5381 24.9292 72.257 24.4225C73.0737 23.8593 72.9028 22.7854 72.2814 22.1565C71.9073 21.7878 71.4383 21.5302 70.9266 21.4122C70.4148 21.2942 69.8803 21.3205 69.3826 21.4881C64.2137 23.1949 59.3001 25.5948 54.7762 28.6224C53.8506 29.24 54.213 30.4773 54.9358 31.078C55.7975 31.7877 57.1399 31.9492 58.0843 31.3202C59.9603 30.0688 61.9108 28.9328 63.9249 27.9183L64.2741 27.7456C63.4068 29.6812 62.7966 31.7633 62.254 33.7703C61.9574 34.8592 61.6858 35.9537 61.4392 37.0539C60.4468 41.4836 59.7984 45.9835 59.4998 50.5132C59.3572 52.6441 63.7841 53.2467 63.9493 50.8136C64.2715 46.1203 64.9996 41.4638 66.1253 36.8962C66.2454 36.4081 66.3656 35.918 66.5008 35.4318C67.079 33.2502 67.6948 30.8809 68.7218 28.7782" fill="black"/>
<path d="M134.807 21.4242C127.363 25.0458 124.451 31.5511 118.648 37.0595C119.524 34.6501 120.469 32.267 121.481 29.9102C121.596 29.6436 121.708 29.377 121.825 29.1104C125.374 21.0089 129.698 13.2692 134.736 5.99927C135.558 4.81085 132.22 2.79261 131.231 3.53983C124.85 8.35453 119.212 14.082 114.499 20.5381C114.244 14.4645 114.778 8.38343 116.087 2.44717C116.386 1.08603 112.55 -0.89278 112.186 0.757481C110.545 8.23904 107.014 15.27 103.661 22.1602C101.13 27.3625 97.9139 32.2983 94.972 37.3017C94.4138 38.2504 93.8505 39.1947 93.2823 40.1347C92.4881 41.4395 89.4336 46.0993 88.2902 47.7514C87.8415 48.3991 85.9115 50.6183 86.0279 51.3711C86.1912 52.4337 90.4192 52.6553 91.3504 52.2986C91.5765 52.135 91.7831 51.946 91.9662 51.7353C92.2178 51.4199 92.4375 51.0707 92.6684 50.7403C93.1327 50.0782 93.5902 49.4111 94.0408 48.739C95.0546 47.237 95.0809 47.0493 96.0459 45.506C96.902 44.143 97.7356 42.7687 98.5635 41.3869C99.332 40.1003 100.088 38.8067 100.831 37.5063C101.267 36.7441 101.698 35.9799 102.125 35.214C105.183 29.7131 108.067 24.0939 110.583 18.3302C110.663 20.7568 110.869 23.1776 111.2 25.5827C111.323 26.4614 112.051 27.0847 112.826 27.4771C113.345 27.7399 114.584 28.2468 115.014 27.5578C117.361 23.791 120.021 20.2276 122.964 16.9053C121.282 20.0343 119.725 23.2259 118.292 26.4802C116.858 29.7344 115.548 33.0468 114.36 36.4174C113.722 38.2347 112.417 43.0222 111.854 44.8658C111.666 45.5135 112.793 46.3678 113.221 46.625C113.795 46.9723 114.869 47.5374 115.445 47.0418C123.518 40.1216 128.428 28.7913 138.089 24.0921C139.478 23.4124 136.157 20.769 134.807 21.4242Z" fill="black"/>
<path d="M2.02607 64.8923C3.1375 65.279 3.8115 65.5775 4.93045 65.371C5.61947 65.2434 6.30661 65.1138 6.99562 64.9955C8.5201 64.7177 10.0464 64.448 11.5747 64.1864C14.337 63.7158 17.1031 63.2714 19.8729 62.8534C25.554 61.9985 31.2489 61.257 36.9575 60.6286C48.3761 59.3708 59.8321 58.566 71.3258 58.2143C94.1476 57.5001 116.99 58.5842 139.642 61.4566C152.427 63.0837 165.122 65.2834 177.727 68.0558C178.715 68.2717 179.265 67.6277 178.872 66.689C178.439 65.647 177.25 64.6388 176.141 64.3966C131.075 54.5188 84.7325 51.8152 38.8237 56.3857C32.4129 57.0252 26.0171 57.8081 19.6364 58.7343C16.4485 59.1962 13.265 59.6968 10.0859 60.2363C8.50633 60.5016 6.92804 60.7751 5.351 61.0567C4.52368 61.2056 3.69635 61.3558 2.86903 61.5073L2.04296 61.6612C1.19249 61.8189 0.972827 61.9804 0.280055 62.568C-0.778816 63.4654 1.46659 64.7064 2.02043 64.8998L2.02607 64.8923Z" fill="black"/>
<defs>
<linearGradient id="paint0_linear" x1="82.2646" y1="2.28442" x2="82.2646" y2="43.1411" gradientUnits="userSpaceOnUse">
<stop offset="0.369792" stop-color="#F5C001"/>
<stop offset="1" stop-color="#F5C001" stop-opacity="0"/>
</linearGradient>
<linearGradient id="paint1_linear" x1="108.228" y1="28.4624" x2="108.228" y2="42.358" gradientUnits="userSpaceOnUse">
<stop offset="0.453125" stop-color="#F5C001"/>
<stop offset="1" stop-color="#F5C001" stop-opacity="0"/>
</linearGradient>
</defs>
</svg>
