<svg width="174" height="508" viewBox="0 0 174 508" fill="none" xmlns="http://www.w3.org/2000/svg">
<path d="M74.8945 489.135V483.402C74.8945 483.174 74.8002 482.956 74.6324 482.795C74.4646 482.633 74.2371 482.543 73.9998 482.543H64.9723C64.8615 482.542 64.7516 482.562 64.649 482.602C64.5465 482.642 64.4533 482.702 64.3749 482.777C64.2966 482.852 64.2347 482.942 64.1929 483.04C64.151 483.139 64.1301 483.244 64.1313 483.351V504.21C64.1313 504.477 64.1861 504.742 64.2927 504.989C64.3992 505.236 64.5554 505.461 64.7523 505.65C64.9492 505.839 65.183 505.989 65.4403 506.092C65.6975 506.194 65.9732 506.247 66.2517 506.247H95.9735C96.2345 506.247 96.4849 506.147 96.6694 505.97C96.854 505.792 96.9577 505.552 96.9577 505.301C96.9577 502.154 95.6574 499.136 93.3425 496.909C91.0275 494.681 87.8871 493.428 84.6109 493.424H79.3769C78.1905 493.424 77.0526 492.971 76.2137 492.165C75.3747 491.359 74.9034 490.266 74.9034 489.126" fill="black"/>
<path d="M39.2587 490.888V485.156C39.2587 484.928 39.1644 484.709 38.9966 484.548C38.8288 484.387 38.6013 484.296 38.364 484.296H29.3365C29.1134 484.296 28.8995 484.381 28.7418 484.533C28.5841 484.684 28.4955 484.89 28.4955 485.104V505.972C28.4978 506.51 28.7223 507.026 29.1197 507.406C29.5171 507.787 30.0551 508 30.6159 508H60.3377C60.5987 508 60.8491 507.9 61.0336 507.723C61.2182 507.546 61.3219 507.305 61.3219 507.055C61.3231 505.496 61.0046 503.953 60.3846 502.513C59.7646 501.073 58.8554 499.765 57.7088 498.662C56.5621 497.56 55.2006 496.686 53.7021 496.089C52.2035 495.493 50.5972 495.186 48.9751 495.186H43.7411C42.5547 495.186 41.4168 494.733 40.5779 493.927C39.7389 493.121 39.2676 492.028 39.2676 490.888" fill="black"/>
<path d="M115.693 173.868L124.309 194.581L152.697 180.984L151.615 173.369L174 163.941L173.087 161.526L149.557 169.803L146.944 167.233L132.2 167.422L119.862 172.08L115.693 173.868Z" fill="#040A00"/>
<path d="M88.0377 251.692L88.2077 256.694C88.7982 274.743 91.6343 297.707 90.1312 315.739L75.6372 489.693H63.6661L55.8286 291.459C55.766 289.912 54.1734 288.674 52.2498 288.674C50.3262 288.674 48.671 289.912 48.671 291.459L40.6188 489.693H28.8714L14.3684 315.593C12.8832 297.664 12.9995 274.734 13.8405 256.78L14.0821 251.623L88.0377 251.692Z" fill="#004643"/>
<path d="M146.944 167.233C146.276 166.837 145.524 166.59 144.743 166.511C134.615 164.792 122.457 166.202 112.767 169.725L88.3417 161.526L88.1091 178.2L117.384 182.42C117.816 182.623 118.304 182.692 118.779 182.617V182.617C119.373 182.54 119.929 182.291 120.372 181.904C121.255 180.953 121.825 179.771 122.009 178.509C122.199 177.255 122.649 176.051 123.333 174.968C124.631 173.249 127.091 172.759 129.265 173.008C131.439 173.258 133.497 174.109 135.617 174.624C137.049 174.968 138.856 175.02 139.662 173.834C140.467 172.648 139.662 171.023 138.355 170.396C138.038 170.235 137.701 170.111 137.353 170.026L134.141 169.889C135.213 169.779 136.296 169.826 137.353 170.026L144.69 170.353C145.844 170.404 147.302 170.275 147.696 169.235C147.811 168.868 147.8 168.476 147.664 168.115C147.529 167.754 147.277 167.445 146.944 167.233V167.233Z" fill="#C69C6D"/>
<path d="M69.8125 86.7446H36.8698V158.664H69.8125V86.7446Z" fill="#E3B37D"/>
<path d="M60.973 101.261C51.3997 102.524 42.1843 97.7799 41.2896 94.8578C40.395 91.9356 48.1609 93.4053 57.7789 90.698C67.3969 87.9907 75.1807 89.6752 76.0665 92.5974" fill="#C69C6D"/>
<path d="M78.3838 92.3912C80.547 90.0566 81.9771 87.1809 82.5084 84.0974C84.4018 73.7148 83.4962 63.0394 79.878 53.0882C79.203 51.2322 78.4295 49.4106 77.5607 47.6306C77.3191 47.1149 77.0686 46.5563 76.7734 46.0234C76.619 46.4437 76.4305 46.8518 76.2097 47.2438C76.0934 47.4501 75.9682 47.6564 75.8339 47.8541V47.8111C75.7803 47.4587 75.7176 47.1235 75.664 46.7711C75.0808 42.6535 74.1014 38.5966 72.7383 34.6528C71.7263 31.8379 70.3688 29.1488 68.6943 26.6426C67.8622 25.3964 66.9675 24.1931 66.0102 22.9985C65.2497 22.0273 64.4266 21.0905 63.7198 20.0849C63.6079 19.9064 63.4854 19.7343 63.3529 19.5692L62.9593 18.9934L62.4135 19.4489C58.6289 22.5859 54.6923 25.8691 50.1562 27.9404C47.0482 29.354 43.8105 30.4876 40.4845 31.3266C37.5864 32.0984 34.5982 32.5142 31.5912 32.5643C29.5077 32.442 27.4574 32.004 25.5162 31.2665C25.2926 31.1977 24.9078 31.086 24.6842 31.0001C24.5723 31.1548 24.4877 31.3261 24.4337 31.5071C24.1205 32.9081 24.55 33.2261 23.9326 34.2316C22.3572 36.8541 21.2646 39.718 20.7028 42.6973C19.5218 48.4299 20.7028 51.8419 22.349 57.4112C22.7695 58.8551 23.9416 64.0291 24.4426 65.4472C24.0131 65.2667 22.5816 63.8228 22.1074 63.7283C20.6896 63.4805 19.228 63.6143 17.8845 64.115C17.4819 64.2611 17.0793 64.4158 16.6856 64.5877C16.0588 64.8893 15.4753 65.2678 14.9499 65.7136C14.4846 66.1348 14.0552 66.5731 13.5899 67.0286C12.9547 67.6646 12.8563 69.1944 12.3016 69.9078C11.7379 69.0483 11.0132 67.7763 10.3959 66.6418C10.3959 68.5928 10.4585 70.6297 10.6464 72.7354C10.6848 73.1345 10.7505 73.5307 10.8432 73.9214C11.7379 76.8694 14.1178 79.0009 16.7751 80.4447C17.7658 81.0192 18.8433 81.4426 19.9691 81.6996C21.0255 81.8519 22.103 81.7963 23.1363 81.5363C23.7102 81.4214 24.2665 81.2365 24.7915 80.9862C24.8791 81.1859 24.9777 81.381 25.0868 81.5707C26.9944 85.0458 29.7175 88.0471 33.0406 90.3371C37.1033 93.1509 41.7569 95.078 46.6758 95.9838C52.1129 96.947 57.6651 97.1611 63.165 96.6198" fill="#E3B37D"/>
<path d="M76.2276 48.2151C76.8528 47.1121 77.265 45.9096 77.4444 44.6655C77.6962 42.0417 77.3261 39.3972 76.3618 36.9304C75.2523 33.6988 73.5524 30.5532 72.5146 27.2701C72.0179 25.8012 71.4201 24.3656 70.7252 22.9728C70.0484 21.1308 69.5541 19.2316 69.2489 17.3004L69.9558 17.1371C72.4271 16.488 75.0221 16.4027 77.5338 16.8878C76.6928 14.0344 74.2682 11.9287 71.8257 10.227C66.9177 6.81852 61.3886 4.32318 55.5243 2.87003C52.7977 2.12382 49.9841 1.71088 47.15 1.641C46.8701 1.61959 46.5888 1.61959 46.3089 1.641C45.9635 1.65273 45.6195 1.69009 45.28 1.75273C44.9947 1.55842 44.6958 1.38325 44.3853 1.22846C41.8176 -0.060727 38.6861 -0.155271 35.8142 0.136945C33.8749 0.364837 31.9511 0.700589 30.0523 1.14251C27.7082 1.65819 25.373 2.24262 23.0647 2.90441C20.6043 3.60916 18.1528 4.3483 15.7551 5.26792C13.6912 6.00391 11.7864 7.09944 10.1364 8.49948C8.91607 9.60533 7.90761 10.9086 7.15703 12.3499C7.04072 12.5733 6.93336 12.7968 6.83494 13.0288C6.76088 13.159 6.653 13.2686 6.5218 13.3468C6.24844 13.5028 5.98549 13.6751 5.73447 13.8625C4.93866 14.464 4.20193 15.1343 3.53352 15.8651C2.2524 17.3676 1.28898 19.0959 0.697328 20.9531C-0.0840617 22.9007 -0.212314 25.0342 0.330503 27.0552C0.831533 28.9804 0.670487 30.9744 1.69044 32.6761C1.94519 33.4232 2.14255 34.1874 2.28094 34.9622C2.21831 36.5351 2.83565 36.1483 2.77302 37.7125C2.64777 40.7722 3.17564 45.4477 3.39036 48.473C3.62909 51.5813 4.33114 54.6407 5.47501 57.5574C6.66763 60.5068 8.06038 63.3778 9.64429 66.152C10.3332 67.4068 11.5142 69.6328 12.3284 70.8705C12.8831 70.1571 12.9815 68.6359 13.6257 67.9827C14.0641 67.5443 14.5204 67.1232 14.9767 66.6763C15.503 66.2275 16.0899 65.8488 16.7213 65.5504C17.1061 65.3871 17.5087 65.2238 17.9113 65.0863C19.2551 64.5871 20.7154 64.4504 22.1342 64.6909C22.6084 64.7855 24.6036 66.6247 25.0241 66.831C24.532 65.3957 24.2457 59.8264 23.8342 58.3739C22.2148 52.8218 20.5327 49.1003 21.7227 43.3763C22.3311 40.4112 22.34 37.7641 23.9594 35.1857C24.5857 34.1801 24.1473 33.8707 24.4694 32.4698C24.5194 32.2846 24.6043 32.1099 24.7199 31.9541C24.9436 32.0487 25.3194 32.1604 25.543 32.2292C27.4903 32.9559 29.5422 33.3907 31.627 33.5183C34.635 33.4739 37.6244 33.055 40.5203 32.2721C43.8472 31.44 47.0854 30.3091 50.1919 28.8945C54.7191 26.8318 58.6557 23.5486 62.4582 20.4116L62.9861 19.9561L63.3976 20.5147C63.5139 20.6952 63.6303 20.8671 63.7555 21.039C64.4623 22.0532 65.2854 22.99 66.0459 23.9612C66.9406 25.1386 67.8353 26.3505 68.73 27.5967C70.3958 30.1106 71.7529 32.8015 72.774 35.6154C74.1275 39.5595 75.1096 43.6124 75.7086 47.7252C75.7086 48.069 75.8071 48.4214 75.8697 48.7738C76.0039 48.5761 76.1292 48.3612 76.2455 48.155" fill="#FFBE3E"/>
<path d="M44.4121 52.8478C44.779 54.051 43.7322 55.4262 42.077 55.8817C40.4218 56.3372 38.7666 55.7528 38.3998 54.5409C38.0329 53.3291 39.0797 51.9625 40.7439 51.5156C42.408 51.0687 44.0453 51.6445 44.4121 52.8478Z" fill="#000738"/>
<path d="M67.737 45.5336C68.1038 46.7368 67.057 48.1119 65.4018 48.5674C63.7466 49.023 62.0914 48.4299 61.7246 47.2267C61.3578 46.0234 62.4046 44.6483 64.0687 44.1928C65.7328 43.7373 67.3701 44.3303 67.737 45.5336Z" fill="#000738"/>
<path d="M45.9869 47.9742L31.2871 52.7958C30.8039 52.9505 30.3924 52.7958 30.4729 52.4434L30.6339 51.9363C30.8254 51.5027 31.1176 51.1169 31.4882 50.8085C31.8589 50.5001 32.2981 50.2773 32.7723 50.1573L42.9897 46.8054C43.4534 46.6224 43.9532 46.5391 44.454 46.5614C44.9547 46.5837 45.4444 46.7109 45.8885 46.9343L46.3627 47.2351C46.6669 47.4242 46.4611 47.8195 45.9869 47.9742" fill="#000738"/>
<path d="M68.8106 40.4199L63.8808 41.5888C61.8863 42.0529 59.9421 42.6975 58.0742 43.514L54.1286 45.2329C53.6455 45.3876 53.2339 45.2329 53.3144 44.8805L53.4755 44.3648C53.6622 43.9706 53.9283 43.6157 54.2585 43.3207C54.5886 43.0257 54.9763 42.7964 55.3991 42.6459C55.7956 42.4664 56.1731 42.2505 56.5264 42.0013C58.5418 40.658 60.8654 39.8029 63.2993 39.5089L64.1313 39.4143C64.355 39.4143 64.5876 39.3542 64.8113 39.3112L66.3591 39.062C67.1557 38.8549 68.0047 38.9503 68.7301 39.3284L69.2042 39.6292C69.5084 39.8269 69.3027 40.2222 68.8285 40.3769" fill="#000738"/>
<path d="M20.5058 72.7956C20.9782 74.4769 21.6225 76.1092 22.4294 77.6687C22.4794 77.7688 22.5031 77.8791 22.4984 77.99C22.4937 78.1009 22.4608 78.209 22.4025 78.3048C22.3442 78.4007 22.2624 78.4813 22.1641 78.5398C22.0659 78.5982 21.9542 78.6326 21.8389 78.6399C20.353 78.7212 18.8848 78.2966 17.6926 77.4408C16.5004 76.5849 15.6605 75.3527 15.3207 73.9607C14.9808 72.5687 15.1629 71.1062 15.8347 69.8305C16.5065 68.5547 17.6252 67.5474 18.9938 66.9856C19.102 66.9422 19.2198 66.9257 19.3364 66.9376C19.4529 66.9495 19.5645 66.9894 19.6608 67.0536C19.7571 67.1178 19.835 67.2043 19.8873 67.3051C19.9396 67.4059 19.9646 67.5177 19.9601 67.6302C19.9107 69.3645 20.0941 71.0977 20.5058 72.787" fill="#C69C6D"/>
<path d="M36.8788 109.864C32.1279 114.556 23.2078 121.415 16.5334 131.35C1.45775 153.696 8.73163 252.921 13.9567 254.253C14.8513 254.485 82.6962 262.736 88.1091 255.112C89.138 253.677 90.2205 249.56 90.3995 248.013C93.7456 217.821 92.7167 179.437 90.3995 162.875C86.8207 137.727 82.2488 127.569 74.7065 116.576C73.5479 114.825 71.8632 113.452 69.8752 112.64C69.8752 112.64 69.7767 112.554 69.7678 112.588C66.5111 124.423 42.7122 123.435 36.9772 109.812C36.9682 109.812 36.9146 109.855 36.8788 109.864Z" fill="#4BFFAD"/>
<path d="M149.092 177.185C147.848 177.357 146.917 178.337 146.103 179.265C145.128 180.365 144.153 181.457 143.187 182.557C142.632 183.176 141.943 183.855 141.102 183.769C140.261 183.683 139.608 182.566 139.679 181.629C139.871 180.711 140.116 179.804 140.413 178.913C140.551 178.465 140.539 177.986 140.379 177.545C140.218 177.104 139.917 176.723 139.518 176.455C135.827 180.015 132.736 184.107 130.357 188.582C130.491 188.934 73.6419 188.771 73.6419 188.771C72.9064 188.759 72.1864 188.567 71.5505 188.212C70.9145 187.856 70.384 187.351 70.0094 186.743L52.2497 157.942L31.2333 169.639L54.6922 206.45C54.848 206.697 55.0735 206.897 55.3427 207.027C55.6119 207.156 55.9137 207.209 56.2132 207.181L132.441 199.901C132.441 199.944 134.034 199.643 134.034 199.643C137.053 198.731 139.832 197.207 142.185 195.174C145.188 192.492 147.871 189.497 150.183 186.244C151.391 184.663 152.626 182.944 152.697 180.984C152.769 179.025 151.105 176.893 149.092 177.185Z" fill="#C69C6D"/>
<path d="M26.6095 130.028C30.3167 128.372 34.5569 128.199 38.3974 129.546C42.2378 130.893 45.3639 133.65 47.0879 137.212L58.1153 159.991L30.1591 172.479L19.1316 149.7C17.4077 146.139 17.227 142.066 18.6293 138.376C20.0317 134.687 22.9022 131.684 26.6095 130.028V130.028Z" fill="#3AC787"/>
<path d="M134.168 169.854L137.38 169.992C136.323 169.791 135.24 169.745 134.168 169.854Z" fill="#C69C6D"/>
<path d="M72.729 74.2244C72.809 73.2977 72.79 72.3656 72.6726 71.4426C65.7082 75.2134 57.9014 77.3184 49.9116 77.5798C50.105 78.2134 50.359 78.8283 50.6703 79.4169C58.25 81.3617 67.1514 79.4473 72.729 74.2244Z" fill="white"/>
<path d="M50.4054 78.8817C51.9573 81.9685 54.9123 83.4442 58.0175 84.0898C60.0589 84.4793 62.1705 84.3535 64.1462 83.7247C66.1218 83.0959 67.8939 81.9856 69.2894 80.5024C71.4299 78.2282 72.7923 76.1275 72.841 73.0349C67.2307 78.2798 57.9585 80.8303 50.4054 78.8817Z" fill="#670002"/>
</svg>
