<svg width="324" height="300" viewBox="0 0 324 300" fill="none" xmlns="http://www.w3.org/2000/svg">
<rect width="324" height="299.821" rx="20" fill="#C4C4C4" fill-opacity="0.5"/>
<path d="M161.65 249.957C225.555 249.957 277.36 198.152 277.36 134.247C277.36 70.3423 225.555 18.5373 161.65 18.5373C97.7454 18.5373 45.9404 70.3423 45.9404 134.247C45.9404 198.152 97.7454 249.957 161.65 249.957Z" fill="black"/>
<path d="M126.581 62.5623C143.264 55.154 155.975 44.5505 161.68 31.6701C176.258 57.5622 211.399 74.3126 255.189 74.3126H258.507C259.374 80.4719 259.808 89.2119 259.808 95.5508C259.808 126.086 249.199 159.99 231.605 188.3C214.024 216.587 189.492 239.254 161.646 247.414C132.958 239.811 108.427 217.221 91.0593 188.715C73.6778 160.188 63.4919 125.77 63.4919 94.619C63.4919 88.6016 63.8907 80.1774 64.6569 74.3126H66.6124C88.6507 74.3126 109.672 70.0714 126.581 62.5623Z" fill="url(#paint0_linear)" stroke="#081200" stroke-width="0.553133"/>
<path d="M223.876 135.892L162.569 56.8768C162.315 56.5356 161.985 56.2584 161.605 56.0675C161.225 55.8765 160.805 55.7771 160.38 55.7771C159.954 55.7771 159.535 55.8765 159.155 56.0675C158.775 56.2584 158.445 56.5356 158.191 56.8768L95.7776 136.677C95.4756 137.083 95.2927 137.565 95.2493 138.07C95.2059 138.574 95.3037 139.081 95.5318 139.533C95.7599 139.985 96.1093 140.365 96.5408 140.629C96.9724 140.894 97.4691 141.034 97.9755 141.032H108.505C109.226 141.032 109.917 141.317 110.428 141.825C110.94 142.333 111.229 143.022 111.234 143.743L111.635 206.321C111.641 207.042 111.931 207.732 112.443 208.24C112.955 208.749 113.646 209.035 114.368 209.036H207.386C207.746 209.036 208.103 208.965 208.436 208.826C208.768 208.688 209.071 208.485 209.325 208.229C209.579 207.973 209.779 207.67 209.916 207.336C210.052 207.003 210.121 206.646 210.119 206.285L209.717 143.72C209.715 143.362 209.783 143.007 209.918 142.675C210.053 142.343 210.252 142.041 210.504 141.786C210.756 141.531 211.055 141.328 211.385 141.189C211.715 141.049 212.07 140.976 212.428 140.974L222.236 140.916C226.226 140.885 226.266 139.075 223.876 135.892Z" stroke="#081200" stroke-width="6.39422" stroke-miterlimit="10"/>
<path d="M214.688 134.505L162.149 66.7425C161.942 66.4657 161.672 66.241 161.363 66.0862C161.053 65.9315 160.712 65.8509 160.366 65.8509C160.02 65.8509 159.679 65.9315 159.369 66.0862C159.06 66.241 158.79 66.4657 158.583 66.7425L105.371 134.505" stroke="#081200" stroke-width="3.99915" stroke-miterlimit="10" stroke-linecap="round"/>
<path d="M126.526 138.843L126.507 139.138H126.802H194.596H194.89L194.872 138.843C194.317 130.157 190.475 122.008 184.127 116.053C177.78 110.098 169.402 106.784 160.699 106.784C151.995 106.784 143.618 110.098 137.27 116.053C130.922 122.008 127.08 130.157 126.526 138.843ZM122.745 142.851V140.998C122.853 131.003 126.899 121.455 134.005 114.426C141.111 107.396 150.703 103.453 160.699 103.453C170.694 103.453 180.286 107.396 187.392 114.426C194.498 121.455 198.544 131.004 198.652 140.998V142.851H122.745Z" fill="black" stroke="#081200" stroke-width="0.553133"/>
<path d="M160.361 161.009C162.371 161.007 164.361 161.401 166.219 162.169C168.076 162.937 169.764 164.064 171.186 165.484C172.607 166.905 173.735 168.591 174.505 170.448C175.274 172.305 175.67 174.295 175.67 176.305V205.911H145.061V176.305C145.061 174.295 145.457 172.306 146.226 170.45C146.995 168.594 148.122 166.908 149.543 165.487C150.963 164.067 152.65 162.94 154.506 162.172C156.363 161.403 158.352 161.008 160.361 161.009Z" stroke="#081200" stroke-width="5.59771" stroke-miterlimit="10"/>
<path d="M166.451 182.679C166.451 181.717 166.21 180.771 165.75 179.926C165.29 179.081 164.625 178.365 163.817 177.844C163.009 177.322 162.083 177.011 161.123 176.94C160.164 176.868 159.202 177.038 158.325 177.435C157.449 177.831 156.686 178.44 156.105 179.208C155.525 179.975 155.146 180.875 155.004 181.827C154.861 182.778 154.96 183.75 155.29 184.654C155.62 185.557 156.171 186.364 156.893 186.999V194.578H164.499V186.999C165.113 186.46 165.606 185.796 165.943 185.051C166.28 184.306 166.453 183.497 166.451 182.679V182.679Z" stroke="#081200" stroke-width="1.32199" stroke-miterlimit="10"/>
<path d="M64.9852 280.673C63.6951 280.357 62.4821 279.783 61.4187 278.988C61.1326 278.792 60.896 278.533 60.7277 278.23C60.5504 277.838 60.4837 277.406 60.5348 276.979C60.5858 276.552 60.7528 276.148 61.0175 275.809C61.1476 275.626 61.3183 275.476 61.5164 275.37C61.7144 275.264 61.9342 275.205 62.1587 275.198C62.392 275.2 62.6236 275.237 62.8453 275.31C63.132 275.414 63.4069 275.549 63.6656 275.711C64.5264 276.271 65.4633 276.705 66.4474 276.999C67.4641 277.277 68.5143 277.412 69.5681 277.401C70.9798 277.401 72.0601 277.164 72.8091 276.692C73.163 276.49 73.4549 276.195 73.653 275.839C73.851 275.483 73.9477 275.079 73.9325 274.672C73.925 274.334 73.8234 274.005 73.6391 273.721C73.4549 273.438 73.1952 273.211 72.8894 273.067C72.1939 272.662 70.959 272.274 69.1802 271.913C67.5402 271.609 65.943 271.107 64.4234 270.419C63.3737 269.959 62.4735 269.215 61.8244 268.27C61.2555 267.331 60.9706 266.247 61.0041 265.15C60.9922 263.84 61.4034 262.561 62.1766 261.503C63.0101 260.382 64.1295 259.506 65.4176 258.966C66.8943 258.34 68.4856 258.028 70.0897 258.053C73.1301 258.053 75.634 258.813 77.6015 260.335C77.8833 260.546 78.1185 260.814 78.2926 261.12C78.4386 261.425 78.5089 261.762 78.4976 262.1C78.5048 262.614 78.3294 263.113 78.0028 263.509C77.8729 263.693 77.7022 263.843 77.5041 263.949C77.3061 264.055 77.0861 264.114 76.8615 264.12C76.6396 264.122 76.4186 264.09 76.2062 264.026C75.9088 263.916 75.6235 263.776 75.3547 263.607C74.5887 263.123 73.7762 262.717 72.9295 262.395C72.0254 262.09 71.0745 261.948 70.1209 261.976C69.0416 261.918 67.9695 262.181 67.0403 262.734C66.6886 262.95 66.3998 263.255 66.2027 263.618C66.0056 263.981 65.907 264.389 65.9169 264.802C65.9024 265.266 66.0613 265.719 66.3627 266.073C66.7675 266.479 67.2623 266.785 67.8071 266.964C68.7427 267.288 69.6989 267.548 70.6692 267.744C73.5759 268.389 75.6667 269.214 76.9418 270.219C77.5669 270.707 78.0665 271.338 78.3991 272.058C78.7318 272.778 78.8878 273.568 78.8543 274.36C78.8775 275.664 78.477 276.941 77.713 277.998C76.8928 279.097 75.7807 279.943 74.5032 280.441C72.9772 281.044 71.3467 281.338 69.7063 281.306C68.1114 281.306 66.5236 281.093 64.9852 280.673Z" fill="black"/>
<path d="M103.472 278.974C103.474 279.266 103.41 279.554 103.285 279.817C103.16 280.08 102.977 280.312 102.75 280.494C102.296 280.902 101.706 281.127 101.096 281.123C100.686 281.123 100.286 281.005 99.9409 280.784C99.5623 280.544 99.2703 280.19 99.1073 279.772L97.4043 275.987H86.5087L84.8235 279.781C84.6609 280.195 84.3744 280.548 84.0032 280.793C83.6541 281.019 83.2464 281.136 82.8308 281.132C82.214 281.133 81.6186 280.906 81.159 280.494C80.9281 280.314 80.7415 280.083 80.6132 279.82C80.485 279.556 80.4185 279.267 80.4189 278.974C80.434 278.617 80.522 278.266 80.6775 277.944L89.344 259.746C89.5613 259.251 89.9337 258.84 90.4051 258.574C90.863 258.309 91.383 258.171 91.9119 258.173C92.4548 258.168 92.9884 258.313 93.4544 258.592C93.9206 258.864 94.2983 259.265 94.5422 259.746L103.209 277.944C103.368 278.265 103.457 278.616 103.472 278.974ZM95.7057 272.202L91.9788 263.857L88.2251 272.202H95.7057Z" fill="black"/>
<path d="M106.922 280.494C106.69 280.256 106.509 279.972 106.39 279.661C106.271 279.35 106.217 279.017 106.231 278.684V260.709C106.2 260.394 106.239 260.076 106.346 259.778C106.453 259.48 106.625 259.21 106.849 258.987C107.074 258.764 107.346 258.594 107.644 258.489C107.943 258.385 108.262 258.348 108.576 258.382H119.619C120.251 258.335 120.88 258.505 121.402 258.864C121.605 259.056 121.763 259.292 121.862 259.554C121.962 259.815 122.001 260.096 121.977 260.375C121.999 260.648 121.958 260.923 121.859 261.179C121.759 261.434 121.603 261.664 121.402 261.851C120.88 262.21 120.251 262.379 119.619 262.332H111.175V267.53H118.977C119.609 267.483 120.238 267.653 120.76 268.012C120.963 268.204 121.12 268.439 121.22 268.7C121.319 268.96 121.359 269.24 121.335 269.519C121.357 269.793 121.317 270.068 121.217 270.325C121.118 270.581 120.962 270.811 120.76 270.999C120.238 271.358 119.609 271.527 118.977 271.48H111.175V278.702C111.193 279.036 111.144 279.369 111.031 279.683C110.918 279.997 110.742 280.285 110.516 280.53C110.281 280.76 110.002 280.939 109.695 281.054C109.388 281.17 109.06 281.221 108.732 281.203C108.398 281.216 108.065 281.159 107.754 281.037C107.442 280.915 107.159 280.73 106.922 280.494Z" fill="black"/>
<path d="M125.2 280.383C124.987 280.151 124.824 279.878 124.719 279.58C124.614 279.283 124.57 278.968 124.59 278.653V260.709C124.555 260.393 124.592 260.073 124.698 259.773C124.803 259.472 124.975 259.2 125.2 258.975C125.425 258.75 125.698 258.578 125.998 258.472C126.298 258.367 126.618 258.33 126.935 258.364H138.298C139.882 258.364 140.675 259.006 140.675 260.29C140.675 261.574 139.882 262.227 138.298 262.247H129.471V267.544H137.656C139.239 267.544 140.033 268.199 140.033 269.501C140.033 270.802 139.239 271.431 137.656 271.431H129.471V277.106H138.298C139.882 277.106 140.675 277.759 140.675 279.063C140.675 280.368 139.882 281.01 138.298 280.989H126.935C126.62 281.011 126.303 280.968 126.005 280.864C125.707 280.76 125.433 280.596 125.2 280.383Z" fill="black"/>
<path d="M172.162 258.877C172.388 259.114 172.563 259.394 172.679 259.701C172.795 260.007 172.848 260.333 172.835 260.66V278.667C172.849 278.998 172.797 279.329 172.681 279.64C172.566 279.95 172.389 280.235 172.162 280.477C171.928 280.708 171.649 280.889 171.342 281.008C171.036 281.127 170.708 281.181 170.379 281.168C170.051 281.185 169.723 281.135 169.416 281.019C169.109 280.903 168.83 280.724 168.596 280.494C168.369 280.249 168.194 279.961 168.08 279.648C167.967 279.334 167.918 279 167.936 278.667V271.494H157.504V278.684C157.519 279.016 157.467 279.347 157.352 279.658C157.236 279.969 157.059 280.253 156.831 280.494C156.599 280.728 156.32 280.911 156.013 281.03C155.705 281.149 155.377 281.202 155.047 281.185C154.72 281.2 154.393 281.147 154.087 281.031C153.78 280.916 153.501 280.739 153.264 280.512C153.034 280.269 152.855 279.982 152.739 279.668C152.624 279.353 152.573 279.019 152.591 278.684V260.678C152.568 260.348 152.616 260.016 152.732 259.706C152.848 259.396 153.029 259.114 153.263 258.879C153.497 258.645 153.779 258.463 154.089 258.347C154.399 258.23 154.73 258.182 155.061 258.204C155.388 258.187 155.716 258.238 156.023 258.354C156.33 258.47 156.609 258.648 156.844 258.877C157.065 259.117 157.237 259.398 157.349 259.704C157.462 260.01 157.513 260.335 157.499 260.66V267.495H167.931V260.678C167.918 260.352 167.969 260.026 168.082 259.72C168.195 259.414 168.368 259.134 168.591 258.895C168.825 258.665 169.105 258.487 169.412 258.371C169.719 258.255 170.047 258.204 170.374 258.222C170.701 258.205 171.028 258.255 171.335 258.367C171.642 258.48 171.923 258.653 172.162 258.877Z" fill="black"/>
<path d="M181.871 279.857C180.222 278.914 178.887 277.506 178.033 275.809C177.147 273.881 176.688 271.785 176.688 269.663C176.688 267.542 177.147 265.446 178.033 263.518C178.888 261.831 180.224 260.434 181.871 259.506C183.684 258.577 185.692 258.093 187.729 258.093C189.766 258.093 191.774 258.577 193.587 259.506C195.234 260.435 196.568 261.831 197.421 263.518C198.307 265.446 198.766 267.542 198.766 269.663C198.766 271.785 198.307 273.881 197.421 275.809C196.569 277.506 195.235 278.914 193.587 279.857C191.777 280.794 189.768 281.283 187.729 281.283C185.691 281.283 183.682 280.794 181.871 279.857ZM192.174 275.399C193.253 274.073 193.792 272.159 193.792 269.657C193.792 267.154 193.257 265.243 192.187 263.924C191.65 263.27 190.967 262.751 190.193 262.408C189.418 262.065 188.575 261.908 187.729 261.949C185.821 261.949 184.335 262.607 183.271 263.924C182.207 265.24 181.678 267.151 181.684 269.657C181.684 272.156 182.219 274.07 183.289 275.399C183.846 276.025 184.53 276.527 185.295 276.871C186.06 277.214 186.889 277.392 187.727 277.392C188.566 277.392 189.395 277.214 190.16 276.871C190.925 276.527 191.608 276.025 192.165 275.399H192.174Z" fill="black"/>
<path d="M204.947 278.827C203.289 277.192 202.459 274.801 202.459 271.654V260.678C202.437 260.348 202.486 260.016 202.602 259.706C202.719 259.395 202.9 259.113 203.134 258.879C203.369 258.645 203.651 258.463 203.961 258.347C204.271 258.23 204.603 258.182 204.934 258.204C205.261 258.186 205.589 258.237 205.896 258.353C206.203 258.469 206.483 258.647 206.717 258.877C206.94 259.116 207.113 259.396 207.226 259.702C207.339 260.009 207.39 260.334 207.377 260.66V271.859C207.377 273.66 207.788 275.03 208.612 275.969C209.436 276.91 210.627 277.383 212.178 277.383C213.729 277.383 214.938 276.906 215.771 275.952C216.605 274.998 217.024 273.638 217.024 271.859V260.678C217.01 260.352 217.061 260.026 217.175 259.72C217.288 259.414 217.461 259.134 217.684 258.895C217.918 258.665 218.197 258.487 218.505 258.371C218.812 258.255 219.139 258.204 219.467 258.222C219.798 258.199 220.13 258.247 220.441 258.363C220.751 258.479 221.033 258.661 221.268 258.895C221.502 259.13 221.684 259.412 221.8 259.723C221.916 260.033 221.964 260.365 221.941 260.696V271.672C221.941 274.795 221.106 277.181 219.436 278.827C217.766 280.474 215.348 281.298 212.182 281.301C209.02 281.289 206.608 280.465 204.947 278.827Z" fill="black"/>
<path d="M229.743 280.673C228.453 280.356 227.24 279.783 226.177 278.987C225.892 278.791 225.655 278.532 225.486 278.23C225.311 277.837 225.246 277.405 225.297 276.979C225.348 276.553 225.513 276.149 225.775 275.809C225.906 275.626 226.077 275.476 226.275 275.37C226.473 275.264 226.692 275.205 226.917 275.198C227.151 275.2 227.384 275.237 227.608 275.31C227.893 275.415 228.166 275.55 228.424 275.711C229.289 276.267 230.231 276.694 231.219 276.981C232.235 277.259 233.286 277.395 234.339 277.383C235.754 277.383 236.834 277.146 237.58 276.674C237.934 276.472 238.226 276.177 238.424 275.821C238.622 275.465 238.719 275.061 238.704 274.654C238.696 274.316 238.595 273.987 238.41 273.703C238.226 273.42 237.967 273.193 237.661 273.049C236.965 272.644 235.73 272.256 233.956 271.895C232.306 271.599 230.698 271.103 229.168 270.419C228.119 269.958 227.219 269.214 226.569 268.27C226.002 267.331 225.718 266.247 225.753 265.15C225.74 263.84 226.149 262.561 226.921 261.503C227.755 260.381 228.877 259.505 230.167 258.966C231.642 258.339 233.232 258.028 234.834 258.052C237.875 258.052 240.379 258.813 242.346 260.335C242.628 260.546 242.863 260.813 243.037 261.119C243.185 261.425 243.257 261.761 243.247 262.1C243.252 262.614 243.075 263.113 242.747 263.509C242.618 263.692 242.447 263.843 242.249 263.949C242.051 264.055 241.831 264.113 241.606 264.12C241.384 264.122 241.163 264.09 240.951 264.026C240.653 263.916 240.368 263.775 240.099 263.607C239.335 263.109 238.522 262.69 237.674 262.354C236.77 262.05 235.819 261.908 234.865 261.935C233.786 261.878 232.714 262.142 231.785 262.693C231.433 262.91 231.144 263.215 230.947 263.578C230.75 263.941 230.652 264.349 230.662 264.762C230.649 265.226 230.808 265.678 231.107 266.032C231.512 266.439 232.007 266.744 232.552 266.924C233.485 267.26 234.44 267.534 235.409 267.744C238.319 268.389 240.41 269.214 241.682 270.218C242.307 270.707 242.807 271.338 243.139 272.058C243.472 272.778 243.628 273.567 243.594 274.36C243.615 275.66 243.214 276.931 242.453 277.984C241.633 279.083 240.521 279.93 239.243 280.427C237.717 281.031 236.087 281.325 234.446 281.292C232.858 281.295 231.276 281.087 229.743 280.673Z" fill="black"/>
<path d="M247.816 280.383C247.603 280.151 247.439 279.878 247.334 279.58C247.229 279.283 247.185 278.968 247.205 278.653V260.709C247.17 260.393 247.207 260.073 247.313 259.773C247.419 259.472 247.59 259.2 247.815 258.975C248.04 258.75 248.313 258.578 248.613 258.472C248.913 258.367 249.234 258.33 249.55 258.364H260.909C262.496 258.364 263.285 259.006 263.285 260.29C263.285 261.574 262.496 262.247 260.909 262.247H252.082V267.544H260.267C261.854 267.544 262.643 268.199 262.643 269.501C262.643 270.802 261.854 271.431 260.267 271.431H252.082V277.106H260.909C262.496 277.106 263.285 277.757 263.285 279.063C263.285 280.37 262.496 280.989 260.909 280.989H249.55C249.235 281.011 248.919 280.968 248.621 280.864C248.322 280.76 248.049 280.596 247.816 280.383Z" fill="black"/>
<defs>
<linearGradient id="paint0_linear" x1="63.2153" y1="139.374" x2="260.084" y2="139.374" gradientUnits="userSpaceOnUse">
<stop stop-color="#FCEE21"/>
<stop offset="1" stop-color="#FCFF83"/>
</linearGradient>
</defs>
</svg>
