<svg width="511" height="184" viewBox="0 0 511 184" fill="none" xmlns="http://www.w3.org/2000/svg">
<path d="M151.716 102.396L82.5098 24.8246C82.2232 24.4896 81.8506 24.2175 81.4215 24.0301C80.9925 23.8426 80.519 23.745 80.0389 23.745C79.5588 23.745 79.0853 23.8426 78.6563 24.0301C78.2273 24.2175 77.8546 24.4896 77.568 24.8246L7.11358 103.167C6.7727 103.566 6.56621 104.039 6.5172 104.534C6.4682 105.03 6.57861 105.527 6.8361 105.971C7.09358 106.415 7.48797 106.787 7.97514 107.047C8.46231 107.307 9.02303 107.444 9.59458 107.443H21.4812C22.2946 107.443 23.0749 107.722 23.6519 108.221C24.229 108.72 24.5558 109.396 24.5611 110.104L25.014 171.539C25.0207 172.247 25.3484 172.924 25.9261 173.423C26.5038 173.922 27.2846 174.203 28.0989 174.204H133.101C133.508 174.204 133.911 174.134 134.286 173.998C134.662 173.862 135.003 173.663 135.29 173.412C135.576 173.161 135.803 172.863 135.957 172.536C136.111 172.208 136.189 171.858 136.186 171.504L135.733 110.082C135.73 109.73 135.808 109.381 135.96 109.055C136.112 108.73 136.337 108.433 136.621 108.183C136.905 107.932 137.243 107.733 137.616 107.596C137.988 107.46 138.388 107.388 138.793 107.386L149.864 107.329C154.368 107.298 154.414 105.521 151.716 102.396Z" stroke="white" stroke-width="5.51368" stroke-miterlimit="10"/>
<path d="M141.828 101.958L82.4192 35.789C82.1844 35.5187 81.8799 35.2993 81.53 35.1482C81.18 34.9971 80.794 34.9184 80.4028 34.9184C80.0115 34.9184 79.6255 34.9971 79.2755 35.1482C78.9255 35.2993 78.6211 35.5187 78.3863 35.789L18.2166 101.958" stroke="white" stroke-width="3.44843" stroke-miterlimit="10" stroke-linecap="round"/>
<path d="M123.555 109.5H37.2437V107.408C37.3664 97.5239 41.9672 88.0811 50.0471 81.1296C58.1271 74.178 69.0339 70.279 80.3995 70.279C91.7651 70.279 102.672 74.178 110.752 81.1296C118.832 88.0811 123.433 97.5239 123.555 107.408V109.5ZM42.1352 105.311H118.664C118.042 96.8528 113.741 88.9175 106.633 83.1184C99.5254 77.3192 90.1453 74.0916 80.3995 74.0916C70.6536 74.0916 61.2735 77.3192 54.1659 83.1184C47.0582 88.9175 42.7565 96.8528 42.1352 105.311Z" fill="white"/>
<path d="M80.0185 127.055C82.2872 127.053 84.5341 127.44 86.6307 128.194C88.7273 128.948 90.6325 130.054 92.2374 131.448C93.8423 132.843 95.1155 134.499 95.9842 136.322C96.8528 138.144 97.2999 140.098 97.2999 142.071V171.137H62.7471V142.071C62.7471 140.099 63.1938 138.146 64.0619 136.324C64.9299 134.502 66.2022 132.846 67.8061 131.452C69.4099 130.057 71.3139 128.951 73.4094 128.197C75.5048 127.442 77.7506 127.054 80.0185 127.055Z" stroke="white" stroke-width="4.82685" stroke-miterlimit="10"/>
<path d="M86.8932 148.33C86.8932 147.385 86.6211 146.456 86.1016 145.627C85.5822 144.797 84.832 144.094 83.9196 143.582C83.0072 143.07 81.9618 142.765 80.8789 142.695C79.796 142.625 78.7101 142.792 77.7206 143.181C76.731 143.57 75.8694 144.168 75.2144 144.921C74.5594 145.675 74.1319 146.559 73.9711 147.493C73.8102 148.426 73.9212 149.381 74.2937 150.268C74.6662 151.155 75.2885 151.946 76.1036 152.57V160.011H84.689V152.57C85.3831 152.041 85.939 151.389 86.3192 150.658C86.6994 149.926 86.8951 149.132 86.8932 148.33V148.33Z" stroke="white" stroke-width="1.13994" stroke-miterlimit="10"/>
<path d="M173.762 172.806C171.679 172.319 169.721 171.436 168.004 170.21C167.542 169.909 167.16 169.51 166.888 169.043C166.602 168.44 166.494 167.774 166.577 167.116C166.659 166.459 166.929 165.836 167.356 165.314C167.566 165.032 167.842 164.801 168.161 164.637C168.481 164.474 168.836 164.384 169.199 164.373C169.575 164.376 169.949 164.434 170.307 164.545C170.77 164.706 171.214 164.914 171.631 165.163C173.021 166.026 174.533 166.695 176.122 167.148C177.764 167.575 179.459 167.783 181.16 167.766C183.439 167.766 185.183 167.402 186.393 166.674C186.964 166.363 187.435 165.909 187.755 165.36C188.075 164.812 188.231 164.19 188.206 163.563C188.194 163.042 188.03 162.535 187.733 162.099C187.435 161.662 187.016 161.313 186.522 161.091C185.399 160.466 183.406 159.869 180.534 159.312C177.886 158.844 175.308 158.072 172.855 157.012C171.16 156.303 169.707 155.157 168.659 153.702C167.74 152.255 167.28 150.586 167.334 148.895C167.315 146.877 167.979 144.907 169.227 143.278C170.573 141.552 172.38 140.202 174.46 139.371C176.844 138.405 179.413 137.925 182.002 137.963C186.911 137.963 190.953 139.135 194.13 141.479C194.584 141.804 194.964 142.216 195.245 142.687C195.481 143.158 195.594 143.677 195.576 144.198C195.588 144.989 195.305 145.758 194.777 146.368C194.568 146.65 194.292 146.882 193.972 147.046C193.653 147.209 193.297 147.299 192.935 147.309C192.577 147.312 192.22 147.263 191.877 147.165C191.397 146.995 190.936 146.779 190.502 146.519C189.266 145.774 187.954 145.148 186.587 144.651C185.127 144.182 183.592 143.964 182.053 144.006C180.31 143.916 178.579 144.323 177.079 145.173C176.512 145.507 176.045 145.976 175.727 146.536C175.409 147.095 175.25 147.724 175.266 148.36C175.242 149.075 175.499 149.772 175.985 150.317C176.639 150.943 177.438 151.413 178.317 151.69C179.828 152.188 181.371 152.59 182.938 152.892C187.631 153.885 191.006 155.156 193.064 156.703C194.074 157.455 194.88 158.427 195.417 159.536C195.954 160.646 196.206 161.862 196.152 163.083C196.19 165.091 195.543 167.058 194.31 168.686C192.985 170.378 191.19 171.682 189.128 172.449C186.664 173.378 184.032 173.831 181.383 173.781C178.809 173.782 176.245 173.454 173.762 172.806Z" fill="white"/>
<path d="M235.895 170.188C235.898 170.637 235.794 171.081 235.593 171.487C235.391 171.892 235.095 172.249 234.729 172.53C233.996 173.159 233.044 173.504 232.059 173.498C231.398 173.498 230.751 173.317 230.195 172.976C229.583 172.607 229.112 172.061 228.849 171.418L226.099 165.588H208.509L205.789 171.431C205.526 172.069 205.064 172.613 204.465 172.99C203.901 173.338 203.243 173.519 202.572 173.512C201.576 173.514 200.615 173.164 199.873 172.53C199.5 172.252 199.199 171.897 198.992 171.491C198.785 171.085 198.677 170.64 198.678 170.188C198.702 169.638 198.844 169.098 199.095 168.602L213.087 140.571C213.438 139.808 214.039 139.174 214.8 138.765C215.539 138.358 216.378 138.144 217.232 138.147C218.109 138.14 218.97 138.364 219.723 138.793C220.475 139.212 221.085 139.829 221.479 140.571L235.47 168.602C235.727 169.097 235.872 169.637 235.895 170.188ZM223.357 159.758L217.34 146.903L211.28 159.758H223.357Z" fill="white"/>
<path d="M241.466 172.53C241.091 172.162 240.798 171.725 240.606 171.246C240.415 170.767 240.327 170.255 240.35 169.742V142.055C240.299 141.569 240.362 141.079 240.534 140.62C240.707 140.161 240.985 139.745 241.348 139.402C241.71 139.058 242.149 138.796 242.631 138.635C243.114 138.474 243.628 138.417 244.136 138.47H261.963C262.983 138.397 263.999 138.659 264.842 139.212C265.17 139.508 265.424 139.871 265.585 140.275C265.746 140.678 265.809 141.11 265.771 141.54C265.805 141.961 265.74 142.384 265.579 142.777C265.418 143.171 265.166 143.525 264.842 143.813C263.999 144.365 262.983 144.627 261.963 144.554H248.332V152.561H260.927C261.947 152.488 262.963 152.75 263.806 153.303C264.133 153.598 264.387 153.96 264.548 154.362C264.708 154.764 264.772 155.195 264.734 155.624C264.77 156.046 264.705 156.47 264.544 156.865C264.383 157.26 264.131 157.615 263.806 157.904C262.963 158.456 261.947 158.718 260.927 158.645H248.332V169.77C248.361 170.283 248.282 170.797 248.099 171.281C247.916 171.764 247.633 172.208 247.267 172.585C246.888 172.939 246.437 173.214 245.942 173.393C245.446 173.571 244.917 173.649 244.388 173.622C243.848 173.641 243.31 173.554 242.808 173.366C242.305 173.178 241.848 172.894 241.466 172.53Z" fill="white"/>
<path d="M270.973 172.358C270.629 172.001 270.365 171.58 270.195 171.122C270.026 170.664 269.955 170.179 269.987 169.694V142.054C269.932 141.567 269.991 141.074 270.162 140.612C270.332 140.149 270.609 139.729 270.973 139.382C271.336 139.036 271.776 138.771 272.261 138.609C272.746 138.446 273.262 138.389 273.773 138.442H292.119C294.676 138.442 295.955 139.431 295.955 141.409C295.955 143.387 294.676 144.392 292.119 144.424H277.868V152.582H291.082C293.637 152.582 294.918 153.591 294.918 155.596C294.918 157.601 293.637 158.57 291.082 158.57H277.868V167.311H292.119C294.676 167.311 295.955 168.316 295.955 170.326C295.955 172.336 294.676 173.324 292.119 173.292H273.773C273.264 173.326 272.754 173.26 272.273 173.1C271.792 172.939 271.349 172.687 270.973 172.358Z" fill="white"/>
<path d="M346.789 139.233C347.153 139.599 347.437 140.03 347.623 140.502C347.81 140.973 347.896 141.476 347.876 141.98V169.716C347.898 170.226 347.814 170.736 347.627 171.214C347.441 171.693 347.156 172.132 346.789 172.504C346.411 172.86 345.961 173.139 345.466 173.322C344.97 173.505 344.441 173.589 343.91 173.568C343.381 173.595 342.852 173.517 342.356 173.339C341.86 173.16 341.409 172.885 341.031 172.531C340.665 172.154 340.382 171.71 340.199 171.227C340.016 170.743 339.937 170.229 339.966 169.716V158.667H323.124V169.743C323.149 170.254 323.065 170.764 322.879 171.243C322.692 171.722 322.406 172.16 322.038 172.531C321.663 172.891 321.213 173.172 320.717 173.355C320.221 173.539 319.69 173.621 319.159 173.596C318.63 173.617 318.103 173.536 317.608 173.358C317.113 173.18 316.662 172.908 316.28 172.559C315.908 172.184 315.62 171.742 315.433 171.258C315.246 170.774 315.164 170.258 315.193 169.743V142.007C315.156 141.498 315.233 140.988 315.421 140.51C315.608 140.031 315.9 139.597 316.278 139.236C316.656 138.875 317.11 138.595 317.611 138.416C318.112 138.236 318.647 138.162 319.18 138.196C319.709 138.17 320.238 138.249 320.733 138.428C321.229 138.606 321.68 138.88 322.059 139.233C322.416 139.602 322.694 140.035 322.875 140.506C323.057 140.977 323.139 141.478 323.117 141.98V152.507H339.959V142.007C339.936 141.505 340.019 141.003 340.202 140.532C340.385 140.06 340.664 139.628 341.024 139.261C341.402 138.906 341.853 138.631 342.349 138.453C342.845 138.274 343.374 138.196 343.903 138.224C344.43 138.198 344.958 138.275 345.454 138.448C345.949 138.621 346.404 138.888 346.789 139.233Z" fill="white"/>
<path d="M362.464 171.548C359.802 170.095 357.646 167.927 356.268 165.313C354.837 162.344 354.096 159.114 354.096 155.846C354.096 152.579 354.837 149.349 356.268 146.38C357.648 143.781 359.804 141.63 362.464 140.2C365.391 138.769 368.633 138.023 371.922 138.023C375.21 138.023 378.452 138.769 381.379 140.2C384.037 141.631 386.191 143.782 387.568 146.38C388.999 149.349 389.74 152.579 389.74 155.846C389.74 159.114 388.999 162.344 387.568 165.313C386.192 167.926 384.039 170.095 381.379 171.548C378.456 172.992 375.213 173.745 371.922 173.745C368.63 173.745 365.387 172.992 362.464 171.548ZM379.097 164.681C380.839 162.639 381.71 159.691 381.71 155.836C381.71 151.981 380.846 149.038 379.119 147.005C378.251 145.998 377.148 145.198 375.898 144.67C374.649 144.142 373.287 143.9 371.922 143.963C368.841 143.963 366.442 144.977 364.724 147.005C363.007 149.033 362.153 151.977 362.162 155.836C362.162 159.686 363.026 162.634 364.753 164.681C365.653 165.646 366.756 166.419 367.991 166.948C369.226 167.477 370.564 167.751 371.918 167.751C373.272 167.751 374.61 167.477 375.845 166.948C377.08 166.419 378.183 165.646 379.083 164.681H379.097Z" fill="white"/>
<path d="M399.717 169.963C397.04 167.445 395.701 163.762 395.701 158.914V142.007C395.665 141.498 395.744 140.987 395.932 140.509C396.12 140.031 396.413 139.597 396.791 139.236C397.169 138.875 397.624 138.595 398.125 138.416C398.626 138.236 399.162 138.161 399.696 138.196C400.225 138.168 400.754 138.247 401.25 138.425C401.745 138.604 402.196 138.879 402.575 139.233C402.934 139.6 403.214 140.033 403.396 140.504C403.579 140.976 403.662 141.477 403.64 141.98V159.229C403.64 162.004 404.304 164.114 405.633 165.561C406.965 167.01 408.886 167.738 411.391 167.738C413.896 167.738 415.846 167.003 417.192 165.533C418.538 164.064 419.214 161.969 419.214 159.229V142.007C419.192 141.505 419.275 141.003 419.458 140.532C419.641 140.06 419.92 139.628 420.28 139.26C420.658 138.906 421.109 138.631 421.605 138.453C422.1 138.274 422.63 138.196 423.159 138.223C423.693 138.188 424.229 138.262 424.73 138.441C425.232 138.62 425.687 138.899 426.066 139.261C426.445 139.622 426.738 140.056 426.925 140.535C427.113 141.013 427.19 141.525 427.153 142.035V158.941C427.153 163.753 425.805 167.426 423.108 169.963C420.412 172.499 416.508 173.769 411.398 173.774C406.293 173.755 402.399 172.485 399.717 169.963Z" fill="white"/>
<path d="M439.749 172.806C437.666 172.319 435.708 171.436 433.991 170.21C433.531 169.908 433.149 169.508 432.875 169.043C432.594 168.439 432.489 167.774 432.571 167.117C432.653 166.461 432.92 165.838 433.343 165.314C433.554 165.033 433.83 164.802 434.149 164.639C434.469 164.476 434.823 164.385 435.186 164.373C435.564 164.376 435.941 164.434 436.301 164.545C436.761 164.708 437.202 164.915 437.618 165.163C439.016 166.019 440.536 166.678 442.131 167.12C443.772 167.549 445.468 167.757 447.169 167.738C449.453 167.738 451.197 167.374 452.401 166.646C452.973 166.336 453.444 165.881 453.764 165.333C454.083 164.784 454.24 164.163 454.215 163.536C454.203 163.015 454.039 162.508 453.741 162.071C453.444 161.634 453.025 161.286 452.531 161.064C451.408 160.439 449.414 159.841 446.55 159.285C443.886 158.829 441.291 158.066 438.82 157.012C437.127 156.301 435.674 155.155 434.624 153.702C433.708 152.254 433.251 150.585 433.307 148.895C433.285 146.878 433.947 144.908 435.193 143.278C436.54 141.55 438.35 140.2 440.432 139.37C442.814 138.404 445.381 137.925 447.968 137.963C452.876 137.963 456.919 139.135 460.095 141.479C460.55 141.804 460.93 142.216 461.211 142.687C461.449 143.158 461.565 143.676 461.549 144.198C461.558 144.99 461.272 145.758 460.743 146.368C460.533 146.65 460.258 146.882 459.938 147.046C459.618 147.209 459.263 147.299 458.9 147.309C458.542 147.312 458.185 147.263 457.842 147.165C457.362 146.995 456.902 146.778 456.468 146.519C455.234 145.752 453.922 145.106 452.552 144.589C451.093 144.12 449.558 143.902 448.018 143.944C446.276 143.855 444.545 144.262 443.045 145.111C442.477 145.445 442.011 145.915 441.693 146.474C441.374 147.033 441.215 147.662 441.231 148.298C441.211 149.012 441.467 149.709 441.951 150.255C442.604 150.881 443.403 151.351 444.283 151.628C445.79 152.146 447.331 152.568 448.896 152.892C453.594 153.885 456.969 155.156 459.023 156.703C460.032 157.455 460.839 158.427 461.376 159.536C461.913 160.646 462.164 161.861 462.11 163.082C462.143 165.084 461.497 167.043 460.268 168.665C458.944 170.358 457.148 171.662 455.086 172.429C452.623 173.358 449.99 173.811 447.342 173.761C444.777 173.765 442.224 173.444 439.749 172.806Z" fill="white"/>
<path d="M468.926 172.358C468.582 172.001 468.317 171.58 468.148 171.122C467.978 170.664 467.908 170.179 467.94 169.694V142.054C467.884 141.567 467.943 141.074 468.114 140.612C468.285 140.149 468.562 139.729 468.925 139.382C469.288 139.036 469.729 138.771 470.213 138.609C470.698 138.446 471.215 138.389 471.725 138.442H490.064C492.626 138.442 493.9 139.431 493.9 141.409C493.9 143.387 492.626 144.424 490.064 144.424H475.813V152.582H489.028C491.59 152.582 492.864 153.591 492.864 155.596C492.864 157.601 491.59 158.57 489.028 158.57H475.813V167.311H490.064C492.626 167.311 493.9 168.314 493.9 170.326C493.9 172.338 492.626 173.292 490.064 173.292H471.725C471.217 173.326 470.706 173.26 470.225 173.1C469.744 172.939 469.302 172.687 468.926 172.358Z" fill="white"/>
<rect x="1.35294" y="1.35294" width="507.353" height="181.294" stroke="white" stroke-width="2.70588"/>
</svg>
