<svg width="108" height="66" viewBox="0 0 108 66" fill="none" xmlns="http://www.w3.org/2000/svg">
<path d="M42.5193 44.1689L49.4564 46.8229L48.7679 48.794C48.6187 49.2211 48.321 49.5715 47.9401 49.7682C47.5593 49.9649 47.1266 49.9917 46.7372 49.8427L42.7365 48.3122C42.3471 48.1632 42.0329 47.8507 41.8631 47.4433C41.6932 47.036 41.6816 46.5672 41.8308 46.1401L42.5193 44.1689Z" fill="#212121"/>
<path d="M47.3183 46.6441L44.2658 45.4763C43.7635 45.2842 43.2075 45.5546 43.0239 46.0802L42.9266 46.3587C42.743 46.8843 43.0013 47.4662 43.5036 47.6584L46.5561 48.8262C47.0584 49.0183 47.6145 48.748 47.7981 48.2223L47.8953 47.9439C48.079 47.4182 47.8206 46.8363 47.3183 46.6441Z" fill="#505050"/>
<path d="M46.0477 47.3926C46.1781 47.0193 45.9936 46.6057 45.6355 46.4687C45.2775 46.3318 44.8816 46.5234 44.7512 46.8966C44.6208 47.2699 44.8054 47.6835 45.1634 47.8205C45.5214 47.9575 45.9173 47.7659 46.0477 47.3926Z" fill="black"/>
<path d="M44.3211 40.2189L50.5568 42.6045C50.6851 42.6536 50.7895 42.754 50.8471 42.8836C50.9046 43.0133 50.9106 43.1616 50.8637 43.2958L49.5489 47.06L42.3361 44.3006L43.6473 40.5466C43.6698 40.4779 43.7054 40.4146 43.7518 40.3607C43.7982 40.3067 43.8546 40.2631 43.9175 40.2325C43.9805 40.2019 44.0487 40.1849 44.118 40.1826C44.1874 40.1803 44.2565 40.1926 44.3211 40.2189Z" fill="#696868"/>
<path d="M44.452 40.2767L50.6877 42.6623C50.816 42.7114 50.932 42.7787 51.0101 42.8494C51.0883 42.9201 51.1222 42.9885 51.1044 43.0394L50.6056 44.4672L43.3928 41.7078L43.8902 40.2839C43.8979 40.2575 43.9187 40.2363 43.9514 40.2216C43.9842 40.2069 44.0281 40.199 44.0805 40.1983C44.133 40.1977 44.193 40.2043 44.2568 40.2178C44.3206 40.2312 44.387 40.2513 44.452 40.2767V40.2767Z" fill="#505050"/>
<path d="M78.0049 64.6391L81.5589 66.0002L89.4317 55.6721L85.8777 54.311L78.0049 64.6391Z" fill="#C1C1C4"/>
<path d="M9.85586 38.6362L6.30188 37.2751L6.64955 24.0686L10.2035 25.4297L9.85586 38.6362Z" fill="#C1C1C4"/>
<path d="M44.2318 24.1924L45.8259 18.4435L33.5543 6.92148V6.89183L32.859 6.62231L33.6908 4.31251C33.7041 3.73277 33.5434 3.16325 33.2313 2.68405C32.9192 2.20486 32.4715 1.84011 31.951 1.64109C31.4305 1.44207 30.8636 1.41881 30.3298 1.57457C29.796 1.73032 29.3223 2.05727 28.9754 2.50942V2.50942L28.1667 4.8273L28.0251 5.21002C27.7476 6.00097 27.7816 6.87488 28.1196 7.63959C28.4577 8.4043 29.0721 8.99718 29.8278 9.28787L32.1791 10.1881L44.2318 24.1924Z" fill="#CFD0D5"/>
<path d="M85.6666 24.2217C85.6883 23.6381 85.5324 23.0624 85.2215 22.5774C84.9106 22.0923 84.4607 21.723 83.9365 21.5226C83.4123 21.3222 82.8409 21.3009 82.3044 21.4619C81.768 21.6229 81.2942 21.9579 80.9512 22.4186V22.4186L80.1425 24.7365L79.4472 24.467L62.9649 24.9899L60.6471 30.4584L78.4325 27.898L80.8198 28.8386C81.5756 29.1283 82.4104 29.0923 83.1409 28.7386C83.8714 28.3849 84.438 27.7424 84.7163 26.952V26.952L84.8528 26.5612L85.6615 24.2433L85.6666 24.2217Z" fill="#B0B1B3"/>
<path d="M42.2563 23.4485L14.5455 21.7316L13.8064 21.4621L14.0922 20.5862C14.1231 20.5188 14.1515 20.446 14.1772 20.3732C14.2161 20.2594 14.2487 20.1433 14.2751 20.0256L14.3755 19.7237L14.3317 19.7075C14.4205 19.0026 14.277 18.287 13.9249 17.6789C13.5728 17.0708 13.0332 16.6064 12.395 16.3624C11.7568 16.1184 11.0582 16.1094 10.4145 16.3368C9.77073 16.5642 9.22028 17.0145 8.85395 17.6133L8.78699 17.5864L7.85987 20.2142L7.70534 20.6589L6.51038 24.0765L13.6209 26.7959L40.469 28.5613L42.2563 23.4485Z" fill="#CFD0D5"/>
<path d="M91.6363 49.2604C91.7213 48.5579 91.5759 47.846 91.2239 47.2413C90.872 46.6365 90.3343 46.1747 89.6988 45.9315C89.0634 45.6882 88.3679 45.6779 87.7262 45.9022C87.0844 46.1265 86.5344 46.5722 86.1662 47.1662L86.125 47.1501L86.0143 47.4465C85.9622 47.5552 85.9158 47.6668 85.8752 47.7807C85.8494 47.8535 85.8288 47.9263 85.8082 47.999L85.4889 48.8615L84.8914 48.6324L62.6558 31.2429L60.8685 36.3638L82.365 53.031L82.3418 53.0795L89.4369 55.7909L90.6319 52.3734L90.7864 51.9287L91.7135 49.2766L91.6363 49.2604Z" fill="#B0B1B3"/>
<path d="M62.2256 29.1299C62.0353 29.0574 61.833 29.0253 61.6307 29.0356C61.6307 29.0356 63.812 24.6154 63.109 23.0333C62.836 22.4161 61.4762 21.5537 61.4762 21.5537L61.8264 18.562C61.915 18.0408 61.8457 17.5036 61.6281 17.0257L61.5818 16.9152C61.565 16.9114 61.5486 16.906 61.5329 16.899C59.4726 23.0657 56.9256 28.9358 55.2284 35.2265C54.7337 37.1728 54.1019 39.0782 53.3381 40.9268C54.1019 39.0782 54.7337 37.1728 55.2284 35.2265C56.9256 28.9251 59.4803 23.0549 61.5329 16.899C61.5486 16.906 61.565 16.9114 61.5818 16.9152C61.2933 16.2387 61.1775 15.9827 60.7448 15.7994L58.1566 14.7968C58.2055 14.4787 57.8295 14.0745 57.2732 13.8615C56.7169 13.6486 56.189 13.7025 56.0267 13.972L53.1552 12.8616C52.6277 12.8352 52.1009 12.9271 51.61 13.1311H51.5894C51.5816 13.4872 51.5217 13.8399 51.4117 14.1769C49.0501 21.8043 45.7691 29.1865 43.9432 37.0161C45.7743 29.1865 49.0553 21.8043 51.4117 14.1769C51.5217 13.8399 51.5816 13.4872 51.5894 13.1311C51.2182 13.3015 50.8869 13.5544 50.6185 13.8723C50.5573 13.9931 50.5022 14.1173 50.4537 14.2443L49.2999 16.8856C49.2999 16.8856 47.6028 16.4732 47.304 16.616C45.7897 17.3518 44.5407 22.5105 44.5407 22.5105C44.3855 22.3505 44.1981 22.2289 43.9921 22.1547C43.3663 21.9148 42.7045 22.1304 42.5396 22.6344L38.1615 35.2777C38.0328 36.1347 38.4938 37.0349 39.3153 37.5632C41.0253 33.0595 44.5948 23.0576 44.5793 22.5239C44.5948 23.063 41.0253 33.0595 39.3153 37.5632C39.4784 37.67 39.6508 37.7603 39.8304 37.8327C40.9043 38.2424 42.6169 37.1616 42.6169 37.1616L54.036 41.5252C54.036 41.5252 54.6824 43.5088 55.7538 43.9185C56.8663 44.3444 58.0355 43.9994 58.5661 43.1531L63.0446 30.4856C63.2171 29.9735 62.8514 29.3779 62.2256 29.1299Z" fill="#B7B8BD"/>
<path d="M44.5716 22.3921C44.3931 22.2785 44.197 22.1982 43.9922 22.1549C43.3663 21.915 42.7045 22.1307 42.5397 22.6347L38.1616 35.2779C38.1186 35.7197 38.1974 36.1651 38.3886 36.5615C38.5798 36.9579 38.8755 37.2887 39.2406 37.5149C40.9198 32.5018 42.9157 27.6532 44.5716 22.3921Z" fill="#A1A2A6"/>
<path d="M49.3153 16.8502L49.2973 16.8933C49.2973 16.8933 47.6001 16.481 47.3014 16.6238C45.9313 17.2895 44.7776 21.5857 44.5715 22.3889C47.013 22.0196 49.3437 17.0443 49.3153 16.8502Z" fill="#CACBD1"/>
<path d="M63.109 23.0335C62.8669 22.4945 61.7698 21.7452 61.5252 21.5862C60.9457 23.8394 60.2375 26.8607 61.7054 28.8848C62.0789 28.0924 63.7322 24.4404 63.109 23.0335Z" fill="#CACBD1"/>
<path d="M51.4092 14.1849C51.5192 13.8479 51.5791 13.4952 51.5869 13.1392C51.2157 13.3095 50.8844 13.5624 50.616 13.8803C50.5548 14.0012 50.4998 14.1253 50.4512 14.2523L49.3155 16.8505C49.3438 17.0445 46.8303 21.7342 44.5717 22.3918C44.5511 22.4754 44.5382 22.5212 44.5382 22.5212C44.524 22.5054 44.5085 22.491 44.4918 22.4781C42.8153 26.6314 41.5482 30.5098 40.2528 34.4448C41.5868 34.8949 42.8977 35.4043 44.2008 35.9352C46.0705 28.5072 49.1584 21.4593 51.4092 14.1849Z" fill="#BEBEC4"/>
<path d="M55.2285 35.2372C56.9257 28.9358 59.4804 23.0657 61.533 16.9098C61.5488 16.9168 61.5652 16.9222 61.5819 16.926C61.2935 16.2495 61.1776 15.9934 60.7449 15.8102L58.1567 14.7968C58.2056 14.4787 57.8296 14.0745 57.2734 13.8615C56.7171 13.6486 56.1891 13.7025 56.0269 13.972L53.1554 12.8616C52.6278 12.8352 52.101 12.9271 51.6101 13.1311H51.5895C51.5818 13.4872 51.5218 13.8399 51.4118 14.1769C50.0186 21.8043 45.5452 28.3671 43.6858 35.7951C46.1581 36.8005 49.1301 38.0133 51.6411 38.9054C52.3776 39.157 53.1099 39.4148 53.8378 39.6789C54.3904 38.2306 54.8549 36.747 55.2285 35.2372V35.2372Z" fill="#B7B8BD"/>
<path d="M61.7158 29.0352H61.6308C61.6308 29.0352 61.6592 28.9813 61.7055 28.8843C60.8119 26.6823 60.9458 23.8388 61.5253 21.5857L61.4763 21.5533L61.8266 18.5616C61.9151 18.0404 61.8458 17.5033 61.6283 17.0254L61.5819 16.9149C61.5652 16.9111 61.5488 16.9057 61.533 16.8987C59.4727 23.0653 54.3812 38.2097 53.825 39.6867C55.262 40.2042 56.6913 40.7459 58.1206 41.3038C59.8796 37.261 60.1346 33.0457 61.7158 29.0352Z" fill="#BEBEC4"/>
<path d="M58.1206 41.2934C57.4536 41.0238 55.8543 40.4093 53.8507 39.6223C53.6833 40.0697 53.5107 40.509 53.3356 40.9376C53.5081 40.509 53.6807 40.0697 53.8507 39.6223C50.9534 38.4849 47.2114 37.0214 44.2137 35.8895C44.1184 36.2668 44.0257 36.6441 43.9355 37.0241C44.0257 36.6441 44.1184 36.2668 44.2137 35.8895C42.5912 35.2749 41.1876 34.7602 40.2528 34.4448C39.9094 35.4636 39.566 36.4869 39.2227 37.5147C39.408 37.6423 39.6068 37.7472 39.815 37.8273C40.8889 38.237 42.6015 37.1562 42.6015 37.1562L54.0361 41.5251C54.0361 41.5251 54.6825 43.5088 55.7538 43.9185C56.0138 44.0179 56.2862 44.0769 56.5625 44.0937C56.493 43.9697 56.8432 43.781 56.8896 43.6517C57.3555 42.8988 57.767 42.1105 58.1206 41.2934V41.2934Z" fill="#A6A6AB"/>
<path d="M62.2256 29.1299C62.053 29.0652 61.7775 28.6448 61.6127 28.6448C59.7146 34.3802 56.4903 43.9697 56.5598 44.0937C56.9432 44.1339 57.33 44.0681 57.6815 43.9031C58.0331 43.738 58.3372 43.4794 58.5635 43.1531L63.042 30.4856C63.2171 29.9735 62.8514 29.3779 62.2256 29.1299Z" fill="#A1A2A6"/>
<path d="M42.3851 44.6005C42.3941 44.5479 42.3941 44.4941 42.3851 44.4415L44.7029 37.9514L43.4641 37.4771L42.4469 40.3367C42.4185 40.3771 42.0245 40.369 41.9524 40.5792L40.7214 44.1073L40.7008 44.1666V44.1854C40.6826 44.2371 40.6756 44.2923 40.6802 44.3471C40.68 44.4462 40.7087 44.5429 40.7626 44.6243C40.8165 44.7057 40.8929 44.768 40.9815 44.8026L41.7361 45.091C41.8543 45.1342 41.984 45.1267 42.0969 45.0701C42.2098 45.0136 42.2967 44.9126 42.3387 44.7892L42.3593 44.7299C42.3728 44.688 42.3815 44.6445 42.3851 44.6005V44.6005Z" fill="black"/>
<path d="M49.3282 47.255C49.3601 47.214 49.3954 47.1761 49.4338 47.1418L51.6589 40.6167L52.8977 41.0911L51.901 43.9507C51.9525 44.0531 52.2023 44.2606 52.1302 44.4682L50.8966 47.9962L50.876 48.0555V48.0743C50.8573 48.1267 50.8284 48.1745 50.791 48.2145C50.7292 48.2902 50.6468 48.3445 50.5548 48.37C50.4628 48.3955 50.3655 48.3911 50.276 48.3573L49.5214 48.069C49.4048 48.023 49.3103 47.9305 49.2587 47.8118C49.207 47.6931 49.2024 47.5578 49.2458 47.4356L49.2664 47.3763C49.2811 47.3328 49.3019 47.2919 49.3282 47.255V47.255Z" fill="black"/>
<path d="M40.8863 37.3772C41.4623 37.3772 41.9293 36.8885 41.9293 36.2857C41.9293 35.6828 41.4623 35.1941 40.8863 35.1941C40.3102 35.1941 39.8433 35.6828 39.8433 36.2857C39.8433 36.8885 40.3102 37.3772 40.8863 37.3772Z" fill="#505050"/>
<path d="M55.9289 43.1316C56.5049 43.1316 56.9719 42.6429 56.9719 42.04C56.9719 41.4372 56.5049 40.9485 55.9289 40.9485C55.3528 40.9485 54.8859 41.4372 54.8859 42.04C54.8859 42.6429 55.3528 43.1316 55.9289 43.1316Z" fill="#505050"/>
<path d="M45.0789 37.3933C45.2738 37.3933 45.4317 37.228 45.4317 37.024C45.4317 36.8201 45.2738 36.6548 45.0789 36.6548C44.884 36.6548 44.7261 36.8201 44.7261 37.024C44.7261 37.228 44.884 37.3933 45.0789 37.3933Z" fill="#505050"/>
<path d="M47.3219 38.2529C47.5168 38.2529 47.6748 38.0876 47.6748 37.8836C47.6748 37.6797 47.5168 37.5144 47.3219 37.5144C47.1271 37.5144 46.9691 37.6797 46.9691 37.8836C46.9691 38.0876 47.1271 38.2529 47.3219 38.2529Z" fill="#505050"/>
<path d="M49.5652 39.1098C49.7601 39.1098 49.9181 38.9445 49.9181 38.7406C49.9181 38.5367 49.7601 38.3713 49.5652 38.3713C49.3704 38.3713 49.2124 38.5367 49.2124 38.7406C49.2124 38.9445 49.3704 39.1098 49.5652 39.1098Z" fill="#505050"/>
<path d="M51.8058 39.9675C52.0007 39.9675 52.1586 39.8022 52.1586 39.5982C52.1586 39.3943 52.0007 39.229 51.8058 39.229C51.611 39.229 51.453 39.3943 51.453 39.5982C51.453 39.8022 51.611 39.9675 51.8058 39.9675Z" fill="#505050"/>
<path d="M51.4555 32.2373C52.8053 32.2373 53.8995 31.0922 53.8995 29.6796C53.8995 28.267 52.8053 27.1218 51.4555 27.1218C50.1057 27.1218 49.0115 28.267 49.0115 29.6796C49.0115 31.0922 50.1057 32.2373 51.4555 32.2373Z" fill="#787878"/>
<path d="M29.8896 3.5253L29.4338 3.6358L26.8971 2.66553L15.5423 4.90255L13.9688 5.21789L12.8717 6.68409L13.4048 7.80799L14.1336 7.67862L27.4533 7.41718L30.1085 4.91333L30.4768 4.69772L29.8896 3.5253Z" fill="#383838"/>
<path d="M32.6348 4.47944L33.0881 4.36355L35.6351 5.30148L46.9667 2.93239L48.5351 2.59549L49.6167 1.11582L49.0707 0L48.3445 0.137456L35.0273 0.557909L32.4005 3.09141L32.0348 3.31241L32.6348 4.47944Z" fill="#383838"/>
<path d="M32.4172 3.01504L29.6115 3.52856C29.2262 3.59908 28.9684 3.98313 29.0358 4.38635L29.0363 4.38901C29.1037 4.79223 29.4706 5.06194 29.8559 4.99142L32.6617 4.47789C33.047 4.40737 33.3047 4.02333 33.2373 3.62011L33.2368 3.61745C33.1695 3.21423 32.8025 2.94452 32.4172 3.01504Z" fill="#0D0D0D"/>
<path d="M83.1606 22.516L82.8284 22.1737L82.2592 19.4084L74.3993 10.5439L73.3047 9.32026L71.5355 9.13159L70.9122 10.2016L71.4041 10.7784L78.7155 22.4351L82.1536 23.4512L82.5245 23.6615L83.1606 22.516Z" fill="#383838"/>
<path d="M83.851 25.4558L84.1883 25.7927L84.7858 28.5499L92.7411 37.3201L93.8485 38.5303L95.6229 38.7001L96.2332 37.622L95.7336 37.0506L88.2986 25.4827L84.8476 24.5071L84.4742 24.3022L83.851 25.4558Z" fill="#383838"/>
<path d="M84.9239 24.4794L83.0132 22.2687C82.7508 21.9651 82.3029 21.9416 82.0129 22.2162L82.0109 22.218C81.7209 22.4926 81.6984 22.9613 81.9608 23.2649L83.8715 25.4756C84.1339 25.7792 84.5817 25.8027 84.8718 25.5281L84.8737 25.5263C85.1638 25.2517 85.1863 24.783 84.9239 24.4794Z" fill="#0D0D0D"/>
<path d="M11.2054 17.8909L10.9015 17.4732L10.7109 14.4357L3.66215 3.70873L2.68094 2.22637L0.821538 1.73584L0 2.7735L0.437813 3.46886L6.48216 17.0797L9.99237 18.7237L10.3581 19.0094L11.2054 17.8909Z" fill="#383838"/>
<path d="M11.5015 21.1359L11.8105 21.5509L12.0346 24.5857L19.1992 35.2264L20.1984 36.698L22.0604 37.167L22.8716 36.1159L22.4261 35.4286L16.2324 21.8932L12.7042 20.2896L12.3385 20.0093L11.5015 21.1359Z" fill="#383838"/>
<path d="M12.7806 20.272L11.0795 17.6107C10.8446 17.2432 10.37 17.1442 10.0195 17.3896C9.66897 17.635 9.57522 18.1318 9.81009 18.4993L11.5112 21.1607C11.7461 21.5281 12.2206 21.6271 12.5712 21.3817C12.9217 21.1363 13.0154 20.6395 12.7806 20.272Z" fill="#0D0D0D"/>
<path d="M90.1734 49.0934L90.6473 48.9155L93.4699 49.6352L105.353 45.8161L106.996 45.2797L108 43.5736L107.302 42.4417L106.537 42.6707L92.329 44.6248L89.7794 47.6353L89.4111 47.9129L90.1734 49.0934Z" fill="#383838"/>
<path d="M87.1293 48.4168L86.658 48.6001L83.8277 47.9155L71.9888 51.8775L70.3509 52.4327L69.3645 54.1495L70.0753 55.2761L70.8376 55.0363L85.0226 52.9124L87.5413 49.8696L87.9045 49.5893L87.1293 48.4168Z" fill="#383838"/>
<path d="M87.5329 49.9585L90.4714 49.057C90.8754 48.933 91.1069 48.4898 90.9884 48.067L90.9877 48.0644C90.8692 47.6416 90.4457 47.3993 90.0417 47.5233L87.1033 48.4248C86.6993 48.5488 86.4678 48.992 86.5863 49.4148L86.587 49.4174C86.7054 49.8402 87.1289 50.0825 87.5329 49.9585Z" fill="#0D0D0D"/>
</svg>
