<svg width="541" height="184" viewBox="0 0 541 184" fill="none" xmlns="http://www.w3.org/2000/svg">
<rect x="0.638889" y="0.638889" width="539.222" height="182.722" stroke="white" stroke-width="1.27778"/>
<g clip-path="url(#clip0)">
<path d="M59.1614 139.26C68.2804 147.579 79.6211 153.068 91.8033 155.059C103.985 157.05 116.484 155.456 127.776 150.473C139.069 145.489 148.67 137.33 155.41 126.988C162.149 116.647 165.738 104.57 165.738 92.2258C165.738 79.8821 162.149 67.8046 155.41 57.4633C148.67 47.122 139.069 38.9629 127.776 33.9791C116.484 28.9953 103.985 27.4018 91.8033 29.3925C79.6211 31.3832 68.2804 36.8723 59.1614 45.1916" stroke="white" stroke-width="7.27094" stroke-miterlimit="10"/>
<path d="M155.28 32.1391C140.306 18.3021 120.685 10.587 100.297 10.5188C55.1732 10.2963 18.412 46.6981 18.1851 91.8215C17.9583 136.945 54.3644 173.719 99.4878 173.933C119.868 174.062 139.555 166.542 154.66 152.861" stroke="white" stroke-width="8.25951" stroke-miterlimit="10"/>
<path d="M127.395 55.9546H110.054L129.124 92.3136L110.054 128.497H127.395L146.46 92.3136L127.395 55.9546Z" fill="#FFE742"/>
<path d="M124.574 55.9546H117.812L136.878 92.3136L117.812 128.497H124.574L143.644 92.3136L124.574 55.9546Z" fill="#FFE321"/>
<path d="M127.352 55.9546H123.894L142.959 92.3136L123.894 128.497H127.352L146.417 92.3136L127.352 55.9546Z" fill="#FFDF00"/>
<path d="M98.7433 55.9546H74.7993L93.8647 92.3136L74.7993 128.497H98.7433L117.813 92.3136L98.7433 55.9546Z" fill="#FFE742"/>
<path d="M93.3388 55.9547H83.269L102.334 92.3137L83.269 128.497H93.3388L112.404 92.3137L93.3388 55.9547Z" fill="#FFE321"/>
<path d="M98.7047 55.9546H92.9316L111.997 92.3136L92.9316 128.497H98.7047L117.77 92.3136L98.7047 55.9546Z" fill="#FFDF00"/>
<path d="M198.692 85.8272V97.1053C198.692 97.6055 198.805 97.9846 199.031 98.2428C199.273 98.5009 199.684 98.7107 200.265 98.872V99.6465H189.882V98.872C190.463 98.7107 190.875 98.5009 191.117 98.2428C191.359 97.9846 191.48 97.6055 191.48 97.1053V85.8272L180.807 70.7977C179.887 69.507 179.161 68.6438 178.629 68.2081C178.112 67.7563 177.491 67.4821 176.765 67.3853V66.6108H189.81V67.3853C188.729 67.5627 188.188 68.0629 188.188 68.8858C188.188 69.1762 188.519 69.8135 189.181 70.7977L195.134 79.6557L201.257 70.7977C201.919 69.8458 202.25 69.2004 202.25 68.8616C202.25 68.4905 202.104 68.1759 201.814 67.9177C201.524 67.6434 201.128 67.4659 200.628 67.3853V66.6108H213.407V67.3853C212.681 67.4821 212.051 67.7563 211.519 68.2081C211.003 68.6438 210.285 69.507 209.365 70.7977L198.692 85.8272ZM231.607 66.0299C237.367 66.0299 241.933 67.5869 245.305 70.7009C248.871 73.9601 250.654 78.1713 250.654 83.3344C250.654 86.4967 249.798 89.4494 248.088 92.1923C244.748 97.549 239.271 100.227 231.655 100.227C225.943 100.227 221.402 98.6703 218.029 95.5564C216.222 93.8945 214.851 91.9019 213.915 89.5785C213.092 87.5294 212.681 85.3754 212.681 83.1165C212.681 79.8089 213.528 76.7837 215.222 74.0408C218.465 68.797 223.927 66.1268 231.607 66.0299ZM231.631 71.6206C228.485 71.6206 225.863 72.5564 223.765 74.428C221.281 76.6385 220.038 79.5346 220.038 83.1165C220.038 86.6984 221.281 89.5946 223.765 91.805C225.863 93.6767 228.501 94.6125 231.679 94.6125C234.858 94.6125 237.488 93.6767 239.569 91.805C240.811 90.6918 241.763 89.3284 242.425 87.7149C243.006 86.2789 243.296 84.7945 243.296 83.2617C243.296 79.5185 242.054 76.5739 239.569 74.428C237.455 72.5887 234.809 71.6529 231.631 71.6206ZM289.474 69.152V87.6665C289.474 91.1677 288.828 93.7896 287.537 95.5321C285.214 98.6623 280.414 100.227 273.137 100.227C267.877 100.227 263.852 99.3803 261.06 97.6861C259.431 96.7019 258.301 95.3627 257.672 93.6686C257.059 91.9906 256.753 89.9899 256.753 87.6665V69.152C256.753 68.6518 256.64 68.2727 256.414 68.0145C256.188 67.7563 255.784 67.5466 255.204 67.3853V66.6108H265.538V67.3853C264.957 67.5305 264.546 67.7402 264.304 68.0145C264.078 68.2727 263.965 68.6518 263.965 69.152V85.6335C263.965 87.5374 264.07 88.9492 264.279 89.8689C264.489 90.7724 264.884 91.5308 265.465 92.1439C267.014 93.7896 269.66 94.6125 273.403 94.6125C277.163 94.6125 279.817 93.7896 281.366 92.1439C281.931 91.5308 282.318 90.7724 282.528 89.8689C282.737 88.9492 282.842 87.5374 282.842 85.6335V69.152C282.842 68.6518 282.729 68.2727 282.503 68.0145C282.278 67.7563 281.874 67.5466 281.293 67.3853V66.6108H291.023V67.3853C290.442 67.5466 290.038 67.7563 289.812 68.0145C289.587 68.2727 289.474 68.6518 289.474 69.152ZM305.084 86.166V97.1295C305.084 97.6135 305.197 97.9927 305.423 98.267C305.665 98.5251 306.068 98.7268 306.633 98.872V99.6465H296.323V98.872C296.904 98.7107 297.307 98.5009 297.533 98.2428C297.759 97.9846 297.872 97.6135 297.872 97.1295V69.152C297.872 68.6518 297.759 68.2727 297.533 68.0145C297.307 67.7563 296.904 67.5466 296.323 67.3853V66.6108H316.991C319.508 66.6108 321.501 66.756 322.969 67.0464C324.454 67.3368 325.744 67.8451 326.841 68.5711C328.116 69.4102 329.068 70.5476 329.697 71.9836C330.294 73.3712 330.593 74.8556 330.593 76.4368C330.593 81.8258 327.6 84.9801 321.614 85.8998L328.027 95.0239C329.157 96.6212 329.98 97.6539 330.496 98.1218C331.028 98.5735 331.674 98.8236 332.432 98.872V99.6465H320.476V98.872C321.299 98.7429 321.711 98.4525 321.711 98.0008C321.711 97.7103 321.331 97.0085 320.573 95.8952L313.893 86.166H305.084ZM305.084 80.7205H316.217C317.863 80.7205 319.024 80.6721 319.702 80.5753C320.38 80.4785 321.001 80.2768 321.565 79.9703C322.792 79.3088 323.405 78.1148 323.405 76.3884C323.405 74.662 322.792 73.468 321.565 72.8065C320.985 72.4838 320.363 72.2821 319.702 72.2014C319.056 72.1046 317.895 72.0562 316.217 72.0562H305.084V80.7205ZM357.554 94.201H377.859C378.359 94.201 378.739 94.0881 378.997 93.8622C379.255 93.6363 379.465 93.233 379.626 92.6521H380.4V101.195H379.626C379.465 100.615 379.255 100.211 378.997 99.9853C378.739 99.7594 378.359 99.6465 377.859 99.6465H348.793V98.872C349.373 98.7107 349.777 98.5009 350.003 98.2428C350.229 97.9846 350.342 97.6055 350.342 97.1053V69.152C350.342 68.6518 350.229 68.2727 350.003 68.0145C349.777 67.7563 349.373 67.5466 348.793 67.3853V66.6108H359.103V67.3853C358.522 67.5305 358.118 67.7402 357.893 68.0145C357.667 68.2727 357.554 68.6518 357.554 69.152V94.201ZM401.505 66.0299C407.265 66.0299 411.831 67.5869 415.203 70.7009C418.769 73.9601 420.551 78.1713 420.551 83.3344C420.551 86.4967 419.696 89.4494 417.986 92.1923C414.646 97.549 409.168 100.227 401.553 100.227C395.841 100.227 391.299 98.6703 387.927 95.5564C386.12 93.8945 384.749 91.9019 383.813 89.5785C382.99 87.5294 382.579 85.3754 382.579 83.1165C382.579 79.8089 383.426 76.7837 385.12 74.0408C388.363 68.797 393.824 66.1268 401.505 66.0299ZM401.529 71.6206C398.382 71.6206 395.761 72.5564 393.663 74.428C391.178 76.6385 389.936 79.5346 389.936 83.1165C389.936 86.6984 391.178 89.5946 393.663 91.805C395.761 93.6767 398.399 94.6125 401.577 94.6125C404.756 94.6125 407.386 93.6767 409.467 91.805C410.709 90.6918 411.661 89.3284 412.323 87.7149C412.904 86.2789 413.194 84.7945 413.194 83.2617C413.194 79.5185 411.952 76.5739 409.467 74.428C407.353 72.5887 404.707 71.6529 401.529 71.6206ZM455.136 87.7633H446.98C446.48 87.7633 446.101 87.8763 445.843 88.1021C445.601 88.328 445.399 88.7314 445.238 89.3122H444.463V81.616H445.238C445.399 82.213 445.601 82.6244 445.843 82.8503C446.101 83.0601 446.48 83.1649 446.98 83.1649H462.663V83.9394C462.082 84.1007 461.671 84.3105 461.429 84.5687C461.203 84.8268 461.09 85.206 461.09 85.7061V92.4827C461.09 92.9829 461.203 93.362 461.429 93.6202C461.655 93.8783 462.066 94.0881 462.663 94.2494V94.8545C456.387 98.4364 450.304 100.227 444.415 100.227C439.074 100.227 434.718 98.9608 431.346 96.4276C427.102 93.233 424.98 88.7959 424.98 83.1165C424.98 77.8244 426.868 73.6132 430.644 70.4831C434.226 67.5143 438.985 66.0299 444.923 66.0299C446.811 66.0299 448.585 66.2074 450.247 66.5624C451.925 66.9012 453.829 67.4821 455.959 68.3049C457.056 68.7406 457.839 68.9584 458.307 68.9584C458.645 68.9584 459.041 68.7728 459.492 68.4017L460.17 68.7648L456.298 76.6788L455.596 76.3158C455.58 75.7833 455.507 75.4042 455.378 75.1783C455.249 74.9363 454.959 74.6458 454.507 74.307C453.523 73.5648 452.079 72.9356 450.175 72.4193C448.271 71.8868 446.472 71.6206 444.778 71.6206C441.325 71.6206 438.461 72.5887 436.186 74.5248C433.621 76.7191 432.338 79.6153 432.338 83.2133C432.338 86.6984 433.588 89.5139 436.089 91.6598C438.38 93.6283 441.397 94.6125 445.141 94.6125C446.964 94.6125 448.763 94.4027 450.538 93.9832C452.313 93.5637 453.845 92.9909 455.136 92.2649V87.7633ZM486.453 66.0299C492.214 66.0299 496.78 67.5869 500.152 70.7009C503.718 73.9601 505.5 78.1713 505.5 83.3344C505.5 86.4967 504.645 89.4494 502.935 92.1923C499.595 97.549 494.117 100.227 486.502 100.227C480.79 100.227 476.248 98.6703 472.876 95.5564C471.069 93.8945 469.698 91.9019 468.762 89.5785C467.939 87.5294 467.528 85.3754 467.528 83.1165C467.528 79.8089 468.375 76.7837 470.069 74.0408C473.312 68.797 478.773 66.1268 486.453 66.0299ZM486.478 71.6206C483.331 71.6206 480.71 72.5564 478.612 74.428C476.127 76.6385 474.885 79.5346 474.885 83.1165C474.885 86.6984 476.127 89.5946 478.612 91.805C480.71 93.6767 483.348 94.6125 486.526 94.6125C489.705 94.6125 492.335 93.6767 494.416 91.805C495.658 90.6918 496.61 89.3284 497.272 87.7149C497.853 86.2789 498.143 84.7945 498.143 83.2617C498.143 79.5185 496.901 76.5739 494.416 74.428C492.302 72.5887 489.656 71.6529 486.478 71.6206Z" fill="white"/>
<path d="M182.699 110.497H505.458" stroke="white" stroke-width="4.95571" stroke-miterlimit="10"/>
<path d="M210.144 136.234V141.125C210.144 141.385 210.202 141.586 210.32 141.728C210.437 141.863 210.647 141.976 210.948 142.068V142.407H205.969V142.068C206.271 141.984 206.48 141.875 206.598 141.741C206.715 141.599 206.774 141.393 206.774 141.125V136.234L202.599 130.488C202.13 129.842 201.753 129.402 201.468 129.167C201.191 128.924 200.86 128.761 200.474 128.677V128.325H206.812V128.677C206.267 128.819 205.994 129.075 205.994 129.444C205.994 129.628 206.191 129.997 206.585 130.55L208.635 133.392L210.634 130.55C211.028 129.989 211.225 129.616 211.225 129.431C211.225 129.079 210.957 128.828 210.42 128.677L210.408 128.325H216.443V128.677C216.057 128.761 215.722 128.924 215.437 129.167C215.161 129.402 214.787 129.842 214.318 130.488L210.144 136.234ZM224.163 128.023C226.401 128.023 228.267 128.593 229.759 129.733C231.544 131.108 232.437 133.023 232.437 135.479C232.437 137.785 231.544 139.624 229.759 140.999C228.283 142.139 226.427 142.709 224.188 142.709C221.95 142.709 220.094 142.139 218.618 140.999C216.824 139.624 215.928 137.747 215.928 135.366C215.928 132.96 216.824 131.083 218.618 129.733C220.102 128.618 221.95 128.048 224.163 128.023ZM224.176 130.689C222.726 130.689 221.544 131.154 220.63 132.084C219.783 132.956 219.36 134.05 219.36 135.366C219.36 136.674 219.783 137.764 220.63 138.635C221.544 139.574 222.73 140.044 224.188 140.044C225.639 140.044 226.821 139.574 227.734 138.635C228.581 137.772 229.004 136.703 229.004 135.429C229.004 134.046 228.581 132.931 227.734 132.084C226.812 131.171 225.626 130.705 224.176 130.689ZM249.374 129.607V137.064C249.374 138.765 249.038 140.014 248.368 140.811C247.286 142.076 245.25 142.709 242.257 142.709C240.254 142.709 238.636 142.403 237.403 141.791C236.515 141.347 235.907 140.714 235.58 139.893C235.279 139.138 235.128 138.195 235.128 137.064V129.607C235.128 129.348 235.069 129.151 234.952 129.016C234.834 128.882 234.625 128.769 234.323 128.677V128.325H239.315V128.677C239.005 128.761 238.791 128.874 238.673 129.016C238.556 129.151 238.497 129.348 238.497 129.607V136.385C238.497 137.173 238.564 137.776 238.699 138.195C238.841 138.614 239.084 138.958 239.428 139.226C240.115 139.771 241.109 140.044 242.408 140.044C243.707 140.044 244.7 139.771 245.388 139.226C245.723 138.958 245.958 138.614 246.092 138.195C246.226 137.776 246.293 137.173 246.293 136.385V129.607C246.293 129.348 246.234 129.151 246.117 129.016C246.008 128.882 245.799 128.769 245.488 128.677V128.325H250.178V128.677C249.877 128.761 249.667 128.874 249.55 129.016C249.432 129.151 249.374 129.348 249.374 129.607ZM256.553 136.624V141.125C256.553 141.385 256.612 141.586 256.729 141.728C256.847 141.863 257.056 141.976 257.358 142.068V142.407H252.379V142.055C252.672 141.98 252.878 141.871 252.995 141.728C253.121 141.586 253.184 141.385 253.184 141.125V129.607C253.184 129.348 253.125 129.151 253.008 129.016C252.89 128.882 252.681 128.769 252.379 128.677V128.325H261.608C262.807 128.325 263.72 128.388 264.349 128.513C264.978 128.631 265.539 128.849 266.034 129.167C267.048 129.83 267.555 130.911 267.555 132.411C267.555 133.551 267.241 134.444 266.612 135.09C265.992 135.727 264.986 136.188 263.595 136.473L266.26 140.194C266.746 140.882 267.132 141.351 267.417 141.603C267.71 141.846 268.042 142.001 268.41 142.068V142.407H262.501V142.068C262.937 141.951 263.155 141.762 263.155 141.502C263.155 141.318 263.02 141.037 262.752 140.66L259.936 136.624H256.553ZM256.553 134.071H261.633C262.404 134.071 262.974 133.987 263.343 133.82C263.863 133.593 264.123 133.145 264.123 132.474C264.123 131.879 263.938 131.464 263.569 131.229C263.209 130.995 262.564 130.877 261.633 130.877H256.553V134.071ZM290.264 137.365L292.389 140.459L292.099 140.672C291.898 140.53 291.739 140.459 291.622 140.459C291.479 140.459 291.148 140.614 290.628 140.924C289.48 141.594 288.466 142.06 287.585 142.319C286.705 142.579 285.691 142.709 284.543 142.709C282.246 142.709 280.372 142.16 278.922 141.062C278.101 140.433 277.447 139.645 276.961 138.698C276.441 137.676 276.181 136.565 276.181 135.366C276.181 133.715 276.659 132.256 277.614 130.99C279.115 129.012 281.416 128.023 284.517 128.023C285.666 128.023 286.684 128.153 287.573 128.413C288.47 128.673 289.488 129.138 290.628 129.809C291.148 130.119 291.479 130.274 291.622 130.274C291.739 130.274 291.898 130.203 292.099 130.06L292.389 130.286L290.264 133.367L289.987 133.166C289.995 133.065 290.004 133.002 290.012 132.977C290.02 132.902 290.025 132.847 290.025 132.814C290.025 132.403 289.459 131.938 288.327 131.418C287.254 130.923 286.173 130.676 285.083 130.676C283.558 130.676 282.3 131.079 281.311 131.883C280.179 132.789 279.614 133.95 279.614 135.366C279.614 136.791 280.179 137.956 281.311 138.862C282.309 139.658 283.566 140.056 285.083 140.056C286.274 140.056 287.46 139.759 288.642 139.163C289.564 138.694 290.025 138.283 290.025 137.931C290.025 137.914 290.012 137.797 289.987 137.579L290.264 137.365ZM302.372 128.023C304.61 128.023 306.475 128.593 307.967 129.733C309.753 131.108 310.646 133.023 310.646 135.479C310.646 137.785 309.753 139.624 307.967 140.999C306.492 142.139 304.635 142.709 302.397 142.709C300.159 142.709 298.302 142.139 296.827 140.999C295.033 139.624 294.136 137.747 294.136 135.366C294.136 132.96 295.033 131.083 296.827 129.733C298.311 128.618 300.159 128.048 302.372 128.023ZM302.385 130.689C300.935 130.689 299.753 131.154 298.839 132.084C297.992 132.956 297.569 134.05 297.569 135.366C297.569 136.674 297.992 137.764 298.839 138.635C299.753 139.574 300.939 140.044 302.397 140.044C303.847 140.044 305.029 139.574 305.943 138.635C306.79 137.772 307.213 136.703 307.213 135.429C307.213 134.046 306.79 132.931 305.943 132.084C305.021 131.171 303.835 130.705 302.385 130.689ZM321.811 141.967L316.681 133.153V141.125C316.681 141.385 316.74 141.586 316.857 141.728C316.974 141.863 317.184 141.976 317.486 142.068V142.407H312.808V142.055C313.102 141.98 313.307 141.871 313.424 141.728C313.55 141.586 313.613 141.385 313.613 141.125V129.607C313.613 129.348 313.554 129.151 313.437 129.016C313.32 128.874 313.11 128.761 312.808 128.677V128.325H318.756V128.677C318.362 128.803 318.165 129.042 318.165 129.394C318.165 129.737 318.307 130.156 318.592 130.651L322.1 136.573L325.634 130.739C326.036 130.077 326.237 129.607 326.237 129.331C326.237 128.987 326.032 128.769 325.621 128.677V128.325H331.417V128.677C331.116 128.761 330.906 128.874 330.789 129.016C330.671 129.151 330.613 129.348 330.613 129.607V141.125C330.613 141.385 330.671 141.586 330.789 141.728C330.906 141.871 331.116 141.984 331.417 142.068V142.407H326.438V142.055C326.732 141.98 326.937 141.871 327.054 141.728C327.18 141.586 327.243 141.385 327.243 141.125V133.153L321.811 141.967ZM338.082 136.624V141.125C338.082 141.385 338.14 141.586 338.258 141.728C338.375 141.863 338.585 141.976 338.886 142.068V142.407H333.907V142.055C334.2 141.98 334.406 141.871 334.523 141.728C334.649 141.586 334.712 141.385 334.712 141.125V129.607C334.712 129.348 334.653 129.151 334.536 129.016C334.418 128.882 334.209 128.769 333.907 128.677V128.325H343.086C344.905 128.325 346.275 128.597 347.198 129.142C347.734 129.461 348.153 129.913 348.455 130.5C348.757 131.087 348.908 131.745 348.908 132.474C348.908 133.874 348.43 134.918 347.474 135.605C346.519 136.284 345.056 136.624 343.086 136.624H338.082ZM338.082 134.071H342.885C343.765 134.071 344.377 133.987 344.721 133.82C345.223 133.576 345.475 133.128 345.475 132.474C345.475 131.82 345.223 131.372 344.721 131.129C344.385 130.961 343.773 130.877 342.885 130.877H338.082V134.071ZM361.381 138.887H354.905L354.176 140.421C354 140.79 353.912 141.079 353.912 141.288C353.912 141.691 354.18 141.946 354.717 142.055V142.407H349.536V142.055C349.855 142.005 350.09 141.909 350.24 141.766C350.4 141.624 350.584 141.343 350.794 140.924L355.936 130.513C356.129 130.119 356.226 129.775 356.226 129.482C356.226 129.138 355.991 128.87 355.521 128.677V128.325H360.991V128.677C360.53 128.861 360.299 129.146 360.299 129.532C360.299 129.809 360.404 130.148 360.614 130.55L365.945 140.647C366.238 141.2 366.469 141.561 366.637 141.728C366.804 141.888 367.06 142.001 367.404 142.068V142.407H361.657V142.068C362.202 141.976 362.475 141.72 362.475 141.301C362.475 141.041 362.37 140.718 362.16 140.333L361.381 138.887ZM360.362 136.913L358.061 132.399L355.873 136.913H360.362ZM372.458 133.128V141.125C372.458 141.385 372.517 141.586 372.634 141.728C372.76 141.871 372.97 141.984 373.263 142.068V142.407H368.586V142.055C368.879 141.98 369.084 141.871 369.202 141.728C369.327 141.586 369.39 141.385 369.39 141.125V129.607C369.39 129.348 369.332 129.151 369.214 129.016C369.097 128.882 368.887 128.769 368.586 128.677V128.325H373.992V128.677C373.623 128.769 373.439 128.933 373.439 129.167C373.439 129.368 373.573 129.603 373.841 129.871L381.386 137.365V129.607C381.386 129.348 381.327 129.151 381.21 129.016C381.092 128.874 380.883 128.761 380.581 128.677V128.325H385.258V128.677C384.957 128.761 384.747 128.874 384.63 129.016C384.512 129.151 384.454 129.348 384.454 129.607V141.125C384.454 141.385 384.512 141.586 384.63 141.728C384.747 141.863 384.957 141.976 385.258 142.068V142.407H380.216V142.068C380.585 141.993 380.77 141.837 380.77 141.603C380.77 141.485 380.719 141.364 380.619 141.238C380.518 141.112 380.288 140.865 379.927 140.496L372.458 133.128ZM396.311 136.234V141.125C396.311 141.385 396.369 141.586 396.487 141.728C396.604 141.863 396.814 141.976 397.115 142.068V142.407H392.136V142.068C392.438 141.984 392.648 141.875 392.765 141.741C392.882 141.599 392.941 141.393 392.941 141.125V136.234L388.766 130.488C388.297 129.842 387.92 129.402 387.635 129.167C387.358 128.924 387.027 128.761 386.641 128.677V128.325H392.979V128.677C392.434 128.819 392.161 129.075 392.161 129.444C392.161 129.628 392.358 129.997 392.752 130.55L394.802 133.392L396.801 130.55C397.195 129.989 397.392 129.616 397.392 129.431C397.392 129.079 397.124 128.828 396.587 128.677L396.575 128.325H402.61V128.677C402.225 128.761 401.889 128.924 401.604 129.167C401.328 129.402 400.955 129.842 400.485 130.488L396.311 136.234ZM413.876 133.128V141.125C413.876 141.385 413.935 141.586 414.052 141.728C414.178 141.871 414.388 141.984 414.681 142.068V142.407H410.003V142.055C410.297 141.98 410.502 141.871 410.62 141.728C410.745 141.586 410.808 141.385 410.808 141.125V129.607C410.808 129.348 410.75 129.151 410.632 129.016C410.515 128.882 410.305 128.769 410.003 128.677V128.325H415.41V128.677C415.041 128.769 414.857 128.933 414.857 129.167C414.857 129.368 414.991 129.603 415.259 129.871L422.804 137.365V129.607C422.804 129.348 422.745 129.151 422.628 129.016C422.51 128.874 422.301 128.761 421.999 128.677V128.325H426.676V128.677C426.375 128.761 426.165 128.874 426.048 129.016C425.93 129.151 425.872 129.348 425.872 129.607V141.125C425.872 141.385 425.93 141.586 426.048 141.728C426.165 141.863 426.375 141.976 426.676 142.068V142.407H421.634V142.068C422.003 141.993 422.187 141.837 422.187 141.603C422.187 141.485 422.137 141.364 422.037 141.238C421.936 141.112 421.705 140.865 421.345 140.496L413.876 133.128ZM439.841 138.887H433.366L432.636 140.421C432.46 140.79 432.372 141.079 432.372 141.288C432.372 141.691 432.64 141.946 433.177 142.055V142.407H427.997V142.055C428.315 142.005 428.55 141.909 428.701 141.766C428.86 141.624 429.044 141.343 429.254 140.924L434.397 130.513C434.589 130.119 434.686 129.775 434.686 129.482C434.686 129.138 434.451 128.87 433.982 128.677V128.325H439.451V128.677C438.99 128.861 438.76 129.146 438.76 129.532C438.76 129.809 438.864 130.148 439.074 130.55L444.405 140.647C444.699 141.2 444.929 141.561 445.097 141.728C445.265 141.888 445.52 142.001 445.864 142.068V142.407H440.118V142.068C440.663 141.976 440.935 141.72 440.935 141.301C440.935 141.041 440.83 140.718 440.621 140.333L439.841 138.887ZM438.823 136.913L436.522 132.399L434.334 136.913H438.823ZM456.049 141.967L450.919 133.153V141.125C450.919 141.385 450.977 141.586 451.095 141.728C451.212 141.863 451.421 141.976 451.723 142.068V142.407H447.046V142.055C447.339 141.98 447.545 141.871 447.662 141.728C447.788 141.586 447.851 141.385 447.851 141.125V129.607C447.851 129.348 447.792 129.151 447.674 129.016C447.557 128.874 447.348 128.761 447.046 128.677V128.325H452.993V128.677C452.599 128.803 452.402 129.042 452.402 129.394C452.402 129.737 452.545 130.156 452.83 130.651L456.338 136.573L459.871 130.739C460.273 130.077 460.475 129.607 460.475 129.331C460.475 128.987 460.269 128.769 459.858 128.677V128.325H465.655V128.677C465.353 128.761 465.144 128.874 465.026 129.016C464.909 129.151 464.85 129.348 464.85 129.607V141.125C464.85 141.385 464.909 141.586 465.026 141.728C465.144 141.871 465.353 141.984 465.655 142.068V142.407H460.676V142.055C460.969 141.98 461.175 141.871 461.292 141.728C461.418 141.586 461.48 141.385 461.48 141.125V133.153L456.049 141.967ZM472.319 136.422V139.855H481.259C481.519 139.855 481.716 139.796 481.85 139.679C481.992 139.562 482.106 139.348 482.189 139.038H482.542V143.212H482.189C482.114 142.919 482.005 142.709 481.863 142.584C481.72 142.466 481.519 142.407 481.259 142.407H468.145V142.055C468.438 141.98 468.643 141.871 468.761 141.728C468.886 141.586 468.949 141.385 468.949 141.125V129.607C468.949 129.348 468.891 129.151 468.773 129.016C468.656 128.882 468.446 128.769 468.145 128.677V128.325H480.869C481.137 128.325 481.339 128.266 481.473 128.149C481.615 128.031 481.728 127.822 481.812 127.52H482.152V131.695H481.812C481.728 131.384 481.615 131.171 481.473 131.053C481.339 130.936 481.137 130.877 480.869 130.877H472.319V133.97H477.625C477.885 133.97 478.082 133.912 478.216 133.794C478.359 133.677 478.476 133.468 478.568 133.166H478.908V137.24H478.568C478.484 136.938 478.371 136.728 478.229 136.611C478.095 136.485 477.893 136.422 477.625 136.422H472.319Z" fill="white"/>
</g>
<defs>
<clipPath id="clip0">
<rect width="506" height="171.674" fill="white" transform="translate(14.0557 6.38892)"/>
</clipPath>
</defs>
</svg>
