<svg width="519" height="174" viewBox="0 0 519 174" fill="none" xmlns="http://www.w3.org/2000/svg">
<rect width="518.375" height="174" fill="white" fill-opacity="0.9"/>
<path d="M60.3633 131.692C68.9867 139.559 79.7111 144.75 91.2311 146.632C102.751 148.515 114.57 147.008 125.249 142.295C135.928 137.582 145.007 129.866 151.381 120.087C157.754 110.308 161.147 98.8866 161.147 87.2137C161.147 75.5409 157.754 64.1197 151.381 54.3404C145.007 44.5612 135.928 36.8455 125.249 32.1326C114.57 27.4197 102.751 25.9127 91.2311 27.7952C79.7111 29.6777 68.9867 34.8685 60.3633 42.7356" stroke="black" stroke-width="6.87578" stroke-miterlimit="10"/>
<path d="M151.258 30.3925C137.098 17.3075 118.543 10.0117 99.2627 9.94725C56.5916 9.73681 21.8283 44.1602 21.6138 86.8313C21.3993 129.502 55.8268 164.278 98.4979 164.48C117.77 164.602 136.387 157.491 150.671 144.553" stroke="black" stroke-width="7.81063" stroke-miterlimit="10"/>
<path d="M124.888 52.9137H108.49L126.523 87.2966L108.49 121.514H124.888L142.918 87.2966L124.888 52.9137Z" fill="#FFE742"/>
<path d="M122.221 52.9137H115.827L133.856 87.2966L115.827 121.514H122.221L140.255 87.2966L122.221 52.9137Z" fill="#FFE321"/>
<path d="M124.848 52.9137H121.578L139.607 87.2966L121.578 121.514H124.848L142.877 87.2966L124.848 52.9137Z" fill="#FFDF00"/>
<path d="M97.7941 52.9137H75.1514L93.1806 87.2966L75.1514 121.514H97.7941L115.827 87.2966L97.7941 52.9137Z" fill="#FFE742"/>
<path d="M92.6831 52.9138H83.1606L101.19 87.2968L83.1606 121.514H92.6831L110.712 87.2968L92.6831 52.9138Z" fill="#FFE321"/>
<path d="M97.7577 52.9137H92.2983L110.328 87.2966L92.2983 121.514H97.7577L115.787 87.2966L97.7577 52.9137Z" fill="#FFDF00"/>
<path d="M192.311 80.5541V91.2193C192.311 91.6923 192.418 92.0508 192.631 92.2949C192.86 92.5391 193.249 92.7374 193.798 92.89V93.6224H183.98V92.89C184.529 92.7374 184.918 92.5391 185.147 92.2949C185.376 92.0508 185.491 91.6923 185.491 91.2193V80.5541L175.397 66.3415C174.528 65.1209 173.841 64.3046 173.338 63.8926C172.849 63.4654 172.262 63.206 171.575 63.1145V62.3821H183.911V63.1145C182.889 63.2823 182.378 63.7553 182.378 64.5334C182.378 64.8081 182.691 65.4108 183.316 66.3415L188.946 74.718L194.737 66.3415C195.362 65.4413 195.675 64.831 195.675 64.5106C195.675 64.1596 195.538 63.8621 195.263 63.618C194.988 63.3586 194.615 63.1908 194.142 63.1145V62.3821H206.226V63.1145C205.539 63.206 204.944 63.4654 204.441 63.8926C203.952 64.3046 203.273 65.1209 202.404 66.3415L192.311 80.5541ZM223.437 61.8328C228.884 61.8328 233.202 63.3052 236.39 66.2499C239.762 69.332 241.448 73.3143 241.448 78.1968C241.448 81.1873 240.64 83.9795 239.022 86.5733C235.864 91.6389 230.684 94.1717 223.482 94.1717C218.081 94.1717 213.786 92.6993 210.597 89.7545C208.888 88.183 207.591 86.2986 206.706 84.1015C205.928 82.1638 205.539 80.1269 205.539 77.9908C205.539 74.863 206.34 72.0021 207.942 69.4083C211.009 64.4495 216.174 61.9244 223.437 61.8328ZM223.459 67.1196C220.484 67.1196 218.005 68.0046 216.021 69.7745C213.672 71.8648 212.497 74.6036 212.497 77.9908C212.497 81.378 213.672 84.1168 216.021 86.2071C218.005 87.977 220.499 88.862 223.505 88.862C226.511 88.862 228.998 87.977 230.966 86.2071C232.141 85.1543 233.041 83.865 233.667 82.3393C234.216 80.9813 234.491 79.5776 234.491 78.1281C234.491 74.5883 233.316 71.8038 230.966 69.7745C228.968 68.0351 226.465 67.1501 223.459 67.1196ZM278.159 64.7852V82.2935C278.159 85.6044 277.548 88.0838 276.328 89.7316C274.131 92.6917 269.591 94.1717 262.71 94.1717C257.736 94.1717 253.929 93.3706 251.29 91.7686C249.749 90.8378 248.681 89.5714 248.085 87.9694C247.506 86.3826 247.216 84.4906 247.216 82.2935V64.7852C247.216 64.3122 247.109 63.9536 246.895 63.7095C246.682 63.4654 246.3 63.267 245.751 63.1145V62.3821H255.524V63.1145C254.974 63.2518 254.585 63.4501 254.356 63.7095C254.143 63.9536 254.036 64.3122 254.036 64.7852V80.371C254.036 82.1714 254.135 83.5065 254.334 84.3762C254.532 85.2306 254.906 85.9477 255.455 86.5275C256.92 88.0838 259.422 88.862 262.962 88.862C266.517 88.862 269.027 88.0838 270.492 86.5275C271.026 85.9477 271.392 85.2306 271.59 84.3762C271.788 83.5065 271.888 82.1714 271.888 80.371V64.7852C271.888 64.3122 271.781 63.9536 271.567 63.7095C271.354 63.4654 270.972 63.267 270.423 63.1145V62.3821H279.623V63.1145C279.074 63.267 278.693 63.4654 278.479 63.7095C278.265 63.9536 278.159 64.3122 278.159 64.7852ZM292.92 80.8745V91.2422C292.92 91.6999 293.027 92.0585 293.241 92.3178C293.47 92.562 293.851 92.7527 294.385 92.89V93.6224H284.635V92.89C285.185 92.7374 285.566 92.5391 285.78 92.2949C285.993 92.0508 286.1 91.6999 286.1 91.2422V64.7852C286.1 64.3122 285.993 63.9536 285.78 63.7095C285.566 63.4654 285.185 63.267 284.635 63.1145V62.3821H304.181C306.561 62.3821 308.445 62.5194 309.834 62.7941C311.237 63.0687 312.458 63.5493 313.496 64.2359C314.701 65.0293 315.601 66.105 316.196 67.4629C316.761 68.7751 317.043 70.1788 317.043 71.6741C317.043 76.7702 314.213 79.7531 308.552 80.6228L314.617 89.251C315.685 90.7615 316.463 91.738 316.951 92.1805C317.455 92.6077 318.065 92.8442 318.782 92.89V93.6224H307.476V92.89C308.255 92.7679 308.644 92.4933 308.644 92.0661C308.644 91.7914 308.285 91.1277 307.568 90.0749L301.251 80.8745H292.92ZM292.92 75.725H303.448C305.005 75.725 306.103 75.6792 306.744 75.5877C307.385 75.4961 307.972 75.3054 308.506 75.0155C309.666 74.39 310.246 73.2609 310.246 71.6283C310.246 69.9957 309.666 68.8666 308.506 68.2411C307.957 67.9359 307.37 67.7452 306.744 67.6689C306.134 67.5774 305.035 67.5316 303.448 67.5316H292.92V75.725ZM342.539 88.4729H361.741C362.214 88.4729 362.572 88.3661 362.816 88.1525C363.06 87.9389 363.259 87.5574 363.411 87.0081H364.144V95.0871H363.411C363.259 94.5378 363.06 94.1564 362.816 93.9428C362.572 93.7292 362.214 93.6224 361.741 93.6224H334.254V92.89C334.803 92.7374 335.184 92.5391 335.398 92.2949C335.612 92.0508 335.718 91.6923 335.718 91.2193V64.7852C335.718 64.3122 335.612 63.9536 335.398 63.7095C335.184 63.4654 334.803 63.267 334.254 63.1145V62.3821H344.003V63.1145C343.454 63.2518 343.073 63.4501 342.859 63.7095C342.646 63.9536 342.539 64.3122 342.539 64.7852V88.4729ZM384.101 61.8328C389.548 61.8328 393.866 63.3052 397.055 66.2499C400.427 69.332 402.113 73.3143 402.113 78.1968C402.113 81.1873 401.304 83.9795 399.687 86.5733C396.528 91.6389 391.348 94.1717 384.147 94.1717C378.745 94.1717 374.45 92.6993 371.261 89.7545C369.553 88.183 368.256 86.2986 367.371 84.1015C366.593 82.1638 366.204 80.1269 366.204 77.9908C366.204 74.863 367.005 72.0021 368.607 69.4083C371.673 64.4495 376.838 61.9244 384.101 61.8328ZM384.124 67.1196C381.148 67.1196 378.669 68.0046 376.686 69.7745C374.336 71.8648 373.161 74.6036 373.161 77.9908C373.161 81.378 374.336 84.1168 376.686 86.2071C378.669 87.977 381.164 88.862 384.17 88.862C387.175 88.862 389.662 87.977 391.631 86.2071C392.805 85.1543 393.706 83.865 394.331 82.3393C394.88 80.9813 395.155 79.5776 395.155 78.1281C395.155 74.5883 393.98 71.8038 391.631 69.7745C389.632 68.0351 387.13 67.1501 384.124 67.1196ZM434.818 82.385H427.105C426.632 82.385 426.273 82.4918 426.029 82.7054C425.8 82.9191 425.61 83.3005 425.457 83.8498H424.725V76.5718H425.457C425.61 77.1364 425.8 77.5254 426.029 77.739C426.273 77.9374 426.632 78.0366 427.105 78.0366H441.935V78.7689C441.386 78.9215 440.997 79.1199 440.768 79.364C440.555 79.6081 440.448 79.9667 440.448 80.4397V86.8479C440.448 87.3209 440.555 87.6795 440.768 87.9236C440.982 88.1677 441.371 88.3661 441.935 88.5187V89.0908C436 92.478 430.248 94.1717 424.679 94.1717C419.629 94.1717 415.509 92.9739 412.32 90.5785C408.307 87.5574 406.301 83.3615 406.301 77.9908C406.301 72.9862 408.086 69.004 411.656 66.044C415.044 63.2365 419.545 61.8328 425.16 61.8328C426.945 61.8328 428.623 62.0007 430.195 62.3363C431.781 62.6567 433.582 63.206 435.596 63.9842C436.633 64.3961 437.373 64.6021 437.816 64.6021C438.136 64.6021 438.51 64.4266 438.937 64.0757L439.578 64.419L435.916 71.9029L435.253 71.5596C435.237 71.0561 435.169 70.6976 435.047 70.484C434.924 70.2551 434.65 69.9805 434.223 69.6601C433.292 68.9582 431.926 68.3631 430.126 67.8749C428.326 67.3714 426.624 67.1196 425.022 67.1196C421.757 67.1196 419.049 68.0351 416.897 69.866C414.471 71.9411 413.258 74.6799 413.258 78.0823C413.258 81.378 414.441 84.0405 416.806 86.0698C418.972 87.9312 421.826 88.862 425.365 88.862C427.09 88.862 428.791 88.6636 430.469 88.2669C432.148 87.8702 433.597 87.3285 434.818 86.6419V82.385ZM464.433 61.8328C469.88 61.8328 474.198 63.3052 477.387 66.2499C480.759 69.332 482.445 73.3143 482.445 78.1968C482.445 81.1873 481.636 83.9795 480.019 86.5733C476.86 91.6389 471.68 94.1717 464.479 94.1717C459.078 94.1717 454.782 92.6993 451.594 89.7545C449.885 88.183 448.588 86.2986 447.703 84.1015C446.925 82.1638 446.536 80.1269 446.536 77.9908C446.536 74.863 447.337 72.0021 448.939 69.4083C452.006 64.4495 457.17 61.9244 464.433 61.8328ZM464.456 67.1196C461.481 67.1196 459.001 68.0046 457.018 69.7745C454.668 71.8648 453.493 74.6036 453.493 77.9908C453.493 81.378 454.668 84.1168 457.018 86.2071C459.001 87.977 461.496 88.862 464.502 88.862C467.507 88.862 469.994 87.977 471.963 86.2071C473.138 85.1543 474.038 83.865 474.663 82.3393C475.213 80.9813 475.487 79.5776 475.487 78.1281C475.487 74.5883 474.312 71.8038 471.963 69.7745C469.964 68.0351 467.462 67.1501 464.456 67.1196Z" fill="black"/>
<path d="M177.187 104.492H482.404" stroke="black" stroke-width="4.68638" stroke-miterlimit="10"/>
<path d="M203.139 129.08V133.705C203.139 133.951 203.195 134.141 203.306 134.276C203.417 134.402 203.615 134.509 203.9 134.597V134.918H199.192V134.597C199.477 134.517 199.675 134.414 199.786 134.288C199.897 134.153 199.953 133.959 199.953 133.705V129.08L196.005 123.646C195.561 123.035 195.205 122.619 194.935 122.397C194.673 122.167 194.36 122.013 193.996 121.933V121.6H199.988V121.933C199.473 122.068 199.216 122.31 199.216 122.659C199.216 122.833 199.402 123.182 199.774 123.705L201.713 126.392L203.603 123.705C203.976 123.174 204.162 122.821 204.162 122.647C204.162 122.314 203.908 122.076 203.401 121.933L203.389 121.6H209.097V121.933C208.732 122.013 208.415 122.167 208.145 122.397C207.884 122.619 207.531 123.035 207.087 123.646L203.139 129.08ZM216.397 121.315C218.514 121.315 220.277 121.854 221.688 122.932C223.377 124.232 224.221 126.044 224.221 128.366C224.221 130.546 223.377 132.286 221.688 133.586C220.293 134.664 218.538 135.203 216.421 135.203C214.305 135.203 212.549 134.664 211.154 133.586C209.457 132.286 208.609 130.51 208.609 128.259C208.609 125.984 209.457 124.208 211.154 122.932C212.557 121.878 214.305 121.339 216.397 121.315ZM216.409 123.836C215.038 123.836 213.92 124.276 213.056 125.156C212.255 125.98 211.855 127.015 211.855 128.259C211.855 129.496 212.255 130.526 213.056 131.351C213.92 132.238 215.042 132.682 216.421 132.682C217.792 132.682 218.91 132.238 219.774 131.351C220.575 130.534 220.975 129.523 220.975 128.319C220.975 127.011 220.575 125.956 219.774 125.156C218.902 124.292 217.781 123.852 216.409 123.836ZM240.238 122.813V129.864C240.238 131.473 239.92 132.655 239.286 133.408C238.264 134.605 236.337 135.203 233.508 135.203C231.613 135.203 230.083 134.914 228.918 134.335C228.078 133.915 227.503 133.316 227.194 132.54C226.908 131.826 226.766 130.934 226.766 129.864V122.813C226.766 122.568 226.71 122.381 226.599 122.254C226.488 122.128 226.29 122.021 226.005 121.933V121.6H230.725V121.933C230.432 122.013 230.23 122.12 230.119 122.254C230.008 122.381 229.952 122.568 229.952 122.813V129.222C229.952 129.967 230.016 130.538 230.143 130.934C230.277 131.331 230.507 131.656 230.832 131.909C231.482 132.425 232.422 132.682 233.65 132.682C234.879 132.682 235.818 132.425 236.468 131.909C236.785 131.656 237.007 131.331 237.134 130.934C237.261 130.538 237.324 129.967 237.324 129.222V122.813C237.324 122.568 237.269 122.381 237.158 122.254C237.055 122.128 236.857 122.021 236.563 121.933V121.6H240.999V121.933C240.713 122.013 240.515 122.12 240.404 122.254C240.293 122.381 240.238 122.568 240.238 122.813ZM247.027 129.448V133.705C247.027 133.951 247.082 134.141 247.193 134.276C247.304 134.402 247.503 134.509 247.788 134.597V134.918H243.079V134.585C243.357 134.513 243.551 134.41 243.662 134.276C243.781 134.141 243.84 133.951 243.84 133.705V122.813C243.84 122.568 243.785 122.381 243.674 122.254C243.563 122.128 243.365 122.021 243.079 121.933V121.6H251.807C252.94 121.6 253.804 121.66 254.399 121.779C254.994 121.89 255.525 122.096 255.992 122.397C256.951 123.023 257.431 124.046 257.431 125.465C257.431 126.543 257.134 127.387 256.539 127.998C255.953 128.6 255.001 129.036 253.686 129.305L256.206 132.825C256.666 133.475 257.031 133.919 257.3 134.157C257.578 134.387 257.891 134.533 258.24 134.597V134.918H252.651V134.597C253.063 134.486 253.269 134.307 253.269 134.062C253.269 133.887 253.143 133.622 252.889 133.265L250.225 129.448H247.027ZM247.027 127.034H251.831C252.56 127.034 253.099 126.955 253.448 126.797C253.939 126.583 254.185 126.158 254.185 125.524C254.185 124.961 254.011 124.569 253.662 124.347C253.321 124.125 252.711 124.014 251.831 124.014H247.027V127.034ZM278.905 130.15L280.915 133.075L280.641 133.277C280.451 133.142 280.3 133.075 280.189 133.075C280.055 133.075 279.741 133.221 279.25 133.515C278.164 134.149 277.205 134.589 276.372 134.834C275.54 135.08 274.581 135.203 273.495 135.203C271.323 135.203 269.551 134.684 268.18 133.645C267.403 133.051 266.785 132.306 266.325 131.41C265.834 130.443 265.588 129.393 265.588 128.259C265.588 126.697 266.04 125.318 266.943 124.121C268.362 122.25 270.538 121.315 273.471 121.315C274.557 121.315 275.52 121.438 276.361 121.684C277.209 121.929 278.172 122.369 279.25 123.004C279.741 123.297 280.055 123.443 280.189 123.443C280.3 123.443 280.451 123.376 280.641 123.241L280.915 123.455L278.905 126.369L278.644 126.178C278.651 126.083 278.659 126.024 278.667 126C278.675 125.929 278.679 125.877 278.679 125.845C278.679 125.457 278.144 125.017 277.074 124.526C276.059 124.058 275.037 123.824 274.006 123.824C272.564 123.824 271.375 124.204 270.439 124.965C269.369 125.822 268.834 126.919 268.834 128.259C268.834 129.607 269.369 130.709 270.439 131.565C271.382 132.318 272.571 132.694 274.006 132.694C275.132 132.694 276.254 132.413 277.371 131.85C278.243 131.406 278.679 131.018 278.679 130.685C278.679 130.669 278.667 130.558 278.644 130.352L278.905 130.15ZM290.356 121.315C292.472 121.315 294.236 121.854 295.647 122.932C297.335 124.232 298.179 126.044 298.179 128.366C298.179 130.546 297.335 132.286 295.647 133.586C294.252 134.664 292.496 135.203 290.379 135.203C288.263 135.203 286.507 134.664 285.112 133.586C283.416 132.286 282.567 130.51 282.567 128.259C282.567 125.984 283.416 124.208 285.112 122.932C286.515 121.878 288.263 121.339 290.356 121.315ZM290.367 123.836C288.996 123.836 287.878 124.276 287.014 125.156C286.214 125.98 285.813 127.015 285.813 128.259C285.813 129.496 286.214 130.526 287.014 131.351C287.878 132.238 289 132.682 290.379 132.682C291.751 132.682 292.868 132.238 293.732 131.351C294.533 130.534 294.933 129.523 294.933 128.319C294.933 127.011 294.533 125.956 293.732 125.156C292.86 124.292 291.739 123.852 290.367 123.836ZM308.738 134.502L303.887 126.166V133.705C303.887 133.951 303.942 134.141 304.053 134.276C304.164 134.402 304.362 134.509 304.648 134.597V134.918H300.225V134.585C300.502 134.513 300.696 134.41 300.807 134.276C300.926 134.141 300.986 133.951 300.986 133.705V122.813C300.986 122.568 300.93 122.381 300.819 122.254C300.708 122.12 300.51 122.013 300.225 121.933V121.6H305.849V121.933C305.476 122.052 305.29 122.278 305.29 122.611C305.29 122.936 305.425 123.333 305.694 123.8L309.012 129.401L312.353 123.883C312.733 123.257 312.924 122.813 312.924 122.552C312.924 122.227 312.729 122.021 312.341 121.933V121.6H317.822V121.933C317.537 122.013 317.339 122.12 317.228 122.254C317.117 122.381 317.061 122.568 317.061 122.813V133.705C317.061 133.951 317.117 134.141 317.228 134.276C317.339 134.41 317.537 134.517 317.822 134.597V134.918H313.114V134.585C313.391 134.513 313.585 134.41 313.696 134.276C313.815 134.141 313.875 133.951 313.875 133.705V126.166L308.738 134.502ZM324.124 129.448V133.705C324.124 133.951 324.18 134.141 324.291 134.276C324.402 134.402 324.6 134.509 324.885 134.597V134.918H320.177V134.585C320.454 134.513 320.648 134.41 320.759 134.276C320.878 134.141 320.938 133.951 320.938 133.705V122.813C320.938 122.568 320.882 122.381 320.771 122.254C320.66 122.128 320.462 122.021 320.177 121.933V121.6H328.857C330.577 121.6 331.873 121.858 332.745 122.373C333.252 122.675 333.649 123.103 333.934 123.658C334.219 124.212 334.362 124.835 334.362 125.524C334.362 126.848 333.91 127.835 333.006 128.485C332.103 129.127 330.72 129.448 328.857 129.448H324.124ZM324.124 127.034H328.666C329.499 127.034 330.077 126.955 330.402 126.797C330.878 126.567 331.116 126.143 331.116 125.524C331.116 124.906 330.878 124.482 330.402 124.252C330.085 124.093 329.507 124.014 328.666 124.014H324.124V127.034ZM346.157 131.588H340.034L339.344 133.039C339.178 133.388 339.094 133.661 339.094 133.859C339.094 134.24 339.348 134.482 339.855 134.585V134.918H334.956V134.585C335.258 134.537 335.48 134.446 335.622 134.311C335.773 134.177 335.947 133.911 336.146 133.515L341.009 123.669C341.191 123.297 341.282 122.972 341.282 122.694C341.282 122.369 341.06 122.116 340.616 121.933V121.6H345.789V121.933C345.353 122.108 345.135 122.377 345.135 122.742C345.135 123.004 345.234 123.325 345.432 123.705L350.473 133.253C350.751 133.776 350.969 134.117 351.127 134.276C351.286 134.426 351.528 134.533 351.853 134.597V134.918H346.419V134.597C346.934 134.509 347.192 134.268 347.192 133.871C347.192 133.626 347.093 133.32 346.894 132.956L346.157 131.588ZM345.194 129.722L343.018 125.453L340.949 129.722H345.194ZM356.633 126.143V133.705C356.633 133.951 356.688 134.141 356.799 134.276C356.918 134.41 357.116 134.517 357.394 134.597V134.918H352.97V134.585C353.248 134.513 353.442 134.41 353.553 134.276C353.672 134.141 353.731 133.951 353.731 133.705V122.813C353.731 122.568 353.676 122.381 353.565 122.254C353.454 122.128 353.256 122.021 352.97 121.933V121.6H358.083V121.933C357.735 122.021 357.56 122.175 357.56 122.397C357.56 122.587 357.687 122.809 357.941 123.063L365.075 130.15V122.813C365.075 122.568 365.019 122.381 364.908 122.254C364.797 122.12 364.599 122.013 364.314 121.933V121.6H368.737V121.933C368.452 122.013 368.254 122.12 368.143 122.254C368.032 122.381 367.976 122.568 367.976 122.813V133.705C367.976 133.951 368.032 134.141 368.143 134.276C368.254 134.402 368.452 134.509 368.737 134.597V134.918H363.969V134.597C364.318 134.525 364.492 134.379 364.492 134.157C364.492 134.046 364.445 133.931 364.35 133.812C364.254 133.693 364.036 133.459 363.696 133.11L356.633 126.143ZM379.189 129.08V133.705C379.189 133.951 379.244 134.141 379.355 134.276C379.466 134.402 379.664 134.509 379.95 134.597V134.918H375.241V134.597C375.527 134.517 375.725 134.414 375.836 134.288C375.947 134.153 376.002 133.959 376.002 133.705V129.08L372.055 123.646C371.611 123.035 371.254 122.619 370.984 122.397C370.723 122.167 370.41 122.013 370.045 121.933V121.6H376.038V121.933C375.523 122.068 375.265 122.31 375.265 122.659C375.265 122.833 375.451 123.182 375.824 123.705L377.762 126.392L379.653 123.705C380.025 123.174 380.211 122.821 380.211 122.647C380.211 122.314 379.958 122.076 379.45 121.933L379.438 121.6H385.146V121.933C384.781 122.013 384.464 122.167 384.195 122.397C383.933 122.619 383.58 123.035 383.136 123.646L379.189 129.08ZM395.8 126.143V133.705C395.8 133.951 395.855 134.141 395.966 134.276C396.085 134.41 396.283 134.517 396.561 134.597V134.918H392.137V134.585C392.415 134.513 392.609 134.41 392.72 134.276C392.839 134.141 392.898 133.951 392.898 133.705V122.813C392.898 122.568 392.843 122.381 392.732 122.254C392.621 122.128 392.423 122.021 392.137 121.933V121.6H397.25V121.933C396.902 122.021 396.727 122.175 396.727 122.397C396.727 122.587 396.854 122.809 397.108 123.063L404.242 130.15V122.813C404.242 122.568 404.186 122.381 404.075 122.254C403.964 122.12 403.766 122.013 403.481 121.933V121.6H407.904V121.933C407.619 122.013 407.421 122.12 407.31 122.254C407.199 122.381 407.143 122.568 407.143 122.813V133.705C407.143 133.951 407.199 134.141 407.31 134.276C407.421 134.402 407.619 134.509 407.904 134.597V134.918H403.136V134.597C403.485 134.525 403.659 134.379 403.659 134.157C403.659 134.046 403.612 133.931 403.517 133.812C403.421 133.693 403.203 133.459 402.863 133.11L395.8 126.143ZM420.353 131.588H414.23L413.54 133.039C413.374 133.388 413.29 133.661 413.29 133.859C413.29 134.24 413.544 134.482 414.051 134.585V134.918H409.153V134.585C409.454 134.537 409.676 134.446 409.818 134.311C409.969 134.177 410.143 133.911 410.342 133.515L415.205 123.669C415.387 123.297 415.478 122.972 415.478 122.694C415.478 122.369 415.256 122.116 414.812 121.933V121.6H419.985V121.933C419.549 122.108 419.331 122.377 419.331 122.742C419.331 123.004 419.43 123.325 419.628 123.705L424.67 133.253C424.947 133.776 425.165 134.117 425.324 134.276C425.482 134.426 425.724 134.533 426.049 134.597V134.918H420.615V134.597C421.13 134.509 421.388 134.268 421.388 133.871C421.388 133.626 421.289 133.32 421.091 132.956L420.353 131.588ZM419.39 129.722L417.214 125.453L415.145 129.722H419.39ZM435.68 134.502L430.829 126.166V133.705C430.829 133.951 430.884 134.141 430.995 134.276C431.106 134.402 431.304 134.509 431.59 134.597V134.918H427.167V134.585C427.444 134.513 427.638 134.41 427.749 134.276C427.868 134.141 427.928 133.951 427.928 133.705V122.813C427.928 122.568 427.872 122.381 427.761 122.254C427.65 122.12 427.452 122.013 427.167 121.933V121.6H432.791V121.933C432.418 122.052 432.232 122.278 432.232 122.611C432.232 122.936 432.367 123.333 432.636 123.8L435.954 129.401L439.295 123.883C439.675 123.257 439.866 122.813 439.866 122.552C439.866 122.227 439.671 122.021 439.283 121.933V121.6H444.764V121.933C444.479 122.013 444.281 122.12 444.17 122.254C444.059 122.381 444.003 122.568 444.003 122.813V133.705C444.003 133.951 444.059 134.141 444.17 134.276C444.281 134.41 444.479 134.517 444.764 134.597V134.918H440.056V134.585C440.333 134.513 440.527 134.41 440.638 134.276C440.757 134.141 440.817 133.951 440.817 133.705V126.166L435.68 134.502ZM451.066 129.258V132.504H459.52C459.766 132.504 459.952 132.448 460.079 132.338C460.214 132.227 460.321 132.024 460.4 131.731H460.733V135.679H460.4C460.329 135.401 460.226 135.203 460.091 135.084C459.956 134.973 459.766 134.918 459.52 134.918H447.119V134.585C447.396 134.513 447.59 134.41 447.701 134.276C447.82 134.141 447.88 133.951 447.88 133.705V122.813C447.88 122.568 447.824 122.381 447.713 122.254C447.602 122.128 447.404 122.021 447.119 121.933V121.6H459.152C459.405 121.6 459.596 121.545 459.723 121.434C459.857 121.323 459.964 121.125 460.044 120.839H460.365V124.787H460.044C459.964 124.494 459.857 124.292 459.723 124.181C459.596 124.07 459.405 124.014 459.152 124.014H451.066V126.939H456.084C456.33 126.939 456.516 126.884 456.643 126.773C456.778 126.662 456.889 126.464 456.976 126.178H457.297V130.031H456.976C456.897 129.745 456.79 129.547 456.655 129.436C456.528 129.317 456.338 129.258 456.084 129.258H451.066Z" fill="black"/>
</svg>
