<svg width="540" height="495" viewBox="0 0 540 495" fill="none" xmlns="http://www.w3.org/2000/svg">
<g clip-path="url(#clip0)">
<path d="M526.151 253.501C526.155 253.458 526.155 253.414 526.151 253.371C526.151 252.974 526.151 252.561 526.151 252.188C526.151 250.899 526.086 249.611 526.062 248.331C525.729 234.757 525.535 221.167 524.271 207.642C523.258 196.888 521.84 186.151 519.911 175.519C524.833 168.933 529.67 162.288 534.425 155.583C534.833 156.226 535.193 156.898 535.502 157.593C535.639 157.94 535.731 158.302 535.778 158.671C535.981 160.057 536.167 161.442 536.345 162.828C536.621 164.924 536.875 167.026 537.107 169.133C538.774 184.2 539.48 199.357 539.222 214.514C539.101 221.734 538.906 228.995 538.16 236.183C537.811 240.481 536.97 244.726 535.656 248.833C535.421 249.514 535.162 250.194 534.846 250.859C534.652 251.321 534.547 251.816 534.538 252.318C534.538 252.52 534.538 252.715 534.538 252.917C534.538 253.59 534.498 254.271 534.441 254.951C534.24 257.29 533.871 259.611 533.339 261.896C532.523 265.356 531.509 268.765 530.3 272.107C529.248 275.315 527.86 278.404 526.159 281.321C525.318 282.704 524.344 284.002 523.25 285.194C522.644 285.841 521.997 286.447 521.313 287.01C520.989 287.269 520.592 287.755 520.146 287.447C520.031 287.332 519.933 287.201 519.854 287.058C519.343 286.169 518.907 285.24 518.549 284.279C518.728 283.93 518.736 283.622 518.89 283.258C520.284 279.968 520.705 276.288 521.321 272.796C521.669 270.924 522.01 269.052 522.358 267.188C522.585 266.196 522.585 265.165 522.358 264.173C522.215 263.652 521.979 263.16 521.661 262.723C521.455 262.438 521.344 262.094 521.345 261.742C521.346 261.388 521.462 261.043 521.677 260.762L522.099 260.186L524.182 257.269C524.522 256.783 524.87 256.305 525.219 255.818L525.332 255.656C525.791 255.036 526.072 254.302 526.143 253.533L526.151 253.501Z" fill="#E3B37D"/>
<path d="M383.874 128.039C385.924 131.734 388.258 135.632 390.624 139.084C395.938 146.735 401.871 153.936 408.363 160.616C409.246 161.532 410.13 162.455 411.045 163.347C411.661 164.049 412.484 164.538 413.395 164.741C414.959 165 415.624 162.042 416.799 161.037C417.78 160.227 419.822 161.24 420.527 160.154C423.16 162.43 425.632 164.886 427.925 167.504C428.468 168.12 428.987 168.744 429.498 169.376C427.72 172.617 425.929 175.832 424.125 179.019C422.391 182.083 420.381 185.178 417.277 187.01C415.934 187.876 414.376 188.35 412.778 188.379C411.181 188.408 409.606 187.989 408.233 187.172C405.802 185.689 404.1 183.274 402.682 180.883C400.835 177.78 399.295 174.489 397.65 171.28C390.902 158.104 384.149 144.927 377.391 131.75C375.413 130.843 373.452 129.911 371.523 128.906C369.263 127.739 366.864 126.564 364.992 124.797C364.059 123.953 363.321 122.916 362.828 121.758C362.525 121.184 362.409 120.53 362.496 119.887C362.643 119.609 362.852 119.368 363.106 119.183C363.36 118.997 363.653 118.872 363.963 118.817C365.126 118.586 366.324 118.586 367.488 118.817C368.871 118.966 370.231 119.279 371.54 119.749C373.383 120.462 375.188 121.274 376.945 122.18L377.909 122.658C377.98 122.7 378.063 122.717 378.144 122.707C378.135 122.226 378.022 121.753 377.812 121.321C377.309 120.187 377.002 118.976 376.904 117.739C376.848 116.929 376.759 115.511 377.391 114.887C378.314 113.979 379.716 115.648 380.113 116.329C380.636 117.324 381.049 118.373 381.345 119.457C381.718 120.608 382.075 121.767 382.423 122.925C382.952 124.6 383.436 126.305 383.874 128.039Z" fill="#E3B37D"/>
<path d="M462.844 477.674V473.185C462.844 473.008 462.914 472.84 463.039 472.715C463.164 472.59 463.333 472.52 463.509 472.52H470.308C470.476 472.52 470.636 472.587 470.755 472.705C470.873 472.824 470.94 472.985 470.94 473.152V489.465C470.94 489.895 470.769 490.307 470.465 490.611C470.161 490.915 469.749 491.086 469.319 491.086H447.01C446.813 491.086 446.625 491.008 446.485 490.87C446.346 490.732 446.266 490.545 446.264 490.348C446.264 487.885 447.243 485.523 448.984 483.782C450.726 482.04 453.088 481.062 455.551 481.062H459.481C459.925 481.061 460.364 480.972 460.773 480.801C461.182 480.63 461.553 480.38 461.866 480.066C462.178 479.751 462.425 479.378 462.593 478.967C462.761 478.557 462.847 478.118 462.844 477.674Z" fill="black"/>
<path d="M502.934 477.674V473.185C502.934 473.008 502.864 472.84 502.739 472.715C502.614 472.59 502.445 472.52 502.269 472.52H495.47C495.302 472.52 495.142 472.587 495.023 472.705C494.905 472.824 494.838 472.985 494.838 473.152V489.465C494.838 489.895 495.009 490.307 495.313 490.611C495.617 490.915 496.029 491.086 496.459 491.086H518.801C518.997 491.086 519.185 491.008 519.325 490.87C519.465 490.732 519.544 490.545 519.546 490.348C519.546 487.885 518.568 485.523 516.826 483.782C515.084 482.04 512.722 481.062 510.259 481.062H506.337C505.89 481.066 505.447 480.981 505.033 480.813C504.619 480.644 504.243 480.395 503.927 480.08C503.61 479.765 503.359 479.39 503.189 478.977C503.018 478.564 502.931 478.121 502.934 477.674Z" fill="black"/>
<path d="M471.823 136.378H497.958V76.9854H471.823V136.378Z" fill="#E3B37D"/>
<path d="M470.956 86.2642C470.956 88.7682 476.572 90.9481 484.433 89.765C492.018 88.6304 497.95 82.8039 497.95 80.2917C497.95 77.7796 492.391 80.6726 484.433 80.6726C476.475 80.6726 470.956 83.752 470.956 86.2642Z" fill="#C69C6D"/>
<path d="M414.992 159.716L440 118.387C441.335 116.128 442.474 113.759 443.404 111.305C445.024 107.115 449.611 100.049 465.081 97.4473C467.139 97.107 469.246 96.5883 471.451 96.1831C471.572 96.1831 471.815 95.9886 471.815 96.1102C471.718 102.472 478.128 108.266 482.942 108.266C488.687 108.266 496.442 104.538 497.95 96.4587C497.95 96.3695 498.144 96.4587 498.233 96.5154L498.566 96.5721C504.238 97.5689 507.658 98.282 512.391 100.851C518.128 103.963 520.616 103.736 524.182 108.314C524.238 108.379 526.831 116.013 529.627 126.005C534.749 144.271 539.352 172.277 539.352 172.277L519.903 175.519L515.267 147.391L516.207 173.72L514.83 237.285H451.378L448.509 148.088L432.423 172.285L414.992 159.716Z" fill="#4BFFAD"/>
<path d="M515.065 231.199L515.211 236.337C515.754 254.935 518.825 275.981 517.472 294.53L504.344 473.533H493.517L486.442 269.546C486.374 268.744 485.999 267.999 485.395 267.466C484.792 266.933 484.006 266.653 483.201 266.686C482.396 266.653 481.61 266.933 481.006 267.466C480.403 267.999 480.028 268.744 479.959 269.546L472.666 473.533H461.985L448.849 294.376C447.496 275.932 450.251 255.989 451.013 237.512L451.232 232.204L515.065 231.199Z" fill="#004643"/>
<path d="M516.207 56.9206C516.097 59.3913 515.02 61.7197 513.209 63.4035C512.59 64.0826 511.868 64.6597 511.07 65.1134C510.305 65.4638 509.479 65.6594 508.639 65.6888C508.19 65.726 507.738 65.7097 507.293 65.6402C507.293 65.8185 507.237 65.9967 507.204 66.1669C506.548 69.3483 505.161 72.3335 503.152 74.8865C500.713 78.0232 497.618 80.5896 494.084 82.4068C490.17 84.386 485.992 85.7942 481.677 86.5883C478.833 87.1637 475.948 87.6094 473.055 87.9173C471.645 87.8939 470.275 87.4448 469.125 86.6288C466.933 85.2561 465.177 83.2888 464.06 80.9562C460.195 73.1456 458.4 64.473 458.849 55.7698C458.932 54.1418 459.097 52.519 459.344 50.9076C459.408 50.4376 459.473 49.9433 459.57 49.457C459.787 49.7453 460.025 50.0162 460.284 50.2674L460.713 50.6726C460.713 50.3809 460.64 50.0972 460.6 49.8055C460.09 46.4137 459.895 42.982 460.016 39.5543C460.132 37.097 460.54 34.6623 461.232 32.3014C461.572 31.1264 461.977 29.9757 462.399 28.8249C462.755 27.8849 463.16 26.9611 463.468 26.0048C463.517 25.8347 463.566 25.6726 463.622 25.5105L463.793 24.9676L464.311 25.2107C467.925 26.8314 471.686 28.5737 475.616 29.1977C478.311 29.6282 481.04 29.8045 483.768 29.7245C486.151 29.691 488.521 29.3533 490.818 28.7196C492.372 28.1732 493.829 27.3856 495.138 26.3857C495.292 26.2804 495.559 26.1102 495.705 25.9886C495.829 26.0866 495.936 26.2043 496.021 26.3371C496.58 27.3744 496.329 27.7228 497.034 28.3792C498.841 30.1069 500.338 32.1327 501.459 34.3679C503.687 38.6467 503.557 41.6612 503.622 46.3938C503.622 47.6337 503.947 51.9935 503.898 53.2334C504.182 52.9903 504.935 51.5316 505.276 51.3533C506.299 50.8429 507.443 50.6242 508.582 50.7212C508.922 50.7212 509.263 50.7779 509.603 50.8266C510.149 50.9249 510.68 51.0938 511.183 51.329C511.637 51.564 512.083 51.8071 512.528 52.0664C513.16 52.4311 513.59 53.6224 514.149 54.0681C514.384 53.2577 514.635 52.0907 514.846 51.0535C515.308 52.5932 515.721 54.222 516.07 55.9157C516.137 56.2474 516.183 56.583 516.207 56.9206Z" fill="#E3B37D"/>
<path d="M460.494 51.1345C459.767 50.4074 459.174 49.5568 458.744 48.6224C457.951 46.6063 457.622 44.4377 457.78 42.2771C457.877 39.4732 458.436 36.6045 458.468 33.7682C458.497 32.5059 458.61 31.2469 458.809 30C458.907 28.3775 458.85 26.7494 458.639 25.1378H458.063C456.031 25.1739 454.036 25.6845 452.237 26.6288C452.237 24.1977 453.574 21.9692 455.032 20.0729C457.978 16.277 461.609 13.0666 465.737 10.6078C467.638 9.40705 469.683 8.45135 471.823 7.76336C472.036 7.69698 472.253 7.64286 472.472 7.60128C472.739 7.53898 473.009 7.49298 473.282 7.46352C473.453 7.24698 473.637 7.04128 473.833 6.84764C475.609 5.32868 477.788 4.35752 480.105 4.05185C481.634 3.7938 483.176 3.62872 484.724 3.55752C486.626 3.44407 488.536 3.39005 490.454 3.39545C492.488 3.39545 494.506 3.44407 496.564 3.63856C498.316 3.75112 500.031 4.19091 501.621 4.93516C502.794 5.53422 503.855 6.33208 504.757 7.29334C504.895 7.43921 505.032 7.59318 505.162 7.75525C505.244 7.84591 505.351 7.91067 505.47 7.94164C505.715 8.00129 505.956 8.07709 506.191 8.16854C506.937 8.4698 507.653 8.83871 508.331 9.27065C509.655 10.1728 510.79 11.3264 511.669 12.6661C512.718 14.0361 513.313 15.6989 513.371 17.423C513.436 19.0437 514.019 20.5997 513.639 22.1799C513.617 22.8293 513.644 23.4794 513.72 24.1248C514.133 25.3566 513.574 25.1864 513.987 26.41C514.797 28.8412 515.47 32.6013 516.013 35.0729C516.557 37.5896 516.734 40.1716 516.54 42.739C516.33 45.3546 515.949 47.9534 515.397 50.5186C515.162 51.6694 514.781 53.6953 514.433 54.8622C513.849 54.4165 513.42 53.2415 512.812 52.8606C512.374 52.6094 511.921 52.3663 511.475 52.1313C510.961 51.8884 510.415 51.7193 509.854 51.6288C509.522 51.5802 509.181 51.5397 508.841 51.5235C507.702 51.4265 506.558 51.6452 505.535 52.1556C505.194 52.3339 504.109 54.2382 503.833 54.4895C503.833 53.2496 502.804 48.7682 502.78 47.5284C502.723 42.7634 503.136 39.4246 500.899 35.1702C499.749 32.9578 499.125 30.859 497.293 29.1815C496.58 28.5251 496.84 28.1767 496.272 27.1394C496.192 27.0051 496.088 26.8869 495.964 26.7909C495.81 26.9125 495.551 27.0826 495.397 27.188C494.086 28.2011 492.627 29.0048 491.07 29.5705C488.77 30.2055 486.397 30.5405 484.011 30.5672C481.284 30.6497 478.554 30.4761 475.859 30.0486C471.937 29.4246 468.177 27.6985 464.554 26.0616L464.044 25.8185L463.865 26.3533C463.817 26.5235 463.768 26.6856 463.711 26.8476C463.412 27.812 462.998 28.7358 462.65 29.6758C462.22 30.8185 461.84 31.9773 461.475 33.1523C460.788 35.5281 460.38 37.9756 460.259 40.4457C460.146 43.8734 460.341 47.3043 460.843 50.6969L460.964 51.564L460.494 51.1345Z" fill="#FFBE3E"/>
<path d="M488.274 49.5867C489.648 49.5867 490.762 48.745 490.762 47.7066C490.762 46.6683 489.648 45.8266 488.274 45.8266C486.9 45.8266 485.786 46.6683 485.786 47.7066C485.786 48.745 486.9 49.5867 488.274 49.5867Z" fill="#000738"/>
<path d="M468.817 48.9951C470.191 48.9951 471.305 48.1534 471.305 47.115C471.305 46.0767 470.191 45.235 468.817 45.235C467.443 45.235 466.329 46.0767 466.329 47.115C466.329 48.1534 467.443 48.9951 468.817 48.9951Z" fill="#000738"/>
<path d="M483.436 44.2058L495.746 44.7488C496.143 44.7488 496.426 44.5138 496.28 44.2787L496.037 43.9141C495.792 43.6088 495.481 43.3634 495.127 43.1963C494.774 43.0292 494.386 42.9449 493.995 42.9497L485.413 42.6094C485.019 42.5707 484.621 42.6173 484.246 42.7459C483.872 42.8745 483.529 43.0822 483.241 43.3549L482.95 43.6953C482.788 43.9141 483.039 44.1896 483.436 44.2058Z" fill="#000738"/>
<path d="M464.344 43.3063L468.395 43.1199C470.02 43.0484 471.648 43.1271 473.258 43.3549L476.661 43.8411C477.058 43.8411 477.342 43.6142 477.196 43.3792L476.953 43.0146C476.468 42.4882 475.796 42.1738 475.081 42.1394C474.739 42.0892 474.402 42.0051 474.076 41.8881C472.228 41.2771 470.261 41.1186 468.339 41.4262L467.682 41.5316L467.139 41.6045L465.908 41.7504C465.252 41.7653 464.628 42.0323 464.165 42.4959L463.874 42.8363C463.687 43.0146 463.93 43.2901 464.344 43.3063Z" fill="#000738"/>
<path d="M472.771 71.3857L466.775 70.5024C466.704 70.4887 466.631 70.4973 466.565 70.527C466.499 70.5567 466.444 70.6061 466.408 70.6684C466.371 70.7307 466.355 70.8027 466.361 70.8746C466.367 70.9464 466.396 71.0146 466.442 71.0697C467.464 72.3176 471.305 73.2496 475.778 73.2496C480.948 73.2496 485.413 71.248 485.551 69.7164L477.78 71.3371C477.513 71.3934 477.242 71.4259 476.969 71.4343C475.574 71.5986 474.163 71.5823 472.771 71.3857Z" fill="#C69C6D"/>
<path d="M508.622 58.1766C508.653 59.613 508.541 61.0489 508.29 62.4635C508.275 62.5542 508.282 62.6472 508.311 62.7344C508.34 62.8216 508.39 62.9005 508.456 62.9643C508.522 63.0281 508.603 63.0749 508.691 63.1006C508.779 63.1262 508.873 63.1301 508.963 63.1118C510.114 62.8471 511.136 62.1844 511.847 61.2403C512.557 60.2963 512.912 59.1316 512.848 57.9516C512.784 56.7716 512.306 55.6521 511.497 54.7904C510.688 53.9287 509.601 53.3801 508.428 53.2415C508.336 53.232 508.243 53.2455 508.158 53.2806C508.072 53.3158 507.997 53.3716 507.938 53.4431C507.88 53.5145 507.84 53.5994 507.822 53.6901C507.804 53.7807 507.809 53.8744 507.836 53.9627C508.278 55.3277 508.543 56.744 508.622 58.1766Z" fill="#C69C6D"/>
<path d="M64.8298 42.5202C65.0295 41.2027 65.3192 39.9003 65.6969 38.6223C65.7702 38.3583 65.7626 38.0783 65.6751 37.8186C65.5876 37.5589 65.4241 37.3314 65.206 37.1656C64.9878 36.9998 64.7249 36.9032 64.4512 36.8884C64.1775 36.8736 63.9058 36.9413 63.671 37.0826C62.8347 37.6152 62.1283 38.3285 61.6039 39.1699C61.0794 40.0113 60.7501 40.9595 60.6402 41.9449C60.4653 42.9955 60.5521 44.0731 60.8927 45.0823C61.2333 46.0914 61.8174 47.0011 62.5932 47.7309C62.7751 47.8882 62.9989 47.9892 63.2372 48.0215C63.4755 48.0539 63.7181 48.0163 63.9354 47.9132C64.1527 47.8101 64.3353 47.6461 64.461 47.4411C64.5867 47.2361 64.6501 46.9989 64.6434 46.7585C64.5819 45.343 64.6443 43.9249 64.8298 42.5202Z" fill="#C69C6D"/>
<path d="M336.126 30.7941C325.964 35.7374 321.994 44.6191 314.068 52.1394C315.257 48.8492 316.545 45.5942 317.934 42.3744C318.088 42.0097 318.242 41.645 318.404 41.2885C323.246 30.2227 329.149 19.652 336.029 9.72445C337.147 8.1037 332.593 5.34844 331.248 6.36951C322.535 12.9392 314.838 20.7568 308.404 29.5705C308.054 21.2809 308.782 12.9809 310.567 4.87842C310.981 3.01456 305.705 0.316022 305.243 2.56886C303.007 12.7796 298.185 22.3825 293.606 31.7828C290.113 38.8979 285.762 45.6564 281.742 52.4878L281.588 52.7471C280.478 52.115 279.271 51.3614 278.112 50.5429C280.246 48.6391 282.048 46.3934 283.444 43.8979C283.872 43.108 284.259 42.2965 284.603 41.4667C285.016 40.4862 286.126 38.3144 286.078 37.4878C285.997 36.0129 284.376 35.1053 283.112 34.6434C282.5 34.4162 281.859 34.2771 281.207 34.2301C280.691 34.1805 280.169 34.2384 279.676 34.4003C279.516 34.4539 279.365 34.5333 279.23 34.6353C279.039 34.8009 278.918 35.0324 278.89 35.2836C278.744 36.0355 278.541 36.7751 278.282 37.4959C277.926 38.3148 277.509 39.1058 277.034 39.8622C276.107 41.3886 275.021 42.8121 273.793 44.1086C273.412 44.5137 272.982 44.9189 272.609 45.2755C270.397 42.4442 268.526 39.3625 267.034 36.094C272.05 33.5413 276.759 30.3079 279.19 25.0648C282.382 18.2577 279.635 10.6078 273.42 6.59641C267.545 2.79576 259.465 4.63531 256.645 11.2804C253.89 17.7633 256.985 25.4781 259.749 31.6774C256.718 33.1199 251.216 35.1377 248.209 37.2771C248.945 36.3961 249.792 35.6143 250.729 34.9514C251.848 34.141 251.613 32.7147 250.729 31.8557C250.218 31.3538 249.579 31.0027 248.881 30.8411C248.183 30.6795 247.454 30.7137 246.775 30.94C239.719 33.2685 233.011 36.5395 226.831 40.6645C225.567 41.4749 226.062 43.1928 227.05 44.0194C227.646 44.5108 228.38 44.8058 229.15 44.8638C229.921 44.9219 230.69 44.7401 231.353 44.3436C233.927 42.639 236.6 41.0911 239.36 39.7082L239.83 39.4732C236.507 42.9659 233.169 47.115 229.878 50.6645C226.904 53.8817 219.611 60.7779 215.559 55.4619C211.507 50.1458 214.976 41.6369 217.334 36.1831C219.891 30.3017 223.398 24.8808 227.715 20.1377C230.544 17.0082 233.71 14.2008 237.156 11.7666C234.89 16.9902 234.284 22.7839 235.421 28.363C235.705 29.7163 236.329 31.3938 238.428 31.1993C239.887 31.0616 240.454 29.7163 240.186 28.436C238.614 20.9724 242.139 12.5121 247.561 7.12315C249.368 5.31602 245.94 0.405163 243.906 1.83952C243.639 2.03401 241.742 3.16853 241.629 3.22526C228.278 9.76545 217.647 20.784 211.588 34.3598C208.598 41.1507 205.316 50.2674 209.765 57.1069C210.829 58.7211 212.299 60.0274 214.027 60.8949C215.755 61.7625 217.681 62.1609 219.611 62.0502C223.663 61.8476 227.48 59.8703 230.616 57.3906C232.569 55.8428 234.449 53.4197 236.086 51.5478C236.07 51.7522 236.041 51.9553 235.997 52.1556C234.631 58.1928 233.734 64.3268 233.314 70.5024C233.12 73.4116 239.165 74.2301 239.392 70.9076C239.828 64.5018 240.82 58.1462 242.358 51.9124C242.512 51.2966 242.666 50.6807 242.828 50.0729C242.661 50.7229 242.642 51.4023 242.774 52.0604C242.906 52.7185 243.185 53.3383 243.59 53.8736C245.699 56.579 248.556 58.6051 251.807 59.7001C259.652 62.2528 268.695 57.5364 275 53.0065C276.28 54.0194 277.909 55.2269 279.441 56.2966C278.363 58.0794 274.19 64.4003 272.634 66.6936C272.018 67.577 269.392 70.6077 269.538 71.6369C269.765 73.0875 275.535 73.3873 276.831 72.9092C277.127 72.6838 277.399 72.4286 277.642 72.1475C277.982 71.7099 278.282 71.2398 278.598 70.786C279.23 69.8784 279.854 68.9708 280.47 68.0551C281.856 65.9967 281.896 65.7374 283.209 63.6385C284.133 62.1637 285.032 60.6726 285.932 59.1815C289.374 59.4432 292.835 59.2881 296.24 58.7196C299.222 58.282 303.46 56.5964 307.075 54.8946C306.264 57.7228 305.3 61.1021 304.797 62.7552C304.53 63.6385 306.078 64.7974 306.669 65.1864C307.48 65.6564 308.914 66.4262 309.7 65.7536C320.705 56.3371 327.391 40.8671 340.608 34.4489C342.504 33.5251 337.966 29.9189 336.126 30.7941ZM265.575 12.0907C266.404 11.4243 267.359 10.931 268.382 10.6401C269.405 10.3492 270.476 10.2665 271.532 10.3971C271.888 10.4678 272.226 10.6135 272.522 10.8244C272.818 11.0354 273.066 11.3068 273.25 11.6207C273.417 11.9134 273.566 12.2166 273.695 12.5283C274.242 13.9495 274.407 15.4889 274.173 16.9935C273.363 22.739 268.979 26.6126 264.165 29.4246C261.969 23.671 260.13 16.3371 265.575 12.0907ZM242.885 49.9432C243.599 46.8242 244.614 43.7818 245.916 40.859C244.608 43.7812 243.588 46.8236 242.869 49.9432H242.885ZM264.473 50.8995C261.07 52.6661 257.293 54.4732 253.404 54.6839C250.81 54.8217 248.339 54.3922 247.731 52.1313C246.856 48.8898 249.514 45.9076 251.783 44.0275C254.757 41.5964 258.428 40.0729 261.896 38.517L262.877 38.0713C264.738 41.5465 266.975 44.8074 269.546 47.7958C267.926 48.9501 266.225 49.9873 264.457 50.8995H264.473ZM291.734 54.0113C290.778 54.2139 289.652 54.4975 288.63 54.6272C288.995 54.0113 289.36 53.3954 289.716 52.7715C290.311 51.7342 290.9 50.6915 291.483 49.6434C295.665 42.1313 299.587 34.4651 303.031 26.5964C303.148 29.8991 303.435 33.1935 303.89 36.4667C304.025 37.0442 304.298 37.5806 304.684 38.0305C305.071 38.4805 305.56 38.8308 306.11 39.0518C306.815 39.4084 308.541 40.1053 309.092 39.1653C312.298 34.008 315.93 29.1287 319.951 24.5786C317.65 28.8573 315.524 33.2172 313.574 37.658C312.844 39.2787 312.156 40.9481 311.483 42.6094C305.786 47.2366 298.217 52.6175 291.734 54.0113Z" fill="black"/>
<path d="M154.903 90.1539C156.418 90.6888 157.334 91.094 158.865 90.8103L161.686 90.2917C163.766 89.9135 165.851 89.5435 167.942 89.1815C171.723 88.544 175.505 87.9389 179.287 87.3663C187.039 86.1993 194.814 85.1864 202.609 84.3274C218.201 82.6094 233.841 81.51 249.53 81.0291C280.684 80.0596 311.866 81.5444 342.788 85.47C360.243 87.7012 377.574 90.7023 394.781 94.4732C396.134 94.7731 396.88 93.8898 396.345 92.6094C395.987 91.8492 395.469 91.1758 394.825 90.6357C394.181 90.0956 393.428 89.7017 392.617 89.4813C331.092 75.9905 267.822 72.3011 205.146 78.5494C196.394 79.4138 187.663 80.4808 178.955 81.7504C174.6 82.3825 170.254 83.0632 165.916 83.7925C163.755 84.1545 161.594 84.5273 159.433 84.9108L156.045 85.5267L154.919 85.7374C153.99 85.8572 153.13 86.2953 152.488 86.9773C151.037 88.201 154.109 89.8946 154.862 90.1539" fill="black"/>
<path d="M216.25 94.0067C216.431 93.9919 216.577 94.0319 216.689 94.1269C216.807 94.2148 216.873 94.346 216.887 94.5204L217.042 96.4104C217.063 96.6688 217.057 96.871 217.023 97.0168C216.996 97.1622 216.934 97.2811 216.838 97.3735C216.741 97.466 216.592 97.5498 216.39 97.6248C216.144 97.723 215.858 97.8082 215.533 97.8804C215.213 97.9521 214.908 97.9998 214.617 98.0236C213.894 98.0829 213.256 97.9952 212.703 97.7608C212.15 97.5199 211.71 97.1493 211.383 96.6492C211.055 96.1427 210.862 95.5276 210.802 94.8039C210.744 94.0931 210.833 93.4647 211.068 92.9186C211.308 92.3655 211.679 91.9254 212.179 91.5982C212.679 91.2711 213.278 91.0789 213.976 91.0218C214.874 90.9483 215.636 91.1201 216.262 91.5372C216.366 91.6068 216.44 91.6787 216.485 91.7531C216.53 91.8275 216.557 91.9228 216.567 92.0391C216.581 92.2071 216.544 92.3564 216.457 92.4871C216.376 92.6109 216.271 92.678 216.142 92.6886C216.058 92.6955 215.979 92.6889 215.906 92.6689C215.839 92.6483 215.755 92.6129 215.653 92.5627C215.368 92.4169 215.11 92.3177 214.878 92.2652C214.646 92.2126 214.394 92.1974 214.123 92.2197C212.805 92.3276 212.208 93.1472 212.334 94.6785C212.398 95.4668 212.618 96.0408 212.992 96.4004C213.366 96.7601 213.899 96.9116 214.59 96.855C214.965 96.8243 215.332 96.7455 215.693 96.6184L215.57 95.1161L214.678 95.1891C214.491 95.2045 214.342 95.1711 214.231 95.0891C214.12 95.0071 214.058 94.8821 214.044 94.7141C214.03 94.5461 214.071 94.4127 214.167 94.3138C214.263 94.2148 214.405 94.1577 214.592 94.1424L216.25 94.0067Z" fill="black"/>
<path d="M223.966 96.246C224.074 96.3818 224.132 96.5178 224.141 96.6539C224.154 96.8354 224.09 96.9898 223.949 97.1169C223.815 97.2436 223.65 97.3137 223.456 97.3273C223.333 97.336 223.211 97.3152 223.09 97.265C222.969 97.2148 222.865 97.1309 222.779 97.0131L221.362 95.197C221.24 95.0362 221.115 94.9244 220.987 94.8617C220.858 94.7925 220.7 94.7645 220.512 94.7777L219.724 94.8328L219.862 96.7972C219.878 97.0305 219.823 97.2201 219.696 97.3657C219.576 97.511 219.402 97.5915 219.176 97.6074C218.942 97.6237 218.753 97.5686 218.607 97.442C218.461 97.3154 218.38 97.1354 218.364 96.902L217.983 91.4563C217.967 91.2294 218.016 91.05 218.131 90.9182C218.245 90.7864 218.416 90.7126 218.643 90.6967L221.084 90.5258C221.888 90.4696 222.506 90.6054 222.94 90.9334C223.379 91.2544 223.622 91.7488 223.669 92.4166C223.706 92.9417 223.591 93.3895 223.323 93.76C223.056 94.1305 222.66 94.3895 222.137 94.5369C222.334 94.5622 222.511 94.628 222.668 94.7342C222.832 94.8335 222.992 94.9852 223.15 95.1891L223.966 96.246ZM221.073 93.5853C221.508 93.5549 221.817 93.4583 222.001 93.2956C222.184 93.1264 222.265 92.8797 222.242 92.5555C222.219 92.2249 222.105 91.9918 221.9 91.8563C221.695 91.7209 221.376 91.6683 220.941 91.6987L219.492 91.8001L219.624 93.6867L221.073 93.5853Z" fill="black"/>
<path d="M229.394 95.7061C229.64 95.6912 229.824 95.7287 229.946 95.8187C230.068 95.9087 230.136 96.054 230.148 96.2546C230.16 96.4617 230.111 96.6173 230.001 96.7214C229.89 96.8256 229.712 96.8851 229.466 96.9L225.457 97.1431C225.257 97.1552 225.091 97.1068 224.961 96.9978C224.837 96.8819 224.77 96.7334 224.759 96.5522C224.748 96.3645 224.801 96.1794 224.92 95.9968L227.881 91.3261L225.183 91.4897C224.937 91.5046 224.753 91.4671 224.63 91.377C224.508 91.287 224.441 91.1417 224.428 90.9411C224.416 90.7341 224.465 90.5785 224.576 90.4743C224.686 90.3702 224.864 90.3107 225.11 90.2958L228.974 90.0615C229.174 90.0493 229.336 90.1012 229.46 90.2171C229.59 90.3261 229.661 90.4712 229.672 90.6524C229.684 90.8466 229.633 91.0315 229.52 91.2072L226.55 95.8785L229.394 95.7061Z" fill="black"/>
<path d="M231.751 96.7759C231.525 96.7876 231.347 96.7351 231.217 96.6184C231.088 96.5017 231.018 96.33 231.006 96.1034L230.727 90.6746C230.716 90.448 230.768 90.27 230.885 90.1407C231.001 90.0113 231.173 89.9408 231.4 89.9292L234.838 89.7526C235.317 89.728 235.566 89.91 235.586 90.2984C235.607 90.6934 235.377 90.9032 234.898 90.9278L232.227 91.0649L232.31 92.6673L234.786 92.5402C235.265 92.5156 235.515 92.7007 235.535 93.0957C235.555 93.4841 235.326 93.6907 234.846 93.7153L232.37 93.8425L232.458 95.5614L235.129 95.4243C235.608 95.3997 235.858 95.5848 235.878 95.9798C235.898 96.3682 235.668 96.5748 235.189 96.5994L231.751 96.7759Z" fill="black"/>
<path d="M241.926 92.5178C242.107 92.5105 242.252 92.5567 242.36 92.6562C242.474 92.7491 242.535 92.883 242.542 93.0581L242.617 94.9543C242.628 95.2137 242.613 95.4155 242.573 95.56C242.54 95.7042 242.474 95.8205 242.373 95.9089C242.273 95.9973 242.12 96.0749 241.915 96.1415C241.665 96.2294 241.376 96.3027 241.047 96.3613C240.725 96.4196 240.418 96.4546 240.126 96.4663C239.4 96.4953 238.765 96.3811 238.223 96.1236C237.68 95.8596 237.255 95.4708 236.949 94.9571C236.642 94.4369 236.475 93.8137 236.445 93.0876C236.417 92.3745 236.532 91.7498 236.789 91.2135C237.053 90.6705 237.442 90.2459 237.956 89.9396C238.47 89.6334 239.077 89.4662 239.777 89.4382C240.678 89.4022 241.433 89.6057 242.041 90.0489C242.142 90.1228 242.213 90.1979 242.255 90.2741C242.297 90.3504 242.32 90.4468 242.325 90.5635C242.332 90.7321 242.289 90.8799 242.197 91.007C242.11 91.1273 242.003 91.1901 241.873 91.1952C241.789 91.1986 241.71 91.1888 241.638 91.1657C241.572 91.1423 241.489 91.1034 241.39 91.049C241.111 90.8913 240.856 90.7814 240.627 90.7191C240.397 90.6569 240.146 90.6312 239.874 90.6421C238.551 90.695 237.921 91.4897 237.982 93.0262C238.014 93.8171 238.209 94.4002 238.568 94.7754C238.927 95.1506 239.454 95.3244 240.147 95.2966C240.523 95.2816 240.894 95.2181 241.26 95.106L241.2 93.5987L240.305 93.6345C240.117 93.6421 239.969 93.6025 239.862 93.5159C239.755 93.4293 239.697 93.3017 239.691 93.1331C239.684 92.9646 239.731 92.8328 239.831 92.7379C239.931 92.643 240.075 92.5918 240.263 92.5843L241.926 92.5178Z" fill="black"/>
<path d="M247.09 96.2344C246.409 96.2538 245.812 96.1281 245.299 95.8574C244.791 95.5799 244.394 95.1827 244.107 94.6655C243.82 94.1418 243.666 93.5236 243.646 92.8108C243.626 92.0979 243.744 91.4752 244.001 90.9425C244.258 90.4034 244.632 89.9842 245.123 89.6848C245.62 89.3853 246.209 89.2259 246.89 89.2065C247.57 89.1871 248.164 89.3129 248.671 89.5839C249.185 89.8546 249.585 90.2518 249.872 90.7755C250.16 91.2926 250.313 91.9076 250.334 92.6205C250.354 93.3333 250.235 93.9593 249.978 94.4984C249.721 95.0311 249.344 95.4504 248.847 95.7564C248.356 96.0557 247.77 96.2151 247.09 96.2344ZM247.056 95.0583C247.627 95.042 248.068 94.8284 248.381 94.4174C248.7 94.0062 248.848 93.4215 248.827 92.6633C248.805 91.9051 248.627 91.333 248.292 90.9469C247.956 90.5543 247.5 90.3663 246.923 90.3827C246.347 90.3991 245.902 90.6128 245.589 91.0238C245.283 91.4281 245.141 92.0094 245.162 92.7676C245.184 93.5258 245.362 94.1012 245.698 94.4938C246.033 94.8863 246.486 95.0745 247.056 95.0583Z" fill="black"/>
<path d="M257.148 94.9723C257.248 95.1134 257.299 95.2519 257.301 95.3881C257.304 95.5696 257.232 95.7199 257.085 95.839C256.944 95.958 256.776 96.019 256.582 96.0222C256.459 96.0242 256.338 95.997 256.221 95.9405C256.103 95.8841 256.004 95.7949 255.925 95.673L254.61 93.7881C254.497 93.6213 254.379 93.5033 254.254 93.434C254.13 93.3582 253.974 93.3219 253.786 93.3249L252.998 93.3377L253.03 95.3018C253.034 95.5351 252.969 95.721 252.835 95.8593C252.707 95.9976 252.53 96.0685 252.303 96.0722C252.07 96.076 251.884 96.0109 251.746 95.877C251.608 95.7431 251.536 95.5594 251.533 95.3261L251.444 89.8811C251.441 89.6542 251.499 89.4782 251.621 89.3531C251.742 89.2279 251.916 89.1635 252.143 89.1598L254.583 89.1202C255.387 89.1071 255.996 89.2755 256.41 89.6254C256.831 89.9687 257.046 90.4742 257.057 91.1419C257.066 91.6669 256.927 92.1068 256.641 92.4616C256.355 92.8164 255.947 93.0532 255.417 93.172C255.612 93.2077 255.785 93.2827 255.936 93.397C256.094 93.5047 256.245 93.6643 256.391 93.8759L257.148 94.9723ZM254.409 92.1672C254.843 92.1601 255.156 92.0805 255.348 91.9282C255.54 91.7695 255.634 91.5281 255.628 91.204C255.623 90.8734 255.522 90.6351 255.325 90.4892C255.128 90.3433 254.813 90.2738 254.378 90.2809L252.929 90.3044L252.96 92.1907L254.409 92.1672Z" fill="black"/>
<path d="M262.638 94.7087C262.885 94.7073 263.066 94.755 263.184 94.8516C263.301 94.9482 263.36 95.097 263.361 95.298C263.362 95.5054 263.305 95.6581 263.189 95.7559C263.072 95.8538 262.891 95.9034 262.645 95.9048L258.629 95.9265C258.428 95.9276 258.265 95.8701 258.141 95.7541C258.024 95.6315 257.965 95.4795 257.964 95.298C257.963 95.11 258.027 94.9281 258.156 94.7524L261.369 90.2519L258.666 90.2666C258.42 90.2679 258.238 90.2203 258.121 90.1236C258.004 90.027 257.944 89.8782 257.943 89.6773C257.942 89.4698 258 89.3172 258.116 89.2193C258.232 89.1214 258.413 89.0718 258.66 89.0705L262.53 89.0495C262.731 89.0484 262.89 89.1092 263.007 89.2317C263.131 89.3477 263.194 89.4965 263.195 89.678C263.196 89.8725 263.135 90.0544 263.013 90.2236L259.789 94.7241L262.638 94.7087Z" fill="black"/>
<path d="M272.752 95.033C272.887 95.164 272.953 95.3073 272.952 95.4629C272.95 95.6185 272.887 95.754 272.763 95.8694C272.638 95.9848 272.495 96.0417 272.333 96.0401C272.171 96.0384 272.029 95.9786 271.907 95.8606L271.156 95.1527C270.842 95.4282 270.496 95.6419 270.118 95.7936C269.741 95.9388 269.354 96.0094 268.959 96.0053C268.492 96.0005 268.075 95.9152 267.707 95.7493C267.339 95.5834 267.053 95.3568 266.848 95.0694C266.651 94.7756 266.553 94.4407 266.557 94.0648C266.562 93.6499 266.676 93.288 266.899 92.9791C267.123 92.6637 267.473 92.3755 267.949 92.1146C267.718 91.8659 267.549 91.6243 267.441 91.3898C267.333 91.1552 267.28 90.9148 267.283 90.6685C267.286 90.3379 267.373 90.047 267.545 89.7959C267.716 89.5384 267.951 89.343 268.251 89.21C268.557 89.0705 268.905 89.0028 269.294 89.0068C269.845 89.0124 270.281 89.1596 270.602 89.4481C270.923 89.7302 271.081 90.1079 271.076 90.5811C271.073 90.9312 270.972 91.2446 270.775 91.5213C270.578 91.7981 270.274 92.0543 269.863 92.2899L271.038 93.4107C271.216 93.0495 271.331 92.6584 271.38 92.2375C271.402 92.0497 271.471 91.9078 271.589 91.8117C271.713 91.7093 271.853 91.6589 272.009 91.6605C272.184 91.6623 272.329 91.7221 272.444 91.84C272.56 91.9579 272.604 92.1172 272.576 92.3179C272.504 93.0109 272.283 93.6537 271.914 94.2463L272.752 95.033ZM269.303 89.9794C269.096 89.9772 268.926 90.0403 268.795 90.1686C268.664 90.2905 268.598 90.4583 268.596 90.6723C268.594 90.8084 268.629 90.9417 268.699 91.0721C268.775 91.2025 268.906 91.3627 269.092 91.5526C269.386 91.4001 269.595 91.2499 269.719 91.102C269.844 90.9542 269.907 90.7928 269.909 90.6177C269.911 90.4297 269.854 90.2768 269.739 90.1589C269.63 90.0411 269.484 89.9812 269.303 89.9794ZM269.038 94.8878C269.499 94.8925 269.932 94.7219 270.337 94.376L268.729 92.852C268.24 93.1452 267.993 93.522 267.988 93.9822C267.985 94.261 268.077 94.4824 268.263 94.6464C268.456 94.804 268.714 94.8844 269.038 94.8878Z" fill="black"/>
<path d="M282.593 89.3026C282.807 89.3086 282.977 89.3847 283.102 89.531C283.234 89.6709 283.297 89.8511 283.291 90.0714L283.135 95.5927C283.129 95.8065 283.063 95.9733 282.936 96.0929C282.809 96.2126 282.646 96.2696 282.445 96.2639C282.25 96.2584 282.093 96.1923 281.974 96.0657C281.854 95.9391 281.797 95.7689 281.803 95.555L281.9 92.1237L280.447 94.68C280.351 94.8459 280.247 94.9662 280.135 95.0409C280.029 95.1157 279.902 95.151 279.752 95.1468C279.61 95.1428 279.485 95.1003 279.377 95.0194C279.269 94.9385 279.172 94.8126 279.086 94.6415L277.778 92.0557L277.682 95.4385C277.676 95.6458 277.61 95.8126 277.483 95.9387C277.356 96.0583 277.192 96.1153 276.992 96.1096C276.797 96.1041 276.64 96.0381 276.521 95.9115C276.401 95.7849 276.344 95.6146 276.35 95.4008L276.506 89.8795C276.512 89.6592 276.582 89.4828 276.716 89.3504C276.856 89.2116 277.033 89.1453 277.247 89.1514C277.558 89.1602 277.79 89.3321 277.942 89.6672L279.81 93.4654L281.879 89.7785C282.063 89.453 282.301 89.2943 282.593 89.3026Z" fill="black"/>
<path d="M290.908 95.6326C290.955 95.7513 290.976 95.8561 290.972 95.9468C290.964 96.1281 290.883 96.2804 290.729 96.4036C290.581 96.5207 290.413 96.5752 290.226 96.5672C290.103 96.562 289.987 96.5246 289.88 96.4552C289.773 96.3793 289.693 96.2721 289.641 96.1336L289.174 94.9653L285.881 94.8255L285.317 95.9501C285.253 96.0837 285.164 96.1837 285.051 96.2503C284.945 96.3107 284.827 96.3381 284.697 96.3326C284.509 96.3246 284.344 96.256 284.2 96.1266C284.056 95.9907 283.989 95.8321 283.996 95.6507C284 95.56 284.03 95.4575 284.087 95.3431L286.944 89.9456C287.022 89.7932 287.134 89.6811 287.28 89.6095C287.426 89.5313 287.58 89.4957 287.742 89.5025C287.91 89.5097 288.064 89.5584 288.203 89.6486C288.342 89.7389 288.447 89.8601 288.518 90.0124L290.908 95.6326ZM288.708 93.797L287.688 91.223L286.444 93.7009L288.708 93.797Z" fill="black"/>
<path d="M293.211 96.7108C292.984 96.6995 292.803 96.6222 292.667 96.4789C292.538 96.336 292.479 96.151 292.49 95.9241L292.736 91.0036L291.161 90.9248C290.681 90.9008 290.452 90.6813 290.472 90.2664C290.493 89.858 290.743 89.6658 291.223 89.6898L295.89 89.9232C296.37 89.9471 296.6 90.1634 296.579 90.5718C296.559 90.9867 296.308 91.1822 295.829 91.1582L294.253 91.0794L294.007 96C293.996 96.2269 293.919 96.405 293.776 96.5343C293.633 96.6637 293.445 96.7225 293.211 96.7108Z" fill="black"/>
<path d="M297.602 96.928C297.375 96.9135 297.205 96.8408 297.09 96.71C296.975 96.5792 296.924 96.4006 296.939 96.1741L297.287 90.7493C297.301 90.5228 297.374 90.3521 297.505 90.2371C297.636 90.122 297.814 90.0718 298.041 90.0863L301.476 90.3066C301.955 90.3374 302.182 90.5468 302.157 90.935C302.132 91.3296 301.88 91.5116 301.401 91.4809L298.732 91.3097L298.629 92.911L301.104 93.0697C301.583 93.1004 301.809 93.3131 301.784 93.7077C301.759 94.0959 301.507 94.2746 301.029 94.2439L298.554 94.0852L298.444 95.8029L301.113 95.9741C301.591 96.0048 301.818 96.2175 301.793 96.6121C301.768 97.0003 301.516 97.179 301.037 97.1483L297.602 96.928Z" fill="black"/>
<path d="M305.519 97.5647C304.563 97.4914 303.851 97.1898 303.384 96.6599C302.925 96.1241 302.731 95.3811 302.804 94.4308L303.058 91.1148C303.075 90.8885 303.157 90.7128 303.303 90.5874C303.45 90.4621 303.636 90.408 303.862 90.4254C304.088 90.4427 304.261 90.5242 304.38 90.6698C304.505 90.816 304.559 91.0022 304.542 91.2284L304.282 94.6123C304.241 95.1553 304.332 95.5784 304.556 95.8817C304.786 96.1854 305.137 96.3553 305.609 96.3915C306.081 96.4276 306.454 96.3131 306.728 96.048C307.002 95.7764 307.16 95.3724 307.201 94.8359L307.46 91.452C307.478 91.2257 307.556 91.0497 307.696 90.9238C307.842 90.7985 308.028 90.7445 308.254 90.7618C308.481 90.7791 308.656 90.8609 308.782 91.007C308.907 91.1532 308.961 91.3393 308.944 91.5656L308.69 94.8816C308.617 95.8254 308.31 96.5268 307.768 96.9859C307.225 97.4451 306.476 97.638 305.519 97.5647Z" fill="black"/>
<path d="M312.214 98.1225C311.704 98.0768 311.235 97.9762 310.806 97.8206C310.378 97.6586 310.035 97.4553 309.777 97.2109C309.687 97.1312 309.622 97.0506 309.584 96.9691C309.553 96.8816 309.543 96.7766 309.554 96.6539C309.568 96.4925 309.629 96.3548 309.737 96.2408C309.851 96.1273 309.973 96.0764 310.102 96.088C310.173 96.0943 310.24 96.1133 310.302 96.1449C310.371 96.1707 310.452 96.2169 310.544 96.2837C310.806 96.4829 311.075 96.6373 311.351 96.7467C311.629 96.8496 311.938 96.9164 312.281 96.9471C312.707 96.9852 313.039 96.9434 313.278 96.8216C313.517 96.6998 313.648 96.5065 313.672 96.2418C313.69 96.0416 313.597 95.8707 313.395 95.7289C313.2 95.5877 312.839 95.4382 312.313 95.2804C311.723 95.1039 311.255 94.9123 310.909 94.7056C310.57 94.4994 310.328 94.2596 310.183 93.9863C310.045 93.7136 309.992 93.3932 310.025 93.0251C310.062 92.6183 310.211 92.2639 310.472 91.9619C310.74 91.654 311.089 91.4281 311.519 91.2844C311.955 91.1347 312.435 91.0833 312.958 91.1302C313.875 91.2123 314.61 91.5092 315.163 92.0209C315.253 92.1071 315.313 92.1939 315.345 92.2813C315.383 92.3628 315.397 92.4617 315.386 92.5779C315.372 92.7394 315.307 92.8768 315.193 92.9902C315.085 93.1042 314.967 93.1554 314.838 93.1439C314.767 93.1375 314.7 93.1218 314.637 93.0966C314.58 93.072 314.5 93.0225 314.396 92.9481C314.147 92.7565 313.913 92.6086 313.694 92.5044C313.482 92.4008 313.205 92.3337 312.863 92.303C312.469 92.2677 312.152 92.3174 311.912 92.4522C311.673 92.5804 311.541 92.7769 311.517 93.0417C311.504 93.1966 311.534 93.3295 311.609 93.4404C311.69 93.5453 311.828 93.6455 312.021 93.7409C312.221 93.8369 312.504 93.9437 312.871 94.0612C313.732 94.3336 314.339 94.6386 314.693 94.9762C315.053 95.3144 315.21 95.7482 315.162 96.2777C315.125 96.691 314.976 97.0454 314.715 97.341C314.461 97.6371 314.116 97.8536 313.681 97.9903C313.252 98.1276 312.763 98.1717 312.214 98.1225Z" fill="black"/>
<path d="M320.393 97.6292C320.638 97.6541 320.814 97.7208 320.92 97.8293C321.026 97.9378 321.069 98.092 321.049 98.292C321.028 98.4984 320.955 98.6441 320.829 98.729C320.703 98.814 320.517 98.8441 320.272 98.8192L316.277 98.4141C316.077 98.3938 315.921 98.3194 315.811 98.1909C315.707 98.0565 315.664 97.8991 315.683 97.7185C315.701 97.5314 315.784 97.3574 315.931 97.1963L319.605 93.0629L316.915 92.7902C316.67 92.7653 316.495 92.6986 316.388 92.5901C316.282 92.4816 316.239 92.3273 316.259 92.1274C316.28 91.921 316.354 91.7753 316.479 91.6903C316.605 91.6054 316.791 91.5753 317.036 91.6001L320.887 91.9906C321.087 92.0109 321.238 92.0882 321.342 92.2225C321.453 92.351 321.499 92.5056 321.481 92.6862C321.461 92.8797 321.381 93.0541 321.242 93.2093L317.558 97.3418L320.393 97.6292Z" fill="black"/>
<path d="M94.9027 68.4846H64.7488V129.878H94.9027V68.4846Z" fill="#E3B37D"/>
<path d="M89.2544 78.6061C87.5023 80.0147 85.4695 81.0326 83.292 81.5917C81.1145 82.1507 78.8427 82.238 76.6288 81.8476C71.8719 80.9562 64.7568 75.9805 64.7568 71.9854L64.2301 68.3063C64.2301 62.1313 74.0923 57.1313 80.2593 57.1313C81.7271 57.1302 83.1807 57.4185 84.537 57.9797C85.8933 58.541 87.1257 59.3641 88.1636 60.402C89.2015 61.4399 90.0246 62.6722 90.5858 64.0285C91.1471 65.3848 91.4354 66.8385 91.4343 68.3063L95.3241 69.8136C95.3241 73.436 92.8363 75.8266 89.2544 78.6061Z" fill="#C69C6D"/>
<path d="M172.188 160.835C172.188 168.566 168.598 174.254 164.522 180.486C162.164 184.109 159.433 187.723 157.058 191.353C156.437 192.324 155.752 193.253 155.008 194.133C152.836 196.183 151.467 194.481 148.865 198.849C147.147 201.734 141.637 209.287 139.83 211.629C137.488 214.627 136.588 221.783 136.588 221.799H136.434C135.997 221.799 135.551 221.848 135.105 221.872L120.794 222.48C119.984 222.48 119.173 222.545 118.363 222.593L115.883 222.69C115.073 222.69 114.222 222.755 113.395 222.812L110.908 222.909C99.4489 223.406 87.9956 223.895 76.5478 224.376C76.4343 223.468 73.9222 207.626 73.8573 206.75C72.2593 183.554 64.9096 161.12 52.4716 141.475C52.3906 141.191 48.3225 135.113 47.4797 136.345C38.3144 150.065 32.115 160.454 26.4262 177.075C26.4262 177.828 59.2868 208.444 69.6758 217.269C69.8379 220.365 69.9027 222.528 70.0648 225.624C69.0437 225.113 68.1199 225.527 67.0988 225L34.141 208.169L15.5024 198.655C10.79 196.355 6.61291 193.092 3.24145 189.076C-1.83149 182.958 0.226862 174.1 1.6207 167.561C2.09882 165.267 3.91406 160.502 4.52184 158.241C6.93667 149.226 10.1196 140.433 14.0356 131.961C18.7196 121.556 21.7504 112.901 27.9821 103.306C31.1845 98.3381 35.957 94.584 41.5397 92.6418C46.6124 90.9376 51.7874 89.5545 57.034 88.5008C59.6029 87.9741 62.1961 87.5121 64.7974 87.1151C64.7974 87.1151 64.9189 87.0664 64.9351 87.1151C68.8411 101.702 90.3889 103.323 95.0891 85.8428C95.0891 85.8428 95.1539 85.8428 95.1863 85.8428C98.6142 85.9157 101.005 85.9967 101.272 86.013C105.912 86.4329 110.521 87.142 115.073 88.1361C117.788 88.752 122.366 90.1296 124.206 92.188C133.306 102.472 131.297 99.9838 140.413 110.276C145.883 116.459 159.587 135.859 164.53 142.472C168.744 148.136 172.172 153.606 172.188 160.835ZM152.601 164.182C152.836 163.655 138.671 139.06 130.332 130.032C133.104 147.131 138.436 176.459 139.481 193.89C139.481 193.971 139.814 200.916 139.814 200.997C141.383 198.517 142.556 195.807 143.29 192.966C143.639 191.775 143.736 190.34 144.181 188.914C146.75 180.535 150.3 169.368 152.601 164.182Z" fill="#0000FF"/>
<path d="M136.953 226.005C141.34 258.479 143.36 291.228 142.998 323.995C142.536 358.031 135.964 398.76 128.412 432.002C125.851 443.225 122.788 454.36 119.157 465.292L115.381 465.705C115.859 455.17 116.191 444.635 116.369 434.1C116.829 404.425 116.018 374.76 113.938 345.105C112.788 328.547 111.226 312.02 109.254 295.527C109.254 295.527 109.254 295.462 109.254 295.429C109.254 295.397 109.254 295.275 109.254 295.227L109.206 294.903C109.213 294.879 109.213 294.854 109.206 294.83C109.157 294.408 109.092 293.906 109.011 293.314C108.566 289.935 107.852 284.133 107.212 278.938C107.212 278.695 107.147 278.46 107.131 278.217C106.831 275.786 106.556 273.598 106.321 271.831C104.822 273.314 103.371 274.83 102.002 276.434C87.5769 293.071 79.7974 315.113 72.0178 335.389C60.4943 365.286 49.8595 395.5 40.1134 426.029C35.6726 439.968 31.4127 453.96 27.3338 468.006L17.2771 467.463C23.1928 441.694 29.4327 415.972 35.705 390.292C44.6191 353.995 53.6952 317.763 62.4473 281.434C67.034 262.461 71.4964 243.452 75.8346 224.408H76.4991L110.859 222.909L113.347 222.812C114.157 222.771 115.016 222.739 115.835 222.69L118.314 222.593C119.125 222.593 119.935 222.528 120.745 222.48L135.057 221.872C135.502 221.872 135.948 221.831 136.386 221.799L136.953 226.005Z" fill="#FFCD1D"/>
<path d="M118.314 222.593C119.125 222.545 119.935 222.512 120.746 222.48C119.935 222.528 119.125 222.561 118.314 222.593Z" fill="#0000FF"/>
<path d="M113.347 222.852C114.157 222.796 114.968 222.763 115.835 222.731C115.016 222.739 114.19 222.771 113.347 222.852Z" fill="#0000FF"/>
<path d="M76.4991 224.376C87.9416 223.901 99.3949 223.412 110.859 222.909L76.4991 224.408V224.376Z" fill="#0000FF"/>
<path d="M68.6629 216.596C66.5559 216.985 64.611 224.084 66.6288 224.943C67.4392 225.284 69.3922 225.916 69.7245 225.754C70.4275 225.391 71.1964 225.173 71.9854 225.113C73.0956 225.113 73.363 226.491 75 227.407C75.8067 227.82 76.6951 228.05 77.6013 228.079C79.2529 228.208 80.9125 227.972 82.4635 227.391C85.0891 226.58 86.4019 226.191 86.6856 225.381C87.3501 223.476 83.7196 220.203 80.3403 219.019C79.1449 218.552 77.8602 218.359 76.5802 218.452C74.6677 218.622 74.2626 219.392 72.9416 219.263C70.5024 219.125 69.8865 216.369 68.6629 216.596Z" fill="#C69C6D"/>
<path d="M155.413 193.679C155.932 190.754 147.172 184.708 145.081 186.904C144.107 188.082 143.38 189.444 142.942 190.908C142.771 192.528 142.942 193.566 142.642 194.303C142.131 195.754 140.211 195.462 138.177 197.18C137.25 198.044 136.521 199.097 136.037 200.267C135.072 202.347 134.571 204.612 134.57 206.904C134.335 210.697 134.214 212.577 135.13 213.339C137.285 215.081 143.339 211.856 146.523 207.99C147.72 206.654 148.603 205.068 149.109 203.347C149.822 200.77 149.011 199.887 149.781 198.209C151.199 195.13 155.113 195.381 155.413 193.679Z" fill="#C69C6D"/>
<path d="M122.909 462.812V458.201C122.907 458.02 122.834 457.847 122.705 457.719C122.576 457.592 122.402 457.52 122.22 457.52H115.243C115.071 457.52 114.906 457.589 114.785 457.71C114.663 457.832 114.595 457.997 114.595 458.169V474.943C114.595 475.373 114.766 475.785 115.069 476.089C115.373 476.393 115.786 476.564 116.216 476.564H139.165C139.366 476.562 139.558 476.481 139.699 476.338C139.84 476.195 139.919 476.003 139.919 475.802C139.919 473.275 138.915 470.851 137.128 469.064C135.34 467.276 132.916 466.272 130.389 466.272H126.337C125.426 466.262 124.555 465.893 123.914 465.245C123.272 464.598 122.911 463.723 122.909 462.812Z" fill="black"/>
<path d="M23.5899 494.976L20.5348 494.781C15.0081 494.433 10.9481 490.794 11.8638 487.018L18.2415 460.746L30.162 461.507L33.1685 488.363C33.598 492.229 29.1086 495.324 23.5899 494.976Z" fill="black"/>
<path d="M83.4683 13.9789H93.1928C95.0874 13.9682 96.9654 14.3326 98.7186 15.0509C100.472 15.7693 102.065 16.8275 103.408 18.1646C104.75 19.5017 105.815 21.0912 106.54 22.8415C107.265 24.5918 107.637 26.4684 107.634 28.363V48.4198C107.629 55.9973 104.616 63.2631 99.2565 68.6197C93.8968 73.9763 86.6294 76.9854 79.0518 76.9854H74.8136C72.0157 76.9833 69.3323 75.8742 67.3494 73.9004C65.3665 71.9266 64.2451 69.2484 64.2301 66.4506V33.2253C64.2387 28.1248 66.268 23.2357 69.8738 19.6284C73.4796 16.0211 78.3679 13.9896 83.4683 13.9789Z" fill="#E3B37D"/>
<path d="M104.125 19.1734C110.357 17.5527 114.514 8.33872 113.12 4.10857C110.908 -2.60132 85.5672 0.0972252 73.5899 3.80873C66.7018 5.94001 59.4975 4.31116 52.4554 23.6872C45.1783 43.7601 59.4408 65.0567 63.671 70.7455C63.754 70.8603 63.8707 70.9463 64.0049 70.9916C64.1391 71.0369 64.2841 71.0391 64.4197 70.9981C64.5553 70.9571 64.6747 70.8748 64.7612 70.7627C64.8478 70.6506 64.8973 70.5143 64.9027 70.3727C65.0567 67.2447 65.2755 60.2188 64.9757 50.0729C64.8541 45.8266 60.6807 38.1847 65.7374 35.7941C69.692 33.9222 73.4279 30.2593 73.987 29.765C75.3195 28.48 76.4165 26.9715 77.2285 25.3079C78.0398 23.6609 79.1157 22.158 80.4133 20.859C83.8492 17.9984 87.5283 16.6207 90.5348 16.7585C96.8071 17.0178 99.7407 20.3403 104.125 19.1734Z" fill="black"/>
<path d="M75.9886 44.3274C75.2512 39.5381 71.3128 33.671 65.9886 33.9789C62.0421 34.1977 59.141 38.0308 58.598 41.6207C57.4959 48.9141 68.1685 56.3128 73.0064 53.9789C75.94 52.5689 76.4748 47.4878 75.9886 44.3274Z" fill="#E3B37D"/>
<path d="M85.9319 37.7958C87.194 37.7958 88.2172 36.7726 88.2172 35.5105C88.2172 34.2484 87.194 33.2253 85.9319 33.2253C84.6698 33.2253 83.6467 34.2484 83.6467 35.5105C83.6467 36.7726 84.6698 37.7958 85.9319 37.7958Z" fill="black"/>
<path d="M103.841 37.0745C105.103 37.0745 106.126 36.0514 106.126 34.7893C106.126 33.5272 105.103 32.504 103.841 32.504C102.579 32.504 101.556 33.5272 101.556 34.7893C101.556 36.0514 102.579 37.0745 103.841 37.0745Z" fill="black"/>
<path d="M90.3889 31.248L79.0437 31.9044C78.679 31.9044 78.4116 31.6288 78.5494 31.3452L78.7682 30.8914C78.9569 30.5561 79.2293 30.2753 79.5588 30.0765C79.8883 29.8777 80.2636 29.7676 80.6482 29.7569L88.5332 29.3031C88.9169 29.2677 89.3032 29.3327 89.6542 29.4919C90.0051 29.651 90.3086 29.8987 90.5348 30.2107L90.8022 30.6321C90.9805 30.8995 90.7617 31.2318 90.3889 31.248Z" fill="black"/>
<path d="M107.974 30.154L104.254 29.9271C102.755 29.8389 101.25 29.9341 99.7731 30.2107L96.6369 30.8104C96.2722 30.8104 96.0048 30.5267 96.1507 30.2431L96.3695 29.7974C96.5512 29.4995 96.7966 29.2455 97.088 29.0536C97.3794 28.8616 97.7096 28.7365 98.0551 28.6872C98.3737 28.6201 98.6837 28.5168 98.9789 28.3792C100.636 27.6359 102.486 27.4373 104.263 27.812L104.862 27.9416L105.365 28.0308L106.499 28.2091C106.821 28.227 107.134 28.3181 107.414 28.4754C107.695 28.6327 107.937 28.852 108.12 29.1167L108.387 29.53C108.59 29.7974 108.339 30.1296 107.974 30.154Z" fill="black"/>
<path d="M93.0227 60.7212L98.4846 59.9108C98.5481 59.9001 98.6134 59.9085 98.6721 59.9351C98.7309 59.9616 98.7803 60.005 98.8143 60.0598C98.8482 60.1146 98.865 60.1783 98.8626 60.2427C98.8601 60.3071 98.8386 60.3693 98.8006 60.4214C97.8849 61.5883 94.3922 62.3987 90.2755 62.3987C85.5591 62.3987 81.4829 60.5672 81.3614 59.1572L88.4197 60.6159C88.6566 60.6847 88.8975 60.7388 89.141 60.7779C90.4318 60.9276 91.7367 60.9086 93.0227 60.7212Z" fill="#C69C6D"/>
<path d="M65.3666 42.8733C65.709 41.478 66.188 40.1198 66.7967 38.8184C66.8346 38.7347 66.8516 38.643 66.8462 38.5512C66.8409 38.4595 66.8133 38.3704 66.7659 38.2917C66.7185 38.2129 66.6526 38.1469 66.5741 38.0992C66.4955 38.0516 66.4065 38.0238 66.3147 38.0181C65.1337 37.9758 63.9757 38.3518 63.0449 39.0798C62.114 39.8078 61.47 40.841 61.2265 41.9974C60.983 43.1537 61.1555 44.3589 61.7137 45.4005C62.2719 46.4421 63.1799 47.2532 64.2776 47.6908C64.364 47.7237 64.4571 47.7347 64.5488 47.7228C64.6404 47.711 64.7277 47.6766 64.8028 47.6227C64.8779 47.5689 64.9385 47.4972 64.9791 47.4143C65.0197 47.3313 65.0392 47.2395 65.0357 47.1472C64.9618 45.7142 65.073 44.2778 65.3666 42.8733Z" fill="#C69C6D"/>
</g>
<defs>
<clipPath id="clip0">
<rect width="539.311" height="495" fill="white"/>
</clipPath>
</defs>
</svg>
