<svg xmlns="http://www.w3.org/2000/svg" xmlns:xlink="http://www.w3.org/1999/xlink" viewBox="0 0 1119.32 563.62"><defs><style>.cls-1{fill:#d7d7d7;}.cls-2,.cls-3{stroke:#000;stroke-miterlimit:10;stroke-width:2px;}.cls-2{fill:url(#Gradient_bez_nazwy_45);}.cls-3{fill:url(#Gradient_bez_nazwy_45-2);}</style><linearGradient id="Gradient_bez_nazwy_45" x1="472.69" y1="325.33" x2="586.33" y2="137.08" gradientUnits="userSpaceOnUse"><stop offset="0" stop-color="#f5c001" stop-opacity="0"/><stop offset="0.06" stop-color="#f4bf01" stop-opacity="0.03"/><stop offset="0.97" stop-color="#d7a905"/></linearGradient><linearGradient id="Gradient_bez_nazwy_45-2" x1="627.95" y1="329.34" x2="690.38" y2="225.91" xlink:href="#Gradient_bez_nazwy_45"/></defs><g id="Warstwa_2" data-name="Warstwa 2"><g id="mini_logo"><path class="cls-1" d="M1119.32,301.28c0,166.39-250.57,262.34-559.66,262.34S0,467.67,0,301.28,250.57,0,559.66,0,1119.32,134.89,1119.32,301.28Z"/><path class="cls-2" d="M574.64,269.15a101,101,0,0,0,20.81-25.94c1.66-3,3.15-6.18,4.51-9.37,1.63-3.82,5.94-12.28,5.77-15.5-.32-5.76-6.66-9.32-11.58-11.11a27.65,27.65,0,0,0-7.44-1.63,14.66,14.66,0,0,0-6,.69,5.19,5.19,0,0,0-1.73.91,3.69,3.69,0,0,0-1.33,2.54,61.29,61.29,0,0,1-2.37,8.62,74,74,0,0,1-4.87,9.24,99.92,99.92,0,0,1-12.76,16.56c-1.49,1.57-3,3.07-4.62,4.54-8.74-10.83-15.75-23.15-21.74-35.81,19.57-10,37.9-22.58,47.51-43,12.46-26.54,1.76-56.39-22.49-72.06-22.94-14.82-54.47-7.63-65.47,18.3-10.74,25.31,1.35,55.39,12.13,79.56-14,6.52-41.63,16.33-50.31,26.08a97.32,97.32,0,0,0-3.74,9.62c-5.47,11.2-8.75,23.82-11.83,35.45l-.13.51a17.38,17.38,0,0,0,3,14.94A67.91,67.91,0,0,0,472,305c30.6,10,65.9-8.42,90.5-26.09,10.28,8.13,26.57,19.62,33,22.73,5.41-6.72,3.08-13.91,6-17.62C595.91,282.35,584.81,276.25,574.64,269.15Zm-48.9-150c6.43-5,15.37-8,23.23-6.58a9.86,9.86,0,0,1,6.7,4.77,28.83,28.83,0,0,1,1.74,3.52,33.94,33.94,0,0,1,1.87,17.43c-3.2,22.43-20.27,37.54-39.06,48.5C511.67,164.3,504.34,135.69,525.74,119.1Zm-4.37,151.42c-13.27,6.89-28,13.94-43.18,14.77-10.12.54-19.78-1.15-22.2-10-3.42-12.49,6.95-24.26,15.85-31.47,11.59-9.41,25.92-15.42,39.43-21.5l3.85-1.74a209,209,0,0,0,26,37.86A161.71,161.71,0,0,1,521.37,270.52Z"/><path class="cls-3" d="M715.29,229.87c-22.7,18.93-58.13,46.47-87.45,52.79-4.68,1-10.44,2.51-15.06,2.72C607.89,291.83,604,295.6,599,302c12.66,3.22,33,1.28,46.33-.68,16.89-2.49,44.21-15.29,59.23-23.53,8.76-17.23,5.21-23.38,15.25-39.87C716.89,237,717.3,228.19,715.29,229.87Z"/><path d="M425.3,225.85Z"/><path d="M468,196.07a15.1,15.1,0,0,0-15.44-3.56,321,321,0,0,0-77.8,38c-4.93,3.3-3,9.88.85,13.08,4.58,3.79,11.74,4.65,16.77,1.3a296.18,296.18,0,0,1,31.11-18.13l1.86-.92c-13,13.63-26,29.8-38.85,43.65-11.74,12.65-40.19,39.52-55.88,18.83-15.95-21-2.28-53.94,6.9-75.23a228.61,228.61,0,0,1,40.42-62.58,223.85,223.85,0,0,1,36.82-32.67,108.26,108.26,0,0,0-6.63,64.67c1.12,5.3,3.55,11.84,11.72,11.07,5.71-.53,7.91-5.78,6.86-10.78-6.12-29.12,7.64-62.11,28.77-83.15,7.08-7-6.32-26.21-14.25-20.6-1.05.75-8.44,5.18-8.88,5.4C380.49,109.89,338.46,153.11,315.11,206c-11.69,26.48-24.48,62.07-7.13,88.74A43,43,0,0,0,346.27,314c15.84-.78,30.69-8.49,43-18.18,7.62-6,14.94-15.49,21.32-22.78a18,18,0,0,1-.34,2.37,469.21,469.21,0,0,0-10.33,71.7c-.77,11.34,22.82,14.55,23.7,1.59a434.13,434.13,0,0,1,11.59-74.13c.64-2.6,1.28-5.2,2-7.79,3.08-11.63,6.36-24.25,11.83-35.45l8.63-13.67a51.37,51.37,0,0,1,10.23-9.54C472.17,205.1,471.26,199.42,468,196.07Z"/><path d="M801,192.17c-39.65,19.29-55.16,53.94-86.07,83.27q7-19.24,15.09-38.08c.61-1.41,1.21-2.84,1.82-4.25A732.86,732.86,0,0,1,800.6,110c4.39-6.33-13.4-17.09-18.66-13.11a434.31,434.31,0,0,0-89.12,90.55,374,374,0,0,1,8.46-96.37c1.59-7.25-18.85-17.79-20.78-9-8.75,39.84-27.55,77.3-45.41,114-13.48,27.71-30.61,54-46.28,80.65q-4.45,7.59-9,15.1c-4.23,6.95-20.5,31.77-26.59,40.56-2.39,3.46-12.67,15.27-12.05,19.28.87,5.66,23.39,6.85,28.34,5a19.14,19.14,0,0,0,3.28-3c1.35-1.68,2.52-3.54,3.75-5.3q3.71-5.29,7.31-10.66c5.4-8,5.54-9,10.68-17.22q6.84-10.89,13.4-21.94,6.15-10.27,12.09-20.67c2.31-4.06,4.62-8.13,6.89-12.21,16.29-29.3,31.65-59.23,45-89.93a370.44,370.44,0,0,0,3.32,38.58c.65,4.68,4.53,8,8.66,10.08,2.76,1.4,9.36,4.11,11.65.43a423.46,423.46,0,0,1,42.35-56.73q-13.44,25-24.9,51T692.08,272c-3.4,9.68-10.35,35.17-13.35,45-1.05,3.44,5,8,7.28,9.37,3.06,1.85,8.78,4.85,11.85,2.22,43-36.86,69.15-97.21,120.61-122.25C825.87,202.75,808.17,188.67,801,192.17Z"/><path d="M93.94,423.69c5.92,2.06,9.5,3.66,15.47,2.55l11-2q12.18-2.23,24.39-4.31,22.06-3.76,44.2-7.1Q234.39,406,280,401q91.23-10.05,183.06-12.86A2315.34,2315.34,0,0,1,826.92,405.4q102.15,13,202.86,35.14c5.26,1.16,8.19-2.27,6.1-7.27-2.31-5.55-8.64-10.92-14.55-12.21A2334.71,2334.71,0,0,0,290,378.39q-51.23,5.12-102.2,12.51-25.47,3.69-50.87,8-12.61,2.11-25.22,4.37-6.62,1.18-13.22,2.4l-4.4.82c-4.53.84-5.7,1.7-9.39,4.82-5.64,4.79,6.32,11.4,9.27,12.42Z"/></g></g></svg>