<svg width="94" height="42" viewBox="0 0 94 42" fill="none" xmlns="http://www.w3.org/2000/svg">
<ellipse cx="47" cy="20.973" rx="47" ry="20.973" fill="#D7D7D7"/>
<path d="M45.3326 20.072C45.5097 19.7524 45.6661 19.4194 45.8008 19.0755L45.8009 19.0755L45.8021 19.0722C45.8304 18.9976 45.9057 18.728 45.9613 18.4988C45.9898 18.3813 46.0169 18.2594 46.0316 18.1659C46.0362 18.1361 46.0418 18.0969 46.0437 18.0565C46.0457 18.0543 46.0476 18.0522 46.0497 18.0502C46.066 18.034 46.0825 18.0246 46.097 18.0198L46.0971 18.02L46.108 18.0159C46.2387 17.9674 46.3757 17.9502 46.5109 17.9645L46.5109 17.9646L46.5185 17.9652C46.7185 17.9818 46.916 18.0299 47.1055 18.1087L47.1075 18.1095C47.3137 18.1937 47.5347 18.3142 47.7021 18.468C47.8674 18.6198 47.9609 18.7845 47.9702 18.9677C47.9713 18.9948 47.9625 19.0684 47.9264 19.1987C47.8927 19.3202 47.8436 19.463 47.7868 19.6144C47.7304 19.7649 47.6685 19.9185 47.6103 20.0614C47.6019 20.0822 47.5935 20.1028 47.5851 20.1232C47.5372 20.2409 47.492 20.3517 47.4584 20.4404L47.4583 20.4407C47.3364 20.7627 47.202 21.0817 47.0547 21.3804C46.5666 22.3585 45.9377 23.237 45.1948 23.9807L44.9286 24.2472L45.2252 24.4794C45.7044 24.8546 46.2058 25.2028 46.656 25.481C46.9548 25.6657 47.2396 25.8248 47.4851 25.9402C47.4761 25.9763 47.4686 26.0117 47.462 26.0462C47.4421 26.151 47.4277 26.2709 47.4142 26.3826C47.4088 26.4271 47.4036 26.4704 47.3983 26.5108C47.3707 26.7197 47.3328 26.923 47.2472 27.1203C46.9681 26.9357 46.5914 26.6586 46.1799 26.3384C45.6154 25.8991 45.0069 25.3956 44.5379 24.9802L44.3269 24.7932L44.1073 24.97C42.9842 25.8742 41.6301 26.7868 40.2204 27.3463C38.8102 27.906 37.3787 28.0993 36.0709 27.6206C34.969 27.2042 33.9946 26.4309 33.2732 25.3904C33.1529 25.2132 33.0685 25.0052 33.0285 24.7817C32.9885 24.5578 32.9945 24.3264 33.0458 24.1058L33.0462 24.104L33.0576 24.054L33.0583 24.0512L33.0758 23.977C33.3565 22.7888 33.651 21.5423 34.1318 20.4382L34.1447 20.4087L34.1517 20.3773C34.1862 20.2218 34.1957 20.1959 34.2488 20.0522C34.2664 20.0046 34.2887 19.9441 34.3183 19.8617C34.3875 19.7218 34.4337 19.6214 34.4637 19.549C34.4793 19.5115 34.4923 19.4773 34.502 19.4463C34.5041 19.4398 34.5066 19.4317 34.5092 19.4222C34.6796 19.2361 34.9267 19.0377 35.2364 18.8315C35.5941 18.5932 36.0167 18.3568 36.4617 18.127C36.9062 17.8974 37.367 17.6776 37.8011 17.4714L37.8679 17.4396C38.2746 17.2465 38.6584 17.0641 38.9716 16.9006L39.2385 16.7612L39.1273 16.4814C38.6296 15.2301 38.1118 13.85 37.8386 12.4629C37.5654 11.0761 37.5426 9.71058 38.0085 8.47887C38.9459 6.0019 41.6055 5.32724 43.5497 6.73476C45.669 8.27054 46.6051 11.2008 45.5158 13.8022C44.6703 15.8171 43.0534 17.0742 41.2679 18.0974L41.0114 18.2443L41.1263 18.5167C41.6853 19.8416 42.3443 21.1428 43.1726 22.2936L43.4047 22.616L43.6822 22.3318C43.8379 22.1724 43.9829 22.0097 44.1242 21.8428L44.1244 21.8425C44.5818 21.3007 44.9866 20.7073 45.3326 20.072ZM45.3326 20.072C45.3324 20.0723 45.3322 20.0727 45.332 20.0731L45.0401 19.9112L45.3332 20.0708C45.333 20.0712 45.3328 20.0716 45.3326 20.072ZM36.5402 26.2252L36.5395 26.2253C36.0536 26.2549 35.5372 26.2281 35.1002 26.0483C34.6436 25.8605 34.2833 25.508 34.1437 24.9349C33.9599 24.182 34.1534 23.4673 34.4816 22.8613C34.8092 22.2568 35.283 21.7363 35.7074 21.3486L35.7079 21.3481C36.7238 20.4241 37.9569 19.8058 39.1023 19.2315C39.2107 19.1772 39.3183 19.1233 39.4248 19.0695L36.5402 26.2252ZM36.5402 26.2252C38.0288 26.1316 39.4569 25.3578 40.6746 24.6473C41.3238 24.2721 41.9479 23.8455 42.5421 23.3707L42.7982 23.1661L42.5983 22.9064C41.6858 21.7208 40.8924 20.4253 40.2327 19.0431L40.0854 18.7347L39.7806 18.8892L39.4253 19.0692L36.5402 26.2252ZM43.1249 7.66361C42.4901 7.5359 41.8162 7.7041 41.2465 8.0294V7.93738L40.6938 8.41758C39.6066 9.36224 39.2643 10.6439 39.2862 11.9526C39.308 13.2539 39.6892 14.6179 40.0866 15.7887L40.225 16.1963L40.5853 15.9608C42.3538 14.805 44.0281 13.166 44.3426 10.6998C44.4334 10.0405 44.3689 9.36563 44.1546 8.74142L44.1546 8.7414L44.1526 8.73582C44.0995 8.58974 44.0364 8.44815 43.9639 8.31229C43.8779 8.1489 43.7601 8.00506 43.6162 7.89236C43.4719 7.77926 43.3048 7.70039 43.126 7.66382L43.1249 7.66361Z" fill="url(#paint0_linear)" stroke="black" stroke-width="0.667531"/>
<path d="M50.4244 25.9409L50.4247 25.9408C51.8452 25.598 53.3843 24.6889 54.8132 23.6413C56.0995 22.6983 57.3206 21.6248 58.3174 20.7037C58.3346 20.7711 58.3554 20.8417 58.3809 20.907C58.3936 20.9394 58.4122 20.9836 58.4391 21.031C58.0418 21.8103 57.898 22.3779 57.7707 22.9389C57.7611 22.9814 57.7516 23.0239 57.742 23.0663C57.6227 23.5971 57.5032 24.1282 57.1736 24.876C56.4956 25.289 55.5682 25.8026 54.6224 26.2479C53.6281 26.7159 52.6416 27.0948 51.9091 27.2154L51.9091 27.2154C51.3012 27.3157 50.5375 27.4149 49.785 27.4482C49.2364 27.4725 48.7085 27.4609 48.2568 27.395C48.35 27.2716 48.4407 27.1543 48.5317 27.0367C48.5502 27.0127 48.5688 26.9888 48.5874 26.9647C48.7648 26.7351 48.9445 26.5002 49.1406 26.2178C49.4788 26.1802 49.8553 26.0845 50.1722 26.0039C50.2618 25.9812 50.3465 25.9596 50.4244 25.9409Z" fill="url(#paint1_linear)" stroke="black" stroke-width="0.667531"/>
<path d="M33.0996 4.52055C33.0025 4.59723 32.3197 5.0573 32.2791 5.08009C27.492 7.7141 23.6085 12.1936 21.4511 17.673C20.3709 20.4168 19.1892 24.1046 20.7923 26.8692C21.175 27.5198 21.703 28.0466 22.3237 28.3971C22.9444 28.7476 23.6362 28.9096 24.3301 28.867C25.7937 28.7851 27.1658 27.9873 28.3032 26.9821C29.0165 26.3501 29.703 25.3491 30.2981 24.5906C30.421 23.9834 30.4967 23.658 30.6427 23.056C30.9097 21.9483 31.21 20.7992 31.6369 19.7309C30.4357 21.1422 29.2346 22.8187 28.0473 24.2528C26.9607 25.5636 24.3292 28.3479 22.8795 26.2029C21.4058 24.0269 22.6688 20.6137 23.5171 18.4087C24.437 16.0324 25.6987 13.8418 27.2517 11.9242C28.272 10.6585 29.4139 9.5232 30.6566 8.53891C29.845 10.6498 29.6312 12.9894 30.044 15.241C30.1475 15.7902 30.3729 16.4668 31.1278 16.3881C31.6545 16.3321 31.8577 15.7881 31.7607 15.27C31.1952 12.2537 32.4666 8.83423 34.419 6.65407C35.0704 5.92459 33.8323 3.93924 33.0996 4.52055Z" fill="black"/>
<path d="M34.6158 18.8832C34.8892 18.5069 35.2072 18.1743 35.561 17.8947C35.9629 17.5838 35.8789 16.9911 35.573 16.644C35.3889 16.4405 35.1581 16.2983 34.9062 16.2332C34.6544 16.168 34.3914 16.1826 34.1464 16.2751C31.6025 17.2171 29.1843 18.5417 26.9579 20.2126C26.5024 20.5535 26.6807 21.2364 27.0364 21.568C27.4605 21.9597 28.1212 22.0488 28.5859 21.7016C29.5093 21.011 30.4692 20.3839 31.4604 19.8241L31.6323 19.7287C31.2054 20.797 30.9051 21.9462 30.6381 23.0539C30.4921 23.6549 30.3584 24.259 30.2371 24.8662C29.7487 27.3111 29.4296 29.7946 29.2826 32.2947C29.2124 33.4707 31.3911 33.8034 31.4724 32.4605C31.631 29.8701 31.9893 27.3001 32.5433 24.7791C32.6024 24.5097 32.6616 24.2393 32.7281 23.9709C33.0127 22.7668 33.3158 21.4592 33.8212 20.2986" fill="black"/>
<path d="M66.3449 16.24C62.6814 18.2388 61.2483 21.8292 58.3923 24.8694C58.8235 23.5396 59.2882 22.2243 59.7866 20.9235C59.8429 20.7764 59.8984 20.6293 59.9556 20.4821C61.7025 16.0107 63.8304 11.739 66.3098 7.72657C66.7145 7.07066 65.0717 5.95675 64.5847 6.36916C61.4444 9.02649 58.6699 12.1876 56.3503 15.7509C56.2248 12.3987 56.4875 9.04244 57.132 5.76609C57.2789 5.01485 55.3912 3.9227 55.212 4.83352C54.4044 8.96275 52.6664 12.8433 51.0162 16.6461C49.7707 19.5174 48.188 22.2416 46.7401 25.0031C46.4654 25.5267 46.1882 26.0479 45.9085 26.5667C45.5177 27.2868 44.0144 29.8587 43.4517 30.7705C43.2309 31.128 42.281 32.3528 42.3383 32.7683C42.4187 33.3548 44.4995 33.4771 44.9578 33.2802C45.069 33.1899 45.1707 33.0856 45.2608 32.9693C45.3846 32.7952 45.4927 32.6025 45.6064 32.4201C45.8349 32.0547 46.0601 31.6865 46.2818 31.3155C46.7808 30.4866 46.7937 30.383 47.2686 29.5312C47.6899 28.7789 48.1002 28.0204 48.5077 27.2578C48.8859 26.5477 49.2579 25.8337 49.6238 25.116C49.8382 24.6953 50.0504 24.2736 50.2604 23.8508C51.7656 20.8147 53.1848 17.7134 54.4229 14.5323C54.4622 15.8716 54.5637 17.2077 54.7269 18.5351C54.787 19.0201 55.1455 19.3641 55.5271 19.5806C55.7821 19.7257 56.3919 20.0055 56.6035 19.6252C57.759 17.5462 59.0679 15.5795 60.5165 13.7458C59.6886 15.4728 58.922 17.2344 58.2167 19.0304C57.5114 20.8265 56.8665 22.6547 56.2819 24.515C55.9678 25.518 55.3256 28.1603 55.0484 29.1779C54.956 29.5354 55.5104 30.0068 55.7211 30.1488C56.0038 30.3405 56.5323 30.6524 56.816 30.3788C60.7891 26.5594 63.2052 20.306 67.96 17.7124C68.6437 17.3373 67.0092 15.8783 66.3449 16.24Z" fill="black"/>
<path d="M0.997121 40.231C1.54411 40.4445 1.87582 40.6092 2.4265 40.4952C2.7656 40.4248 3.10378 40.3533 3.44287 40.288C4.19314 40.1347 4.94433 39.9858 5.69644 39.8414C7.05591 39.5817 8.41722 39.3364 9.78039 39.1057C12.5763 38.6339 15.379 38.2246 18.1885 37.8778C23.8081 37.1836 29.4462 36.7394 35.1027 36.5453C46.3344 36.1511 57.5763 36.7495 68.7242 38.3348C75.0164 39.2328 81.2643 40.4469 87.4679 41.977C87.9539 42.0962 88.2246 41.7408 88.0315 41.2227C87.818 40.6476 87.2332 40.0911 86.6871 39.9575C64.5081 34.5057 41.7008 33.0135 19.107 35.536C15.9519 35.889 12.8042 36.3211 9.66397 36.8323C8.09506 37.0872 6.52832 37.3635 4.96373 37.6613C4.18636 37.8077 3.40961 37.9586 2.63347 38.1141C2.22631 38.1963 1.81915 38.2792 1.41198 38.3628L1.00544 38.4477C0.586878 38.5348 0.478773 38.6239 0.137828 38.9482C-0.383292 39.4435 0.721778 40.1284 0.99435 40.2352L0.997121 40.231Z" fill="black"/>
<defs>
<linearGradient id="paint0_linear" x1="40.4863" y1="5.67627" x2="40.4863" y2="28.226" gradientUnits="userSpaceOnUse">
<stop offset="0.369792" stop-color="#F5C001"/>
<stop offset="1" stop-color="#F5C001" stop-opacity="0"/>
</linearGradient>
<linearGradient id="paint1_linear" x1="53.2639" y1="20.1244" x2="53.2639" y2="27.7937" gradientUnits="userSpaceOnUse">
<stop offset="0.453125" stop-color="#F5C001"/>
<stop offset="1" stop-color="#F5C001" stop-opacity="0"/>
</linearGradient>
</defs>
</svg>
