<svg width="595" height="190" viewBox="0 0 595 190" fill="none" xmlns="http://www.w3.org/2000/svg">
<path d="M177.463 95.122C177.064 95.4071 176.734 95.7774 176.496 96.2061C176.258 96.6348 176.119 97.1111 176.089 97.6003C172.73 140.173 137.141 174.428 93.739 174.428C86.5771 174.433 79.4449 173.508 72.5216 171.677C72.1419 171.575 71.8067 171.351 71.568 171.039C71.3293 170.727 71.2006 170.344 71.202 169.952V68.054L78.9459 79.9201C79.5802 80.8902 80.4017 81.724 81.3625 82.373C82.3232 83.0219 83.4039 83.4729 84.5411 83.6995C85.6784 83.9261 86.8496 83.9238 87.986 83.6928C89.1224 83.4617 90.2012 83.0065 91.1594 82.3538C93.0518 81.0658 94.3606 79.0851 94.8025 76.8403C95.2444 74.5955 94.784 72.267 93.5208 70.3589L78.2513 47.2909C77.1798 45.5858 76.1331 43.9551 75.126 42.3838C74.2637 41.0111 73.2666 39.7276 72.1495 38.5524C71.1244 37.4824 69.8838 36.642 68.5096 36.0866C67.1353 35.5312 65.6588 35.2735 64.1775 35.3306C61.9054 35.3247 59.6823 35.9904 57.7879 37.2438C55.9011 38.4236 54.4223 40.1538 53.5514 42.2004C52.8337 44.041 52.4749 46.5721 52.4749 49.7939V174.472C52.4748 175.654 52.7983 176.813 53.4104 177.824C54.0226 178.835 54.8999 179.659 55.9474 180.207C60.7968 182.749 65.8932 184.79 71.1573 186.299C78.5317 188.104 86.097 189.014 93.6894 189.01C143.739 189.01 184.681 149.278 187.841 100.009C188.183 95.241 182.895 91.355 177.463 95.122Z" fill="#8CD8FF"/>
<path d="M116.796 18.7459V103.375C116.804 103.495 116.77 103.613 116.701 103.711C116.632 103.809 116.532 103.881 116.417 103.915C116.302 103.949 116.178 103.943 116.067 103.898C115.956 103.853 115.863 103.772 115.804 103.667L108.785 93.0601C108.141 92.0878 107.311 91.2529 106.342 90.604C105.373 89.955 104.284 89.505 103.14 89.2799C101.995 89.0549 100.817 89.0593 99.674 89.293C98.5311 89.5267 97.446 89.985 96.4819 90.6413C94.5805 91.9387 93.2633 93.9286 92.8127 96.1846C92.362 98.4407 92.8137 100.783 94.0709 102.711L108.78 125.243C109.855 126.813 110.931 128.348 112.009 129.848C113.027 131.283 114.2 132.601 115.507 133.779C116.678 134.858 118.047 135.7 119.54 136.257C121.097 136.792 122.735 137.054 124.382 137.03C131.555 137.03 135.142 132.706 135.142 124.059V17.8735C135.142 13.1697 132.696 9.51171 128.132 6.91445C123.221 4.11398 120.691 3.84632 116.787 2.72117C109.414 0.913557 101.851 -8.27495e-05 94.2594 5.62131e-09C43.7582 5.62131e-09 2.54359 40.4111 0.00364212 90.2596C-0.0201904 90.8109 0.0731489 91.361 0.277511 91.8736C0.481873 92.3862 0.79262 92.8497 1.18928 93.2336C5.65403 97.5706 11.5376 94.7206 11.989 89.9969C16.0073 48.079 51.2937 14.5774 94.2594 14.5823C101.538 14.5767 108.785 15.5299 115.814 17.4175C116.1 17.5032 116.35 17.6789 116.527 17.9183C116.704 18.1578 116.798 18.4481 116.796 18.7459Z" fill="#00FFFF"/>
<path d="M234.939 64.6984C235.436 65.229 235.823 65.8524 236.079 66.5329C236.334 67.2133 236.453 67.9374 236.427 68.6637V108.941C236.459 109.681 236.343 110.421 236.088 111.117C235.832 111.812 235.442 112.451 234.939 112.996C234.443 113.508 233.844 113.911 233.182 114.177C232.519 114.442 231.808 114.565 231.094 114.537C230.304 114.565 229.517 114.411 228.795 114.088C228.072 113.765 227.434 113.281 226.927 112.673L202.857 81.873V108.941C202.926 110.422 202.424 111.874 201.454 112.996C200.976 113.512 200.391 113.917 199.739 114.184C199.088 114.45 198.386 114.571 197.683 114.537C196.976 114.569 196.27 114.449 195.613 114.186C194.956 113.923 194.363 113.522 193.873 113.01C192.885 111.897 192.371 110.442 192.44 108.956V68.6786C192.414 67.9523 192.533 67.2282 192.788 66.5477C193.044 65.8673 193.431 65.2439 193.928 64.7133C194.423 64.1987 195.022 63.7949 195.684 63.5283C196.347 63.2617 197.059 63.1386 197.773 63.1668C198.555 63.1258 199.336 63.2742 200.048 63.5996C200.761 63.9249 201.384 64.4176 201.865 65.0355L225.935 95.6177V68.6786C225.878 67.2198 226.394 65.7964 227.374 64.7133C227.849 64.2028 228.429 63.8005 229.073 63.5336C229.718 63.2668 230.412 63.1417 231.109 63.1668C231.82 63.1397 232.527 63.262 233.187 63.5259C233.847 63.7897 234.444 64.1892 234.939 64.6984Z" fill="url(#paint0_linear)"/>
<path d="M247.832 112.758C246.926 111.849 246.472 110.557 246.468 108.882V68.7331C246.468 67.0578 246.923 65.7658 247.832 64.8571C248.745 63.9451 250.04 63.494 251.717 63.494H277.151C280.693 63.494 282.464 64.9298 282.464 67.8013C282.464 70.6728 280.693 72.1317 277.151 72.178H257.392V84.0242H275.712C279.254 84.0242 281.027 85.4831 281.03 88.4009C281.034 91.3187 279.261 92.7545 275.712 92.7082H257.392V105.417H277.151C280.693 105.417 282.464 106.876 282.464 109.794C282.464 112.711 280.693 114.147 277.151 114.101H251.717C250.03 114.121 248.745 113.67 247.832 112.758Z" fill="url(#paint1_linear)"/>
<path d="M354.138 63.9055C355.124 63.2569 356.293 62.9449 357.471 63.0164C358.649 63.0879 359.772 63.539 360.672 64.302C361.165 64.7419 361.555 65.2858 361.812 65.8944C362.069 66.503 362.188 67.1611 362.16 67.8212C362.144 68.6294 361.997 69.4297 361.723 70.1905L346.766 111.028C346.346 112.159 345.547 113.11 344.504 113.719C343.433 114.37 342.202 114.713 340.947 114.711C339.703 114.718 338.482 114.374 337.425 113.719C336.398 113.101 335.613 112.152 335.198 111.028L324.492 80.7926L313.529 111.028C313.114 112.152 312.328 113.101 311.301 113.719C310.243 114.352 309.032 114.685 307.799 114.685C306.566 114.685 305.355 114.352 304.297 113.719C303.254 113.11 302.455 112.159 302.035 111.028L287.088 70.1806C286.815 69.4439 286.669 68.6662 286.656 67.8807C286.63 67.2093 286.759 66.5409 287.031 65.9266C287.304 65.3124 287.713 64.7686 288.229 64.3367C289.271 63.456 290.599 62.984 291.964 63.0084C293.071 62.9973 294.157 63.3091 295.089 63.9055C296.043 64.5298 296.763 65.4517 297.138 66.5275L308.201 98.3291L319.7 66.6713C320.067 65.6285 320.747 64.7241 321.647 64.0819C322.547 63.4396 323.624 63.0906 324.73 63.0827C325.808 63.0767 326.861 63.402 327.747 64.0145C328.68 64.691 329.374 65.6454 329.731 66.7407L340.724 98.904L352.134 66.5275C352.505 65.4625 353.208 64.5439 354.138 63.9055Z" fill="url(#paint2_linear)"/>
<path d="M432.018 64.6985C432.515 65.2291 432.902 65.8524 433.158 66.5329C433.413 67.2133 433.532 67.9375 433.506 68.6638V108.941C433.538 109.681 433.422 110.421 433.167 111.117C432.911 111.812 432.521 112.451 432.018 112.996C431.522 113.509 430.924 113.912 430.261 114.177C429.598 114.443 428.887 114.566 428.173 114.537C427.383 114.564 426.596 114.41 425.874 114.087C425.152 113.764 424.513 113.28 424.006 112.673L399.936 81.8731V108.941C400.005 110.421 399.504 111.872 398.537 112.996C398.059 113.511 397.474 113.916 396.823 114.183C396.172 114.449 395.47 114.57 394.767 114.537C394.059 114.567 393.352 114.445 392.695 114.179C392.038 113.913 391.445 113.51 390.957 112.996C389.968 111.883 389.452 110.428 389.519 108.941V68.6786C389.493 67.9523 389.612 67.2282 389.867 66.5478C390.123 65.8673 390.51 65.2439 391.007 64.7134C391.502 64.1993 392.101 63.7958 392.764 63.5292C393.426 63.2627 394.138 63.1392 394.852 63.1669C395.635 63.1263 396.416 63.2749 397.129 63.6002C397.843 63.9255 398.467 64.4179 398.949 65.0355L423.019 95.6177V68.6786C422.962 67.2208 423.477 65.7984 424.453 64.7134C424.928 64.2029 425.508 63.8005 426.152 63.5337C426.797 63.2669 427.491 63.1418 428.188 63.1669C428.899 63.1394 429.607 63.2616 430.266 63.5255C430.926 63.7894 431.523 64.189 432.018 64.6985Z" fill="url(#paint3_linear)"/>
<path d="M491.33 109.6C491.334 110.253 491.192 110.899 490.912 111.489C490.633 112.079 490.225 112.599 489.717 113.01C488.7 113.919 487.381 114.417 486.017 114.408C485.099 114.409 484.201 114.147 483.427 113.655C482.583 113.116 481.93 112.325 481.562 111.395L477.732 102.924H453.374L449.569 111.395C449.204 112.318 448.563 113.107 447.734 113.655C446.953 114.156 446.043 114.418 445.115 114.408C443.739 114.415 442.408 113.917 441.374 113.01C440.857 112.605 440.44 112.087 440.154 111.496C439.868 110.905 439.72 110.257 439.722 109.6C439.753 108.804 439.949 108.022 440.298 107.305L459.699 66.5969C460.188 65.4925 461.019 64.5748 462.071 63.9798C463.111 63.386 464.29 63.0765 465.488 63.0826C466.687 63.0887 467.862 63.4101 468.897 64.0145C469.939 64.627 470.785 65.5226 471.338 66.5969L490.739 107.305C491.093 108.021 491.294 108.803 491.33 109.6ZM473.967 94.4529L465.633 75.7864L457.229 94.4529H473.967Z" fill="url(#paint4_linear)"/>
<path d="M546.331 64.6985C546.828 65.2291 547.215 65.8525 547.47 66.5329C547.726 67.2134 547.844 67.9375 547.819 68.6638V109.442C547.856 110.124 547.754 110.806 547.52 111.448C547.285 112.089 546.923 112.677 546.455 113.174C545.981 113.634 545.418 113.992 544.8 114.227C544.182 114.461 543.523 114.567 542.863 114.537C542.214 114.563 541.566 114.455 540.961 114.22C540.355 113.986 539.803 113.63 539.341 113.174C538.872 112.677 538.51 112.089 538.276 111.448C538.041 110.806 537.939 110.124 537.977 109.442V84.1135L527.772 103.281C527.255 104.342 526.507 105.275 525.584 106.012C524.751 106.574 523.769 106.874 522.764 106.874C521.759 106.874 520.777 106.574 519.944 106.012C519 105.286 518.237 104.351 517.717 103.281L507.497 84.4753V109.457C507.528 110.133 507.423 110.808 507.189 111.443C506.954 112.078 506.595 112.66 506.133 113.154C505.166 114.047 503.9 114.546 502.583 114.552C501.266 114.559 499.995 114.072 499.019 113.189C498.55 112.692 498.187 112.105 497.952 111.463C497.718 110.821 497.616 110.139 497.655 109.457V68.6787C497.63 67.9524 497.748 67.2283 498.003 66.5478C498.259 65.8674 498.646 65.244 499.143 64.7134C499.638 64.1988 500.237 63.795 500.9 63.5284C501.562 63.2618 502.274 63.1386 502.988 63.1669C505.286 63.1669 507.034 64.3879 508.231 66.8299L522.816 94.4678L537.332 66.8299C538.622 64.3846 540.345 63.1636 542.501 63.1669C543.211 63.1395 543.919 63.2617 544.579 63.5255C545.239 63.7894 545.836 64.1891 546.331 64.6985Z" fill="url(#paint5_linear)"/>
<path d="M559.373 112.758C558.46 111.851 558.008 110.557 558.008 108.882V68.7331C558.008 67.0578 558.46 65.7592 559.373 64.8571C560.285 63.955 561.575 63.494 563.252 63.494H588.686C592.231 63.494 594.004 64.9298 594.004 67.8013C594.004 70.6728 592.231 72.1317 588.686 72.178H568.927V84.0242H587.252C590.794 84.0242 592.565 85.4831 592.565 88.4009C592.565 91.3187 590.794 92.7545 587.252 92.7082H568.927V105.417H588.686C592.231 105.417 594.004 106.876 594.004 109.794C594.004 112.711 592.231 114.147 588.686 114.101H563.252C561.57 114.121 560.28 113.67 559.373 112.758Z" fill="url(#paint6_linear)"/>
<defs>
<linearGradient id="paint0_linear" x1="214.426" y1="114.552" x2="214.426" y2="63.152" gradientUnits="userSpaceOnUse">
<stop offset="0.24" stop-color="#8CD8FF"/>
<stop offset="0.25" stop-color="#8AD9FF"/>
<stop offset="0.52" stop-color="#4BEDFF"/>
<stop offset="0.72" stop-color="#23FAFF"/>
<stop offset="0.82" stop-color="#14FFFF"/>
</linearGradient>
<linearGradient id="paint1_linear" x1="264.461" y1="114.111" x2="264.461" y2="63.486" gradientUnits="userSpaceOnUse">
<stop offset="0.24" stop-color="#8CD8FF"/>
<stop offset="0.25" stop-color="#8AD9FF"/>
<stop offset="0.52" stop-color="#4BEDFF"/>
<stop offset="0.72" stop-color="#23FAFF"/>
<stop offset="0.82" stop-color="#14FFFF"/>
</linearGradient>
<linearGradient id="paint2_linear" x1="324.397" y1="114.72" x2="324.397" y2="62.9981" gradientUnits="userSpaceOnUse">
<stop offset="0.24" stop-color="#8CD8FF"/>
<stop offset="0.25" stop-color="#8AD9FF"/>
<stop offset="0.52" stop-color="#4BEDFF"/>
<stop offset="0.72" stop-color="#23FAFF"/>
<stop offset="0.82" stop-color="#14FFFF"/>
</linearGradient>
<linearGradient id="paint3_linear" x1="411.505" y1="114.552" x2="411.505" y2="63.1522" gradientUnits="userSpaceOnUse">
<stop offset="0.24" stop-color="#8CD8FF"/>
<stop offset="0.25" stop-color="#8AD9FF"/>
<stop offset="0.52" stop-color="#4BEDFF"/>
<stop offset="0.72" stop-color="#23FAFF"/>
<stop offset="0.82" stop-color="#14FFFF"/>
</linearGradient>
<linearGradient id="paint4_linear" x1="465.518" y1="114.418" x2="465.518" y2="63.0744" gradientUnits="userSpaceOnUse">
<stop offset="0.24" stop-color="#8CD8FF"/>
<stop offset="0.25" stop-color="#8AD9FF"/>
<stop offset="0.52" stop-color="#4BEDFF"/>
<stop offset="0.72" stop-color="#23FAFF"/>
<stop offset="0.82" stop-color="#14FFFF"/>
</linearGradient>
<linearGradient id="paint5_linear" x1="522.729" y1="114.562" x2="522.729" y2="63.1548" gradientUnits="userSpaceOnUse">
<stop offset="0.24" stop-color="#8CD8FF"/>
<stop offset="0.25" stop-color="#8AD9FF"/>
<stop offset="0.52" stop-color="#4BEDFF"/>
<stop offset="0.72" stop-color="#23FAFF"/>
<stop offset="0.82" stop-color="#14FFFF"/>
</linearGradient>
<linearGradient id="paint6_linear" x1="576.001" y1="114.111" x2="576.001" y2="63.486" gradientUnits="userSpaceOnUse">
<stop offset="0.24" stop-color="#8CD8FF"/>
<stop offset="0.25" stop-color="#8AD9FF"/>
<stop offset="0.52" stop-color="#4BEDFF"/>
<stop offset="0.72" stop-color="#23FAFF"/>
<stop offset="0.82" stop-color="#14FFFF"/>
</linearGradient>
</defs>
</svg>
