<svg width="533" height="413" viewBox="0 0 533 413" fill="none" xmlns="http://www.w3.org/2000/svg">
<path d="M259.5 249.439C259.5 255.135 256.207 260.343 250.78 264.148C245.354 267.951 237.832 270.32 229.5 270.32C221.168 270.32 213.646 267.951 208.22 264.148C202.793 260.343 199.5 255.135 199.5 249.439C199.5 243.742 202.793 238.534 208.22 234.73C213.646 230.926 221.168 228.558 229.5 228.558C237.832 228.558 245.354 230.926 250.78 234.73C256.207 238.534 259.5 243.742 259.5 249.439Z" fill="#FFE321" stroke="black"/>
<path d="M347.139 191.453C347.139 200.765 341.753 209.246 332.943 215.42C324.135 221.593 311.94 225.427 298.446 225.427C284.951 225.427 272.756 221.593 263.948 215.42C255.138 209.246 249.752 200.765 249.752 191.453C249.752 182.141 255.138 173.659 263.948 167.485C272.756 161.312 284.951 157.479 298.446 157.479C311.94 157.479 324.135 161.312 332.943 167.485C341.753 173.659 347.139 182.141 347.139 191.453Z" fill="#FFE321" stroke="black"/>
<path d="M532.314 70.8702C532.314 80.4933 527.943 89.6981 519.964 98.1121C511.982 106.529 500.409 114.131 486.07 120.526C457.392 133.317 417.74 141.24 373.915 141.24C330.09 141.24 290.438 133.317 261.761 120.526C247.421 114.131 235.848 106.529 227.866 98.1121C219.887 89.6981 215.517 80.4933 215.517 70.8702C215.517 61.2472 219.887 52.0424 227.866 43.6284C235.848 35.2118 247.421 27.6095 261.761 21.2141C290.438 8.42376 330.09 0.5 373.915 0.5C417.74 0.5 457.392 8.42376 486.07 21.2141C500.409 27.6095 511.982 35.2118 519.964 43.6284C527.943 52.0424 532.314 61.2472 532.314 70.8702Z" fill="#FFE321" stroke="black"/>
<path d="M68.636 319.307V415.43C83.2259 415.969 97.7999 416.46 112.374 416.666V319.307H68.636Z" fill="#D6A976"/>
<path d="M112.358 329.068V321.145H68.636V326.739C74.1865 339.622 93.7242 341.143 106.332 335.549C107.722 334.931 108.972 334.038 110.008 332.924C111.044 331.811 111.843 330.499 112.358 329.068Z" fill="#C69C6D"/>
<path d="M167.466 415.7C165.674 407.571 163.724 399.489 161.71 392.342C157.285 376.575 153.194 364.5 153.098 364.405C147.469 357.164 143.583 357.528 134.465 352.616C126.995 348.559 121.651 347.434 112.627 345.865C112.469 345.865 112.39 345.643 112.374 345.786C109.979 358.542 97.0068 364.326 87.9198 364.326C80.3236 364.326 68.4772 355.5 68.6358 345.453C68.6358 345.263 62.9585 346.705 59.7075 347.244C35.2536 351.411 27.9903 362.504 25.3737 369.128C23.9122 373.009 22.1078 376.753 19.9818 380.315L0 413.45C12.4807 413.545 24.9614 413.877 37.4262 414.305L43.7227 400.465L42.152 414.464C83.9235 415.922 125.695 418.108 167.466 415.7Z" fill="#0000FF"/>
<path d="M59.7392 271.435C56.5675 269.724 53.6336 279.58 51.3817 276.934C51.2549 276.807 48.1149 257.443 48.099 257.395C43.8489 246.414 31.4792 238.38 29.9092 231.518C28.0855 223.595 43.5635 213.263 53.1579 207.749C61.325 202.995 68.1918 201.189 85.9375 200.238C94.6756 199.778 105.063 199.446 119.034 204.659C135.178 210.665 142.188 219.475 141.95 241.803C141.76 260.042 138.191 270.595 136.732 273.765C134.893 277.805 131.975 285.507 128.978 286.996C110.55 295.949 86.9207 286.442 59.7392 271.435Z" fill="black"/>
<path d="M52.238 250.486C52.238 254.4 52.238 260.232 52.0477 267.363C52.0477 268.107 52.0477 269.819 51.9367 271.784C51.8257 277.156 51.7147 281.006 51.6988 281.482C51.364 289.226 52.2251 296.976 54.252 304.459C54.9181 307.374 58.518 313.729 63.339 319.639C65.8763 322.809 79.5306 335.137 87.5391 334.979C100.131 334.757 108.726 328.181 115.878 320.717C120.128 316.312 125.917 311.906 128.311 301.226C129.39 296.472 131.071 294.507 131.673 279.945V279.834C131.673 279.422 131.673 278.978 131.673 278.534C131.673 277.14 131.8 275.619 131.88 273.971C132.022 270.5 132.165 267.553 132.292 265.017C132.794 258.711 132.517 252.367 131.467 246.129C131.34 244.544 130.421 241.185 127.566 235.321C125.663 231.439 123.792 222.739 108.203 223.468C103.334 223.706 84.5101 230.203 78.1984 232.422C77.6234 232.613 77.0056 232.635 76.4183 232.486C75.8309 232.337 75.2985 232.023 74.884 231.582C72.4894 228.904 66.6376 224.324 58.0739 229.712C53.808 232.39 53.3164 236.827 52.7296 243.514C52.3915 245.823 52.2271 248.153 52.238 250.486Z" fill="#DAAD7A"/>
<path d="M112.373 268.968C114.721 268.968 116.623 267.067 116.623 264.721C116.623 262.376 114.721 260.475 112.373 260.475C110.026 260.475 108.123 262.376 108.123 264.721C108.123 267.067 110.026 268.968 112.373 268.968Z" fill="black"/>
<path d="M76.7076 270.569C79.0549 270.569 80.9577 268.667 80.9577 266.322C80.9577 263.977 79.0549 262.075 76.7076 262.075C74.3603 262.075 72.4575 263.977 72.4575 266.322C72.4575 268.667 74.3603 270.569 76.7076 270.569Z" fill="black"/>
<path d="M100.686 258.906C100.686 258.906 109.028 258.002 111.787 257.844C114.261 257.701 121.715 257.622 121.715 257.622C122.396 257.622 122.809 256.972 122.492 256.481L121.984 255.705C121.567 255.124 121.005 254.663 120.354 254.368C119.702 254.073 118.985 253.955 118.273 254.025C118.273 254.025 115.276 253.629 114.261 253.581C111.891 253.562 109.522 253.71 107.172 254.025C106.268 254.168 103.636 254.912 103.636 254.912C102.919 254.93 102.219 255.135 101.607 255.508C100.995 255.88 100.491 256.407 100.147 257.036L99.7505 257.86C99.5126 258.399 100.004 258.953 100.686 258.906Z" fill="black"/>
<path d="M85.561 307.13L80.8544 306.857L76.1479 306.585C75.7145 306.587 76.4911 307.099 76.7918 307.368C78.3054 308.733 83.7057 309.466 89.9357 309.048C97.0835 308.538 104.936 304.648 104.947 302.847L92.5228 306.577C90.2342 306.985 87.8984 307.171 85.561 307.13Z" fill="#C69C6D"/>
<path d="M63.1169 261.473L69.8885 260.11C72.6273 259.559 75.4234 259.346 78.2142 259.476L84.1294 259.761C84.8113 259.761 85.2237 259.096 84.8906 258.605L84.3673 257.828C83.9516 257.325 83.428 256.921 82.8351 256.646C82.2422 256.372 81.5952 256.234 80.9419 256.244C80.3345 256.196 79.7339 256.084 79.1498 255.911C75.9179 254.96 72.4658 255.071 69.3017 256.228L68.2233 256.624L67.3194 256.909L65.2736 257.543C64.6964 257.662 64.1532 257.909 63.684 258.266C63.2147 258.622 62.8313 259.079 62.5618 259.603L62.1812 260.443C61.9275 260.918 62.4349 261.536 63.1169 261.473Z" fill="black"/>
<path d="M107.981 365.816C108.599 360.349 103.049 358.78 103.667 352.362C104.207 346.848 115.418 337.72 115.926 332.523C116.687 324.758 122.935 320.163 120.398 315.234C119.648 314.148 118.515 313.384 117.226 313.095C116.684 312.934 116.101 312.972 115.584 313.201C115.067 313.431 114.648 313.837 114.404 314.347C113.975 315.219 113.389 316.629 112.564 318.863C112.326 319.529 112.104 320.194 111.914 320.892C109.44 329.575 103.778 329.623 96.2931 334.662L93.9619 336.247C91.7893 337.594 87.3806 334.884 83.8917 332.602C83.8917 332.602 71.3952 313.064 58.629 314.997C57.7568 315.124 57.2969 315.963 56.948 316.851C56.171 318.832 64.0368 324.267 64.243 324.409C68.8102 327.579 70.0313 335.66 68.6675 336.738C59.8977 343.758 70.063 351.697 72.8383 356.863C76.1844 363.09 78.1668 361.49 84.6529 369.397C88.1577 373.66 87.333 376.243 90.2351 377.51C96.0235 380.014 107.156 373.153 107.981 365.816Z" fill="#E0B380"/>
<path d="M108.06 360.396C107.878 360.218 107.641 360.107 107.387 360.081C107.134 360.055 106.879 360.116 106.664 360.253L84.8748 374.515C84.7378 374.609 84.6232 374.731 84.5392 374.874C84.4551 375.017 84.4036 375.176 84.3885 375.341C84.3733 375.506 84.3949 375.673 84.4515 375.828C84.5081 375.984 84.5985 376.126 84.7162 376.242L127.534 416.793C139.555 416.793 151.592 416.539 163.628 415.921L108.06 360.396Z" fill="#2B2BFF"/>
<path d="M337.333 72.816C336.437 72.816 335.765 72.544 335.317 72C334.869 71.456 334.677 70.688 334.741 69.696C334.869 68.224 335.253 67.008 335.893 66.048C336.533 65.056 337.413 64 338.533 62.88C339.397 62.016 340.021 61.312 340.405 60.768C340.789 60.224 340.981 59.6 340.981 58.896C340.981 58.192 340.693 57.632 340.117 57.216C339.541 56.768 338.757 56.544 337.765 56.544C335.941 56.544 333.749 57.216 331.189 58.56C330.581 58.88 330.021 59.04 329.509 59.04C328.677 59.04 327.989 58.72 327.445 58.08C326.901 57.408 326.629 56.64 326.629 55.776C326.629 55.168 326.773 54.576 327.061 54C327.381 53.424 327.845 52.928 328.453 52.512C329.925 51.552 331.509 50.848 333.205 50.4C334.933 49.952 336.853 49.728 338.965 49.728C342.197 49.728 344.789 50.464 346.741 51.936C348.725 53.376 349.717 55.312 349.717 57.744C349.717 58.992 349.445 60.112 348.901 61.104C348.389 62.096 347.765 62.944 347.029 63.648C346.293 64.32 345.317 65.136 344.101 66.096C342.885 67.024 341.941 67.824 341.269 68.496C340.629 69.136 340.213 69.84 340.021 70.608C339.861 71.312 339.525 71.856 339.013 72.24C338.533 72.624 337.973 72.816 337.333 72.816ZM336.613 84.288C335.301 84.288 334.197 83.84 333.301 82.944C332.437 82.048 332.005 80.944 332.005 79.632C332.005 78.32 332.437 77.216 333.301 76.32C334.197 75.424 335.301 74.976 336.613 74.976C337.957 74.976 339.061 75.424 339.925 76.32C340.821 77.216 341.269 78.32 341.269 79.632C341.269 80.944 340.821 82.048 339.925 82.944C339.061 83.84 337.957 84.288 336.613 84.288ZM373.99 72.816C373.094 72.816 372.422 72.544 371.974 72C371.526 71.456 371.334 70.688 371.398 69.696C371.526 68.224 371.91 67.008 372.55 66.048C373.19 65.056 374.07 64 375.19 62.88C376.054 62.016 376.678 61.312 377.062 60.768C377.446 60.224 377.638 59.6 377.638 58.896C377.638 58.192 377.35 57.632 376.774 57.216C376.198 56.768 375.414 56.544 374.422 56.544C372.598 56.544 370.406 57.216 367.846 58.56C367.238 58.88 366.678 59.04 366.166 59.04C365.334 59.04 364.646 58.72 364.102 58.08C363.558 57.408 363.286 56.64 363.286 55.776C363.286 55.168 363.43 54.576 363.718 54C364.038 53.424 364.502 52.928 365.11 52.512C366.582 51.552 368.166 50.848 369.862 50.4C371.59 49.952 373.51 49.728 375.622 49.728C378.854 49.728 381.446 50.464 383.398 51.936C385.382 53.376 386.374 55.312 386.374 57.744C386.374 58.992 386.102 60.112 385.558 61.104C385.046 62.096 384.422 62.944 383.686 63.648C382.95 64.32 381.974 65.136 380.758 66.096C379.542 67.024 378.598 67.824 377.926 68.496C377.286 69.136 376.87 69.84 376.678 70.608C376.518 71.312 376.182 71.856 375.67 72.24C375.19 72.624 374.63 72.816 373.99 72.816ZM373.27 84.288C371.958 84.288 370.854 83.84 369.958 82.944C369.094 82.048 368.662 80.944 368.662 79.632C368.662 78.32 369.094 77.216 369.958 76.32C370.854 75.424 371.958 74.976 373.27 74.976C374.614 74.976 375.718 75.424 376.582 76.32C377.478 77.216 377.926 78.32 377.926 79.632C377.926 80.944 377.478 82.048 376.582 82.944C375.718 83.84 374.614 84.288 373.27 84.288ZM410.646 72.816C409.75 72.816 409.078 72.544 408.63 72C408.182 71.456 407.99 70.688 408.054 69.696C408.182 68.224 408.566 67.008 409.206 66.048C409.846 65.056 410.726 64 411.846 62.88C412.71 62.016 413.334 61.312 413.718 60.768C414.102 60.224 414.294 59.6 414.294 58.896C414.294 58.192 414.006 57.632 413.43 57.216C412.854 56.768 412.07 56.544 411.078 56.544C409.254 56.544 407.062 57.216 404.502 58.56C403.894 58.88 403.334 59.04 402.822 59.04C401.99 59.04 401.302 58.72 400.758 58.08C400.214 57.408 399.942 56.64 399.942 55.776C399.942 55.168 400.086 54.576 400.374 54C400.694 53.424 401.158 52.928 401.766 52.512C403.238 51.552 404.822 50.848 406.518 50.4C408.246 49.952 410.166 49.728 412.278 49.728C415.51 49.728 418.102 50.464 420.054 51.936C422.038 53.376 423.03 55.312 423.03 57.744C423.03 58.992 422.758 60.112 422.214 61.104C421.702 62.096 421.078 62.944 420.342 63.648C419.606 64.32 418.63 65.136 417.414 66.096C416.198 67.024 415.254 67.824 414.582 68.496C413.942 69.136 413.526 69.84 413.334 70.608C413.174 71.312 412.838 71.856 412.326 72.24C411.846 72.624 411.286 72.816 410.646 72.816ZM409.926 84.288C408.614 84.288 407.51 83.84 406.614 82.944C405.75 82.048 405.318 80.944 405.318 79.632C405.318 78.32 405.75 77.216 406.614 76.32C407.51 75.424 408.614 74.976 409.926 74.976C411.27 74.976 412.374 75.424 413.238 76.32C414.134 77.216 414.582 78.32 414.582 79.632C414.582 80.944 414.134 82.048 413.238 82.944C412.374 83.84 411.27 84.288 409.926 84.288Z" fill="black"/>
</svg>
