<svg width="71" height="294" viewBox="0 0 71 294" fill="none" xmlns="http://www.w3.org/2000/svg">
<line x1="36" y1="8.74228e-08" x2="36" y2="234" stroke="black" stroke-width="4"/>
<path d="M41.3963 251.693C44.4848 251.757 47.5517 252.225 50.5185 253.086C50.5512 253.121 50.5361 253.101 50.4933 253.046C50.579 253.084 50.6698 253.108 50.7628 253.119C49.62 251.674 48.5594 250.166 47.5861 248.602L45.2054 244.239C44.7771 243.455 43.8248 242.949 42.7768 242.954H39.5169C39.4817 242.997 39.4411 243.036 39.396 243.07C39.8643 245.987 40.5326 248.868 41.3963 251.693Z" fill="#F5FF12"/>
<path d="M31.5158 251.345C31.3395 251.87 31.1682 252.421 30.9792 252.98C33.6446 252.137 36.7231 251.721 39.8218 251.683C38.9768 248.824 38.3196 245.913 37.8543 242.969L31.9114 242.987C32.9115 245.748 32.4303 248.615 31.5158 251.345Z" fill="#F5FF12"/>
<path d="M26.9685 275.623C26.9685 275.623 26.9685 275.608 26.9685 275.601L26.6914 275.477C20.9223 271.497 19.902 264.34 24.0059 257.704C25.0967 255.941 26.9181 254.608 29.1628 253.643C29.5054 252.749 29.7699 251.837 30.047 251.008C30.896 248.468 31.3747 245.831 30.4274 243.266C30.3974 243.174 30.3974 243.074 30.4274 242.982H29.5784C28.5304 242.982 27.5807 243.485 27.1574 244.284L24.7893 248.685C24.0864 249.952 23.1829 251.098 22.1139 252.076C19.2092 254.799 17.4533 258.374 17.4659 262.271C17.4835 268 21.3077 272.986 26.9685 275.623Z" fill="#F5FF12"/>
<path d="M50.5186 253.086C47.5518 252.225 44.4849 251.757 41.3964 251.693C41.7692 252.887 42.1849 254.074 42.656 255.248C42.6738 255.294 42.6865 255.342 42.6938 255.391C43.0414 256.147 41.5702 256.472 41.2251 255.729C40.6003 254.371 39.0333 253.268 37.2698 254.114C36.0404 254.706 34.9244 255.646 34.4987 256.777C34.4806 256.843 34.4587 256.908 34.4332 256.971C34.1359 257.727 32.7377 257.429 32.9644 256.643C33.239 255.941 32.9166 255.132 31.9064 255.049C31.2564 254.988 30.7173 255.301 30.2361 255.623C29.9993 255.787 29.7726 255.961 29.5584 256.142C29.0659 256.96 28.4139 257.67 27.6413 258.231C27.0039 258.682 25.9886 258.117 26.4421 257.475C27.009 256.655 27.6693 255.905 28.4096 255.238C28.6945 254.724 28.9404 254.191 29.1453 253.64C26.9006 254.605 25.0792 255.943 23.9884 257.702C19.8795 264.327 20.9048 271.484 26.6714 275.465L26.9485 275.588C29.8887 276.898 33.0851 277.531 36.3025 277.442C46.3543 277.228 54.431 270.3 54.3378 261.987C54.3 258.669 52.9774 255.613 50.7755 253.124H50.7629C50.6699 253.113 50.5791 253.089 50.4934 253.051C50.5362 253.101 50.5513 253.122 50.5186 253.086ZM48.7551 270.444C46.5911 273.265 42.9029 274.553 40.5172 273.321C38.1314 272.089 37.95 268.804 40.1141 265.985C42.2781 263.166 45.9663 261.876 48.352 263.108C50.7377 264.34 50.9191 267.625 48.7551 270.444Z" fill="#F5FF55"/>
<path d="M30.6292 253.96C30.8756 253.886 31.1287 253.835 31.3849 253.809C31.8795 253.743 32.3827 253.798 32.8511 253.971C33.3195 254.143 33.7389 254.426 34.073 254.797C35.0038 253.741 36.2339 252.993 37.5999 252.653C38.4767 252.452 39.3949 252.541 40.2174 252.905C40.0839 252.502 39.9529 252.096 39.8294 251.691C36.7308 251.731 33.6522 252.144 30.9869 252.988C30.8685 253.305 30.7526 253.633 30.6292 253.96Z" fill="#F5FF55"/>
<path d="M59.23 260.83C59.23 261.385 59.7792 261.838 60.4543 261.838L69.7756 261.808C70.4507 261.808 70.9949 261.354 70.9924 260.8C70.9898 260.246 70.4432 259.792 69.768 259.792L60.4468 259.823C59.7741 259.828 59.2275 260.279 59.23 260.83Z" fill="#F5FF12"/>
<path d="M16.0324 275.387L9.73424 280.586C9.62328 280.668 9.53311 280.775 9.47097 280.898C9.40884 281.022 9.37646 281.158 9.37646 281.296C9.37646 281.433 9.40884 281.57 9.47097 281.693C9.53311 281.816 9.62328 281.923 9.73424 282.005C9.98206 282.195 10.2858 282.298 10.5983 282.298C10.9109 282.298 11.2146 282.195 11.4624 282.005L17.7606 276.805C17.8715 276.723 17.9617 276.616 18.0238 276.493C18.086 276.37 18.1183 276.234 18.1183 276.096C18.1183 275.958 18.086 275.822 18.0238 275.699C17.9617 275.575 17.8715 275.469 17.7606 275.387C17.5127 275.196 17.209 275.093 16.8965 275.093C16.5839 275.093 16.2802 275.196 16.0324 275.387Z" fill="#F5FF12"/>
<path d="M35.7733 281.602C34.9419 281.602 34.2617 282.161 34.2617 282.846L34.2919 292.48C34.2919 293.163 34.9721 293.714 35.8035 293.712C36.6349 293.712 37.315 293.152 37.315 292.47L37.2848 282.836C37.2848 282.141 36.6122 281.599 35.7733 281.602Z" fill="#F5FF12"/>
<path d="M54.8491 275.276C54.5981 275.083 54.2903 274.978 53.9736 274.978C53.657 274.978 53.3492 275.083 53.0982 275.276C52.9852 275.359 52.8933 275.467 52.83 275.592C52.7666 275.717 52.7336 275.855 52.7336 275.995C52.7336 276.135 52.7666 276.273 52.83 276.398C52.8933 276.523 52.9852 276.632 53.0982 276.714L60.1949 282.509C60.4454 282.703 60.7534 282.808 61.0703 282.808C61.3873 282.808 61.6953 282.703 61.9458 282.509C62.0588 282.426 62.1507 282.318 62.214 282.193C62.2773 282.068 62.3103 281.929 62.3103 281.789C62.3103 281.649 62.2773 281.511 62.214 281.386C62.1507 281.261 62.0588 281.153 61.9458 281.07L54.8491 275.276Z" fill="#F5FF12"/>
<path d="M1.22436 262.019L11.0494 261.987C11.7246 261.987 12.2713 261.533 12.2688 260.979C12.2662 260.425 11.7196 259.971 11.0444 259.971L1.21933 260.002C0.544167 260.002 -0.00251058 260.455 8.67222e-06 261.009C0.00252792 261.563 0.549205 262.019 1.22436 262.019Z" fill="#F5FF12"/>
<path d="M47.5132 271.756C50.2482 269.382 51.0871 265.869 49.387 263.911C47.6869 261.952 44.0916 262.289 41.3566 264.663C38.6217 267.037 37.7827 270.55 39.4828 272.508C41.1829 274.467 44.7783 274.13 47.5132 271.756Z" fill="#F5FF98"/>
<path d="M12.8861 269.673L12.8533 269.602C12.7461 269.416 12.5772 269.273 12.3757 269.198C12.1742 269.123 11.9528 269.121 11.7499 269.192L6.38894 270.857C5.94555 270.996 5.72134 271.401 5.88509 271.764L5.91784 271.837C6.02543 272.023 6.19455 272.165 6.396 272.24C6.59746 272.314 6.8186 272.316 7.02127 272.245L12.3822 270.58C12.8281 270.441 13.0524 270.048 12.8861 269.673Z" fill="#F5CE12"/>
<path d="M8.06159 251.759L12.9086 254.263C13.1039 254.368 13.3292 254.403 13.5472 254.363C13.7651 254.322 13.9629 254.209 14.1078 254.041L14.1582 253.976C14.2166 253.898 14.2564 253.808 14.2745 253.712C14.2925 253.616 14.2883 253.518 14.2623 253.424C14.2362 253.331 14.189 253.244 14.1242 253.171C14.0594 253.099 13.9788 253.042 13.8886 253.006L9.03402 250.504C8.84074 250.403 8.61917 250.37 8.4049 250.41C8.19063 250.451 7.99608 250.562 7.8525 250.726L7.80463 250.789C7.74536 250.866 7.70455 250.955 7.68536 251.05C7.66616 251.145 7.6691 251.243 7.69394 251.337C7.71878 251.431 7.76486 251.518 7.82861 251.591C7.89236 251.664 7.97208 251.721 8.06159 251.759Z" fill="#F5CE12"/>
<path d="M57.2146 253.308L57.2675 253.368C57.417 253.528 57.6156 253.633 57.8316 253.666C58.0476 253.699 58.2685 253.659 58.4591 253.552L63.1928 250.902C63.2811 250.862 63.359 250.802 63.4205 250.727C63.4819 250.652 63.5253 250.564 63.5472 250.469C63.5691 250.375 63.569 250.276 63.5469 250.182C63.5247 250.088 63.4812 249.999 63.4195 249.925L63.3666 249.862C63.2169 249.703 63.0183 249.598 62.8024 249.565C62.5865 249.531 62.3657 249.571 62.175 249.678L57.4388 252.328C57.3503 252.368 57.2722 252.428 57.2107 252.504C57.1493 252.579 57.106 252.668 57.0843 252.762C57.0626 252.857 57.0631 252.956 57.0857 253.05C57.1083 253.145 57.1524 253.233 57.2146 253.308Z" fill="#F5CE12"/>
<path d="M64.7194 271.076L59.749 268.741C59.5542 268.645 59.3329 268.618 59.1208 268.664C58.9087 268.71 58.7182 268.825 58.58 268.993L58.5347 269.058C58.4803 269.139 58.4452 269.232 58.4319 269.328C58.4187 269.425 58.4278 269.523 58.4584 269.616C58.489 269.708 58.5404 269.793 58.6087 269.863C58.6769 269.932 58.7602 269.985 58.8521 270.018L63.8201 272.353C64.0148 272.449 64.2362 272.477 64.4484 272.431C64.6606 272.385 64.8511 272.269 64.989 272.101L65.0369 272.036C65.0912 271.955 65.1264 271.863 65.1396 271.766C65.1528 271.669 65.1438 271.571 65.1132 271.478C65.0825 271.386 65.0311 271.301 64.9629 271.232C64.8947 271.162 64.8114 271.109 64.7194 271.076Z" fill="#F5CE12"/>
<path d="M46.2081 281.11C46.0926 280.928 45.9175 280.792 45.7126 280.724C45.5077 280.657 45.2857 280.662 45.0845 280.74L44.9989 280.77C44.563 280.921 44.359 281.335 44.5454 281.692L46.7875 286.018C46.9035 286.2 47.079 286.337 47.2844 286.404C47.4897 286.472 47.7121 286.466 47.9136 286.388L47.9968 286.358C48.4326 286.207 48.6367 285.794 48.4502 285.436L46.2081 281.11Z" fill="#F5CE12"/>
<path d="M25.7744 281.07L25.6938 281.03C25.5005 280.929 25.279 280.896 25.0647 280.936C24.8504 280.976 24.6559 281.087 24.5123 281.251L21.459 285.232C21.3999 285.309 21.3596 285.399 21.3411 285.495C21.3226 285.59 21.3264 285.689 21.3523 285.783C21.3781 285.877 21.4253 285.963 21.4901 286.036C21.5549 286.109 21.6357 286.165 21.726 286.202L21.8041 286.242C21.9972 286.343 22.2185 286.376 22.4326 286.336C22.6468 286.296 22.8415 286.186 22.9856 286.023L26.0415 282.04C26.1 281.962 26.1399 281.872 26.1581 281.777C26.1763 281.681 26.1724 281.583 26.1466 281.489C26.1208 281.396 26.0738 281.309 26.0093 281.236C25.9448 281.164 25.8644 281.107 25.7744 281.07Z" fill="#F5CE12"/>
<path d="M30.4275 243.276C31.3748 245.841 30.8961 248.479 30.0471 251.018C29.77 251.847 29.5055 252.759 29.1629 253.653C28.958 254.203 28.7121 254.737 28.4273 255.25C27.6869 255.917 27.0266 256.668 26.4597 257.487C26.0063 258.127 27.0215 258.692 27.6589 258.243C28.4315 257.683 29.0835 256.972 29.576 256.155C29.7902 255.973 30.0169 255.8 30.2537 255.636C30.7349 255.303 31.2614 255.001 31.924 255.061C32.9317 255.157 33.2567 255.953 32.9821 256.656C32.7553 257.442 34.1535 257.749 34.4508 256.984C34.4763 256.92 34.4982 256.855 34.5163 256.79C34.932 255.658 36.048 254.719 37.2874 254.127C39.0509 253.28 40.6179 254.379 41.2427 255.742C41.5878 256.497 43.059 256.157 42.7114 255.404C42.7041 255.355 42.6914 255.307 42.6736 255.26C42.2 254.086 41.7843 252.9 41.414 251.706C40.5448 248.884 39.8706 246.006 39.3961 243.092C39.4411 243.059 39.4818 243.02 39.517 242.977H37.8543C38.3196 245.921 38.9768 248.832 39.8218 251.691C39.9453 252.096 40.0737 252.502 40.2098 252.905C39.3873 252.541 38.4691 252.452 37.5923 252.653C36.2263 252.993 34.9962 253.741 34.0653 254.797C33.7312 254.426 33.3118 254.143 32.8435 253.971C32.3751 253.799 31.8719 253.743 31.3773 253.809C31.1211 253.835 30.8679 253.886 30.6215 253.96C30.745 253.633 30.8734 253.305 30.9717 252.981C31.1606 252.421 31.3319 251.87 31.5083 251.346C32.4228 248.615 32.904 245.748 31.9038 242.987H30.4099C30.3844 243.083 30.3906 243.184 30.4275 243.276Z" fill="#F5FFD0"/>
<path d="M28.7344 240.173L42.7289 240.127C42.8184 240.121 42.9073 240.146 42.9813 240.197C43.0553 240.247 43.1101 240.321 43.137 240.407C43.8273 240.283 44.3437 239.78 44.3437 239.175C44.3437 238.575 43.8247 238.074 43.137 237.953C43.1244 238.052 43.074 238.142 42.9966 238.204C42.9191 238.267 42.8205 238.297 42.7213 238.288L28.7193 238.326C28.6299 238.332 28.5411 238.308 28.4668 238.257C28.3925 238.207 28.3369 238.134 28.3087 238.049C28.0424 238.115 27.8043 238.265 27.629 238.476C27.4536 238.687 27.3502 238.949 27.3337 239.223C27.3527 239.501 27.4611 239.765 27.6428 239.976C27.8244 240.187 28.0695 240.334 28.3414 240.394C28.3784 240.323 28.4352 240.264 28.505 240.225C28.5748 240.186 28.6545 240.167 28.7344 240.173Z" fill="#969696"/>
<path d="M28.7195 237.641L42.7114 237.598C42.8032 237.591 42.8948 237.615 42.9702 237.668C43.0456 237.721 43.1002 237.799 43.1246 237.888C43.8123 237.764 44.3288 237.26 44.3262 236.658C44.3262 236.056 43.8224 235.557 43.122 235.436V235.409C43.1112 235.509 43.0617 235.601 42.984 235.665C42.9063 235.729 42.8067 235.76 42.7064 235.751L28.7195 235.787C28.6193 235.796 28.5193 235.766 28.4414 235.702C28.3635 235.639 28.314 235.547 28.3038 235.446V235.535C28.0392 235.602 27.8028 235.752 27.6289 235.962C27.455 236.173 27.3526 236.433 27.3364 236.706C27.3547 236.982 27.4612 237.245 27.6404 237.456C27.8196 237.667 28.0619 237.815 28.3315 237.878C28.3665 237.805 28.4217 237.744 28.4905 237.702C28.5594 237.66 28.6389 237.639 28.7195 237.641Z" fill="#969696"/>
<path d="M31.9112 242.987L37.8541 242.969H39.5168H40.0005H42.807C43.1995 242.966 43.5799 242.832 43.8877 242.589C44.0257 242.483 44.1379 242.348 44.2161 242.193C44.2942 242.038 44.3361 241.868 44.3387 241.694C44.3387 241.097 43.8348 240.603 43.1521 240.475C43.1419 240.575 43.0925 240.667 43.0147 240.732C42.9369 240.796 42.8369 240.827 42.7364 240.817L28.7445 240.863C28.6516 240.871 28.5588 240.847 28.482 240.794C28.4052 240.741 28.3492 240.663 28.3238 240.573C28.0543 240.638 27.8127 240.787 27.6345 240.999C27.4563 241.212 27.3509 241.476 27.3337 241.752C27.3337 242.445 28.0215 243.012 28.8654 243.012H30.4173L31.9112 242.987Z" fill="#969696"/>
<path d="M28.7193 235.111L42.7112 235.066C42.8118 235.058 42.9118 235.089 42.9898 235.152C43.0679 235.216 43.118 235.308 43.1294 235.409V234.608C43.1238 234.156 42.9431 233.724 42.6256 233.403L28.8176 233.446C28.4984 233.768 28.3175 234.202 28.3137 234.655V235.454C28.3239 235.356 28.3719 235.265 28.4475 235.201C28.5231 235.137 28.6205 235.105 28.7193 235.111Z" fill="#969696"/>
<path d="M28.737 240.855L42.7289 240.81C42.8294 240.819 42.9294 240.788 43.0072 240.724C43.085 240.66 43.1344 240.568 43.1446 240.467C43.147 240.447 43.147 240.427 43.1446 240.407C43.1177 240.321 43.0629 240.247 42.9889 240.197C42.9149 240.146 42.826 240.121 42.7365 240.127L28.742 240.173C28.6617 240.169 28.582 240.188 28.5126 240.229C28.4432 240.27 28.3873 240.33 28.3516 240.402C28.3355 240.438 28.327 240.476 28.3264 240.515C28.3251 240.53 28.3251 240.546 28.3264 240.561C28.3505 240.649 28.4045 240.727 28.4793 240.781C28.5541 240.835 28.6451 240.861 28.737 240.855Z" fill="#646464"/>
<path d="M28.7195 238.326L42.7114 238.281C42.8106 238.289 42.9092 238.259 42.9867 238.197C43.0642 238.134 43.1145 238.044 43.1271 237.946C43.1283 237.929 43.1283 237.912 43.1271 237.895C43.1028 237.806 43.0482 237.729 42.9727 237.676C42.8973 237.623 42.8058 237.598 42.714 237.606L28.7195 237.641C28.636 237.638 28.5536 237.661 28.4831 237.706C28.4126 237.751 28.3572 237.816 28.324 237.893C28.3108 237.926 28.304 237.961 28.3038 237.996C28.3014 238.017 28.3014 238.038 28.3038 238.059C28.3341 238.143 28.3912 238.215 28.4663 238.263C28.5415 238.311 28.6305 238.334 28.7195 238.326Z" fill="#646464"/>
<path d="M28.7194 235.787L42.7138 235.744C42.8141 235.752 42.9138 235.721 42.9914 235.657C43.0691 235.593 43.1187 235.501 43.1295 235.401C43.1181 235.301 43.068 235.209 42.9899 235.145C42.9118 235.081 42.8119 235.05 42.7113 235.059L28.7194 235.111C28.6189 235.102 28.5189 235.133 28.4411 235.197C28.3633 235.261 28.3139 235.354 28.3037 235.454C28.3157 235.553 28.366 235.643 28.4437 235.705C28.5214 235.767 28.6204 235.797 28.7194 235.787Z" fill="#646464"/>
<path d="M40.7338 232.658H40.6633L31.2237 232.688H30.6795C30.3324 232.682 29.9878 232.746 29.6659 232.876C29.344 233.006 29.0513 233.199 28.8052 233.444L42.6132 233.401C42.3656 233.157 42.0717 232.966 41.7489 232.839C41.4261 232.711 41.0809 232.649 40.7338 232.658Z" fill="#646464"/>
<path d="M38.6302 231L33.2542 231.018C32.1356 231.018 31.2388 231.773 31.2388 232.688L40.6784 232.658C40.6582 231.738 39.7488 231 38.6302 231Z" fill="#323232"/>
<path d="M28 222C28 217.582 31.5817 214 36 214C40.4183 214 44 217.582 44 222V234H28V222Z" fill="black"/>
</svg>
