<svg width="166" height="135" viewBox="0 0 166 135" fill="none" xmlns="http://www.w3.org/2000/svg">
<g filter="url(#filter0_d)">
<path d="M108.167 21C105.413 21 102.955 22.0817 101.185 23.8517L39.3333 85.8017L16.815 63.185C15.045 61.415 12.5867 60.3333 9.83333 60.3333C4.425 60.3333 0 64.7583 0 70.1667C0 72.92 1.08167 75.3783 2.85167 77.1483L32.3517 106.648C34.1217 108.418 36.58 109.5 39.3333 109.5C42.0867 109.5 44.545 108.418 46.315 106.648L115.148 37.815C116.918 36.045 118 33.5867 118 30.8333C118 25.425 113.575 21 108.167 21Z" fill="white"/>
</g>
<defs>
<filter id="filter0_d" x="0" y="0" width="166" height="134.5" filterUnits="userSpaceOnUse" color-interpolation-filters="sRGB">
<feFlood flood-opacity="0" result="BackgroundImageFix"/>
<feColorMatrix in="SourceAlpha" type="matrix" values="0 0 0 0 0 0 0 0 0 0 0 0 0 0 0 0 0 0 127 0"/>
<feOffset dx="25" dy="2"/>
<feGaussianBlur stdDeviation="11.5"/>
<feColorMatrix type="matrix" values="0 0 0 0 0 0 0 0 0 0 0 0 0 0 0 0 0 0 0.25 0"/>
<feBlend mode="normal" in2="BackgroundImageFix" result="effect1_dropShadow"/>
<feBlend mode="normal" in="SourceGraphic" in2="effect1_dropShadow" result="shape"/>
</filter>
</defs>
</svg>
