<svg width="252" height="609" viewBox="0 0 252 609" fill="none" xmlns="http://www.w3.org/2000/svg">
<path d="M72.0383 589.771V584.031C72.0383 583.802 71.9477 583.583 71.7863 583.422C71.6249 583.261 71.406 583.17 71.1778 583.17H62.4945C62.388 583.169 62.2823 583.189 62.1836 583.229C62.0849 583.269 61.9953 583.329 61.92 583.404C61.8446 583.48 61.7851 583.569 61.7448 583.668C61.7046 583.767 61.6844 583.872 61.6856 583.979V604.865C61.6856 605.133 61.7383 605.398 61.8408 605.646C61.9433 605.893 62.0936 606.118 62.283 606.307C62.4724 606.497 62.6972 606.647 62.9447 606.749C63.1921 606.852 63.4573 606.905 63.7252 606.905H92.3135C92.5646 606.905 92.8054 606.805 92.9829 606.627C93.1604 606.45 93.2601 606.209 93.2601 605.958C93.2601 602.807 92.0095 599.784 89.7828 597.554C87.5561 595.324 84.5355 594.069 81.3842 594.065H76.3498C75.2086 594.065 74.1142 593.612 73.3072 592.805C72.5003 591.998 72.0469 590.903 72.0469 589.762" fill="black"/>
<path d="M37.7615 591.526V585.786C37.7615 585.558 37.6709 585.339 37.5095 585.178C37.3481 585.016 37.1292 584.926 36.901 584.926H28.2178C28.0032 584.926 27.7975 585.011 27.6457 585.162C27.494 585.314 27.4088 585.52 27.4088 585.734V606.629C27.4111 607.169 27.627 607.685 28.0092 608.066C28.3915 608.447 28.9089 608.66 29.4484 608.66H58.0367C58.2878 608.66 58.5286 608.561 58.7061 608.383C58.8836 608.205 58.9834 607.965 58.9834 607.714C58.9845 606.153 58.6781 604.608 58.0818 603.166C57.4855 601.724 56.6109 600.414 55.508 599.311C54.4051 598.207 53.0955 597.331 51.6541 596.734C50.2127 596.137 48.6677 595.829 47.1074 595.829H42.073C40.9318 595.829 39.8374 595.376 39.0304 594.569C38.2235 593.762 37.7702 592.667 37.7702 591.526" fill="black"/>
<path d="M111.281 274.094L119.568 294.834L146.874 281.22L145.833 273.595L167.364 264.154L166.487 261.736L143.853 270.023L141.341 267.45L127.158 267.64L115.291 272.304L111.281 274.094Z" fill="#040A00"/>
<path d="M84.6803 352.019L84.8438 357.028C85.4118 375.1 88.1398 398.094 86.694 416.149L72.7527 590.33H61.2382L53.6995 391.838C53.6393 390.289 52.1074 389.05 50.2572 389.05C48.407 389.05 46.8149 390.289 46.8149 391.838L39.0697 590.33H27.7703L13.8204 416.003C12.3918 398.051 12.5037 375.091 13.3127 357.114L13.545 351.95L84.6803 352.019Z" fill="#004643"/>
<path d="M141.341 267.45C140.698 267.054 139.974 266.807 139.224 266.727C129.482 265.006 117.787 266.418 108.467 269.946L84.9728 261.736L84.749 278.431L112.907 282.657C113.323 282.861 113.792 282.93 114.25 282.855C114.821 282.778 115.355 282.528 115.781 282.14C116.631 281.188 117.179 280.005 117.356 278.741C117.539 277.486 117.972 276.28 118.63 275.195C119.878 273.474 122.244 272.984 124.336 273.233C126.427 273.483 128.406 274.335 130.446 274.851C131.823 275.195 133.561 275.247 134.335 274.06C135.11 272.872 134.335 271.245 133.079 270.617C132.773 270.456 132.45 270.332 132.115 270.247L129.026 270.109C130.057 270 131.098 270.046 132.115 270.247L139.172 270.574C140.282 270.626 141.685 270.497 142.063 269.455C142.174 269.088 142.163 268.695 142.033 268.334C141.903 267.973 141.66 267.663 141.341 267.45Z" fill="#C69C6D"/>
<path d="M67.1502 186.857H35.4637V258.87H67.1502V186.857Z" fill="#E3B37D"/>
<path d="M58.6478 201.392C49.4396 202.657 40.5756 197.907 39.7151 194.981C38.8545 192.055 46.3243 193.527 55.5755 190.816C64.8267 188.105 72.3137 189.792 73.1657 192.718" fill="#C69C6D"/>
<path d="M75.3946 192.511C77.4753 190.174 78.8508 187.294 79.3619 184.207C81.1831 173.811 80.312 163.121 76.8318 153.157C76.1825 151.299 75.4385 149.475 74.6029 147.692C74.3705 147.176 74.1296 146.617 73.8456 146.083C73.6971 146.504 73.5158 146.913 73.3034 147.305C73.1915 147.512 73.071 147.718 72.942 147.916V147.873C72.8903 147.52 72.8301 147.185 72.7784 146.832C72.2176 142.709 71.2755 138.647 69.9644 134.698C68.991 131.879 67.6852 129.187 66.0746 126.677C65.2742 125.429 64.4136 124.225 63.4928 123.028C62.7613 122.056 61.9696 121.118 61.2897 120.111C61.1821 119.932 61.0643 119.76 60.9369 119.595L60.5583 119.018L60.0333 119.474C56.3931 122.615 52.6065 125.903 48.2434 127.977C45.254 129.392 42.1397 130.527 38.9406 131.367C36.153 132.14 33.2787 132.556 30.3864 132.607C28.3824 132.484 26.4102 132.046 24.5431 131.307C24.328 131.238 23.9579 131.126 23.7428 131.04C23.6352 131.195 23.5538 131.367 23.5018 131.548C23.2006 132.951 23.6137 133.269 23.0199 134.276C21.5046 136.902 20.4536 139.77 19.9132 142.753C18.7773 148.493 19.9132 151.909 21.4967 157.486C21.9012 158.932 23.0285 164.112 23.5104 165.532C23.0974 165.352 21.7204 163.906 21.2643 163.811C19.9006 163.563 18.4947 163.697 17.2024 164.198C16.8152 164.345 16.4279 164.5 16.0492 164.672C15.4463 164.974 14.8851 165.353 14.3797 165.799C13.9322 166.221 13.5191 166.66 13.0716 167.116C12.4606 167.753 12.366 169.284 11.8324 169.999C11.2903 169.138 10.5932 167.864 9.99939 166.728C9.99939 168.682 10.0596 170.721 10.2404 172.83C10.2773 173.229 10.3405 173.626 10.4297 174.018C11.2903 176.969 13.5794 179.104 16.1353 180.549C17.0882 181.125 18.1246 181.548 19.2076 181.806C20.2236 181.958 21.2601 181.903 22.254 181.642C22.806 181.527 23.341 181.342 23.8461 181.091C23.9303 181.291 24.0251 181.487 24.1301 181.677C25.9649 185.156 28.5841 188.162 31.7806 190.455C35.6883 193.272 40.1644 195.202 44.8958 196.109C50.1255 197.073 55.466 197.287 60.7562 196.745" fill="#E3B37D"/>
<path d="M73.3206 148.278C73.922 147.173 74.3185 145.969 74.491 144.724C74.7332 142.096 74.3772 139.448 73.4497 136.978C72.3826 133.743 70.7475 130.593 69.7492 127.306C69.2714 125.835 68.6965 124.397 68.0281 123.003C67.377 121.158 66.9016 119.257 66.6081 117.323L67.288 117.159C69.665 116.509 72.1611 116.424 74.577 116.91C73.7681 114.053 71.4359 111.944 69.0866 110.24C64.3657 106.827 59.0475 104.329 53.4069 102.874C50.7843 102.127 48.0779 101.713 45.3519 101.643C45.0826 101.622 44.8121 101.622 44.5429 101.643C44.2106 101.655 43.8798 101.692 43.5533 101.755C43.2788 101.56 42.9913 101.385 42.6927 101.23C40.2228 99.9392 37.2108 99.8445 34.4484 100.137C32.5831 100.365 30.7326 100.701 28.9062 101.144C26.6515 101.66 24.4054 102.246 22.1851 102.908C19.8186 103.614 17.4606 104.354 15.1542 105.275C13.1691 106.012 11.3369 107.109 9.74982 108.511C8.57605 109.618 7.60605 110.923 6.8841 112.366C6.77222 112.59 6.66895 112.813 6.57429 113.046C6.50305 113.176 6.39929 113.286 6.27309 113.364C6.01015 113.52 5.75723 113.693 5.51578 113.881C4.75032 114.483 4.04168 115.154 3.39876 115.886C2.1665 117.39 1.23983 119.121 0.670735 120.98C-0.080856 122.93 -0.204218 125.067 0.317899 127.09C0.799822 129.018 0.644918 131.015 1.62598 132.719C1.87101 133.467 2.06084 134.232 2.19396 135.008C2.13371 136.583 2.72751 136.195 2.66727 137.762C2.54679 140.825 3.05453 145.507 3.26107 148.536C3.4907 151.648 4.16597 154.712 5.26621 157.632C6.41336 160.585 7.753 163.46 9.2765 166.238C9.93914 167.494 11.0751 169.723 11.8582 170.963C12.3918 170.248 12.4865 168.725 13.1061 168.071C13.5277 167.632 13.9666 167.21 14.4055 166.763C14.9118 166.314 15.4763 165.934 16.0837 165.636C16.4537 165.472 16.841 165.309 17.2282 165.171C18.5208 164.671 19.9254 164.534 21.2901 164.775C21.7463 164.87 23.6653 166.711 24.0698 166.918C23.5965 165.481 23.3211 159.904 22.9252 158.45C21.3676 152.89 19.7497 149.164 20.8943 143.433C21.4795 140.464 21.4881 137.813 23.0457 135.231C23.6481 134.225 23.2264 133.915 23.5363 132.512C23.5843 132.327 23.666 132.152 23.7772 131.996C23.9924 132.09 24.3538 132.202 24.5689 132.271C26.4419 132.999 28.4156 133.434 30.4209 133.562C33.3142 133.517 36.1895 133.098 38.975 132.314C42.1751 131.481 45.2898 130.348 48.2778 128.932C52.6323 126.867 56.4189 123.579 60.0763 120.438L60.5841 119.982L60.9799 120.541C61.0918 120.722 61.2037 120.894 61.3242 121.066C62.004 122.082 62.7957 123.02 63.5272 123.992C64.3878 125.171 65.2484 126.385 66.109 127.633C67.7112 130.15 69.0165 132.844 69.9988 135.662C71.3006 139.611 72.2453 143.669 72.8215 147.787C72.8215 148.131 72.9161 148.484 72.9764 148.837C73.1055 148.639 73.2259 148.424 73.3378 148.218" fill="#FFBE3E"/>
<path d="M42.7185 152.916C43.0713 154.121 42.0645 155.498 40.4724 155.954C38.8803 156.41 37.2883 155.825 36.9354 154.612C36.5826 153.398 37.5895 152.03 39.1901 151.582C40.7908 151.135 42.3657 151.712 42.7185 152.916Z" fill="#000738"/>
<path d="M65.1538 145.593C65.5066 146.797 64.4998 148.174 62.9077 148.63C61.3156 149.087 59.7236 148.493 59.3707 147.288C59.0179 146.083 60.0248 144.706 61.6254 144.25C63.2261 143.794 64.801 144.388 65.1538 145.593Z" fill="#000738"/>
<path d="M44.2332 148.037L30.0939 152.864C29.6292 153.019 29.2333 152.864 29.3108 152.512L29.4657 152.004C29.6498 151.57 29.9309 151.183 30.2874 150.875C30.6439 150.566 31.0664 150.343 31.5224 150.222L41.3502 146.866C41.7963 146.683 42.277 146.6 42.7587 146.622C43.2403 146.644 43.7113 146.772 44.1385 146.995L44.5946 147.297C44.8872 147.486 44.6893 147.882 44.2332 148.037Z" fill="#000738"/>
<path d="M66.1864 140.472L61.4446 141.643C59.5262 142.107 57.6562 142.753 55.8595 143.57L52.0643 145.292C51.5996 145.446 51.2038 145.292 51.2812 144.939L51.4361 144.422C51.6158 144.028 51.8717 143.672 52.1893 143.377C52.5068 143.082 52.8797 142.852 53.2864 142.701C53.6677 142.521 54.0308 142.305 54.3707 142.056C56.3092 140.711 58.5443 139.855 60.8853 139.56L61.6856 139.465C61.9007 139.465 62.1245 139.405 62.3396 139.362L63.8284 139.113C64.5946 138.905 65.4113 139.001 66.109 139.379L66.5651 139.681C66.8577 139.879 66.6597 140.274 66.2036 140.429" fill="#000738"/>
<path d="M19.7239 172.89C20.1782 174.574 20.7979 176.208 21.5741 177.77C21.6222 177.87 21.6449 177.98 21.6404 178.091C21.6359 178.202 21.6042 178.311 21.5482 178.407C21.4921 178.502 21.4134 178.583 21.3189 178.642C21.2244 178.7 21.117 178.735 21.0061 178.742C19.5768 178.823 18.1646 178.398 17.0179 177.541C15.8711 176.684 15.0633 175.451 14.7364 174.057C14.4095 172.663 14.5846 171.199 15.2308 169.921C15.8771 168.644 16.953 167.635 18.2695 167.073C18.3735 167.029 18.4868 167.013 18.599 167.024C18.7111 167.036 18.8184 167.076 18.911 167.141C19.0036 167.205 19.0786 167.292 19.1289 167.392C19.1792 167.493 19.2033 167.605 19.1989 167.718C19.1514 169.455 19.3278 171.19 19.7239 172.882" fill="#C69C6D"/>
<path d="M35.4724 210.007C30.9027 214.705 22.3228 221.573 15.9029 231.521C1.40214 253.896 8.39863 353.25 13.4244 354.584C14.285 354.816 79.5425 363.077 84.749 355.444C85.7386 354.007 86.7799 349.885 86.952 348.336C90.1706 318.104 89.1809 279.67 86.952 263.087C83.5097 237.907 79.1122 227.735 71.8575 216.728C70.7431 214.974 69.1226 213.6 67.2104 212.786C67.2104 212.786 67.1158 212.7 67.1072 212.735C63.9747 224.585 41.0833 223.595 35.567 209.955C35.5584 209.955 35.5068 209.998 35.4724 210.007Z" fill="#4BFFAD"/>
<path d="M143.406 277.416C142.21 277.588 141.315 278.569 140.532 279.498C139.594 280.6 138.656 281.693 137.726 282.794C137.193 283.414 136.53 284.094 135.721 284.008C134.912 283.922 134.284 282.803 134.353 281.865C134.537 280.946 134.773 280.038 135.058 279.146C135.191 278.697 135.18 278.218 135.026 277.776C134.871 277.334 134.581 276.952 134.198 276.684C130.647 280.249 127.674 284.346 125.386 288.827C125.515 289.18 70.8336 289.016 70.8336 289.016C70.1262 289.005 69.4336 288.812 68.8219 288.456C68.2102 288.101 67.6999 287.594 67.3396 286.985L50.2572 258.147L30.0422 269.86L52.6066 306.718C52.7564 306.966 52.9733 307.166 53.2322 307.296C53.4912 307.425 53.7815 307.479 54.0695 307.45L127.391 300.161C127.391 300.204 128.922 299.903 128.922 299.903C131.826 298.989 134.5 297.463 136.762 295.428C139.651 292.742 142.232 289.743 144.456 286.486C145.618 284.903 146.805 283.182 146.874 281.22C146.943 279.257 145.342 277.123 143.406 277.416Z" fill="#C69C6D"/>
<path d="M25.5947 230.197C29.1605 228.539 33.2391 228.365 36.9331 229.714C40.6271 231.063 43.6339 233.824 45.2921 237.39L55.8991 260.199L29.009 272.704L18.4021 249.895C16.7438 246.329 16.57 242.25 17.9189 238.556C19.2678 234.862 22.0289 231.855 25.5947 230.197Z" fill="#3AC787"/>
<path d="M129.052 270.075L132.141 270.213C131.124 270.012 130.082 269.966 129.052 270.075Z" fill="#C69C6D"/>
<path d="M69.9555 174.321C70.0324 173.393 70.0142 172.46 69.9012 171.535C63.2025 175.311 55.6933 177.419 48.0082 177.681C48.1943 178.315 48.4386 178.931 48.738 179.52C56.0286 181.467 64.5906 179.55 69.9555 174.321Z" fill="white"/>
<path d="M48.4832 178.984C49.9759 182.075 52.8182 183.553 55.805 184.199C57.7685 184.589 59.7997 184.463 61.7 183.833C63.6003 183.204 65.3048 182.092 66.6471 180.607C68.7059 178.33 70.0164 176.226 70.0632 173.13C64.6669 178.381 55.7483 180.935 48.4832 178.984Z" fill="#670002"/>
<path d="M188.127 40.8228L194.837 43.2756L194.171 45.0974C194.027 45.4922 193.739 45.8161 193.37 45.9978C193.002 46.1796 192.583 46.2044 192.207 46.0667L188.337 44.6521C187.96 44.5144 187.656 44.2256 187.492 43.8491C187.328 43.4726 187.317 43.0393 187.461 42.6446L188.127 40.8228Z" fill="#212121"/>
<path d="M192.769 43.1104L189.816 42.031C189.33 41.8534 188.793 42.1033 188.615 42.5892L188.521 42.8465C188.343 43.3324 188.593 43.8702 189.079 44.0478L192.032 45.1271C192.518 45.3047 193.055 45.0548 193.233 44.569L193.327 44.3116C193.505 43.8258 193.255 43.288 192.769 43.1104Z" fill="#505050"/>
<path d="M191.54 43.8022C191.666 43.4573 191.487 43.075 191.141 42.9484C190.795 42.8218 190.412 42.9988 190.286 43.3438C190.16 43.6888 190.338 44.0711 190.685 44.1977C191.031 44.3243 191.414 44.1472 191.54 43.8022Z" fill="black"/>
<path d="M189.87 37.1719L195.901 39.3767C196.025 39.4221 196.126 39.5149 196.182 39.6347C196.238 39.7546 196.244 39.8916 196.198 40.0157L194.926 43.4947L187.95 40.9444L189.218 37.4747C189.24 37.4112 189.274 37.3528 189.319 37.3029C189.364 37.253 189.419 37.2127 189.479 37.1845C189.54 37.1562 189.606 37.1405 189.673 37.1383C189.74 37.1362 189.807 37.1476 189.87 37.1719Z" fill="#696868"/>
<path d="M189.996 37.2253L196.028 39.4302C196.152 39.4755 196.264 39.5377 196.34 39.6031C196.415 39.6684 196.448 39.7316 196.431 39.7787L195.949 41.0984L188.972 38.548L189.453 37.2319C189.46 37.2075 189.481 37.188 189.512 37.1744C189.544 37.1608 189.586 37.1535 189.637 37.1529C189.688 37.1523 189.746 37.1584 189.808 37.1708C189.869 37.1833 189.934 37.2018 189.996 37.2253V37.2253Z" fill="#505050"/>
<path d="M222.451 59.7419L225.888 60.9999L233.503 51.4543L230.066 50.1963L222.451 59.7419Z" fill="#C1C1C4"/>
<path d="M156.533 35.7091L153.096 34.4511L153.432 22.2451L156.869 23.5031L156.533 35.7091Z" fill="#C1C1C4"/>
<path d="M189.783 22.3596L191.325 17.0462L179.456 6.3971V6.3697L178.783 6.1206L179.588 3.9858C179.6 3.44997 179.445 2.9236 179.143 2.48071C178.841 2.03782 178.408 1.7007 177.905 1.51676C177.401 1.33282 176.853 1.31131 176.337 1.45527C175.82 1.59923 175.362 1.90141 175.027 2.3193V2.3193L174.244 4.46158L174.107 4.81531C173.839 5.54633 173.872 6.35404 174.199 7.06081C174.526 7.76759 175.12 8.31555 175.851 8.58422L178.125 9.41622L189.783 22.3596Z" fill="#CFD0D5"/>
<path d="M229.861 22.3869C229.882 21.8475 229.732 21.3153 229.431 20.8671C229.13 20.4188 228.695 20.0775 228.188 19.8922C227.681 19.707 227.128 19.6873 226.609 19.8362C226.09 19.985 225.632 20.2946 225.3 20.7204V20.7204L224.518 22.8627L223.846 22.6136L207.903 23.0968L205.661 28.1511L222.864 25.7846L225.173 26.654C225.904 26.9217 226.712 26.8885 227.418 26.5616C228.125 26.2347 228.673 25.6408 228.942 24.9103V24.9103L229.074 24.5491L229.856 22.4068L229.861 22.3869Z" fill="#B0B1B3"/>
<path d="M187.873 21.6719L161.069 20.0851L160.354 19.836L160.631 19.0264C160.661 18.9642 160.688 18.8969 160.713 18.8297C160.751 18.7244 160.782 18.6171 160.808 18.5083L160.905 18.2293L160.862 18.2144C160.948 17.5628 160.81 16.9015 160.469 16.3394C160.128 15.7774 159.606 15.3482 158.989 15.1227C158.372 14.8972 157.696 14.8889 157.073 15.099C156.451 15.3092 155.918 15.7254 155.564 16.2789L155.499 16.2539L154.603 18.6827L154.453 19.0937L153.297 22.2523L160.175 24.7658L186.144 26.3974L187.873 21.6719Z" fill="#CFD0D5"/>
<path d="M235.636 45.5285C235.718 44.8792 235.577 44.2212 235.237 43.6623C234.896 43.1034 234.376 42.6766 233.762 42.4517C233.147 42.2269 232.474 42.2174 231.854 42.4247C231.233 42.632 230.701 43.0439 230.345 43.5929L230.305 43.578L230.198 43.852C230.147 43.9525 230.102 44.0556 230.063 44.1609C230.038 44.2281 230.018 44.2954 229.998 44.3627L229.69 45.1598L229.112 44.948L207.604 28.876L205.875 33.6089L226.668 49.0134L226.645 49.0582L233.508 51.5642L234.664 48.4056L234.814 47.9946L235.71 45.5434L235.636 45.5285Z" fill="#B0B1B3"/>
<path d="M207.188 26.923C207.004 26.856 206.808 26.8263 206.613 26.8358C206.613 26.8358 208.722 22.7505 208.042 21.2883C207.778 20.7178 206.463 19.9207 206.463 19.9207L206.802 17.1557C206.888 16.6739 206.821 16.1775 206.61 15.7358L206.565 15.6336C206.549 15.6302 206.533 15.6252 206.518 15.6187C204.525 21.3182 202.062 26.7436 200.42 32.5576C199.941 34.3566 199.33 36.1176 198.592 37.8262C199.33 36.1176 199.941 34.3566 200.42 32.5576C202.062 26.7336 204.533 21.3082 206.518 15.6187C206.533 15.6252 206.549 15.6302 206.565 15.6336C206.286 15.0084 206.174 14.7718 205.756 14.6024L203.252 13.6757C203.3 13.3818 202.936 13.0081 202.398 12.8113C201.86 12.6145 201.349 12.6644 201.192 12.9135L198.415 11.8872C197.904 11.8627 197.395 11.9477 196.92 12.1363H196.9C196.893 12.4653 196.835 12.7913 196.728 13.1028C194.444 20.1524 191.27 26.9753 189.504 34.2117C191.275 26.9753 194.449 20.1524 196.728 13.1028C196.835 12.7913 196.893 12.4653 196.9 12.1363C196.541 12.2937 196.221 12.5275 195.961 12.8213C195.902 12.9329 195.849 13.0477 195.802 13.165L194.686 15.6062C194.686 15.6062 193.044 15.2251 192.755 15.3571C191.29 16.0372 190.082 20.805 190.082 20.805C189.932 20.6571 189.751 20.5448 189.552 20.4762C188.946 20.2545 188.306 20.4538 188.147 20.9196L183.912 32.605C183.787 33.3971 184.233 34.2291 185.028 34.7174C186.682 30.5549 190.135 21.3107 190.12 20.8175C190.135 21.3157 186.682 30.5549 185.028 34.7174C185.186 34.8161 185.352 34.8995 185.526 34.9665C186.565 35.3451 188.221 34.3462 188.221 34.3462L199.267 38.3792C199.267 38.3792 199.892 40.2126 200.928 40.5912C202.004 40.9848 203.135 40.6659 203.648 39.8837L207.98 28.1759C208.147 27.7026 207.793 27.1521 207.188 26.923Z" fill="#B7B8BD"/>
<path d="M190.112 20.6956C189.939 20.5906 189.75 20.5164 189.552 20.4764C188.946 20.2547 188.306 20.4539 188.147 20.9198L183.912 32.6051C183.87 33.0134 183.947 33.4251 184.132 33.7915C184.317 34.1579 184.602 34.4636 184.956 34.6727C186.58 30.0394 188.51 25.558 190.112 20.6956Z" fill="#A1A2A6"/>
<path d="M194.701 15.5737L194.683 15.6136C194.683 15.6136 193.042 15.2324 192.753 15.3645C191.427 15.9797 190.311 19.9504 190.112 20.6928C192.474 20.3515 194.728 15.7531 194.701 15.5737Z" fill="#CACBD1"/>
<path d="M208.042 21.2884C207.808 20.7902 206.747 20.0977 206.511 19.9507C205.95 22.0332 205.265 24.8256 206.685 26.6964C207.046 25.964 208.645 22.5887 208.042 21.2884Z" fill="#CACBD1"/>
<path d="M196.726 13.1103C196.832 12.7988 196.89 12.4729 196.898 12.1438C196.539 12.3013 196.218 12.535 195.959 12.8288C195.899 12.9405 195.846 13.0552 195.799 13.1726L194.701 15.5739C194.728 15.7533 192.297 20.0877 190.112 20.6955C190.092 20.7727 190.08 20.815 190.08 20.815C190.066 20.8005 190.051 20.7871 190.035 20.7752C188.413 24.6139 187.188 28.1984 185.935 31.8353C187.225 32.2513 188.493 32.7221 189.753 33.2129C191.562 26.3476 194.549 19.8336 196.726 13.1103Z" fill="#BEBEC4"/>
<path d="M200.42 32.5676C202.062 26.7436 204.533 21.3182 206.518 15.6287C206.533 15.6351 206.549 15.6401 206.565 15.6436C206.286 15.0184 206.174 14.7817 205.756 14.6123L203.252 13.6757C203.3 13.3818 202.936 13.0081 202.398 12.8113C201.86 12.6145 201.349 12.6644 201.192 12.9135L198.415 11.8872C197.904 11.8627 197.395 11.9477 196.92 12.1363H196.9C196.893 12.4653 196.835 12.7913 196.728 13.1028C195.381 20.1524 191.054 26.218 189.255 33.0832C191.647 34.0124 194.521 35.1334 196.95 35.9579C197.662 36.1904 198.371 36.4287 199.075 36.6728C199.609 35.3342 200.059 33.963 200.42 32.5676V32.5676Z" fill="#B7B8BD"/>
<path d="M206.695 26.8355H206.613C206.613 26.8355 206.64 26.7857 206.685 26.696C205.821 24.6608 205.95 22.0328 206.511 19.9503L206.463 19.9204L206.802 17.1554C206.888 16.6737 206.821 16.1772 206.61 15.7355L206.565 15.6334C206.549 15.6299 206.533 15.6249 206.518 15.6184C204.525 21.3179 199.6 35.3149 199.062 36.68C200.452 37.1583 201.835 37.659 203.217 38.1746C204.919 34.4381 205.165 30.5421 206.695 26.8355Z" fill="#BEBEC4"/>
<path d="M203.217 38.1649C202.572 37.9158 201.025 37.3478 199.087 36.6205C198.925 37.034 198.759 37.44 198.589 37.8361C198.756 37.44 198.923 37.034 199.087 36.6205C196.285 35.5692 192.665 34.2166 189.766 33.1704C189.674 33.5191 189.584 33.8679 189.497 34.2191C189.584 33.8679 189.674 33.5191 189.766 33.1704C188.197 32.6024 186.839 32.1267 185.935 31.8352C185.603 32.7768 185.27 33.7226 184.938 34.6725C185.118 34.7904 185.31 34.8874 185.511 34.9614C186.55 35.3401 188.207 34.3412 188.207 34.3412L199.267 38.3791C199.267 38.3791 199.892 40.2125 200.928 40.5911C201.18 40.683 201.443 40.7376 201.71 40.7531C201.643 40.6385 201.982 40.4641 202.027 40.3445C202.477 39.6487 202.875 38.9201 203.217 38.1649V38.1649Z" fill="#A6A6AB"/>
<path d="M207.188 26.923C207.021 26.8632 206.755 26.4746 206.595 26.4746C204.759 31.7755 201.64 40.6386 201.708 40.7531C202.079 40.7902 202.453 40.7295 202.793 40.5769C203.133 40.4244 203.427 40.1854 203.646 39.8838L207.978 28.176C208.147 27.7027 207.793 27.1522 207.188 26.923Z" fill="#A1A2A6"/>
<path d="M187.997 41.2215C188.006 41.1729 188.006 41.1231 187.997 41.0745L190.239 35.0761L189.041 34.6377L188.057 37.2807C188.03 37.318 187.648 37.3106 187.579 37.5049L186.388 40.7656L186.368 40.8204V40.8378C186.35 40.8856 186.344 40.9366 186.348 40.9873C186.348 41.0788 186.376 41.1682 186.428 41.2435C186.48 41.3187 186.554 41.3763 186.64 41.4083L187.369 41.6748C187.484 41.7147 187.609 41.7078 187.718 41.6555C187.828 41.6033 187.912 41.5099 187.952 41.3958L187.972 41.341C187.985 41.3023 187.994 41.2622 187.997 41.2215V41.2215Z" fill="black"/>
<path d="M194.713 43.6749C194.744 43.637 194.778 43.602 194.815 43.5703L196.967 37.5396L198.166 37.978L197.202 40.6209C197.251 40.7156 197.493 40.9074 197.423 41.0992L196.23 44.36L196.21 44.4148V44.4322C196.192 44.4806 196.164 44.5248 196.128 44.5617C196.068 44.6317 195.988 44.6818 195.899 44.7054C195.81 44.729 195.716 44.7249 195.63 44.6938L194.9 44.4272C194.787 44.3847 194.696 44.2993 194.646 44.1896C194.596 44.0798 194.591 43.9548 194.633 43.8418L194.653 43.787C194.667 43.7469 194.688 43.7091 194.713 43.6749V43.6749Z" fill="black"/>
<path d="M186.547 34.5456C187.105 34.5456 187.556 34.0939 187.556 33.5367C187.556 32.9795 187.105 32.5278 186.547 32.5278C185.99 32.5278 185.539 32.9795 185.539 33.5367C185.539 34.0939 185.99 34.5456 186.547 34.5456Z" fill="#505050"/>
<path d="M201.097 39.8639C201.655 39.8639 202.106 39.4122 202.106 38.8551C202.106 38.2979 201.655 37.8462 201.097 37.8462C200.54 37.8462 200.089 38.2979 200.089 38.8551C200.089 39.4122 200.54 39.8639 201.097 39.8639Z" fill="#505050"/>
<path d="M190.603 34.5602C190.791 34.5602 190.944 34.4074 190.944 34.219C190.944 34.0305 190.791 33.8777 190.603 33.8777C190.414 33.8777 190.261 34.0305 190.261 34.219C190.261 34.4074 190.414 34.5602 190.603 34.5602Z" fill="#505050"/>
<path d="M192.772 35.3549C192.961 35.3549 193.114 35.2021 193.114 35.0136C193.114 34.8252 192.961 34.6724 192.772 34.6724C192.584 34.6724 192.431 34.8252 192.431 35.0136C192.431 35.2021 192.584 35.3549 192.772 35.3549Z" fill="#505050"/>
<path d="M194.942 36.1469C195.131 36.1469 195.283 35.9941 195.283 35.8056C195.283 35.6171 195.131 35.4644 194.942 35.4644C194.754 35.4644 194.601 35.6171 194.601 35.8056C194.601 35.9941 194.754 36.1469 194.942 36.1469Z" fill="#505050"/>
<path d="M197.109 36.9394C197.298 36.9394 197.451 36.7866 197.451 36.5981C197.451 36.4096 197.298 36.2568 197.109 36.2568C196.921 36.2568 196.768 36.4096 196.768 36.5981C196.768 36.7866 196.921 36.9394 197.109 36.9394Z" fill="#505050"/>
<path d="M196.771 29.7951C198.076 29.7951 199.135 28.7367 199.135 27.4311C199.135 26.1255 198.076 25.0671 196.771 25.0671C195.465 25.0671 194.407 26.1255 194.407 27.4311C194.407 28.7367 195.465 29.7951 196.771 29.7951Z" fill="#787878"/>
<path d="M175.911 3.25826L175.47 3.36039L173.016 2.46362L162.033 4.53117L160.511 4.82262L159.45 6.17774L159.966 7.21649L160.671 7.09692L173.554 6.85529L176.123 4.54113L176.479 4.34185L175.911 3.25826Z" fill="#383838"/>
<path d="M178.566 4.14008L179.005 4.03296L181.468 4.89984L192.429 2.71023L193.946 2.39885L194.992 1.03128L194.464 0L193.761 0.127042L180.88 0.515641L178.34 2.8572L177.986 3.06147L178.566 4.14008Z" fill="#383838"/>
<path d="M178.356 2.78651L175.642 3.26114C175.269 3.32631 175.02 3.68126 175.085 4.05394L175.085 4.05639C175.151 4.42907 175.506 4.67835 175.878 4.61317L178.592 4.13855C178.965 4.07337 179.214 3.71842 179.149 3.34574L179.149 3.34329C179.083 2.97062 178.728 2.72134 178.356 2.78651Z" fill="#0D0D0D"/>
<path d="M227.438 20.8101L227.116 20.4937L226.566 17.938L218.963 9.74499L217.904 8.61407L216.193 8.4397L215.59 9.42863L216.066 9.96171L223.138 20.7354L226.464 21.6745L226.822 21.8688L227.438 20.8101Z" fill="#383838"/>
<path d="M228.105 23.5273L228.432 23.8387L229.009 26.387L236.704 34.4928L237.775 35.6113L239.492 35.7682L240.082 34.7718L239.599 34.2437L232.407 23.5523L229.069 22.6505L228.708 22.4612L228.105 23.5273Z" fill="#383838"/>
<path d="M229.143 22.6247L227.295 20.5815C227.041 20.3009 226.608 20.2792 226.327 20.533L226.325 20.5347C226.045 20.7885 226.023 21.2217 226.277 21.5023L228.125 23.5455C228.379 23.8261 228.812 23.8478 229.093 23.594L229.094 23.5923C229.375 23.3385 229.397 22.9053 229.143 22.6247Z" fill="#0D0D0D"/>
<path d="M157.838 16.5354L157.544 16.1493L157.36 13.3419L150.542 3.42768L149.593 2.05761L147.795 1.60425L147 2.56329L147.423 3.20597L153.27 15.7856L156.665 17.3052L157.019 17.5692L157.838 16.5354Z" fill="#383838"/>
<path d="M158.125 19.5347L158.424 19.9183L158.641 22.7232L165.571 32.5577L166.537 33.9178L168.338 34.3512L169.123 33.3798L168.692 32.7445L162.701 20.2346L159.288 18.7525L158.934 18.4934L158.125 19.5347Z" fill="#383838"/>
<path d="M159.362 18.736L157.717 16.2763C157.489 15.9367 157.03 15.8452 156.691 16.072C156.352 16.2988 156.262 16.758 156.489 17.0976L158.134 19.5574C158.361 19.897 158.82 19.9884 159.16 19.7616C159.499 19.5348 159.589 19.0757 159.362 18.736Z" fill="#0D0D0D"/>
<path d="M234.221 45.3742L234.679 45.2098L237.409 45.8749L248.903 42.3451L250.492 41.8494L251.463 40.2725L250.788 39.2263L250.049 39.4381L236.306 41.244L233.839 44.0265L233.483 44.2831L234.221 45.3742Z" fill="#383838"/>
<path d="M231.276 44.7487L230.82 44.9181L228.083 44.2854L216.631 47.9472L215.047 48.4604L214.093 50.0471L214.781 51.0884L215.518 50.8667L229.239 48.9038L231.675 46.0914L232.026 45.8323L231.276 44.7487Z" fill="#383838"/>
<path d="M231.667 46.1735L234.509 45.3403C234.9 45.2257 235.124 44.816 235.009 44.4253L235.008 44.4229C234.894 44.0321 234.484 43.8082 234.093 43.9227L231.251 44.756C230.86 44.8706 230.636 45.2802 230.751 45.671L230.752 45.6734C230.866 46.0642 231.276 46.2881 231.667 46.1735Z" fill="#0D0D0D"/>
</svg>
