<svg width="528" height="701" viewBox="0 0 528 701" fill="none" xmlns="http://www.w3.org/2000/svg">
<path d="M72.0383 681.771V676.031C72.0383 675.802 71.9477 675.583 71.7863 675.422C71.6249 675.261 71.406 675.17 71.1778 675.17H62.4945C62.388 675.169 62.2823 675.189 62.1836 675.229C62.0849 675.269 61.9953 675.329 61.92 675.404C61.8446 675.48 61.7851 675.569 61.7448 675.668C61.7046 675.767 61.6844 675.872 61.6856 675.979V696.865C61.6856 697.133 61.7383 697.398 61.8408 697.646C61.9433 697.893 62.0936 698.118 62.283 698.307C62.4724 698.497 62.6972 698.647 62.9447 698.749C63.1921 698.852 63.4573 698.905 63.7252 698.905H92.3135C92.5646 698.905 92.8054 698.805 92.9829 698.627C93.1604 698.45 93.2601 698.209 93.2601 697.958C93.2601 694.807 92.0095 691.784 89.7828 689.554C87.5561 687.324 84.5355 686.069 81.3842 686.065H76.3498C75.2086 686.065 74.1142 685.612 73.3072 684.805C72.5003 683.998 72.0469 682.903 72.0469 681.762" fill="black"/>
<path d="M37.7615 683.526V677.786C37.7615 677.558 37.6709 677.339 37.5095 677.178C37.3481 677.016 37.1292 676.926 36.901 676.926H28.2178C28.0032 676.926 27.7975 677.011 27.6457 677.162C27.494 677.314 27.4088 677.52 27.4088 677.734V698.629C27.4111 699.169 27.627 699.685 28.0092 700.066C28.3915 700.447 28.9089 700.66 29.4484 700.66H58.0367C58.2878 700.66 58.5286 700.561 58.7061 700.383C58.8836 700.205 58.9834 699.965 58.9834 699.714C58.9845 698.153 58.6781 696.608 58.0818 695.166C57.4855 693.724 56.6109 692.414 55.508 691.311C54.4051 690.207 53.0955 689.331 51.6541 688.734C50.2127 688.137 48.6677 687.829 47.1074 687.829H42.073C40.9318 687.829 39.8374 687.376 39.0304 686.569C38.2235 685.762 37.7702 684.667 37.7702 683.526" fill="black"/>
<path d="M111.281 366.094L119.568 386.834L146.874 373.22L145.833 365.595L167.364 356.154L166.487 353.736L143.853 362.023L141.341 359.45L127.158 359.64L115.291 364.304L111.281 366.094Z" fill="#040A00"/>
<path d="M84.6803 444.019L84.8438 449.028C85.4118 467.1 88.1398 490.094 86.694 508.149L72.7527 682.33H61.2382L53.6995 483.838C53.6393 482.289 52.1074 481.05 50.2572 481.05C48.407 481.05 46.8149 482.289 46.8149 483.838L39.0697 682.33H27.7703L13.8204 508.003C12.3918 490.051 12.5037 467.091 13.3127 449.114L13.545 443.95L84.6803 444.019Z" fill="#004643"/>
<path d="M141.341 359.45C140.698 359.054 139.974 358.807 139.224 358.727C129.482 357.006 117.787 358.418 108.467 361.946L84.9728 353.736L84.749 370.431L112.907 374.657C113.323 374.861 113.792 374.93 114.25 374.855C114.821 374.778 115.355 374.528 115.781 374.14C116.631 373.188 117.179 372.005 117.356 370.741C117.539 369.486 117.972 368.28 118.63 367.195C119.878 365.474 122.244 364.984 124.336 365.233C126.427 365.483 128.406 366.335 130.446 366.851C131.823 367.195 133.561 367.247 134.335 366.06C135.11 364.872 134.335 363.245 133.079 362.617C132.773 362.456 132.45 362.332 132.115 362.247L129.026 362.109C130.057 362 131.098 362.046 132.115 362.247L139.172 362.574C140.282 362.626 141.685 362.497 142.063 361.455C142.174 361.088 142.163 360.695 142.033 360.334C141.903 359.973 141.66 359.663 141.341 359.45Z" fill="#C69C6D"/>
<path d="M67.1502 278.857H35.4637V350.87H67.1502V278.857Z" fill="#E3B37D"/>
<path d="M58.6478 293.392C49.4396 294.657 40.5756 289.907 39.7151 286.981C38.8545 284.055 46.3243 285.527 55.5755 282.816C64.8267 280.105 72.3137 281.792 73.1657 284.718" fill="#C69C6D"/>
<path d="M75.3946 284.511C77.4753 282.174 78.8508 279.294 79.3619 276.207C81.1831 265.811 80.312 255.121 76.8318 245.157C76.1825 243.299 75.4385 241.475 74.6029 239.692C74.3705 239.176 74.1296 238.617 73.8456 238.083C73.6971 238.504 73.5158 238.913 73.3034 239.305C73.1915 239.512 73.071 239.718 72.942 239.916V239.873C72.8903 239.52 72.8301 239.185 72.7784 238.832C72.2176 234.709 71.2755 230.647 69.9644 226.698C68.991 223.879 67.6852 221.187 66.0746 218.677C65.2742 217.429 64.4136 216.225 63.4928 215.028C62.7613 214.056 61.9696 213.118 61.2897 212.111C61.1821 211.932 61.0643 211.76 60.9369 211.595L60.5583 211.018L60.0333 211.474C56.3931 214.615 52.6065 217.903 48.2434 219.977C45.254 221.392 42.1397 222.527 38.9406 223.367C36.153 224.14 33.2787 224.556 30.3864 224.607C28.3824 224.484 26.4102 224.046 24.5431 223.307C24.328 223.238 23.9579 223.126 23.7428 223.04C23.6352 223.195 23.5538 223.367 23.5018 223.548C23.2006 224.951 23.6137 225.269 23.0199 226.276C21.5046 228.902 20.4536 231.77 19.9132 234.753C18.7773 240.493 19.9132 243.909 21.4967 249.486C21.9012 250.932 23.0285 256.112 23.5104 257.532C23.0974 257.352 21.7204 255.906 21.2643 255.811C19.9006 255.563 18.4947 255.697 17.2024 256.198C16.8152 256.345 16.4279 256.5 16.0492 256.672C15.4463 256.974 14.8851 257.353 14.3797 257.799C13.9322 258.221 13.5191 258.66 13.0716 259.116C12.4606 259.753 12.366 261.284 11.8324 261.999C11.2903 261.138 10.5932 259.864 9.99939 258.728C9.99939 260.682 10.0596 262.721 10.2404 264.83C10.2773 265.229 10.3405 265.626 10.4297 266.018C11.2903 268.969 13.5794 271.104 16.1353 272.549C17.0882 273.125 18.1246 273.548 19.2076 273.806C20.2236 273.958 21.2601 273.903 22.254 273.642C22.806 273.527 23.341 273.342 23.8461 273.091C23.9303 273.291 24.0251 273.487 24.1301 273.677C25.9649 277.156 28.5841 280.162 31.7806 282.455C35.6883 285.272 40.1644 287.202 44.8958 288.109C50.1255 289.073 55.466 289.287 60.7562 288.745" fill="#E3B37D"/>
<path d="M73.3206 240.278C73.922 239.173 74.3185 237.969 74.491 236.724C74.7332 234.096 74.3772 231.448 73.4497 228.978C72.3826 225.743 70.7475 222.593 69.7492 219.306C69.2714 217.835 68.6965 216.397 68.0281 215.003C67.377 213.158 66.9016 211.257 66.6081 209.323L67.288 209.159C69.665 208.509 72.1611 208.424 74.577 208.91C73.7681 206.053 71.4359 203.944 69.0866 202.24C64.3657 198.827 59.0475 196.329 53.4069 194.874C50.7843 194.127 48.0779 193.713 45.3519 193.643C45.0826 193.622 44.8121 193.622 44.5429 193.643C44.2106 193.655 43.8798 193.692 43.5533 193.755C43.2788 193.56 42.9913 193.385 42.6927 193.23C40.2228 191.939 37.2108 191.845 34.4484 192.137C32.5831 192.365 30.7326 192.701 28.9062 193.144C26.6515 193.66 24.4054 194.246 22.1851 194.908C19.8186 195.614 17.4606 196.354 15.1542 197.275C13.1691 198.012 11.3369 199.109 9.74982 200.511C8.57605 201.618 7.60605 202.923 6.8841 204.366C6.77222 204.59 6.66895 204.813 6.57429 205.046C6.50305 205.176 6.39929 205.286 6.27309 205.364C6.01015 205.52 5.75723 205.693 5.51578 205.881C4.75032 206.483 4.04168 207.154 3.39876 207.886C2.1665 209.39 1.23983 211.121 0.670735 212.98C-0.080856 214.93 -0.204218 217.067 0.317899 219.09C0.799822 221.018 0.644918 223.015 1.62598 224.719C1.87101 225.467 2.06084 226.232 2.19396 227.008C2.13371 228.583 2.72751 228.195 2.66727 229.762C2.54679 232.825 3.05453 237.507 3.26107 240.536C3.4907 243.648 4.16597 246.712 5.26621 249.632C6.41336 252.585 7.753 255.46 9.2765 258.238C9.93914 259.494 11.0751 261.723 11.8582 262.963C12.3918 262.248 12.4865 260.725 13.1061 260.071C13.5277 259.632 13.9666 259.21 14.4055 258.763C14.9118 258.314 15.4763 257.934 16.0837 257.636C16.4537 257.472 16.841 257.309 17.2282 257.171C18.5208 256.671 19.9254 256.534 21.2901 256.775C21.7463 256.87 23.6653 258.711 24.0698 258.918C23.5965 257.481 23.3211 251.904 22.9252 250.45C21.3676 244.89 19.7497 241.164 20.8943 235.433C21.4795 232.464 21.4881 229.813 23.0457 227.231C23.6481 226.225 23.2264 225.915 23.5363 224.512C23.5843 224.327 23.666 224.152 23.7772 223.996C23.9924 224.09 24.3538 224.202 24.5689 224.271C26.4419 224.999 28.4156 225.434 30.4209 225.562C33.3142 225.517 36.1895 225.098 38.975 224.314C42.1751 223.481 45.2898 222.348 48.2778 220.932C52.6323 218.867 56.4189 215.579 60.0763 212.438L60.5841 211.982L60.9799 212.541C61.0918 212.722 61.2037 212.894 61.3242 213.066C62.004 214.082 62.7957 215.02 63.5272 215.992C64.3878 217.171 65.2484 218.385 66.109 219.633C67.7112 222.15 69.0165 224.844 69.9988 227.662C71.3006 231.611 72.2453 235.669 72.8215 239.787C72.8215 240.131 72.9161 240.484 72.9764 240.837C73.1055 240.639 73.2259 240.424 73.3378 240.218" fill="#FFBE3E"/>
<path d="M42.7185 244.916C43.0713 246.121 42.0645 247.498 40.4724 247.954C38.8803 248.41 37.2883 247.825 36.9354 246.612C36.5826 245.398 37.5895 244.03 39.1901 243.582C40.7908 243.135 42.3657 243.712 42.7185 244.916Z" fill="#000738"/>
<path d="M65.1538 237.593C65.5066 238.797 64.4998 240.174 62.9077 240.63C61.3156 241.087 59.7236 240.493 59.3707 239.288C59.0179 238.083 60.0248 236.706 61.6254 236.25C63.2261 235.794 64.801 236.388 65.1538 237.593Z" fill="#000738"/>
<path d="M44.2332 240.037L30.0939 244.864C29.6292 245.019 29.2333 244.864 29.3108 244.512L29.4657 244.004C29.6498 243.57 29.9309 243.183 30.2874 242.875C30.6439 242.566 31.0664 242.343 31.5224 242.222L41.3502 238.866C41.7963 238.683 42.277 238.6 42.7587 238.622C43.2403 238.644 43.7113 238.772 44.1385 238.995L44.5946 239.297C44.8872 239.486 44.6893 239.882 44.2332 240.037Z" fill="#000738"/>
<path d="M66.1864 232.472L61.4446 233.643C59.5262 234.107 57.6562 234.753 55.8595 235.57L52.0643 237.292C51.5996 237.446 51.2038 237.292 51.2812 236.939L51.4361 236.422C51.6158 236.028 51.8717 235.672 52.1893 235.377C52.5068 235.082 52.8797 234.852 53.2864 234.701C53.6677 234.521 54.0308 234.305 54.3707 234.056C56.3092 232.711 58.5443 231.855 60.8853 231.56L61.6856 231.465C61.9007 231.465 62.1245 231.405 62.3396 231.362L63.8284 231.113C64.5946 230.905 65.4113 231.001 66.109 231.379L66.5651 231.681C66.8577 231.879 66.6597 232.274 66.2036 232.429" fill="#000738"/>
<path d="M19.7239 264.89C20.1782 266.574 20.7979 268.208 21.5741 269.77C21.6222 269.87 21.6449 269.98 21.6404 270.091C21.6359 270.202 21.6042 270.311 21.5482 270.407C21.4921 270.502 21.4134 270.583 21.3189 270.642C21.2244 270.7 21.117 270.735 21.0061 270.742C19.5768 270.823 18.1646 270.398 17.0179 269.541C15.8711 268.684 15.0633 267.451 14.7364 266.057C14.4095 264.663 14.5846 263.199 15.2308 261.921C15.8771 260.644 16.953 259.635 18.2695 259.073C18.3735 259.029 18.4868 259.013 18.599 259.024C18.7111 259.036 18.8184 259.076 18.911 259.141C19.0036 259.205 19.0786 259.292 19.1289 259.392C19.1792 259.493 19.2033 259.605 19.1989 259.718C19.1514 261.455 19.3278 263.19 19.7239 264.882" fill="#C69C6D"/>
<path d="M35.4724 302.007C30.9027 306.705 22.3228 313.573 15.9029 323.521C1.40214 345.896 8.39863 445.25 13.4244 446.584C14.285 446.816 79.5425 455.077 84.749 447.444C85.7386 446.007 86.7799 441.885 86.952 440.336C90.1706 410.104 89.1809 371.67 86.952 355.087C83.5097 329.907 79.1122 319.735 71.8575 308.728C70.7431 306.974 69.1226 305.6 67.2104 304.786C67.2104 304.786 67.1158 304.7 67.1072 304.735C63.9747 316.585 41.0833 315.595 35.567 301.955C35.5584 301.955 35.5068 301.998 35.4724 302.007Z" fill="#4BFFAD"/>
<path d="M143.406 369.416C142.21 369.588 141.315 370.569 140.532 371.498C139.594 372.6 138.656 373.693 137.726 374.794C137.193 375.414 136.53 376.094 135.721 376.008C134.912 375.922 134.284 374.803 134.353 373.865C134.537 372.946 134.773 372.038 135.058 371.146C135.191 370.697 135.18 370.218 135.026 369.776C134.871 369.334 134.581 368.952 134.198 368.684C130.647 372.249 127.674 376.346 125.386 380.827C125.515 381.18 70.8336 381.016 70.8336 381.016C70.1262 381.005 69.4336 380.812 68.8219 380.456C68.2102 380.101 67.6999 379.594 67.3396 378.985L50.2572 350.147L30.0422 361.86L52.6066 398.718C52.7564 398.966 52.9733 399.166 53.2322 399.296C53.4912 399.425 53.7815 399.479 54.0695 399.45L127.391 392.161C127.391 392.204 128.922 391.903 128.922 391.903C131.826 390.989 134.5 389.463 136.762 387.428C139.651 384.742 142.232 381.743 144.456 378.486C145.618 376.903 146.805 375.182 146.874 373.22C146.943 371.257 145.342 369.123 143.406 369.416Z" fill="#C69C6D"/>
<path d="M25.5947 322.197C29.1605 320.539 33.2391 320.365 36.9331 321.714C40.6271 323.063 43.6339 325.824 45.2921 329.39L55.8991 352.199L29.009 364.704L18.4021 341.895C16.7438 338.329 16.57 334.25 17.9189 330.556C19.2678 326.862 22.0289 323.855 25.5947 322.197Z" fill="#3AC787"/>
<path d="M129.052 362.075L132.141 362.213C131.124 362.012 130.082 361.966 129.052 362.075Z" fill="#C69C6D"/>
<path d="M69.9555 266.321C70.0324 265.393 70.0142 264.46 69.9012 263.535C63.2025 267.311 55.6933 269.419 48.0082 269.681C48.1943 270.315 48.4386 270.931 48.738 271.52C56.0286 273.467 64.5906 271.55 69.9555 266.321Z" fill="white"/>
<path d="M48.4832 270.984C49.9759 274.075 52.8182 275.553 55.805 276.199C57.7685 276.589 59.7997 276.463 61.7 275.833C63.6003 275.204 65.3048 274.092 66.6471 272.607C68.7059 270.33 70.0164 268.226 70.0632 265.13C64.6669 270.381 55.7483 272.935 48.4832 270.984Z" fill="#670002"/>
<path d="M309.082 141.031L332.263 149.505L329.962 155.799C329.464 157.163 328.469 158.281 327.196 158.909C325.923 159.537 324.477 159.623 323.176 159.147L309.808 154.26C308.506 153.785 307.457 152.787 306.889 151.486C306.321 150.185 306.283 148.689 306.781 147.325L309.082 141.031Z" fill="#212121"/>
<path d="M325.118 148.933L314.918 145.204C313.239 144.591 311.381 145.454 310.768 147.133L310.443 148.022C309.829 149.7 310.692 151.558 312.371 152.172L322.571 155.9C324.25 156.514 326.108 155.651 326.721 153.972L327.046 153.083C327.66 151.405 326.796 149.547 325.118 148.933Z" fill="#505050"/>
<path d="M320.873 151.325C321.308 150.133 320.692 148.812 319.495 148.375C318.299 147.937 316.976 148.549 316.54 149.741C316.105 150.933 316.721 152.253 317.917 152.691C319.114 153.128 320.437 152.516 320.873 151.325Z" fill="black"/>
<path d="M315.103 128.419L335.94 136.036C336.369 136.192 336.718 136.513 336.91 136.927C337.103 137.341 337.123 137.814 336.966 138.243L332.572 150.262L308.47 141.451L312.852 129.465C312.927 129.245 313.046 129.044 313.201 128.871C313.356 128.699 313.544 128.56 313.754 128.462C313.965 128.364 314.193 128.31 314.424 128.303C314.656 128.295 314.887 128.335 315.103 128.419Z" fill="#696868"/>
<path d="M315.54 128.603L336.377 136.22C336.806 136.377 337.193 136.592 337.454 136.817C337.715 137.043 337.829 137.262 337.769 137.424L336.103 141.983L312 133.172L313.662 128.626C313.688 128.541 313.758 128.474 313.867 128.427C313.976 128.38 314.123 128.355 314.299 128.353C314.474 128.351 314.674 128.372 314.888 128.415C315.101 128.458 315.323 128.522 315.54 128.603Z" fill="#505050"/>
<path d="M427.66 206.392L439.536 210.738L465.844 177.761L453.968 173.415L427.66 206.392Z" fill="#C1C1C4"/>
<path d="M199.934 123.364L188.058 119.018L189.22 76.8496L201.096 81.1955L199.934 123.364Z" fill="#C1C1C4"/>
<path d="M314.804 77.2454L320.131 58.8893L279.125 22.0997V22.005L276.801 21.1444L279.581 13.7693C279.625 11.9182 279.088 10.0997 278.045 8.56964C277.002 7.03958 275.506 5.87492 273.767 5.23946C272.028 4.604 270.133 4.52972 268.349 5.02705C266.566 5.52439 264.983 6.56832 263.824 8.01203L261.121 15.413L260.648 16.635C259.721 19.1605 259.834 21.9509 260.964 24.3926C262.094 26.8343 264.147 28.7274 266.672 29.6555L274.529 32.5299L314.804 77.2454Z" fill="#CFD0D5"/>
<path d="M453.262 77.34C453.334 75.4765 452.814 73.6382 451.775 72.0895C450.736 70.5409 449.232 69.3617 447.481 68.7217C445.729 68.0817 443.82 68.0139 442.027 68.528C440.234 69.0421 438.651 70.1117 437.505 71.5828L434.803 78.9837L432.479 78.1231L377.402 79.7927L369.657 97.2537L429.089 89.0783L437.066 92.0817C439.592 93.0066 442.381 92.8918 444.822 91.7624C447.263 90.6331 449.157 88.5814 450.087 86.0576L450.543 84.8098L453.245 77.4089L453.262 77.34Z" fill="#B0B1B3"/>
<path d="M308.203 74.8702L215.605 69.3883L213.136 68.5277L214.091 65.7308C214.194 65.5157 214.289 65.2833 214.375 65.051C214.505 64.6874 214.614 64.3168 214.702 63.9408L215.037 62.977L214.891 62.9254C215.188 60.6744 214.708 58.3897 213.532 56.4479C212.355 54.5062 210.552 53.0235 208.419 52.2445C206.287 51.4655 203.952 51.4366 201.801 52.1628C199.65 52.8889 197.811 54.3266 196.587 56.2387L196.363 56.1526L193.265 64.5432L192.748 65.9632L188.755 76.8753L212.516 85.5585L302.231 91.1953L308.203 74.8702Z" fill="#CFD0D5"/>
<path d="M473.21 157.288C473.494 155.045 473.009 152.772 471.833 150.841C470.656 148.91 468.86 147.435 466.736 146.658C464.613 145.882 462.289 145.849 460.144 146.565C458 147.281 456.162 148.704 454.932 150.601L454.794 150.549L454.424 151.496C454.25 151.843 454.095 152.199 453.959 152.563C453.873 152.795 453.804 153.028 453.736 153.26L452.668 156.014L450.672 155.282L376.37 99.7581L370.397 116.109L442.23 169.327L442.152 169.482L465.861 178.139L469.854 167.227L470.37 165.807L473.469 157.339L473.21 157.288Z" fill="#B0B1B3"/>
<path d="M374.933 93.011C374.296 92.7796 373.621 92.6772 372.945 92.7098C372.945 92.7098 380.234 78.5964 377.884 73.5448C376.972 71.5741 372.428 68.8202 372.428 68.8202L373.599 59.2678C373.895 57.6036 373.663 55.8886 372.936 54.3625L372.781 54.0097C372.725 53.9977 372.67 53.9804 372.618 53.9581C365.733 73.6481 357.222 92.3914 351.551 112.477C349.898 118.692 347.786 124.776 345.234 130.678C347.786 124.776 349.898 118.692 351.551 112.477C357.222 92.357 365.759 73.6136 372.618 53.9581C372.67 53.9804 372.725 53.9977 372.781 54.0097C371.817 51.8497 371.43 51.0321 369.984 50.4469L361.335 47.2456C361.499 46.2301 360.243 44.9392 358.384 44.2594C356.525 43.5795 354.761 43.7516 354.218 44.6122L344.623 41.0666C342.86 40.9823 341.1 41.2757 339.46 41.9272H339.391C339.365 43.064 339.164 44.1902 338.797 45.2663C330.905 69.6206 319.942 93.1917 313.84 118.191C319.959 93.1917 330.923 69.6206 338.797 45.2663C339.164 44.1902 339.365 43.064 339.391 41.9272C338.15 42.4712 337.043 43.2788 336.146 44.2938C335.942 44.6796 335.758 45.076 335.596 45.4814L331.74 53.915C331.74 53.915 326.069 52.5984 325.071 53.0545C320.011 55.4038 315.837 71.8753 315.837 71.8753C315.318 71.3644 314.692 70.9763 314.004 70.7393C311.913 69.9734 309.701 70.6619 309.15 72.2711L294.52 112.641C294.09 115.377 295.63 118.252 298.376 119.938C304.09 105.558 316.017 73.6222 315.966 71.9183C316.017 73.6395 304.09 105.558 298.376 119.938C298.921 120.28 299.497 120.568 300.097 120.799C303.685 122.107 309.408 118.656 309.408 118.656L347.566 132.589C347.566 132.589 349.726 138.923 353.306 140.231C357.024 141.591 360.931 140.489 362.704 137.787L377.669 97.3397C378.246 95.7046 377.024 93.8028 374.933 93.011Z" fill="#B7B8BD"/>
<path d="M315.94 71.4966C315.343 71.1339 314.688 70.8776 314.004 70.7393C311.913 69.9734 309.701 70.6619 309.15 72.2711L294.52 112.641C294.377 114.051 294.64 115.474 295.279 116.739C295.918 118.005 296.906 119.061 298.126 119.784C303.737 103.777 310.407 88.2951 315.94 71.4966Z" fill="#A1A2A6"/>
<path d="M331.792 53.8033L331.732 53.941C331.732 53.941 326.06 52.6243 325.062 53.0804C320.484 55.206 316.628 68.9236 315.94 71.4881C324.098 70.3091 331.886 54.4229 331.792 53.8033Z" fill="#CACBD1"/>
<path d="M377.884 73.5449C377.075 71.8237 373.409 69.4313 372.592 68.9236C370.655 76.118 368.289 85.7651 373.194 92.228C374.442 89.6979 379.967 78.0371 377.884 73.5449Z" fill="#CACBD1"/>
<path d="M338.788 45.2922C339.156 44.2161 339.356 43.09 339.382 41.9531C338.142 42.4971 337.035 43.3047 336.138 44.3197C335.933 44.7055 335.749 45.1019 335.587 45.5073L331.792 53.8033C331.886 54.4229 323.487 69.3969 315.94 71.4967C315.871 71.7635 315.828 71.9098 315.828 71.9098C315.781 71.8594 315.729 71.8134 315.673 71.7721C310.071 85.0336 305.837 97.4173 301.508 109.982C305.966 111.419 310.346 113.045 314.701 114.741C320.949 91.0232 331.267 68.5191 338.788 45.2922Z" fill="#BEBEC4"/>
<path d="M351.551 112.512C357.222 92.3914 365.759 73.6481 372.618 53.9925C372.67 54.0148 372.725 54.0321 372.781 54.0441C371.817 51.8841 371.43 51.0665 369.984 50.4813L361.335 47.2456C361.499 46.2301 360.242 44.9392 358.384 44.2594C356.525 43.5795 354.761 43.7516 354.218 44.6122L344.623 41.0666C342.86 40.9823 341.1 41.2757 339.46 41.9272H339.391C339.365 43.064 339.164 44.1902 338.797 45.2663C334.141 69.6206 319.193 90.5756 312.98 114.293C321.241 117.503 331.172 121.376 339.563 124.224C342.024 125.027 344.471 125.851 346.904 126.694C348.75 122.069 350.302 117.332 351.551 112.512Z" fill="#B7B8BD"/>
<path d="M373.229 92.7098H372.945C372.945 92.7098 373.039 92.5376 373.194 92.2278C370.208 85.1969 370.655 76.1178 372.592 68.9234L372.428 68.8202L373.599 59.2678C373.895 57.6036 373.663 55.8885 372.936 54.3625L372.781 54.0096C372.725 53.9976 372.67 53.9803 372.618 53.958C365.733 73.648 348.719 122.004 346.861 126.72C351.663 128.372 356.439 130.102 361.215 131.883C367.093 118.975 367.945 105.515 373.229 92.7098Z" fill="#BEBEC4"/>
<path d="M361.215 131.849C358.986 130.988 353.642 129.026 346.947 126.513C346.387 127.942 345.811 129.345 345.225 130.713C345.802 129.345 346.379 127.942 346.947 126.513C337.265 122.882 324.761 118.209 314.744 114.594C314.425 115.799 314.116 117.004 313.814 118.217C314.116 117.004 314.425 115.799 314.744 114.594C309.322 112.632 304.632 110.989 301.508 109.982C300.361 113.235 299.213 116.502 298.066 119.784C298.685 120.191 299.349 120.526 300.045 120.782C303.634 122.09 309.357 118.639 309.357 118.639L347.566 132.589C347.566 132.589 349.726 138.923 353.306 140.231C354.175 140.548 355.085 140.737 356.008 140.79C355.776 140.394 356.946 139.792 357.101 139.379C358.658 136.975 360.033 134.458 361.215 131.849Z" fill="#A6A6AB"/>
<path d="M374.932 93.0112C374.356 92.8047 373.435 91.4622 372.884 91.4622C366.542 109.775 355.767 140.395 356 140.79C357.281 140.919 358.573 140.709 359.748 140.182C360.923 139.655 361.939 138.829 362.695 137.787L377.66 97.3399C378.246 95.7048 377.024 93.8029 374.932 93.0112Z" fill="#A1A2A6"/>
<path d="M308.634 142.408C308.664 142.24 308.664 142.068 308.634 141.9L316.379 121.178L312.24 119.663L308.84 128.794C308.746 128.923 307.429 128.897 307.188 129.568L303.074 140.833L303.006 141.023V141.083C302.945 141.248 302.921 141.424 302.937 141.599C302.936 141.915 303.032 142.224 303.212 142.484C303.392 142.744 303.647 142.943 303.944 143.054L306.465 143.974C306.86 144.112 307.293 144.088 307.671 143.908C308.048 143.727 308.339 143.405 308.479 143.011L308.548 142.821C308.593 142.687 308.622 142.549 308.634 142.408Z" fill="black"/>
<path d="M331.835 150.885C331.941 150.754 332.059 150.633 332.188 150.523L339.623 129.689L343.762 131.203L340.432 140.334C340.604 140.661 341.439 141.324 341.198 141.986L337.076 153.251L337.007 153.441V153.501C336.944 153.668 336.848 153.821 336.723 153.948C336.516 154.19 336.241 154.363 335.933 154.445C335.626 154.526 335.301 154.512 335.002 154.404L332.48 153.484C332.091 153.337 331.775 153.042 331.602 152.663C331.43 152.284 331.414 151.852 331.559 151.461L331.628 151.272C331.677 151.133 331.747 151.003 331.835 150.885Z" fill="black"/>
<path d="M303.625 119.345C305.55 119.345 307.111 117.784 307.111 115.859C307.111 113.934 305.55 112.374 303.625 112.374C301.7 112.374 300.14 113.934 300.14 115.859C300.14 117.784 301.7 119.345 303.625 119.345Z" fill="#505050"/>
<path d="M353.891 137.718C355.816 137.718 357.377 136.158 357.377 134.233C357.377 132.308 355.816 130.747 353.891 130.747C351.967 130.747 350.406 132.308 350.406 134.233C350.406 136.158 351.967 137.718 353.891 137.718Z" fill="#505050"/>
<path d="M317.635 119.396C318.286 119.396 318.814 118.868 318.814 118.217C318.814 117.566 318.286 117.038 317.635 117.038C316.984 117.038 316.456 117.566 316.456 118.217C316.456 118.868 316.984 119.396 317.635 119.396Z" fill="#505050"/>
<path d="M325.131 122.142C325.782 122.142 326.31 121.614 326.31 120.963C326.31 120.312 325.782 119.784 325.131 119.784C324.48 119.784 323.952 120.312 323.952 120.963C323.952 121.614 324.48 122.142 325.131 122.142Z" fill="#505050"/>
<path d="M332.627 124.878C333.278 124.878 333.806 124.35 333.806 123.699C333.806 123.048 333.278 122.52 332.627 122.52C331.975 122.52 331.448 123.048 331.448 123.699C331.448 124.35 331.975 124.878 332.627 124.878Z" fill="#505050"/>
<path d="M340.114 127.615C340.765 127.615 341.293 127.087 341.293 126.436C341.293 125.785 340.765 125.257 340.114 125.257C339.462 125.257 338.935 125.785 338.935 126.436C338.935 127.087 339.462 127.615 340.114 127.615Z" fill="#505050"/>
<path d="M338.943 102.933C343.454 102.933 347.11 99.2769 347.11 94.7665C347.11 90.256 343.454 86.5996 338.943 86.5996C334.433 86.5996 330.776 90.256 330.776 94.7665C330.776 99.2769 334.433 102.933 338.943 102.933Z" fill="#787878"/>
<path d="M266.879 11.2562L265.355 11.6091L256.879 8.51099L218.936 15.6538L213.678 16.6606L210.012 21.3422L211.793 24.9308L214.229 24.5177L258.738 23.683L267.61 15.6882L268.841 14.9997L266.879 11.2562Z" fill="#383838"/>
<path d="M276.052 14.3028L277.567 13.9327L286.078 16.9275L323.943 9.36307L329.184 8.28735L332.799 3.56279L330.974 0L328.547 0.438894L284.047 1.78139L275.269 9.87081L274.047 10.5765L276.052 14.3028Z" fill="#383838"/>
<path d="M275.325 9.62717L265.949 11.2669C264.662 11.492 263.801 12.7183 264.026 14.0058L264.027 14.0142C264.252 15.3017 265.479 16.1629 266.766 15.9377L276.142 14.2981C277.429 14.0729 278.291 12.8466 278.065 11.5592L278.064 11.5507C277.839 10.2632 276.612 9.40201 275.325 9.62717Z" fill="#0D0D0D"/>
<path d="M444.889 71.8925L443.779 70.7995L441.877 61.97L415.612 33.6657L411.955 29.7587L406.042 29.1562L403.96 32.5727L405.604 34.4144L430.035 71.6343L441.524 74.8787L442.763 75.5499L444.889 71.8925Z" fill="#383838"/>
<path d="M447.195 81.2814L448.323 82.3571L450.319 91.1608L476.902 119.164L480.603 123.028L486.532 123.57L488.572 120.128L486.902 118.303L462.057 81.3675L450.526 78.2522L449.278 77.5981L447.195 81.2814Z" fill="#383838"/>
<path d="M450.78 78.1613L444.395 71.1025C443.519 70.1332 442.022 70.0582 441.053 70.935L441.046 70.9407C440.077 71.8175 440.002 73.3141 440.879 74.2834L447.264 81.3422C448.14 82.3115 449.637 82.3865 450.606 81.5097L450.613 81.504C451.582 80.6272 451.657 79.1306 450.78 78.1613Z" fill="#0D0D0D"/>
<path d="M204.444 57.1249L203.428 55.7911L202.791 46.0924L179.237 11.8414L175.959 7.10824L169.745 5.54199L167 8.85521L168.463 11.0755L188.661 54.5346L200.39 59.7841L201.612 60.6963L204.444 57.1249Z" fill="#383838"/>
<path d="M205.433 67.4864L206.466 68.8117L207.215 78.5018L231.156 112.477L234.495 117.176L240.717 118.673L243.428 115.317L241.939 113.123L221.242 69.9046L209.452 64.7842L208.23 63.8892L205.433 67.4864Z" fill="#383838"/>
<path d="M209.707 64.7273L204.023 56.2296C203.238 55.0564 201.652 54.7404 200.481 55.5239C199.31 56.3075 198.996 57.8938 199.781 59.0671L205.466 67.5647C206.25 68.738 207.836 69.054 209.007 68.2705C210.179 67.4869 210.492 65.9006 209.707 64.7273Z" fill="#0D0D0D"/>
<path d="M468.322 156.754L469.906 156.186L479.338 158.484L519.045 146.289L524.535 144.577L527.891 139.129L525.559 135.515L523.003 136.246L475.525 142.486L467.006 152.098L465.775 152.985L468.322 156.754Z" fill="#383838"/>
<path d="M458.15 154.594L456.575 155.179L447.118 152.993L407.557 165.644L402.084 167.417L398.788 172.899L401.163 176.496L403.71 175.73L451.111 168.949L459.527 159.233L460.741 158.338L458.15 154.594Z" fill="#383838"/>
<path d="M459.499 159.516L469.318 156.637C470.668 156.241 471.442 154.826 471.046 153.476L471.044 153.468C470.648 152.118 469.232 151.344 467.882 151.74L458.063 154.619C456.713 155.014 455.94 156.43 456.336 157.78L456.338 157.788C456.734 159.138 458.149 159.912 459.499 159.516Z" fill="#0D0D0D"/>
</svg>
