<svg width="124" height="98" viewBox="0 0 124 98" fill="none" xmlns="http://www.w3.org/2000/svg">
<path d="M54.7612 63.2883L62.1841 63.5494L62.1719 65.6374C62.1693 66.0898 62.0013 66.5178 61.7048 66.8273C61.4083 67.1369 61.0076 67.3025 60.591 67.2879L56.3102 67.1373C55.8935 67.1226 55.495 66.9288 55.2022 66.5986C54.9094 66.2683 54.7464 65.8287 54.7491 65.3763L54.7612 63.2883Z" fill="#212121"/>
<path d="M60.1034 64.0734L56.8372 63.9585C56.2997 63.9396 55.8614 64.3757 55.8581 64.9325L55.8564 65.2274C55.8532 65.7842 56.2862 66.2509 56.8237 66.2698L60.09 66.3847C60.6274 66.4036 61.0658 65.9676 61.069 65.4108L61.0707 65.1158C61.074 64.559 60.6409 64.0923 60.1034 64.0734Z" fill="#505050"/>
<path d="M59.1442 65.1937C59.1465 64.7983 58.8379 64.4669 58.4548 64.4534C58.0717 64.4399 57.7593 64.7495 57.757 65.1449C57.7547 65.5403 58.0634 65.8718 58.4464 65.8852C58.8295 65.8987 59.1419 65.5891 59.1442 65.1937Z" fill="black"/>
<path d="M55.1848 58.9674L61.8571 59.2021C61.9944 59.2069 62.1257 59.2681 62.2222 59.3721C62.3187 59.476 62.3725 59.6144 62.3716 59.7566L62.3484 63.7437L54.6305 63.4722L54.6537 59.4958C54.6527 59.4235 54.6658 59.3522 54.6922 59.2861C54.7186 59.22 54.7578 59.1605 54.8074 59.1111C54.857 59.0618 54.916 59.0236 54.9809 58.9989C55.0457 58.9742 55.1151 58.9635 55.1848 58.9674Z" fill="#696868"/>
<path d="M55.3274 58.9796L61.9997 59.2143C62.137 59.2191 62.2685 59.2451 62.3654 59.2867C62.4622 59.3283 62.5165 59.3819 62.5162 59.4359L62.5074 60.9483L54.7894 60.6768L54.7982 59.1685C54.797 59.141 54.8098 59.1142 54.836 59.0897C54.8622 59.0652 54.9012 59.0435 54.9506 59.0258C55 59.0082 55.0589 58.995 55.1236 58.9871C55.1884 58.9791 55.2577 58.9765 55.3274 58.9796Z" fill="#505050"/>
<path d="M94.967 71.146L98.7703 71.2811L102.869 58.9583L99.0655 58.8232L94.967 71.146Z" fill="#C1C1C4"/>
<path d="M22.0685 68.6457L18.2652 68.5105L14.3118 55.9048L18.1151 56.04L22.0685 68.6457Z" fill="#C1C1C4"/>
<path d="M49.9036 43.8359L49.5475 37.8807L34.2029 30.9604L34.1933 30.9323L33.4481 30.9028L33.4861 28.4481C33.3106 27.8954 32.9739 27.4087 32.5233 27.0566C32.0727 26.7045 31.5309 26.5047 30.974 26.4852C30.4171 26.4657 29.8732 26.6275 29.4188 26.9479C28.9644 27.2683 28.6223 27.7312 28.4407 28.2714L28.4273 30.7263L28.4174 31.1343C28.4114 31.9725 28.7269 32.7881 29.2947 33.4019C29.8624 34.0157 30.6359 34.3773 31.445 34.4072L33.9612 34.4964L49.9036 43.8359Z" fill="#CFD0D5"/>
<path d="M89.1093 30.4282C88.9405 29.8691 88.6063 29.375 88.155 29.017C87.7036 28.659 87.1582 28.4556 86.5974 28.4359C86.0365 28.4163 85.4891 28.5815 85.0338 28.9077C84.5786 29.234 84.239 29.7045 84.0639 30.2516L84.0505 32.7064L83.3053 32.6769L67.8832 38.516L67.4638 44.4407L83.458 36.2516L86.0214 36.3673C86.8303 36.3962 87.6083 36.0915 88.1846 35.5201C88.761 34.9486 89.0886 34.157 89.0956 33.3191L89.098 32.9051L89.1114 30.4503L89.1093 30.4282Z" fill="#B0B1B3"/>
<path d="M47.7936 43.7726L21.0234 51.1339L20.2368 51.1186L20.2232 50.1973C20.2306 50.1236 20.2338 50.0456 20.2345 49.9684C20.2344 49.848 20.2276 49.7276 20.2144 49.6077L20.2115 49.2896L20.1648 49.2885C20.0202 48.5929 19.6525 47.9625 19.1222 47.5014C18.5919 47.0403 17.9309 46.776 17.2481 46.7521C16.5653 46.7283 15.9015 46.9463 15.3663 47.3701C14.8311 47.794 14.4563 48.3984 14.304 49.0837L14.2319 49.0799L14.207 51.8664L14.205 52.3372L14.1827 55.9575L21.7909 56.2244L47.7608 49.1887L47.7936 43.7726Z" fill="#CFD0D5"/>
<path d="M102.875 52.1782C102.728 51.4861 102.359 50.8598 101.83 50.4019C101.301 49.9439 100.643 49.6814 99.9631 49.6574C99.2831 49.6333 98.6218 49.849 98.0875 50.2693C97.5531 50.6896 97.1774 51.2895 97.0217 51.9709L96.9774 51.9689L96.9688 52.2853C96.9548 52.405 96.9471 52.5256 96.9456 52.6465C96.9449 52.7237 96.949 52.7992 96.9531 52.8748L96.9307 53.7942L96.2912 53.7712L69.6183 44.5313L69.5881 49.9551L95.3275 58.7513L95.3213 58.8047L102.912 59.069L102.934 55.4487L102.936 54.9779L102.954 52.1684L102.875 52.1782Z" fill="#B0B1B3"/>
<path d="M68.5262 42.672C68.3227 42.6651 68.121 42.7004 67.9329 42.7757C67.9329 42.7757 68.5631 37.887 67.385 36.6184C66.9266 36.1231 65.3607 35.7481 65.3607 35.7481L64.7219 32.8045C64.6367 32.2828 64.3969 31.7971 64.0362 31.4155L63.9565 31.326C63.9394 31.3279 63.9222 31.3281 63.905 31.3266C63.9556 37.8281 63.4496 44.207 63.8839 50.7081C64.0471 52.7097 64.0672 54.717 63.9441 56.7134C64.0672 54.717 64.0471 52.7097 63.8839 50.7081C63.4461 44.1968 63.9594 37.8154 63.905 31.3266C63.9222 31.3281 63.9394 31.3279 63.9565 31.326C63.4643 30.7796 63.2716 30.575 62.8029 30.5419L60.0294 30.4327C59.9726 30.116 59.4858 29.8555 58.8906 29.8344C58.2953 29.8134 57.8133 30.0356 57.7473 30.3432L54.6708 30.2238C54.1632 30.3699 53.6947 30.6277 53.2965 30.9798L53.277 30.9865C53.3851 31.3258 53.4428 31.6789 53.448 32.0334C53.6873 40.0145 52.9772 48.0617 53.7888 56.0603C52.9821 48.06 53.6921 40.0128 53.448 32.0334C53.4428 31.6789 53.3851 31.3258 53.277 30.9865C52.9811 31.268 52.7497 31.6147 52.5989 32.0025C52.5801 32.1366 52.5684 32.2719 52.5636 32.4078L52.3286 35.2805C52.3286 35.2805 50.5895 35.4407 50.3532 35.6727C49.1593 36.8598 49.6504 42.1447 49.6504 42.1447C49.4518 42.0436 49.235 41.9894 49.0162 41.986C48.3464 41.962 47.7902 42.3806 47.7977 42.9108L47.7558 56.2905C47.9119 57.1431 48.6399 57.8451 49.5883 58.0785C49.7456 53.2636 49.879 42.6447 49.6913 42.1449C49.8807 42.6498 49.7456 53.2636 49.5883 58.0785C49.7772 58.1266 49.9697 58.1561 50.163 58.1664C51.3117 58.2057 52.5813 56.628 52.5813 56.628L64.7984 57.0531C64.7984 57.0531 66.0531 58.72 67.1994 58.7601C68.3899 58.8022 69.3841 58.0967 69.6115 57.1241L69.7405 43.6889C69.7377 43.1485 69.1986 42.7036 68.5262 42.672Z" fill="#B7B8BD"/>
<path d="M49.6413 42.0225C49.4356 41.9729 49.2241 41.9606 49.0163 41.986C48.3465 41.962 47.7903 42.3806 47.7978 42.9108L47.7559 56.2906C47.8585 56.7224 48.0775 57.1182 48.3869 57.4312C48.6964 57.7442 49.0833 57.9613 49.5021 58.0568C49.4649 52.7701 49.7808 47.5362 49.6413 42.0225Z" fill="#A1A2A6"/>
<path d="M52.3318 35.242L52.3287 35.2886C52.3287 35.2886 50.5895 35.4489 50.3532 35.6809C49.273 36.7549 49.5747 41.193 49.6402 42.0196C51.83 40.8787 52.4215 35.4164 52.3318 35.242Z" fill="#CACBD1"/>
<path d="M67.385 36.6184C66.9812 36.187 65.7005 35.834 65.4175 35.7629C65.5999 38.0822 65.9097 41.17 67.9546 42.6087C68.0509 41.738 68.4308 37.7472 67.385 36.6184Z" fill="#CACBD1"/>
<path d="M53.4483 32.0419C53.443 31.6874 53.3854 31.3343 53.2773 30.995C52.9814 31.2765 52.75 31.6232 52.5992 32.011C52.5804 32.1451 52.5686 32.2804 52.5638 32.4163L52.332 35.2423C52.4217 35.4167 51.5646 40.668 49.6413 42.0225C49.6489 42.1082 49.6516 42.1557 49.6516 42.1557C49.633 42.1454 49.6137 42.1368 49.5937 42.13C49.3545 46.6025 49.4135 50.6822 49.464 54.8246C50.8719 54.8179 52.2771 54.8747 53.682 54.9544C53.0421 47.3215 53.6778 39.6531 53.4483 32.0419Z" fill="#BEBEC4"/>
<path d="M63.8875 50.7181C63.4497 44.2068 63.963 37.8255 63.9085 31.3366C63.9257 31.3381 63.943 31.3379 63.9601 31.3361C63.4679 30.7897 63.2752 30.585 62.8065 30.5519L60.0295 30.4326C59.9727 30.1158 59.4859 29.8553 58.8906 29.8343C58.2954 29.8132 57.8134 30.0354 57.7473 30.343L54.6709 30.2237C54.1633 30.3697 53.6947 30.6275 53.2966 30.9797L53.2771 30.9863C53.3852 31.3257 53.4428 31.6787 53.4481 32.0332C54.6033 39.7003 52.4997 47.3591 53.1493 54.9887C55.8141 55.138 59.0187 55.3216 61.6833 55.3513C62.4616 55.3505 63.2379 55.3569 64.0122 55.3707C64.0653 53.8214 64.0236 52.2674 63.8875 50.7181Z" fill="#B7B8BD"/>
<path d="M68.0133 42.7476L67.9329 42.7751C67.9329 42.7751 67.9422 42.7149 67.9546 42.6081C66.3952 40.8149 65.5999 38.0816 65.4174 35.7623L65.3607 35.7476L64.7219 32.804C64.6367 32.2822 64.3969 31.7966 64.0362 31.415L63.9565 31.3255C63.9394 31.3274 63.9222 31.3276 63.905 31.3261C63.9556 37.8276 64.0499 53.8046 64.0026 55.3822C65.5298 55.4057 67.0575 55.4547 68.5905 55.519C68.9435 51.1243 67.8179 47.0541 68.0133 42.7476Z" fill="#BEBEC4"/>
<path d="M68.587 55.5092C67.8687 55.4705 66.1565 55.4078 64.006 55.313C63.9927 55.7905 63.9719 56.262 63.9452 56.7242C63.9695 56.2629 63.9903 55.7913 64.006 55.313C60.8964 55.1765 56.8821 55.0055 53.6793 54.9067C53.7115 55.2945 53.7462 55.6815 53.7841 56.0702C53.7462 55.6815 53.7115 55.2945 53.6793 54.9067C51.9452 54.8514 50.4506 54.8196 49.464 54.8244C49.4695 55.8995 49.4765 56.9788 49.4849 58.0624C49.7016 58.123 49.9237 58.1578 50.1466 58.1661C51.2954 58.2054 52.565 56.6277 52.565 56.6277L64.7984 57.0529C64.7984 57.0529 66.0531 58.7198 67.1994 58.7599C67.4775 58.7697 67.7544 58.7372 68.0212 58.6634C67.9152 58.5687 68.1853 58.2766 68.1872 58.1392C68.3839 57.2759 68.5175 56.3968 68.587 55.5092Z" fill="#A6A6AB"/>
<path d="M68.5262 42.6719C68.342 42.6667 67.945 42.3583 67.7891 42.4118C67.8533 48.4527 67.9127 58.5697 68.0186 58.6644C68.3943 58.5781 68.7389 58.3905 69.0179 58.1203C69.297 57.8502 69.5008 57.507 69.609 57.1249L69.738 43.6897C69.7377 43.1485 69.1986 42.7036 68.5262 42.6719Z" fill="#A1A2A6"/>
<path d="M54.7741 63.74C54.7656 63.6873 54.7481 63.6364 54.7225 63.5896L54.8107 56.6986L53.485 56.6515L53.45 59.6865C53.4363 59.7339 53.0609 59.854 53.0609 60.0763L53.0404 63.8129L53.0401 63.8756L53.0462 63.8935C53.0458 63.9482 53.0571 64.0028 53.0792 64.0531C53.1111 64.1469 53.1697 64.2291 53.247 64.2886C53.3244 64.3482 53.4168 64.3823 53.5119 64.3863L54.3192 64.4144C54.445 64.417 54.5653 64.3678 54.6537 64.2777C54.7422 64.1876 54.7917 64.0638 54.7914 63.9335L54.7917 63.8707C54.7909 63.8267 54.785 63.7828 54.7741 63.74Z" fill="black"/>
<path d="M62.2029 63.9997C62.2197 63.9506 62.2408 63.9032 62.266 63.8584L62.2551 56.9643L63.5807 57.0114L63.5652 60.0397C63.6471 60.1198 63.9507 60.2351 63.9498 60.4548L63.9268 64.1923L63.9266 64.255L63.9327 64.2729C63.932 64.3285 63.9201 64.3831 63.8977 64.433C63.8638 64.5247 63.8034 64.6027 63.7247 64.6567C63.6459 64.7107 63.5525 64.738 63.4568 64.7352L62.6495 64.707C62.5243 64.7013 62.4049 64.6445 62.3176 64.549C62.2303 64.4534 62.182 64.327 62.1835 64.1972L62.1837 64.1345C62.1835 64.0886 62.1899 64.0432 62.2029 63.9997Z" fill="black"/>
<path d="M51.0141 57.393C51.5591 57.2062 51.8423 56.5925 51.6469 56.0222C51.4514 55.4519 50.8512 55.141 50.3062 55.3278C49.7613 55.5146 49.478 56.1283 49.6735 56.6986C49.869 57.2689 50.4692 57.5798 51.0141 57.393Z" fill="#505050"/>
<path d="M67.1098 57.9589C67.6548 57.7721 67.938 57.1584 67.7426 56.5881C67.5471 56.0178 66.9469 55.7069 66.402 55.8937C65.857 56.0805 65.5738 56.6942 65.7692 57.2645C65.9647 57.8348 66.5649 58.1457 67.1098 57.9589Z" fill="#505050"/>
<path d="M54.9854 56.0488C55.1698 55.9856 55.2656 55.778 55.1995 55.5851C55.1334 55.3922 54.9303 55.287 54.746 55.3502C54.5617 55.4134 54.4658 55.621 54.532 55.8139C54.5981 56.0068 54.8011 56.112 54.9854 56.0488Z" fill="#505050"/>
<path d="M57.386 56.1347C57.5703 56.0715 57.6661 55.8639 57.6 55.671C57.5339 55.4781 57.3308 55.3729 57.1465 55.4361C56.9622 55.4993 56.8663 55.7069 56.9325 55.8998C56.9986 56.0927 57.2016 56.1979 57.386 56.1347Z" fill="#505050"/>
<path d="M59.786 56.218C59.9703 56.1548 60.0661 55.9472 60 55.7543C59.9339 55.5614 59.7309 55.4562 59.5465 55.5194C59.3622 55.5826 59.2664 55.7902 59.3325 55.9831C59.3986 56.176 59.6017 56.2812 59.786 56.218Z" fill="#505050"/>
<path d="M62.1836 56.3024C62.3679 56.2393 62.4637 56.0317 62.3976 55.8387C62.3315 55.6458 62.1284 55.5407 61.9441 55.6039C61.7598 55.667 61.664 55.8746 61.7301 56.0676C61.7962 56.2605 61.9992 56.3656 62.1836 56.3024Z" fill="#505050"/>
<path d="M59.3457 49.1038C60.6226 48.6661 61.2863 47.228 60.8283 45.8917C60.3702 44.5554 58.9638 43.827 57.687 44.2646C56.4101 44.7023 55.7463 46.1404 56.2044 47.4767C56.6624 48.813 58.0688 49.5414 59.3457 49.1038Z" fill="#787878"/>
<path d="M29.6349 28.936L29.2395 29.1884L26.5253 29.0931L16.5094 34.8911L15.1231 35.6996L14.5607 37.4423L15.4295 38.3326L16.077 37.9739L28.5922 33.4076L30.2921 30.1781L30.5705 29.8547L29.6349 28.936Z" fill="#383838"/>
<path d="M32.5412 28.9484L32.9324 28.6918L35.646 28.7531L45.5971 22.8377L46.9715 22.0105L47.5149 20.26L46.6366 19.3815L45.9942 19.747L33.5329 24.4629L31.8695 27.7113L31.5952 28.039L32.5412 28.9484Z" fill="#383838"/>
<path d="M31.8605 27.6337L29.3728 29.0292C29.0312 29.2209 28.9119 29.6677 29.1064 30.0273L29.1077 30.0297C29.3022 30.3893 29.7368 30.5254 30.0784 30.3338L32.566 28.9382C32.9077 28.7466 33.0269 28.2997 32.8324 27.9401L32.8311 27.9377C32.6367 27.5782 32.2021 27.442 31.8605 27.6337Z" fill="#0D0D0D"/>
<path d="M86.1855 29.6269L85.7602 29.4108L84.3252 26.9795L74.0155 21.1425L72.5833 20.3399L70.8485 20.7352L70.6059 21.9494L71.2582 22.3356L81.9544 30.9917L85.5362 30.8381L85.9552 30.9167L86.1855 29.6269Z" fill="#383838"/>
<path d="M87.7918 32.1842L88.2202 32.3935L89.6794 34.808L100.049 40.5248L101.489 41.3105L103.222 40.8958L103.45 39.678L102.792 39.2995L92.0078 30.7676L88.427 30.9636L88.0073 30.8909L87.7918 32.1842Z" fill="#383838"/>
<path d="M88.4901 30.9126L85.9658 29.4409C85.6191 29.2388 85.1879 29.3618 85.0025 29.7156L85.0013 29.7179C84.8159 30.0717 84.9467 30.5224 85.2933 30.7245L87.8176 32.1962C88.1642 32.3983 88.5955 32.2753 88.7809 31.9215L88.7821 31.9192C88.9675 31.5653 88.8367 31.1147 88.4901 30.9126Z" fill="#0D0D0D"/>
<path d="M16.6183 48.5839L16.1954 48.2872L15.0302 45.4756L4.88403 37.6139L3.47518 36.5298L1.55718 36.6687L1.1165 37.9166L1.75613 38.4325L11.8873 49.348L15.7409 49.765L16.1795 49.9167L16.6183 48.5839Z" fill="#383838"/>
<path d="M17.9506 51.5574L18.3776 51.8499L19.5736 54.648L29.8014 62.3906L31.2238 63.4587L33.1373 63.2986L33.5638 62.0412L32.9195 61.5355L22.6715 50.7398L18.8139 50.3669L18.3771 50.2203L17.9506 51.5574Z" fill="#383838"/>
<path d="M18.8805 50.3254L16.4083 48.3594C16.067 48.088 15.586 48.1482 15.334 48.494C15.082 48.8398 15.1544 49.3402 15.4957 49.6116L17.9679 51.5776C18.3092 51.8491 18.7902 51.7888 19.0422 51.443C19.2942 51.0972 19.2218 50.5968 18.8805 50.3254Z" fill="#0D0D0D"/>
<path d="M101.437 52.4944L101.828 52.1725L104.731 51.938L114.734 44.4722L116.114 43.432L116.511 41.4925L115.484 40.648L114.834 41.1127L102.027 47.5682L100.592 51.2429L100.333 51.6249L101.437 52.4944Z" fill="#383838"/>
<path d="M98.3382 52.8416L97.9518 53.1678L95.0525 53.4379L85.1379 61.0246L83.7685 62.081L83.3921 64.0249L84.4298 64.8601L85.0732 64.386L97.8031 57.7774L99.1991 54.0822L99.4517 53.6993L98.3382 52.8416Z" fill="#383838"/>
<path d="M99.22 54.169L101.707 52.3633C102.049 52.1151 102.125 51.6207 101.875 51.2592L101.874 51.257C101.625 50.8954 101.146 50.8036 100.804 51.0518L98.3163 52.8575C97.9743 53.1057 97.899 53.6001 98.1482 53.9616L98.1497 53.9639C98.3988 54.3254 98.878 54.4173 99.22 54.169Z" fill="#0D0D0D"/>
</svg>
