<svg width="599" height="205" viewBox="0 0 599 205" fill="none" xmlns="http://www.w3.org/2000/svg">
<path d="M53.833 158.422C64.7001 168.336 78.2149 174.878 92.7323 177.25C107.25 179.622 122.144 177.723 135.601 171.784C149.059 165.845 160.5 156.122 168.532 143.798C176.564 131.474 180.84 117.081 180.84 102.371C180.84 87.6614 176.564 73.2686 168.532 60.9449C160.5 48.6212 149.059 38.898 135.601 32.9588C122.144 27.0197 107.25 25.1206 92.7323 27.493C78.2149 29.8653 64.7001 36.4066 53.833 46.3207" stroke="black" stroke-width="8.66478" stroke-miterlimit="10"/>
<path d="M168.377 30.766C150.533 14.2766 127.15 5.08241 102.854 5.00121C49.0799 4.73601 5.27155 48.116 5.00126 101.89C4.73096 155.663 48.116 199.487 101.89 199.742C126.176 199.895 149.637 190.934 167.638 174.63" stroke="black" stroke-width="9.84286" stroke-miterlimit="10"/>
<path d="M135.146 59.147H114.481L137.207 102.476L114.481 145.596H135.146L157.866 102.476L135.146 59.147Z" fill="#FFE742"/>
<path d="M131.785 59.147H123.728L146.448 102.476L123.728 145.596H131.785L154.511 102.476L131.785 59.147Z" fill="#FFE321"/>
<path d="M135.095 59.147H130.975L153.695 102.476L130.975 145.596H135.095L157.815 102.476L135.095 59.147Z" fill="#FFDF00"/>
<path d="M101.002 59.147H72.4682L95.1884 102.476L72.4682 145.596H101.002L123.728 102.476L101.002 59.147Z" fill="#FFE742"/>
<path d="M94.5618 59.1471H82.5617L105.282 102.476L82.5617 145.596H94.5618L117.282 102.476L94.5618 59.1471Z" fill="#FFE321"/>
<path d="M100.956 59.147H94.0766L116.797 102.476L94.0766 145.596H100.956L123.677 102.476L100.956 59.147Z" fill="#FFDF00"/>
<path d="M220.111 94.3114V107.752C220.111 108.348 220.246 108.799 220.515 109.107C220.803 109.415 221.294 109.665 221.986 109.857V110.78H209.613V109.857C210.305 109.665 210.795 109.415 211.084 109.107C211.372 108.799 211.516 108.348 211.516 107.752V94.3114L198.797 76.4009C197.701 74.8626 196.836 73.834 196.201 73.3148C195.586 72.7764 194.846 72.4496 193.981 72.3342V71.4113H209.526V72.3342C208.238 72.5457 207.594 73.1418 207.594 74.1224C207.594 74.4685 207.988 75.228 208.776 76.4009L215.871 86.9568L223.168 76.4009C223.957 75.2664 224.351 74.4973 224.351 74.0935C224.351 73.6513 224.178 73.2764 223.832 72.9687C223.485 72.6419 223.014 72.4303 222.418 72.3342V71.4113H237.647V72.3342C236.781 72.4496 236.032 72.7764 235.397 73.3148C234.782 73.834 233.926 74.8626 232.83 76.4009L220.111 94.3114ZM259.335 70.7191C266.2 70.7191 271.641 72.5746 275.66 76.2855C279.909 80.1695 282.034 85.1879 282.034 91.3407C282.034 95.1094 281.015 98.628 278.976 101.897C274.996 108.28 268.469 111.472 259.393 111.472C252.587 111.472 247.174 109.617 243.155 105.906C241.002 103.925 239.367 101.551 238.252 98.7818C237.272 96.3399 236.781 93.773 236.781 91.0812C236.781 87.1395 237.791 83.5343 239.81 80.2656C243.674 74.0166 250.183 70.8345 259.335 70.7191ZM259.364 77.3815C255.615 77.3815 252.49 78.4967 249.991 80.7271C247.03 83.3613 245.549 86.8126 245.549 91.0812C245.549 95.3497 247.03 98.8011 249.991 101.435C252.49 103.666 255.634 104.781 259.422 104.781C263.21 104.781 266.344 103.666 268.824 101.435C270.305 100.109 271.439 98.4838 272.228 96.5611C272.92 94.8498 273.266 93.0808 273.266 91.2542C273.266 86.7934 271.785 83.2844 268.824 80.7271C266.305 78.5351 263.152 77.4199 259.364 77.3815ZM328.295 74.4396V96.5034C328.295 100.676 327.526 103.8 325.988 105.877C323.219 109.607 317.499 111.472 308.827 111.472C302.559 111.472 297.762 110.463 294.436 108.444C292.494 107.271 291.148 105.675 290.398 103.656C289.667 101.656 289.302 99.2722 289.302 96.5034V74.4396C289.302 73.8436 289.167 73.3917 288.898 73.0841C288.629 72.7764 288.148 72.5265 287.456 72.3342V71.4113H299.771V72.3342C299.079 72.5073 298.589 72.7572 298.3 73.0841C298.031 73.3917 297.896 73.8436 297.896 74.4396V94.0807C297.896 96.3496 298.021 98.032 298.271 99.1279C298.521 100.205 298.992 101.108 299.685 101.839C301.531 103.8 304.684 104.781 309.145 104.781C313.625 104.781 316.788 103.8 318.634 101.839C319.306 101.108 319.768 100.205 320.018 99.1279C320.268 98.032 320.393 96.3496 320.393 94.0807V74.4396C320.393 73.8436 320.258 73.3917 319.989 73.0841C319.72 72.7764 319.239 72.5265 318.547 72.3342V71.4113H330.141V72.3342C329.449 72.5265 328.968 72.7764 328.699 73.0841C328.43 73.3917 328.295 73.8436 328.295 74.4396ZM346.898 94.7152V107.78C346.898 108.357 347.033 108.809 347.302 109.136C347.59 109.444 348.071 109.684 348.744 109.857V110.78H336.458V109.857C337.15 109.665 337.63 109.415 337.9 109.107C338.169 108.799 338.303 108.357 338.303 107.78V74.4396C338.303 73.8436 338.169 73.3917 337.9 73.0841C337.63 72.7764 337.15 72.5265 336.458 72.3342V71.4113H361.088C364.088 71.4113 366.462 71.5843 368.212 71.9304C369.981 72.2765 371.519 72.8822 372.827 73.7474C374.346 74.7473 375.48 76.1028 376.23 77.8141C376.941 79.4677 377.297 81.2366 377.297 83.1209C377.297 89.543 373.73 93.302 366.597 94.3979L374.24 105.271C375.586 107.175 376.566 108.405 377.182 108.963C377.816 109.501 378.585 109.799 379.489 109.857V110.78H365.241V109.857C366.222 109.703 366.712 109.357 366.712 108.819C366.712 108.473 366.26 107.636 365.357 106.309L357.396 94.7152H346.898ZM346.898 88.2259H360.165C362.126 88.2259 363.511 88.1682 364.318 88.0528C365.126 87.9375 365.866 87.6971 366.539 87.3318C368.001 86.5434 368.731 85.1206 368.731 83.0632C368.731 81.0059 368.001 79.583 366.539 78.7947C365.847 78.4101 365.107 78.1698 364.318 78.0737C363.549 77.9583 362.165 77.9006 360.165 77.9006H346.898V88.2259ZM409.427 104.291H433.625C434.221 104.291 434.672 104.156 434.98 103.887C435.288 103.618 435.538 103.137 435.73 102.445H436.653V112.626H435.73C435.538 111.934 435.288 111.453 434.98 111.184C434.672 110.915 434.221 110.78 433.625 110.78H398.986V109.857C399.678 109.665 400.159 109.415 400.428 109.107C400.697 108.799 400.832 108.348 400.832 107.752V74.4396C400.832 73.8436 400.697 73.3917 400.428 73.0841C400.159 72.7764 399.678 72.5265 398.986 72.3342V71.4113H411.272V72.3342C410.58 72.5073 410.099 72.7572 409.83 73.0841C409.561 73.3917 409.427 73.8436 409.427 74.4396V104.291ZM461.803 70.7191C468.667 70.7191 474.108 72.5746 478.127 76.2855C482.376 80.1695 484.501 85.1879 484.501 91.3407C484.501 95.1094 483.482 98.628 481.444 101.897C477.464 108.28 470.936 111.472 461.86 111.472C455.054 111.472 449.641 109.617 445.623 105.906C443.469 103.925 441.835 101.551 440.72 98.7818C439.739 96.3399 439.249 93.773 439.249 91.0812C439.249 87.1395 440.258 83.5343 442.277 80.2656C446.142 74.0166 452.65 70.8345 461.803 70.7191ZM461.831 77.3815C458.082 77.3815 454.958 78.4967 452.458 80.7271C449.497 83.3613 448.016 86.8126 448.016 91.0812C448.016 95.3497 449.497 98.8011 452.458 101.435C454.958 103.666 458.101 104.781 461.889 104.781C465.677 104.781 468.811 103.666 471.291 101.435C472.772 100.109 473.906 98.4838 474.695 96.5611C475.387 94.8498 475.733 93.0808 475.733 91.2542C475.733 86.7934 474.253 83.2844 471.291 80.7271C468.773 78.5351 465.619 77.4199 461.831 77.3815ZM525.715 96.6187H515.996C515.4 96.6187 514.948 96.7533 514.64 97.0225C514.352 97.2917 514.111 97.7724 513.919 98.4646H512.996V89.293H513.919C514.111 90.0044 514.352 90.4947 514.64 90.7639C514.948 91.0139 515.4 91.1389 515.996 91.1389H534.685V92.0618C533.993 92.2541 533.503 92.504 533.214 92.8117C532.945 93.1193 532.81 93.5712 532.81 94.1672V102.243C532.81 102.839 532.945 103.291 533.214 103.598C533.483 103.906 533.974 104.156 534.685 104.348V105.069C527.206 109.338 519.957 111.472 512.939 111.472C506.574 111.472 501.383 109.963 497.364 106.944C492.307 103.137 489.779 97.8493 489.779 91.0812C489.779 84.7745 492.029 79.7561 496.528 76.0259C500.796 72.488 506.468 70.7191 513.544 70.7191C515.794 70.7191 517.909 70.9306 519.889 71.3536C521.889 71.7574 524.158 72.4496 526.696 73.4302C528.003 73.9493 528.936 74.2089 529.494 74.2089C529.897 74.2089 530.368 73.9878 530.907 73.5456L531.714 73.9782L527.1 83.4093L526.263 82.9767C526.244 82.3422 526.158 81.8904 526.004 81.6212C525.85 81.3328 525.504 80.9867 524.965 80.5829C523.793 79.6984 522.072 78.9485 519.803 78.3332C517.534 77.6987 515.39 77.3815 513.371 77.3815C509.256 77.3815 505.844 78.5351 503.132 80.8424C500.075 83.4574 498.547 86.9088 498.547 91.1965C498.547 95.3497 500.037 98.7049 503.017 101.262C505.747 103.608 509.343 104.781 513.804 104.781C515.977 104.781 518.12 104.531 520.235 104.031C522.351 103.531 524.177 102.848 525.715 101.983V96.6187ZM563.036 70.7191C569.901 70.7191 575.342 72.5746 579.361 76.2855C583.61 80.1695 585.734 85.1879 585.734 91.3407C585.734 95.1094 584.715 98.628 582.677 101.897C578.697 108.28 572.169 111.472 563.094 111.472C556.287 111.472 550.875 109.617 546.856 105.906C544.703 103.925 543.068 101.551 541.953 98.7818C540.973 96.3399 540.482 93.773 540.482 91.0812C540.482 87.1395 541.492 83.5343 543.511 80.2656C547.375 74.0166 553.884 70.8345 563.036 70.7191ZM563.065 77.3815C559.316 77.3815 556.191 78.4967 553.692 80.7271C550.731 83.3613 549.25 86.8126 549.25 91.0812C549.25 95.3497 550.731 98.8011 553.692 101.435C556.191 103.666 559.335 104.781 563.123 104.781C566.911 104.781 570.045 103.666 572.525 101.435C574.006 100.109 575.14 98.4838 575.928 96.5611C576.621 94.8498 576.967 93.0808 576.967 91.2542C576.967 86.7934 575.486 83.2844 572.525 80.7271C570.006 78.5351 566.853 77.4199 563.065 77.3815Z" fill="black"/>
<path d="M201.053 124.146H585.684" stroke="black" stroke-width="5.90571" stroke-miterlimit="10"/>
<path d="M233.758 154.406V160.235C233.758 160.545 233.828 160.785 233.967 160.955C234.107 161.114 234.357 161.249 234.717 161.359V161.764H228.783V161.359C229.142 161.259 229.392 161.129 229.532 160.97C229.672 160.8 229.742 160.555 229.742 160.235V154.406L224.767 147.559C224.208 146.79 223.758 146.265 223.419 145.985C223.089 145.696 222.694 145.501 222.235 145.401V144.981H229.787V145.401C229.137 145.571 228.813 145.875 228.813 146.315C228.813 146.535 229.048 146.974 229.517 147.634L231.96 151.02L234.342 147.634C234.811 146.964 235.046 146.52 235.046 146.3C235.046 145.88 234.727 145.581 234.087 145.401L234.072 144.981H241.265V145.401C240.805 145.501 240.406 145.696 240.066 145.985C239.736 146.265 239.292 146.79 238.732 147.559L233.758 154.406ZM250.465 144.622C253.132 144.622 255.355 145.301 257.133 146.66C259.261 148.298 260.325 150.581 260.325 153.507C260.325 156.255 259.261 158.447 257.133 160.085C255.375 161.444 253.162 162.123 250.495 162.123C247.828 162.123 245.615 161.444 243.857 160.085C241.719 158.447 240.65 156.21 240.65 153.373C240.65 150.506 241.719 148.268 243.857 146.66C245.625 145.331 247.828 144.652 250.465 144.622ZM250.48 147.798C248.752 147.798 247.343 148.353 246.254 149.462C245.245 150.501 244.741 151.804 244.741 153.373C244.741 154.931 245.245 156.23 246.254 157.268C247.343 158.387 248.757 158.947 250.495 158.947C252.223 158.947 253.632 158.387 254.72 157.268C255.729 156.24 256.234 154.966 256.234 153.447C256.234 151.799 255.729 150.471 254.72 149.462C253.622 148.373 252.208 147.818 250.48 147.798ZM280.508 146.51V155.395C280.508 157.423 280.109 158.912 279.309 159.861C278.021 161.369 275.593 162.123 272.027 162.123C269.64 162.123 267.712 161.759 266.243 161.029C265.184 160.5 264.46 159.746 264.071 158.767C263.711 157.868 263.531 156.744 263.531 155.395V146.51C263.531 146.2 263.461 145.965 263.321 145.806C263.181 145.646 262.932 145.511 262.572 145.401V144.981H268.521V145.401C268.151 145.501 267.896 145.636 267.757 145.806C267.617 145.965 267.547 146.2 267.547 146.51V154.586C267.547 155.525 267.627 156.245 267.787 156.744C267.956 157.243 268.246 157.653 268.656 157.973C269.475 158.622 270.659 158.947 272.207 158.947C273.755 158.947 274.939 158.622 275.758 157.973C276.158 157.653 276.437 157.243 276.597 156.744C276.757 156.245 276.837 155.525 276.837 154.586V146.51C276.837 146.2 276.767 145.965 276.627 145.806C276.497 145.646 276.248 145.511 275.878 145.401V144.981H281.467V145.401C281.108 145.501 280.858 145.636 280.718 145.806C280.578 145.965 280.508 146.2 280.508 146.51ZM289.064 154.871V160.235C289.064 160.545 289.134 160.785 289.274 160.955C289.414 161.114 289.663 161.249 290.023 161.359V161.764H284.089V161.344C284.439 161.254 284.684 161.124 284.824 160.955C284.973 160.785 285.048 160.545 285.048 160.235V146.51C285.048 146.2 284.978 145.965 284.839 145.806C284.699 145.646 284.449 145.511 284.089 145.401V144.981H295.088C296.516 144.981 297.605 145.056 298.354 145.206C299.103 145.346 299.773 145.606 300.362 145.985C301.571 146.775 302.175 148.063 302.175 149.851C302.175 151.21 301.801 152.274 301.051 153.043C300.312 153.802 299.113 154.352 297.455 154.691L300.632 159.126C301.211 159.946 301.671 160.505 302.01 160.805C302.36 161.094 302.755 161.279 303.194 161.359V161.764H296.152V161.359C296.671 161.219 296.931 160.994 296.931 160.685C296.931 160.465 296.771 160.13 296.451 159.681L293.095 154.871H289.064ZM289.064 151.829H295.118C296.037 151.829 296.716 151.729 297.156 151.529C297.775 151.26 298.085 150.725 298.085 149.926C298.085 149.217 297.865 148.722 297.425 148.443C296.996 148.163 296.227 148.023 295.118 148.023H289.064V151.829ZM329.237 155.755L331.769 159.441L331.424 159.696C331.185 159.526 330.995 159.441 330.855 159.441C330.685 159.441 330.29 159.626 329.671 159.996C328.303 160.795 327.094 161.349 326.045 161.659C324.996 161.968 323.787 162.123 322.419 162.123C319.682 162.123 317.449 161.469 315.721 160.16C314.742 159.411 313.963 158.472 313.383 157.343C312.764 156.125 312.454 154.801 312.454 153.373C312.454 151.405 313.024 149.666 314.163 148.158C315.951 145.801 318.693 144.622 322.389 144.622C323.757 144.622 324.971 144.777 326.03 145.086C327.099 145.396 328.313 145.95 329.671 146.75C330.29 147.119 330.685 147.304 330.855 147.304C330.995 147.304 331.185 147.219 331.424 147.049L331.769 147.319L329.237 150.99L328.907 150.75C328.917 150.63 328.927 150.556 328.937 150.526C328.947 150.436 328.952 150.371 328.952 150.331C328.952 149.841 328.278 149.287 326.929 148.668C325.65 148.078 324.362 147.783 323.063 147.783C321.245 147.783 319.747 148.263 318.568 149.222C317.219 150.301 316.545 151.684 316.545 153.373C316.545 155.071 317.219 156.459 318.568 157.538C319.757 158.487 321.255 158.962 323.063 158.962C324.482 158.962 325.895 158.607 327.304 157.898C328.402 157.338 328.952 156.849 328.952 156.429C328.952 156.409 328.937 156.269 328.907 156.01L329.237 155.755ZM343.666 144.622C346.334 144.622 348.556 145.301 350.334 146.66C352.462 148.298 353.526 150.581 353.526 153.507C353.526 156.255 352.462 158.447 350.334 160.085C348.576 161.444 346.363 162.123 343.696 162.123C341.029 162.123 338.816 161.444 337.058 160.085C334.921 158.447 333.852 156.21 333.852 153.373C333.852 150.506 334.921 148.268 337.058 146.66C338.826 145.331 341.029 144.652 343.666 144.622ZM343.681 147.798C341.953 147.798 340.545 148.353 339.456 149.462C338.447 150.501 337.942 151.804 337.942 153.373C337.942 154.931 338.447 156.23 339.456 157.268C340.545 158.387 341.958 158.947 343.696 158.947C345.424 158.947 346.833 158.387 347.922 157.268C348.931 156.24 349.435 154.966 349.435 153.447C349.435 151.799 348.931 150.471 347.922 149.462C346.823 148.373 345.409 147.818 343.681 147.798ZM366.832 161.239L360.718 150.735V160.235C360.718 160.545 360.788 160.785 360.928 160.955C361.068 161.114 361.318 161.249 361.677 161.359V161.764H356.103V161.344C356.453 161.254 356.698 161.124 356.837 160.955C356.987 160.785 357.062 160.545 357.062 160.235V146.51C357.062 146.2 356.992 145.965 356.852 145.806C356.713 145.636 356.463 145.501 356.103 145.401V144.981H363.191V145.401C362.721 145.551 362.486 145.836 362.486 146.255C362.486 146.665 362.656 147.164 362.996 147.753L367.176 154.811L371.387 147.858C371.866 147.069 372.106 146.51 372.106 146.18C372.106 145.771 371.861 145.511 371.372 145.401V144.981H378.28V145.401C377.92 145.501 377.67 145.636 377.53 145.806C377.391 145.965 377.321 146.2 377.321 146.51V160.235C377.321 160.545 377.391 160.785 377.53 160.955C377.67 161.124 377.92 161.259 378.28 161.359V161.764H372.346V161.344C372.696 161.254 372.94 161.124 373.08 160.955C373.23 160.785 373.305 160.545 373.305 160.235V150.735L366.832 161.239ZM386.221 154.871V160.235C386.221 160.545 386.291 160.785 386.431 160.955C386.571 161.114 386.821 161.249 387.18 161.359V161.764H381.247V161.344C381.596 161.254 381.841 161.124 381.981 160.955C382.131 160.785 382.206 160.545 382.206 160.235V146.51C382.206 146.2 382.136 145.965 381.996 145.806C381.856 145.646 381.606 145.511 381.247 145.401V144.981H392.185C394.353 144.981 395.986 145.306 397.085 145.955C397.724 146.335 398.224 146.874 398.583 147.574C398.943 148.273 399.123 149.057 399.123 149.926C399.123 151.594 398.553 152.838 397.414 153.657C396.276 154.466 394.533 154.871 392.185 154.871H386.221ZM386.221 151.829H391.945C392.994 151.829 393.723 151.729 394.133 151.529C394.732 151.24 395.032 150.705 395.032 149.926C395.032 149.147 394.732 148.613 394.133 148.323C393.733 148.123 393.004 148.023 391.945 148.023H386.221V151.829ZM413.987 157.568H406.27L405.401 159.396C405.191 159.836 405.086 160.18 405.086 160.43C405.086 160.91 405.406 161.214 406.045 161.344V161.764H399.872V161.344C400.251 161.284 400.531 161.169 400.711 160.999C400.901 160.83 401.121 160.495 401.37 159.996L407.499 147.589C407.729 147.119 407.843 146.71 407.843 146.36C407.843 145.95 407.564 145.631 407.004 145.401V144.981H413.522V145.401C412.973 145.621 412.698 145.96 412.698 146.42C412.698 146.75 412.823 147.154 413.073 147.634L419.426 159.666C419.776 160.325 420.051 160.755 420.25 160.955C420.45 161.144 420.755 161.279 421.164 161.359V161.764H414.317V161.359C414.966 161.249 415.291 160.945 415.291 160.445C415.291 160.135 415.166 159.751 414.916 159.291L413.987 157.568ZM412.773 155.216L410.031 149.836L407.424 155.216H412.773ZM427.188 150.705V160.235C427.188 160.545 427.258 160.785 427.398 160.955C427.548 161.124 427.797 161.259 428.147 161.359V161.764H422.573V161.344C422.922 161.254 423.167 161.124 423.307 160.955C423.457 160.785 423.532 160.545 423.532 160.235V146.51C423.532 146.2 423.462 145.965 423.322 145.806C423.182 145.646 422.932 145.511 422.573 145.401V144.981H429.016V145.401C428.576 145.511 428.357 145.706 428.357 145.985C428.357 146.225 428.517 146.505 428.836 146.824L437.827 155.755V146.51C437.827 146.2 437.757 145.965 437.617 145.806C437.477 145.636 437.227 145.501 436.868 145.401V144.981H442.442V145.401C442.082 145.501 441.832 145.636 441.693 145.806C441.553 145.965 441.483 146.2 441.483 146.51V160.235C441.483 160.545 441.553 160.785 441.693 160.955C441.832 161.114 442.082 161.249 442.442 161.359V161.764H436.433V161.359C436.873 161.269 437.092 161.084 437.092 160.805C437.092 160.665 437.033 160.52 436.913 160.37C436.793 160.22 436.518 159.926 436.089 159.486L427.188 150.705ZM455.613 154.406V160.235C455.613 160.545 455.683 160.785 455.823 160.955C455.963 161.114 456.212 161.249 456.572 161.359V161.764H450.638V161.359C450.998 161.259 451.248 161.129 451.387 160.97C451.527 160.8 451.597 160.555 451.597 160.235V154.406L446.622 147.559C446.063 146.79 445.613 146.265 445.274 145.985C444.944 145.696 444.55 145.501 444.09 145.401V144.981H451.642V145.401C450.993 145.571 450.668 145.875 450.668 146.315C450.668 146.535 450.903 146.974 451.372 147.634L453.815 151.02L456.197 147.634C456.667 146.964 456.902 146.52 456.902 146.3C456.902 145.88 456.582 145.581 455.943 145.401L455.928 144.981H463.12V145.401C462.66 145.501 462.261 145.696 461.921 145.985C461.592 146.265 461.147 146.79 460.588 147.559L455.613 154.406ZM476.546 150.705V160.235C476.546 160.545 476.616 160.785 476.756 160.955C476.905 161.124 477.155 161.259 477.505 161.359V161.764H471.931V161.344C472.28 161.254 472.525 161.124 472.665 160.955C472.815 160.785 472.89 160.545 472.89 160.235V146.51C472.89 146.2 472.82 145.965 472.68 145.806C472.54 145.646 472.29 145.511 471.931 145.401V144.981H478.374V145.401C477.934 145.511 477.715 145.706 477.715 145.985C477.715 146.225 477.874 146.505 478.194 146.824L487.184 155.755V146.51C487.184 146.2 487.115 145.965 486.975 145.806C486.835 145.636 486.585 145.501 486.225 145.401V144.981H491.8V145.401C491.44 145.501 491.19 145.636 491.05 145.806C490.911 145.965 490.841 146.2 490.841 146.51V160.235C490.841 160.545 490.911 160.785 491.05 160.955C491.19 161.114 491.44 161.249 491.8 161.359V161.764H485.791V161.359C486.23 161.269 486.45 161.084 486.45 160.805C486.45 160.665 486.39 160.52 486.27 160.37C486.151 160.22 485.876 159.926 485.446 159.486L476.546 150.705ZM507.488 157.568H499.771L498.902 159.396C498.692 159.836 498.587 160.18 498.587 160.43C498.587 160.91 498.907 161.214 499.546 161.344V161.764H493.373V161.344C493.753 161.284 494.032 161.169 494.212 160.999C494.402 160.83 494.622 160.495 494.871 159.996L501 147.589C501.23 147.119 501.344 146.71 501.344 146.36C501.344 145.95 501.065 145.631 500.505 145.401V144.981H507.023V145.401C506.474 145.621 506.199 145.96 506.199 146.42C506.199 146.75 506.324 147.154 506.574 147.634L512.927 159.666C513.277 160.325 513.552 160.755 513.751 160.955C513.951 161.144 514.256 161.279 514.665 161.359V161.764H507.818V161.359C508.467 161.249 508.792 160.945 508.792 160.445C508.792 160.135 508.667 159.751 508.417 159.291L507.488 157.568ZM506.274 155.216L503.532 149.836L500.925 155.216H506.274ZM526.803 161.239L520.689 150.735V160.235C520.689 160.545 520.759 160.785 520.899 160.955C521.039 161.114 521.288 161.249 521.648 161.359V161.764H516.074V161.344C516.424 161.254 516.668 161.124 516.808 160.955C516.958 160.785 517.033 160.545 517.033 160.235V146.51C517.033 146.2 516.963 145.965 516.823 145.806C516.683 145.636 516.434 145.501 516.074 145.401V144.981H523.161V145.401C522.692 145.551 522.457 145.836 522.457 146.255C522.457 146.665 522.627 147.164 522.967 147.753L527.147 154.811L531.358 147.858C531.837 147.069 532.077 146.51 532.077 146.18C532.077 145.771 531.832 145.511 531.343 145.401V144.981H538.25V145.401C537.891 145.501 537.641 145.636 537.501 145.806C537.361 145.965 537.291 146.2 537.291 146.51V160.235C537.291 160.545 537.361 160.785 537.501 160.955C537.641 161.124 537.891 161.259 538.25 161.359V161.764H532.317V161.344C532.666 161.254 532.911 161.124 533.051 160.955C533.201 160.785 533.276 160.545 533.276 160.235V150.735L526.803 161.239ZM546.192 154.631V158.722H556.846C557.155 158.722 557.39 158.652 557.55 158.512C557.72 158.372 557.855 158.118 557.955 157.748H558.374V162.723H557.955C557.865 162.373 557.735 162.123 557.565 161.973C557.395 161.834 557.155 161.764 556.846 161.764H541.217V161.344C541.567 161.254 541.812 161.124 541.952 160.955C542.101 160.785 542.176 160.545 542.176 160.235V146.51C542.176 146.2 542.106 145.965 541.967 145.806C541.827 145.646 541.577 145.511 541.217 145.401V144.981H556.381C556.701 144.981 556.941 144.912 557.101 144.772C557.27 144.632 557.405 144.382 557.505 144.022H557.91V148.997H557.505C557.405 148.628 557.27 148.373 557.101 148.233C556.941 148.093 556.701 148.023 556.381 148.023H546.192V151.709H552.515C552.825 151.709 553.06 151.639 553.22 151.5C553.389 151.36 553.529 151.11 553.639 150.75H554.044V155.605H553.639C553.539 155.246 553.404 154.996 553.235 154.856C553.075 154.706 552.835 154.631 552.515 154.631H546.192Z" fill="black"/>
</svg>
