<svg width="581" height="467" viewBox="0 0 581 467" fill="none" xmlns="http://www.w3.org/2000/svg">
<g clip-path="url(#clip0)">
<path d="M377.973 466.931H209.013C206.258 466.931 201.795 467.441 200.184 465.623C197.856 462.993 199.165 457.36 200.955 453.821L224.551 416.308H362.766L386.045 453.821C387.712 457.126 388.993 462.221 387.023 464.838C385.411 466.959 381.017 466.931 377.973 466.931Z" fill="url(#paint0_linear)"/>
<path d="M362.766 363.88H224.551V416.294H362.766V363.88Z" fill="url(#paint1_linear)"/>
<path d="M570.033 0H16.9675C9.25345 0 3 6.25196 3 13.9641V358.358C3 366.07 9.25345 372.322 16.9675 372.322H570.033C577.747 372.322 584 366.07 584 358.358V13.9641C584 6.25196 577.747 0 570.033 0Z" fill="url(#paint2_linear)"/>
<path d="M575.35 7.14728H11.9811V332.096H575.35V7.14728Z" fill="#D7D7D7"/>
<g filter="url(#filter0_d)">
<path d="M12 7H576V45H12V7Z" fill="#171820"/>
</g>
<path d="M575.35 322.249H11.9811V332.096H575.35V322.249Z" fill="#171820"/>
<path d="M14.2539 327.166H19.4194L24.7226 327.152" fill="url(#paint3_linear)"/>
<path d="M41.6791 323.062H29.9569V331.242H41.6791V323.062Z" stroke="white" stroke-width="0.27" stroke-miterlimit="10"/>
<path d="M50.2745 331.738C52.8002 331.738 54.8476 329.691 54.8476 327.166C54.8476 324.641 52.8002 322.594 50.2745 322.594C47.7488 322.594 45.7013 324.641 45.7013 327.166C45.7013 329.691 47.7488 331.738 50.2745 331.738Z" stroke="white" stroke-width="0.27" stroke-miterlimit="10"/>
<path d="M65.399 328.047C66.9053 328.047 68.1264 326.826 68.1264 325.32C68.1264 323.815 66.9053 322.594 65.399 322.594C63.8927 322.594 62.6716 323.815 62.6716 325.32C62.6716 326.826 63.8927 328.047 65.399 328.047Z" stroke="white" stroke-width="0.25" stroke-miterlimit="10"/>
<path d="M63.5257 327.152L57.2031 331.242" stroke="white" stroke-width="0.22" stroke-miterlimit="10"/>
<path d="M293.479 363.88C298.097 363.88 301.841 360.138 301.841 355.521C301.841 350.904 298.097 347.162 293.479 347.162C288.862 347.162 285.118 350.904 285.118 355.521C285.118 360.138 288.862 363.88 293.479 363.88Z" fill="#171820"/>
<path d="M25.2185 332.096L19.8464 331.242L14.7498 330.443V323.888L19.9841 323.062L25.2185 322.249V332.096Z" fill="white"/>
<rect x="68.072" y="17.6753" width="482.462" height="12.0936" rx="6.04681" fill="#E7E4E4"/>
<path d="M57.2703 24.5408C57.4656 24.3455 57.4656 24.029 57.2703 23.8337L54.0883 20.6517C53.8931 20.4565 53.5765 20.4565 53.3812 20.6517C53.1859 20.847 53.1859 21.1636 53.3812 21.3588L56.2096 24.1873L53.3812 27.0157C53.1859 27.2109 53.1859 27.5275 53.3812 27.7228C53.5765 27.9181 53.8931 27.9181 54.0883 27.7228L57.2703 24.5408ZM43.9023 24.6873L56.9167 24.6873V23.6873L43.9023 23.6873V24.6873Z" fill="#EBF0F2"/>
<path d="M25.8864 23.8337C25.6912 24.029 25.6912 24.3455 25.8864 24.5408L29.0684 27.7228C29.2637 27.9181 29.5803 27.9181 29.7755 27.7228C29.9708 27.5275 29.9708 27.2109 29.7755 27.0157L26.9471 24.1873L29.7755 21.3588C29.9708 21.1636 29.9708 20.847 29.7755 20.6517C29.5803 20.4565 29.2637 20.4565 29.0684 20.6517L25.8864 23.8337ZM39.2544 23.6873H26.24V24.6873H39.2544V23.6873Z" fill="#EBF0F2"/>
<path d="M25.477 37.53L25.127 39.34H25.577C25.7304 39.34 25.857 39.3933 25.957 39.5C26.0637 39.6067 26.117 39.7367 26.117 39.89C26.117 40.0367 26.0637 40.16 25.957 40.26C25.857 40.36 25.7304 40.41 25.577 40.41H24.917L24.677 41.64C24.6504 41.76 24.5904 41.86 24.497 41.94C24.4104 42.0133 24.297 42.05 24.157 42.05C23.9904 42.05 23.8504 42 23.737 41.9C23.6304 41.7933 23.577 41.6633 23.577 41.51C23.577 41.45 23.5804 41.4033 23.587 41.37L23.777 40.41H22.887L22.637 41.64C22.617 41.76 22.5604 41.86 22.467 41.94C22.3737 42.0133 22.267 42.05 22.147 42.05C21.9804 42.05 21.8437 42 21.737 41.9C21.6304 41.7933 21.577 41.6633 21.577 41.51C21.577 41.45 21.5804 41.4033 21.587 41.37L21.777 40.41H21.637C21.4837 40.41 21.3537 40.36 21.247 40.26C21.147 40.1533 21.097 40.0233 21.097 39.87C21.097 39.7167 21.147 39.59 21.247 39.49C21.3537 39.39 21.4837 39.34 21.637 39.34H21.987L22.337 37.53H21.837C21.6837 37.53 21.5537 37.4767 21.447 37.37C21.347 37.2633 21.297 37.1333 21.297 36.98C21.297 36.8333 21.347 36.71 21.447 36.61C21.5537 36.51 21.6837 36.46 21.837 36.46H22.547L22.777 35.28C22.8037 35.16 22.8604 35.0633 22.947 34.99C23.0404 34.91 23.1537 34.87 23.287 34.87C23.4537 34.87 23.5904 34.9233 23.697 35.03C23.8104 35.1367 23.867 35.27 23.867 35.43C23.867 35.49 23.8637 35.5367 23.857 35.57L23.677 36.46H24.547L24.777 35.28C24.797 35.16 24.8537 35.0633 24.947 34.99C25.0404 34.91 25.157 34.87 25.297 34.87C25.4637 34.87 25.6004 34.9233 25.707 35.03C25.8204 35.13 25.877 35.2567 25.877 35.41C25.877 35.47 25.8737 35.5167 25.867 35.55L25.687 36.46H25.777C25.9304 36.46 26.057 36.5133 26.157 36.62C26.2637 36.72 26.317 36.8467 26.317 37C26.317 37.1533 26.2637 37.28 26.157 37.38C26.057 37.48 25.9304 37.53 25.777 37.53H25.477ZM23.987 39.34L24.337 37.53H23.467L23.097 39.34H23.987ZM29.1631 42.08C28.7165 42.08 28.3398 42.0467 28.0331 41.98C27.7265 41.9133 27.4565 41.8067 27.2231 41.66C27.1298 41.6133 27.0565 41.5333 27.0031 41.42C26.9498 41.3067 26.9231 41.18 26.9231 41.04C26.9231 40.86 26.9698 40.7133 27.0631 40.6C27.1631 40.48 27.2865 40.42 27.4331 40.42C27.5331 40.42 27.6265 40.4333 27.7131 40.46C27.7998 40.48 27.9065 40.5167 28.0331 40.57C28.2465 40.6433 28.4331 40.7 28.5931 40.74C28.7598 40.78 28.9698 40.8 29.2231 40.8C29.4031 40.8 29.5431 40.7767 29.6431 40.73C29.7498 40.6767 29.8031 40.6033 29.8031 40.51C29.8031 40.4367 29.7765 40.38 29.7231 40.34C29.6765 40.3 29.5831 40.2633 29.4431 40.23C29.3031 40.19 29.0665 40.1367 28.7331 40.07C28.1398 39.9567 27.7098 39.7867 27.4431 39.56C27.1831 39.3267 27.0531 39 27.0531 38.58C27.0531 38.2733 27.1465 37.9967 27.3331 37.75C27.5265 37.5033 27.7898 37.31 28.1231 37.17C28.4565 37.03 28.8298 36.96 29.2431 36.96C29.5431 36.96 29.8331 36.9967 30.1131 37.07C30.3998 37.1433 30.6531 37.2467 30.8731 37.38C31.0798 37.5 31.1831 37.6933 31.1831 37.96C31.1831 38.1467 31.1331 38.3033 31.0331 38.43C30.9331 38.5567 30.8098 38.62 30.6631 38.62C30.4898 38.62 30.2831 38.5633 30.0431 38.45C29.8831 38.3767 29.7398 38.3233 29.6131 38.29C29.4931 38.25 29.3498 38.23 29.1831 38.23C29.0165 38.23 28.8865 38.2567 28.7931 38.31C28.6998 38.3567 28.6531 38.4267 28.6531 38.52C28.6531 38.6267 28.7165 38.71 28.8431 38.77C28.9765 38.83 29.2365 38.8967 29.6231 38.97C30.2698 39.0833 30.7265 39.2567 30.9931 39.49C31.2598 39.7167 31.3931 40.0467 31.3931 40.48C31.3931 40.9667 31.1898 41.3567 30.7831 41.65C30.3831 41.9367 29.8431 42.08 29.1631 42.08ZM34.9866 40.79C35.4333 40.8167 35.6566 41.0167 35.6566 41.39C35.6566 41.6233 35.5666 41.7967 35.3866 41.91C35.2066 42.0233 34.95 42.07 34.6166 42.05L34.3366 42.03C33.7366 41.9833 33.28 41.8033 32.9666 41.49C32.66 41.17 32.5066 40.7267 32.5066 40.16V38.39H32.2166C31.6833 38.39 31.4166 38.17 31.4166 37.73C31.4166 37.2967 31.6833 37.08 32.2166 37.08H32.5066V36.43C32.5066 36.1767 32.5866 35.9767 32.7466 35.83C32.9066 35.6767 33.1233 35.6 33.3966 35.6C33.67 35.6 33.8866 35.6767 34.0466 35.83C34.2066 35.9767 34.2866 36.1767 34.2866 36.43V37.08H34.8366C35.37 37.08 35.6366 37.2967 35.6366 37.73C35.6366 38.17 35.37 38.39 34.8366 38.39H34.2866V40.31C34.2866 40.4367 34.3233 40.5433 34.3966 40.63C34.4766 40.7167 34.5766 40.7633 34.6966 40.77L34.9866 40.79ZM39.2494 36.98C39.476 36.96 39.656 37.0133 39.7894 37.14C39.9227 37.26 39.9894 37.44 39.9894 37.68C39.9894 37.9467 39.926 38.14 39.7994 38.26C39.6794 38.38 39.4594 38.4567 39.1394 38.49L38.8394 38.52C38.506 38.56 38.266 38.6667 38.1194 38.84C37.9794 39.0067 37.9094 39.2367 37.9094 39.53V41.24C37.9094 41.5133 37.8227 41.72 37.6494 41.86C37.4827 41.9933 37.2727 42.06 37.0194 42.06C36.766 42.06 36.5527 41.9933 36.3794 41.86C36.2127 41.72 36.1294 41.5133 36.1294 41.24V37.78C36.1294 37.5267 36.2127 37.33 36.3794 37.19C36.5527 37.05 36.7594 36.98 36.9994 36.98C37.246 36.98 37.4427 37.0467 37.5894 37.18C37.7427 37.3133 37.8194 37.5 37.8194 37.74V37.93C37.926 37.6367 38.0994 37.41 38.3394 37.25C38.586 37.09 38.8427 37.0033 39.1094 36.99L39.2494 36.98ZM42.7012 42.08C42.1612 42.08 41.6845 41.9767 41.2712 41.77C40.8645 41.5567 40.5478 41.2567 40.3212 40.87C40.1012 40.4833 39.9912 40.03 39.9912 39.51C39.9912 38.99 40.1012 38.54 40.3212 38.16C40.5478 37.7733 40.8645 37.4767 41.2712 37.27C41.6778 37.0633 42.1545 36.96 42.7012 36.96C43.2478 36.96 43.7245 37.0633 44.1312 37.27C44.5378 37.4767 44.8512 37.7733 45.0712 38.16C45.2978 38.54 45.4112 38.99 45.4112 39.51C45.4112 40.03 45.2978 40.4833 45.0712 40.87C44.8512 41.2567 44.5378 41.5567 44.1312 41.77C43.7245 41.9767 43.2478 42.08 42.7012 42.08ZM42.7012 40.75C43.3345 40.75 43.6512 40.3367 43.6512 39.51C43.6512 38.6833 43.3345 38.27 42.7012 38.27C42.0678 38.27 41.7512 38.6833 41.7512 39.51C41.7512 40.3367 42.0678 40.75 42.7012 40.75ZM49.5273 36.96C50.1139 36.96 50.5506 37.1367 50.8373 37.49C51.1239 37.8367 51.2673 38.3667 51.2673 39.08V41.24C51.2673 41.4933 51.1873 41.6933 51.0273 41.84C50.8673 41.9867 50.6506 42.06 50.3773 42.06C50.1039 42.06 49.8873 41.9867 49.7273 41.84C49.5673 41.6933 49.4873 41.4933 49.4873 41.24V39.16C49.4873 38.8667 49.4339 38.6533 49.3273 38.52C49.2273 38.3867 49.0739 38.32 48.8673 38.32C48.6006 38.32 48.3873 38.4067 48.2273 38.58C48.0739 38.7467 47.9973 38.9733 47.9973 39.26V41.24C47.9973 41.4933 47.9173 41.6933 47.7573 41.84C47.5973 41.9867 47.3806 42.06 47.1073 42.06C46.8339 42.06 46.6173 41.9867 46.4573 41.84C46.2973 41.6933 46.2173 41.4933 46.2173 41.24V37.78C46.2173 37.5467 46.3006 37.3567 46.4673 37.21C46.6339 37.0567 46.8506 36.98 47.1173 36.98C47.3706 36.98 47.5706 37.05 47.7173 37.19C47.8706 37.33 47.9473 37.5133 47.9473 37.74C48.1206 37.4867 48.3439 37.2933 48.6173 37.16C48.8906 37.0267 49.1939 36.96 49.5273 36.96ZM54.562 36.96C55.322 36.96 55.882 37.1433 56.242 37.51C56.6086 37.87 56.792 38.42 56.792 39.16V41.25C56.792 41.5033 56.7153 41.7033 56.562 41.85C56.4153 41.99 56.2086 42.06 55.942 42.06C55.7086 42.06 55.5153 41.9933 55.362 41.86C55.2153 41.7267 55.1353 41.5467 55.122 41.32C55.0286 41.56 54.872 41.7467 54.652 41.88C54.432 42.0133 54.1686 42.08 53.862 42.08C53.522 42.08 53.2153 42.0133 52.942 41.88C52.6686 41.74 52.452 41.55 52.292 41.31C52.1386 41.0633 52.062 40.7867 52.062 40.48C52.062 40.1267 52.152 39.8467 52.332 39.64C52.5186 39.4267 52.812 39.2733 53.212 39.18C53.612 39.0867 54.152 39.04 54.832 39.04H55.102V38.92C55.102 38.6867 55.0486 38.52 54.942 38.42C54.8353 38.3133 54.6553 38.26 54.402 38.26C54.1286 38.26 53.7286 38.3533 53.202 38.54C53.0486 38.5933 52.9186 38.62 52.812 38.62C52.6453 38.62 52.512 38.56 52.412 38.44C52.312 38.32 52.262 38.1633 52.262 37.97C52.262 37.8233 52.292 37.7033 52.352 37.61C52.412 37.5167 52.5086 37.4333 52.642 37.36C52.8753 37.24 53.1686 37.1433 53.522 37.07C53.8753 36.9967 54.222 36.96 54.562 36.96ZM54.282 40.89C54.522 40.89 54.7186 40.8067 54.872 40.64C55.0253 40.4667 55.102 40.2467 55.102 39.98V39.86H54.942C54.5153 39.86 54.212 39.9 54.032 39.98C53.852 40.0533 53.762 40.18 53.762 40.36C53.762 40.5133 53.8086 40.64 53.902 40.74C54.002 40.84 54.1286 40.89 54.282 40.89ZM67.2209 37.48C67.2875 37.3133 67.3809 37.19 67.5009 37.11C67.6275 37.0233 67.7642 36.98 67.9109 36.98C68.1309 36.98 68.3275 37.0567 68.5009 37.21C68.6742 37.3567 68.7609 37.5367 68.7609 37.75C68.7609 37.85 68.7342 37.96 68.6809 38.08L67.0609 41.55C66.9875 41.7167 66.8742 41.8467 66.7209 41.94C66.5742 42.0267 66.4109 42.07 66.2309 42.07C66.0509 42.07 65.8875 42.0267 65.7409 41.94C65.5942 41.8467 65.4842 41.7167 65.4109 41.55L64.4609 39.44L63.5709 41.55C63.5042 41.7167 63.3942 41.8467 63.2409 41.94C63.0942 42.0267 62.9309 42.07 62.7509 42.07C62.5709 42.07 62.4042 42.0267 62.2509 41.94C62.1042 41.8467 61.9909 41.7167 61.9109 41.55L60.3009 38.08C60.2542 37.98 60.2309 37.8733 60.2309 37.76C60.2309 37.54 60.3209 37.3567 60.5009 37.21C60.6875 37.0567 60.8942 36.98 61.1209 36.98C61.2809 36.98 61.4242 37.0233 61.5509 37.11C61.6842 37.19 61.7842 37.3167 61.8509 37.49L62.8009 39.8L63.7709 37.5C63.8375 37.3333 63.9409 37.2067 64.0809 37.12C64.2209 37.0333 64.3709 36.99 64.5309 36.99C64.6909 36.99 64.8409 37.0333 64.9809 37.12C65.1209 37.2067 65.2242 37.3333 65.2909 37.5L66.2909 39.81L67.2209 37.48ZM75.9416 37.48C76.0082 37.3133 76.1016 37.19 76.2216 37.11C76.3482 37.0233 76.4849 36.98 76.6316 36.98C76.8516 36.98 77.0482 37.0567 77.2216 37.21C77.3949 37.3567 77.4816 37.5367 77.4816 37.75C77.4816 37.85 77.4549 37.96 77.4016 38.08L75.7816 41.55C75.7082 41.7167 75.5949 41.8467 75.4416 41.94C75.2949 42.0267 75.1316 42.07 74.9516 42.07C74.7716 42.07 74.6082 42.0267 74.4616 41.94C74.3149 41.8467 74.2049 41.7167 74.1316 41.55L73.1816 39.44L72.2916 41.55C72.2249 41.7167 72.1149 41.8467 71.9616 41.94C71.8149 42.0267 71.6516 42.07 71.4716 42.07C71.2916 42.07 71.1249 42.0267 70.9716 41.94C70.8249 41.8467 70.7116 41.7167 70.6316 41.55L69.0216 38.08C68.9749 37.98 68.9516 37.8733 68.9516 37.76C68.9516 37.54 69.0416 37.3567 69.2216 37.21C69.4082 37.0567 69.6149 36.98 69.8416 36.98C70.0016 36.98 70.1449 37.0233 70.2716 37.11C70.4049 37.19 70.5049 37.3167 70.5716 37.49L71.5216 39.8L72.4916 37.5C72.5582 37.3333 72.6616 37.2067 72.8016 37.12C72.9416 37.0333 73.0916 36.99 73.2516 36.99C73.4116 36.99 73.5616 37.0333 73.7016 37.12C73.8416 37.2067 73.9449 37.3333 74.0116 37.5L75.0116 39.81L75.9416 37.48ZM84.6623 37.48C84.7289 37.3133 84.8223 37.19 84.9423 37.11C85.0689 37.0233 85.2056 36.98 85.3523 36.98C85.5723 36.98 85.7689 37.0567 85.9423 37.21C86.1156 37.3567 86.2023 37.5367 86.2023 37.75C86.2023 37.85 86.1756 37.96 86.1223 38.08L84.5023 41.55C84.4289 41.7167 84.3156 41.8467 84.1623 41.94C84.0156 42.0267 83.8523 42.07 83.6723 42.07C83.4923 42.07 83.3289 42.0267 83.1823 41.94C83.0356 41.8467 82.9256 41.7167 82.8523 41.55L81.9023 39.44L81.0123 41.55C80.9456 41.7167 80.8356 41.8467 80.6823 41.94C80.5356 42.0267 80.3723 42.07 80.1923 42.07C80.0123 42.07 79.8456 42.0267 79.6923 41.94C79.5456 41.8467 79.4323 41.7167 79.3523 41.55L77.7423 38.08C77.6956 37.98 77.6723 37.8733 77.6723 37.76C77.6723 37.54 77.7623 37.3567 77.9423 37.21C78.1289 37.0567 78.3356 36.98 78.5623 36.98C78.7223 36.98 78.8656 37.0233 78.9923 37.11C79.1256 37.19 79.2256 37.3167 79.2923 37.49L80.2423 39.8L81.2123 37.5C81.2789 37.3333 81.3823 37.2067 81.5223 37.12C81.6623 37.0333 81.8123 36.99 81.9723 36.99C82.1323 36.99 82.2823 37.0333 82.4223 37.12C82.5623 37.2067 82.6656 37.3333 82.7323 37.5L83.7323 39.81L84.6623 37.48Z" fill="#EBF0F2"/>
<path d="M107.547 37.53L107.197 39.34H107.647C107.801 39.34 107.927 39.3933 108.027 39.5C108.134 39.6067 108.187 39.7367 108.187 39.89C108.187 40.0367 108.134 40.16 108.027 40.26C107.927 40.36 107.801 40.41 107.647 40.41H106.987L106.747 41.64C106.721 41.76 106.661 41.86 106.567 41.94C106.481 42.0133 106.367 42.05 106.227 42.05C106.061 42.05 105.921 42 105.807 41.9C105.701 41.7933 105.647 41.6633 105.647 41.51C105.647 41.45 105.651 41.4033 105.657 41.37L105.847 40.41H104.957L104.707 41.64C104.687 41.76 104.631 41.86 104.537 41.94C104.444 42.0133 104.337 42.05 104.217 42.05C104.051 42.05 103.914 42 103.807 41.9C103.701 41.7933 103.647 41.6633 103.647 41.51C103.647 41.45 103.651 41.4033 103.657 41.37L103.847 40.41H103.707C103.554 40.41 103.424 40.36 103.317 40.26C103.217 40.1533 103.167 40.0233 103.167 39.87C103.167 39.7167 103.217 39.59 103.317 39.49C103.424 39.39 103.554 39.34 103.707 39.34H104.057L104.407 37.53H103.907C103.754 37.53 103.624 37.4767 103.517 37.37C103.417 37.2633 103.367 37.1333 103.367 36.98C103.367 36.8333 103.417 36.71 103.517 36.61C103.624 36.51 103.754 36.46 103.907 36.46H104.617L104.847 35.28C104.874 35.16 104.931 35.0633 105.017 34.99C105.111 34.91 105.224 34.87 105.357 34.87C105.524 34.87 105.661 34.9233 105.767 35.03C105.881 35.1367 105.937 35.27 105.937 35.43C105.937 35.49 105.934 35.5367 105.927 35.57L105.747 36.46H106.617L106.847 35.28C106.867 35.16 106.924 35.0633 107.017 34.99C107.111 34.91 107.227 34.87 107.367 34.87C107.534 34.87 107.671 34.9233 107.777 35.03C107.891 35.13 107.947 35.2567 107.947 35.41C107.947 35.47 107.944 35.5167 107.937 35.55L107.757 36.46H107.847C108.001 36.46 108.127 36.5133 108.227 36.62C108.334 36.72 108.387 36.8467 108.387 37C108.387 37.1533 108.334 37.28 108.227 37.38C108.127 37.48 108.001 37.53 107.847 37.53H107.547ZM106.057 39.34L106.407 37.53H105.537L105.167 39.34H106.057ZM115.863 37.48C115.93 37.3133 116.023 37.19 116.143 37.11C116.27 37.0233 116.407 36.98 116.553 36.98C116.773 36.98 116.97 37.0567 117.143 37.21C117.317 37.3567 117.403 37.5367 117.403 37.75C117.403 37.85 117.377 37.96 117.323 38.08L115.703 41.55C115.63 41.7167 115.517 41.8467 115.363 41.94C115.217 42.0267 115.053 42.07 114.873 42.07C114.693 42.07 114.53 42.0267 114.383 41.94C114.237 41.8467 114.127 41.7167 114.053 41.55L113.103 39.44L112.213 41.55C112.147 41.7167 112.037 41.8467 111.883 41.94C111.737 42.0267 111.573 42.07 111.393 42.07C111.213 42.07 111.047 42.0267 110.893 41.94C110.747 41.8467 110.633 41.7167 110.553 41.55L108.943 38.08C108.897 37.98 108.873 37.8733 108.873 37.76C108.873 37.54 108.963 37.3567 109.143 37.21C109.33 37.0567 109.537 36.98 109.763 36.98C109.923 36.98 110.067 37.0233 110.193 37.11C110.327 37.19 110.427 37.3167 110.493 37.49L111.443 39.8L112.413 37.5C112.48 37.3333 112.583 37.2067 112.723 37.12C112.863 37.0333 113.013 36.99 113.173 36.99C113.333 36.99 113.483 37.0333 113.623 37.12C113.763 37.2067 113.867 37.3333 113.933 37.5L114.933 39.81L115.863 37.48ZM120.387 42.08C119.847 42.08 119.37 41.9767 118.957 41.77C118.55 41.5567 118.233 41.2567 118.007 40.87C117.787 40.4833 117.677 40.03 117.677 39.51C117.677 38.99 117.787 38.54 118.007 38.16C118.233 37.7733 118.55 37.4767 118.957 37.27C119.363 37.0633 119.84 36.96 120.387 36.96C120.933 36.96 121.41 37.0633 121.817 37.27C122.223 37.4767 122.537 37.7733 122.757 38.16C122.983 38.54 123.097 38.99 123.097 39.51C123.097 40.03 122.983 40.4833 122.757 40.87C122.537 41.2567 122.223 41.5567 121.817 41.77C121.41 41.9767 120.933 42.08 120.387 42.08ZM120.387 40.75C121.02 40.75 121.337 40.3367 121.337 39.51C121.337 38.6833 121.02 38.27 120.387 38.27C119.753 38.27 119.437 38.6833 119.437 39.51C119.437 40.3367 119.753 40.75 120.387 40.75ZM127.023 36.98C127.249 36.96 127.429 37.0133 127.563 37.14C127.696 37.26 127.763 37.44 127.763 37.68C127.763 37.9467 127.699 38.14 127.573 38.26C127.453 38.38 127.233 38.4567 126.913 38.49L126.613 38.52C126.279 38.56 126.039 38.6667 125.893 38.84C125.753 39.0067 125.683 39.2367 125.683 39.53V41.24C125.683 41.5133 125.596 41.72 125.423 41.86C125.256 41.9933 125.046 42.06 124.793 42.06C124.539 42.06 124.326 41.9933 124.153 41.86C123.986 41.72 123.903 41.5133 123.903 41.24V37.78C123.903 37.5267 123.986 37.33 124.153 37.19C124.326 37.05 124.533 36.98 124.773 36.98C125.019 36.98 125.216 37.0467 125.363 37.18C125.516 37.3133 125.593 37.5 125.593 37.74V37.93C125.699 37.6367 125.873 37.41 126.113 37.25C126.359 37.09 126.616 37.0033 126.883 36.99L127.023 36.98ZM132.295 34.9C132.561 34.9 132.778 34.9767 132.945 35.13C133.118 35.2767 133.205 35.4667 133.205 35.7V41.24C133.205 41.4933 133.125 41.6933 132.965 41.84C132.805 41.9867 132.591 42.06 132.325 42.06C132.078 42.06 131.875 41.9967 131.715 41.87C131.561 41.7367 131.475 41.5567 131.455 41.33C131.315 41.5633 131.108 41.7467 130.835 41.88C130.568 42.0133 130.271 42.08 129.945 42.08C129.525 42.08 129.148 41.9733 128.815 41.76C128.488 41.54 128.231 41.2333 128.045 40.84C127.858 40.4467 127.765 39.9967 127.765 39.49C127.765 38.9833 127.855 38.54 128.035 38.16C128.221 37.7733 128.478 37.4767 128.805 37.27C129.138 37.0633 129.518 36.96 129.945 36.96C130.258 36.96 130.545 37.0233 130.805 37.15C131.071 37.2767 131.278 37.4467 131.425 37.66V35.67C131.425 35.4367 131.501 35.25 131.655 35.11C131.815 34.97 132.028 34.9 132.295 34.9ZM130.485 40.75C130.798 40.75 131.038 40.6433 131.205 40.43C131.371 40.2167 131.455 39.91 131.455 39.51C131.455 39.1167 131.371 38.8167 131.205 38.61C131.038 38.3967 130.798 38.29 130.485 38.29C130.178 38.29 129.941 38.3933 129.775 38.6C129.608 38.8067 129.525 39.1033 129.525 39.49C129.525 39.89 129.608 40.2 129.775 40.42C129.948 40.64 130.185 40.75 130.485 40.75ZM137.505 36.96C137.925 36.96 138.298 37.07 138.625 37.29C138.958 37.5033 139.215 37.8067 139.395 38.2C139.581 38.5933 139.675 39.0433 139.675 39.55C139.675 40.0567 139.581 40.5033 139.395 40.89C139.215 41.27 138.961 41.5633 138.635 41.77C138.308 41.9767 137.931 42.08 137.505 42.08C137.191 42.08 136.901 42.0167 136.635 41.89C136.375 41.7633 136.171 41.5933 136.025 41.38V43.08C136.025 43.3133 135.945 43.5 135.785 43.64C135.625 43.78 135.415 43.85 135.155 43.85C134.881 43.85 134.661 43.7733 134.495 43.62C134.328 43.4733 134.245 43.2833 134.245 43.05V37.8C134.245 37.5533 134.321 37.3567 134.475 37.21C134.635 37.0567 134.848 36.98 135.115 36.98C135.368 36.98 135.571 37.0467 135.725 37.18C135.885 37.3133 135.975 37.49 135.995 37.71C136.135 37.4767 136.338 37.2933 136.605 37.16C136.878 37.0267 137.178 36.96 137.505 36.96ZM136.965 40.75C137.271 40.75 137.505 40.6467 137.665 40.44C137.831 40.2333 137.915 39.9367 137.915 39.55C137.915 39.1433 137.831 38.8333 137.665 38.62C137.498 38.4 137.261 38.29 136.955 38.29C136.648 38.29 136.411 38.3967 136.245 38.61C136.078 38.8233 135.995 39.13 135.995 39.53C135.995 39.9233 136.078 40.2267 136.245 40.44C136.411 40.6467 136.651 40.75 136.965 40.75ZM143.615 36.98C143.841 36.96 144.021 37.0133 144.155 37.14C144.288 37.26 144.355 37.44 144.355 37.68C144.355 37.9467 144.291 38.14 144.165 38.26C144.045 38.38 143.825 38.4567 143.505 38.49L143.205 38.52C142.871 38.56 142.631 38.6667 142.485 38.84C142.345 39.0067 142.275 39.2367 142.275 39.53V41.24C142.275 41.5133 142.188 41.72 142.015 41.86C141.848 41.9933 141.638 42.06 141.385 42.06C141.131 42.06 140.918 41.9933 140.745 41.86C140.578 41.72 140.495 41.5133 140.495 41.24V37.78C140.495 37.5267 140.578 37.33 140.745 37.19C140.918 37.05 141.125 36.98 141.365 36.98C141.611 36.98 141.808 37.0467 141.955 37.18C142.108 37.3133 142.185 37.5 142.185 37.74V37.93C142.291 37.6367 142.465 37.41 142.705 37.25C142.951 37.09 143.208 37.0033 143.475 36.99L143.615 36.98ZM148.586 40.42C148.74 40.42 148.863 40.48 148.956 40.6C149.056 40.72 149.106 40.8767 149.106 41.07C149.106 41.3367 148.976 41.54 148.716 41.68C148.49 41.7933 148.22 41.89 147.906 41.97C147.6 42.0433 147.316 42.08 147.056 42.08C146.51 42.08 146.033 41.9767 145.626 41.77C145.22 41.5633 144.906 41.2667 144.686 40.88C144.466 40.4933 144.356 40.04 144.356 39.52C144.356 39.0267 144.46 38.5867 144.666 38.2C144.88 37.8067 145.173 37.5033 145.546 37.29C145.926 37.07 146.353 36.96 146.826 36.96C147.286 36.96 147.69 37.06 148.036 37.26C148.383 37.46 148.65 37.7433 148.836 38.11C149.03 38.4767 149.126 38.9067 149.126 39.4C149.126 39.5533 149.09 39.6733 149.016 39.76C148.95 39.84 148.85 39.88 148.716 39.88H146.076C146.123 40.2 146.226 40.43 146.386 40.57C146.546 40.71 146.783 40.78 147.096 40.78C147.263 40.78 147.416 40.7633 147.556 40.73C147.696 40.69 147.853 40.6367 148.026 40.57C148.126 40.53 148.223 40.4967 148.316 40.47C148.416 40.4367 148.506 40.42 148.586 40.42ZM146.876 38.16C146.643 38.16 146.456 38.2367 146.316 38.39C146.176 38.5367 146.093 38.7533 146.066 39.04H147.636C147.596 38.4533 147.343 38.16 146.876 38.16ZM151.878 42.08C151.431 42.08 151.055 42.0467 150.748 41.98C150.441 41.9133 150.171 41.8067 149.938 41.66C149.845 41.6133 149.771 41.5333 149.718 41.42C149.665 41.3067 149.638 41.18 149.638 41.04C149.638 40.86 149.685 40.7133 149.778 40.6C149.878 40.48 150.001 40.42 150.148 40.42C150.248 40.42 150.341 40.4333 150.428 40.46C150.515 40.48 150.621 40.5167 150.748 40.57C150.961 40.6433 151.148 40.7 151.308 40.74C151.475 40.78 151.685 40.8 151.938 40.8C152.118 40.8 152.258 40.7767 152.358 40.73C152.465 40.6767 152.518 40.6033 152.518 40.51C152.518 40.4367 152.491 40.38 152.438 40.34C152.391 40.3 152.298 40.2633 152.158 40.23C152.018 40.19 151.781 40.1367 151.448 40.07C150.855 39.9567 150.425 39.7867 150.158 39.56C149.898 39.3267 149.768 39 149.768 38.58C149.768 38.2733 149.861 37.9967 150.048 37.75C150.241 37.5033 150.505 37.31 150.838 37.17C151.171 37.03 151.545 36.96 151.958 36.96C152.258 36.96 152.548 36.9967 152.828 37.07C153.115 37.1433 153.368 37.2467 153.588 37.38C153.795 37.5 153.898 37.6933 153.898 37.96C153.898 38.1467 153.848 38.3033 153.748 38.43C153.648 38.5567 153.525 38.62 153.378 38.62C153.205 38.62 152.998 38.5633 152.758 38.45C152.598 38.3767 152.455 38.3233 152.328 38.29C152.208 38.25 152.065 38.23 151.898 38.23C151.731 38.23 151.601 38.2567 151.508 38.31C151.415 38.3567 151.368 38.4267 151.368 38.52C151.368 38.6267 151.431 38.71 151.558 38.77C151.691 38.83 151.951 38.8967 152.338 38.97C152.985 39.0833 153.441 39.2567 153.708 39.49C153.975 39.7167 154.108 40.0467 154.108 40.48C154.108 40.9667 153.905 41.3567 153.498 41.65C153.098 41.9367 152.558 42.08 151.878 42.08ZM156.78 42.08C156.334 42.08 155.957 42.0467 155.65 41.98C155.344 41.9133 155.074 41.8067 154.84 41.66C154.747 41.6133 154.674 41.5333 154.62 41.42C154.567 41.3067 154.54 41.18 154.54 41.04C154.54 40.86 154.587 40.7133 154.68 40.6C154.78 40.48 154.904 40.42 155.05 40.42C155.15 40.42 155.244 40.4333 155.33 40.46C155.417 40.48 155.524 40.5167 155.65 40.57C155.864 40.6433 156.05 40.7 156.21 40.74C156.377 40.78 156.587 40.8 156.84 40.8C157.02 40.8 157.16 40.7767 157.26 40.73C157.367 40.6767 157.42 40.6033 157.42 40.51C157.42 40.4367 157.394 40.38 157.34 40.34C157.294 40.3 157.2 40.2633 157.06 40.23C156.92 40.19 156.684 40.1367 156.35 40.07C155.757 39.9567 155.327 39.7867 155.06 39.56C154.8 39.3267 154.67 39 154.67 38.58C154.67 38.2733 154.764 37.9967 154.95 37.75C155.144 37.5033 155.407 37.31 155.74 37.17C156.074 37.03 156.447 36.96 156.86 36.96C157.16 36.96 157.45 36.9967 157.73 37.07C158.017 37.1433 158.27 37.2467 158.49 37.38C158.697 37.5 158.8 37.6933 158.8 37.96C158.8 38.1467 158.75 38.3033 158.65 38.43C158.55 38.5567 158.427 38.62 158.28 38.62C158.107 38.62 157.9 38.5633 157.66 38.45C157.5 38.3767 157.357 38.3233 157.23 38.29C157.11 38.25 156.967 38.23 156.8 38.23C156.634 38.23 156.504 38.2567 156.41 38.31C156.317 38.3567 156.27 38.4267 156.27 38.52C156.27 38.6267 156.334 38.71 156.46 38.77C156.594 38.83 156.854 38.8967 157.24 38.97C157.887 39.0833 158.344 39.2567 158.61 39.49C158.877 39.7167 159.01 40.0467 159.01 40.48C159.01 40.9667 158.807 41.3567 158.4 41.65C158 41.9367 157.46 42.08 156.78 42.08Z" fill="#EBF0F2"/>
<path d="M207.215 37.53L206.865 39.34H207.315C207.469 39.34 207.595 39.3933 207.695 39.5C207.802 39.6067 207.855 39.7367 207.855 39.89C207.855 40.0367 207.802 40.16 207.695 40.26C207.595 40.36 207.469 40.41 207.315 40.41H206.655L206.415 41.64C206.389 41.76 206.329 41.86 206.235 41.94C206.149 42.0133 206.035 42.05 205.895 42.05C205.729 42.05 205.589 42 205.475 41.9C205.369 41.7933 205.315 41.6633 205.315 41.51C205.315 41.45 205.319 41.4033 205.325 41.37L205.515 40.41H204.625L204.375 41.64C204.355 41.76 204.299 41.86 204.205 41.94C204.112 42.0133 204.005 42.05 203.885 42.05C203.719 42.05 203.582 42 203.475 41.9C203.369 41.7933 203.315 41.6633 203.315 41.51C203.315 41.45 203.319 41.4033 203.325 41.37L203.515 40.41H203.375C203.222 40.41 203.092 40.36 202.985 40.26C202.885 40.1533 202.835 40.0233 202.835 39.87C202.835 39.7167 202.885 39.59 202.985 39.49C203.092 39.39 203.222 39.34 203.375 39.34H203.725L204.075 37.53H203.575C203.422 37.53 203.292 37.4767 203.185 37.37C203.085 37.2633 203.035 37.1333 203.035 36.98C203.035 36.8333 203.085 36.71 203.185 36.61C203.292 36.51 203.422 36.46 203.575 36.46H204.285L204.515 35.28C204.542 35.16 204.599 35.0633 204.685 34.99C204.779 34.91 204.892 34.87 205.025 34.87C205.192 34.87 205.329 34.9233 205.435 35.03C205.549 35.1367 205.605 35.27 205.605 35.43C205.605 35.49 205.602 35.5367 205.595 35.57L205.415 36.46H206.285L206.515 35.28C206.535 35.16 206.592 35.0633 206.685 34.99C206.779 34.91 206.895 34.87 207.035 34.87C207.202 34.87 207.339 34.9233 207.445 35.03C207.559 35.13 207.615 35.2567 207.615 35.41C207.615 35.47 207.612 35.5167 207.605 35.55L207.425 36.46H207.515C207.669 36.46 207.795 36.5133 207.895 36.62C208.002 36.72 208.055 36.8467 208.055 37C208.055 37.1533 208.002 37.28 207.895 37.38C207.795 37.48 207.669 37.53 207.515 37.53H207.215ZM205.725 39.34L206.075 37.53H205.205L204.835 39.34H205.725ZM212.311 36.96C212.885 36.96 213.311 37.1367 213.591 37.49C213.871 37.8367 214.011 38.3667 214.011 39.08V41.24C214.011 41.4933 213.931 41.6933 213.771 41.84C213.611 41.9867 213.395 42.06 213.121 42.06C212.848 42.06 212.631 41.9867 212.471 41.84C212.311 41.6933 212.231 41.4933 212.231 41.24V39.04C212.231 38.56 212.025 38.32 211.611 38.32C211.345 38.32 211.131 38.4067 210.971 38.58C210.818 38.7467 210.741 38.9733 210.741 39.26V41.24C210.741 41.4933 210.661 41.6933 210.501 41.84C210.341 41.9867 210.125 42.06 209.851 42.06C209.578 42.06 209.361 41.9867 209.201 41.84C209.041 41.6933 208.961 41.4933 208.961 41.24V35.7C208.961 35.4667 209.045 35.2767 209.211 35.13C209.378 34.9767 209.598 34.9 209.871 34.9C210.131 34.9 210.341 34.97 210.501 35.11C210.661 35.25 210.741 35.4367 210.741 35.67V37.67C210.921 37.4367 211.145 37.26 211.411 37.14C211.678 37.02 211.978 36.96 212.311 36.96ZM217.496 42.08C216.956 42.08 216.479 41.9767 216.066 41.77C215.659 41.5567 215.343 41.2567 215.116 40.87C214.896 40.4833 214.786 40.03 214.786 39.51C214.786 38.99 214.896 38.54 215.116 38.16C215.343 37.7733 215.659 37.4767 216.066 37.27C216.473 37.0633 216.949 36.96 217.496 36.96C218.043 36.96 218.519 37.0633 218.926 37.27C219.333 37.4767 219.646 37.7733 219.866 38.16C220.093 38.54 220.206 38.99 220.206 39.51C220.206 40.03 220.093 40.4833 219.866 40.87C219.646 41.2567 219.333 41.5567 218.926 41.77C218.519 41.9767 218.043 42.08 217.496 42.08ZM217.496 40.75C218.129 40.75 218.446 40.3367 218.446 39.51C218.446 38.6833 218.129 38.27 217.496 38.27C216.863 38.27 216.546 38.6833 216.546 39.51C216.546 40.3367 216.863 40.75 217.496 40.75ZM222.952 42.08C222.506 42.08 222.129 42.0467 221.822 41.98C221.516 41.9133 221.246 41.8067 221.012 41.66C220.919 41.6133 220.846 41.5333 220.792 41.42C220.739 41.3067 220.712 41.18 220.712 41.04C220.712 40.86 220.759 40.7133 220.852 40.6C220.952 40.48 221.076 40.42 221.222 40.42C221.322 40.42 221.416 40.4333 221.502 40.46C221.589 40.48 221.696 40.5167 221.822 40.57C222.036 40.6433 222.222 40.7 222.382 40.74C222.549 40.78 222.759 40.8 223.012 40.8C223.192 40.8 223.332 40.7767 223.432 40.73C223.539 40.6767 223.592 40.6033 223.592 40.51C223.592 40.4367 223.566 40.38 223.512 40.34C223.466 40.3 223.372 40.2633 223.232 40.23C223.092 40.19 222.856 40.1367 222.522 40.07C221.929 39.9567 221.499 39.7867 221.232 39.56C220.972 39.3267 220.842 39 220.842 38.58C220.842 38.2733 220.936 37.9967 221.122 37.75C221.316 37.5033 221.579 37.31 221.912 37.17C222.246 37.03 222.619 36.96 223.032 36.96C223.332 36.96 223.622 36.9967 223.902 37.07C224.189 37.1433 224.442 37.2467 224.662 37.38C224.869 37.5 224.972 37.6933 224.972 37.96C224.972 38.1467 224.922 38.3033 224.822 38.43C224.722 38.5567 224.599 38.62 224.452 38.62C224.279 38.62 224.072 38.5633 223.832 38.45C223.672 38.3767 223.529 38.3233 223.402 38.29C223.282 38.25 223.139 38.23 222.972 38.23C222.806 38.23 222.676 38.2567 222.582 38.31C222.489 38.3567 222.442 38.4267 222.442 38.52C222.442 38.6267 222.506 38.71 222.632 38.77C222.766 38.83 223.026 38.8967 223.412 38.97C224.059 39.0833 224.516 39.2567 224.782 39.49C225.049 39.7167 225.182 40.0467 225.182 40.48C225.182 40.9667 224.979 41.3567 224.572 41.65C224.172 41.9367 223.632 42.08 222.952 42.08ZM228.776 40.79C229.222 40.8167 229.446 41.0167 229.446 41.39C229.446 41.6233 229.356 41.7967 229.176 41.91C228.996 42.0233 228.739 42.07 228.406 42.05L228.126 42.03C227.526 41.9833 227.069 41.8033 226.756 41.49C226.449 41.17 226.296 40.7267 226.296 40.16V38.39H226.006C225.472 38.39 225.206 38.17 225.206 37.73C225.206 37.2967 225.472 37.08 226.006 37.08H226.296V36.43C226.296 36.1767 226.376 35.9767 226.536 35.83C226.696 35.6767 226.912 35.6 227.186 35.6C227.459 35.6 227.676 35.6767 227.836 35.83C227.996 35.9767 228.076 36.1767 228.076 36.43V37.08H228.626C229.159 37.08 229.426 37.2967 229.426 37.73C229.426 38.17 229.159 38.39 228.626 38.39H228.076V40.31C228.076 40.4367 228.112 40.5433 228.186 40.63C228.266 40.7167 228.366 40.7633 228.486 40.77L228.776 40.79ZM230.808 42.06C230.555 42.06 230.342 41.9933 230.168 41.86C230.002 41.72 229.918 41.5133 229.918 41.24V37.8C229.918 37.5267 230.002 37.3233 230.168 37.19C230.342 37.05 230.555 36.98 230.808 36.98C231.062 36.98 231.272 37.05 231.438 37.19C231.612 37.3233 231.698 37.5267 231.698 37.8V41.24C231.698 41.5133 231.612 41.72 231.438 41.86C231.272 41.9933 231.062 42.06 230.808 42.06ZM230.808 36.28C230.508 36.28 230.268 36.2033 230.088 36.05C229.915 35.89 229.828 35.68 229.828 35.42C229.828 35.16 229.915 34.9533 230.088 34.8C230.268 34.6467 230.508 34.57 230.808 34.57C231.102 34.57 231.338 34.6467 231.518 34.8C231.698 34.9533 231.788 35.16 231.788 35.42C231.788 35.68 231.698 35.89 231.518 36.05C231.345 36.2033 231.108 36.28 230.808 36.28ZM236.041 36.96C236.628 36.96 237.064 37.1367 237.351 37.49C237.638 37.8367 237.781 38.3667 237.781 39.08V41.24C237.781 41.4933 237.701 41.6933 237.541 41.84C237.381 41.9867 237.164 42.06 236.891 42.06C236.618 42.06 236.401 41.9867 236.241 41.84C236.081 41.6933 236.001 41.4933 236.001 41.24V39.16C236.001 38.8667 235.948 38.6533 235.841 38.52C235.741 38.3867 235.588 38.32 235.381 38.32C235.114 38.32 234.901 38.4067 234.741 38.58C234.588 38.7467 234.511 38.9733 234.511 39.26V41.24C234.511 41.4933 234.431 41.6933 234.271 41.84C234.111 41.9867 233.894 42.06 233.621 42.06C233.348 42.06 233.131 41.9867 232.971 41.84C232.811 41.6933 232.731 41.4933 232.731 41.24V37.78C232.731 37.5467 232.814 37.3567 232.981 37.21C233.148 37.0567 233.364 36.98 233.631 36.98C233.884 36.98 234.084 37.05 234.231 37.19C234.384 37.33 234.461 37.5133 234.461 37.74C234.634 37.4867 234.858 37.2933 235.131 37.16C235.404 37.0267 235.708 36.96 236.041 36.96ZM243.156 36.98C243.422 36.98 243.636 37.0567 243.796 37.21C243.956 37.3567 244.036 37.5533 244.036 37.8V41.4C244.036 42.2133 243.789 42.83 243.296 43.25C242.809 43.67 242.092 43.88 241.146 43.88C240.779 43.88 240.432 43.8467 240.106 43.78C239.779 43.7133 239.502 43.6167 239.276 43.49C239.156 43.4233 239.059 43.3367 238.986 43.23C238.919 43.1233 238.886 43.0033 238.886 42.87C238.886 42.6767 238.932 42.52 239.026 42.4C239.126 42.28 239.252 42.22 239.406 42.22C239.526 42.22 239.742 42.27 240.056 42.37C240.262 42.4367 240.446 42.4867 240.606 42.52C240.766 42.56 240.929 42.58 241.096 42.58C241.502 42.58 241.799 42.4933 241.986 42.32C242.179 42.1533 242.276 41.8867 242.276 41.52V41.14C242.129 41.36 241.919 41.5367 241.646 41.67C241.372 41.7967 241.076 41.86 240.756 41.86C240.329 41.86 239.949 41.76 239.616 41.56C239.282 41.36 239.022 41.0767 238.836 40.71C238.649 40.3367 238.556 39.9067 238.556 39.42C238.556 38.9333 238.649 38.5033 238.836 38.13C239.022 37.7567 239.282 37.47 239.616 37.27C239.949 37.0633 240.329 36.96 240.756 36.96C241.082 36.96 241.382 37.0267 241.656 37.16C241.929 37.2933 242.139 37.4767 242.286 37.71C242.299 37.4833 242.382 37.3067 242.536 37.18C242.696 37.0467 242.902 36.98 243.156 36.98ZM241.296 40.53C241.609 40.53 241.852 40.4333 242.026 40.24C242.199 40.0467 242.286 39.7733 242.286 39.42C242.286 39.0667 242.199 38.79 242.026 38.59C241.852 38.39 241.609 38.29 241.296 38.29C240.989 38.29 240.749 38.39 240.576 38.59C240.402 38.7833 240.316 39.06 240.316 39.42C240.316 39.7667 240.402 40.04 240.576 40.24C240.756 40.4333 240.996 40.53 241.296 40.53Z" fill="#EBF0F2"/>
<path d="M277.266 37.53L276.916 39.34H277.366C277.519 39.34 277.646 39.3933 277.746 39.5C277.853 39.6067 277.906 39.7367 277.906 39.89C277.906 40.0367 277.853 40.16 277.746 40.26C277.646 40.36 277.519 40.41 277.366 40.41H276.706L276.466 41.64C276.439 41.76 276.379 41.86 276.286 41.94C276.199 42.0133 276.086 42.05 275.946 42.05C275.779 42.05 275.639 42 275.526 41.9C275.419 41.7933 275.366 41.6633 275.366 41.51C275.366 41.45 275.369 41.4033 275.376 41.37L275.566 40.41H274.676L274.426 41.64C274.406 41.76 274.349 41.86 274.256 41.94C274.163 42.0133 274.056 42.05 273.936 42.05C273.769 42.05 273.633 42 273.526 41.9C273.419 41.7933 273.366 41.6633 273.366 41.51C273.366 41.45 273.369 41.4033 273.376 41.37L273.566 40.41H273.426C273.273 40.41 273.143 40.36 273.036 40.26C272.936 40.1533 272.886 40.0233 272.886 39.87C272.886 39.7167 272.936 39.59 273.036 39.49C273.143 39.39 273.273 39.34 273.426 39.34H273.776L274.126 37.53H273.626C273.473 37.53 273.343 37.4767 273.236 37.37C273.136 37.2633 273.086 37.1333 273.086 36.98C273.086 36.8333 273.136 36.71 273.236 36.61C273.343 36.51 273.473 36.46 273.626 36.46H274.336L274.566 35.28C274.593 35.16 274.649 35.0633 274.736 34.99C274.829 34.91 274.943 34.87 275.076 34.87C275.243 34.87 275.379 34.9233 275.486 35.03C275.599 35.1367 275.656 35.27 275.656 35.43C275.656 35.49 275.653 35.5367 275.646 35.57L275.466 36.46H276.336L276.566 35.28C276.586 35.16 276.643 35.0633 276.736 34.99C276.829 34.91 276.946 34.87 277.086 34.87C277.253 34.87 277.389 34.9233 277.496 35.03C277.609 35.13 277.666 35.2567 277.666 35.41C277.666 35.47 277.663 35.5167 277.656 35.55L277.476 36.46H277.566C277.719 36.46 277.846 36.5133 277.946 36.62C278.053 36.72 278.106 36.8467 278.106 37C278.106 37.1533 278.053 37.28 277.946 37.38C277.846 37.48 277.719 37.53 277.566 37.53H277.266ZM275.776 39.34L276.126 37.53H275.256L274.886 39.34H275.776ZM279.902 42.06C279.649 42.06 279.436 41.9933 279.262 41.86C279.096 41.72 279.012 41.5133 279.012 41.24V37.8C279.012 37.5267 279.096 37.3233 279.262 37.19C279.436 37.05 279.649 36.98 279.902 36.98C280.156 36.98 280.366 37.05 280.532 37.19C280.706 37.3233 280.792 37.5267 280.792 37.8V41.24C280.792 41.5133 280.706 41.72 280.532 41.86C280.366 41.9933 280.156 42.06 279.902 42.06ZM279.902 36.28C279.602 36.28 279.362 36.2033 279.182 36.05C279.009 35.89 278.922 35.68 278.922 35.42C278.922 35.16 279.009 34.9533 279.182 34.8C279.362 34.6467 279.602 34.57 279.902 34.57C280.196 34.57 280.432 34.6467 280.612 34.8C280.792 34.9533 280.882 35.16 280.882 35.42C280.882 35.68 280.792 35.89 280.612 36.05C280.439 36.2033 280.202 36.28 279.902 36.28ZM285.135 36.96C285.721 36.96 286.158 37.1367 286.445 37.49C286.731 37.8367 286.875 38.3667 286.875 39.08V41.24C286.875 41.4933 286.795 41.6933 286.635 41.84C286.475 41.9867 286.258 42.06 285.985 42.06C285.711 42.06 285.495 41.9867 285.335 41.84C285.175 41.6933 285.095 41.4933 285.095 41.24V39.16C285.095 38.8667 285.041 38.6533 284.935 38.52C284.835 38.3867 284.681 38.32 284.475 38.32C284.208 38.32 283.995 38.4067 283.835 38.58C283.681 38.7467 283.605 38.9733 283.605 39.26V41.24C283.605 41.4933 283.525 41.6933 283.365 41.84C283.205 41.9867 282.988 42.06 282.715 42.06C282.441 42.06 282.225 41.9867 282.065 41.84C281.905 41.6933 281.825 41.4933 281.825 41.24V37.78C281.825 37.5467 281.908 37.3567 282.075 37.21C282.241 37.0567 282.458 36.98 282.725 36.98C282.978 36.98 283.178 37.05 283.325 37.19C283.478 37.33 283.555 37.5133 283.555 37.74C283.728 37.4867 283.951 37.2933 284.225 37.16C284.498 37.0267 284.801 36.96 285.135 36.96ZM292.179 34.9C292.446 34.9 292.663 34.9767 292.829 35.13C293.003 35.2767 293.089 35.4667 293.089 35.7V41.24C293.089 41.4933 293.009 41.6933 292.849 41.84C292.689 41.9867 292.476 42.06 292.209 42.06C291.963 42.06 291.759 41.9967 291.599 41.87C291.446 41.7367 291.359 41.5567 291.339 41.33C291.199 41.5633 290.993 41.7467 290.719 41.88C290.453 42.0133 290.156 42.08 289.829 42.08C289.409 42.08 289.033 41.9733 288.699 41.76C288.373 41.54 288.116 41.2333 287.929 40.84C287.743 40.4467 287.649 39.9967 287.649 39.49C287.649 38.9833 287.739 38.54 287.919 38.16C288.106 37.7733 288.363 37.4767 288.689 37.27C289.023 37.0633 289.403 36.96 289.829 36.96C290.143 36.96 290.429 37.0233 290.689 37.15C290.956 37.2767 291.163 37.4467 291.309 37.66V35.67C291.309 35.4367 291.386 35.25 291.539 35.11C291.699 34.97 291.913 34.9 292.179 34.9ZM290.369 40.75C290.683 40.75 290.923 40.6433 291.089 40.43C291.256 40.2167 291.339 39.91 291.339 39.51C291.339 39.1167 291.256 38.8167 291.089 38.61C290.923 38.3967 290.683 38.29 290.369 38.29C290.063 38.29 289.826 38.3933 289.659 38.6C289.493 38.8067 289.409 39.1033 289.409 39.49C289.409 39.89 289.493 40.2 289.659 40.42C289.833 40.64 290.069 40.75 290.369 40.75ZM297.419 37.48C297.493 37.3133 297.593 37.19 297.719 37.11C297.846 37.03 297.986 36.99 298.139 36.99C298.359 36.99 298.556 37.0633 298.729 37.21C298.903 37.3567 298.989 37.5333 298.989 37.74C298.989 37.8533 298.963 37.9633 298.909 38.07L296.259 43.38C296.179 43.5467 296.073 43.67 295.939 43.75C295.813 43.83 295.673 43.87 295.519 43.87C295.299 43.87 295.103 43.7967 294.929 43.65C294.763 43.51 294.679 43.3367 294.679 43.13C294.679 43.0167 294.709 42.9 294.769 42.78L295.419 41.47L293.719 38.07C293.666 37.95 293.639 37.8433 293.639 37.75C293.639 37.5367 293.733 37.3567 293.919 37.21C294.106 37.0567 294.316 36.98 294.549 36.98C294.709 36.98 294.856 37.0233 294.989 37.11C295.129 37.19 295.236 37.3133 295.309 37.48L296.369 39.78L297.419 37.48ZM306.11 37.48C306.176 37.3133 306.27 37.19 306.39 37.11C306.516 37.0233 306.653 36.98 306.8 36.98C307.02 36.98 307.216 37.0567 307.39 37.21C307.563 37.3567 307.65 37.5367 307.65 37.75C307.65 37.85 307.623 37.96 307.57 38.08L305.95 41.55C305.876 41.7167 305.763 41.8467 305.61 41.94C305.463 42.0267 305.3 42.07 305.12 42.07C304.94 42.07 304.776 42.0267 304.63 41.94C304.483 41.8467 304.373 41.7167 304.3 41.55L303.35 39.44L302.46 41.55C302.393 41.7167 302.283 41.8467 302.13 41.94C301.983 42.0267 301.82 42.07 301.64 42.07C301.46 42.07 301.293 42.0267 301.14 41.94C300.993 41.8467 300.88 41.7167 300.8 41.55L299.19 38.08C299.143 37.98 299.12 37.8733 299.12 37.76C299.12 37.54 299.21 37.3567 299.39 37.21C299.576 37.0567 299.783 36.98 300.01 36.98C300.17 36.98 300.313 37.0233 300.44 37.11C300.573 37.19 300.673 37.3167 300.74 37.49L301.69 39.8L302.66 37.5C302.726 37.3333 302.83 37.2067 302.97 37.12C303.11 37.0333 303.26 36.99 303.42 36.99C303.58 36.99 303.73 37.0333 303.87 37.12C304.01 37.2067 304.113 37.3333 304.18 37.5L305.18 39.81L306.11 37.48ZM309.375 42.06C309.122 42.06 308.908 41.9933 308.735 41.86C308.568 41.72 308.485 41.5133 308.485 41.24V37.8C308.485 37.5267 308.568 37.3233 308.735 37.19C308.908 37.05 309.122 36.98 309.375 36.98C309.628 36.98 309.838 37.05 310.005 37.19C310.178 37.3233 310.265 37.5267 310.265 37.8V41.24C310.265 41.5133 310.178 41.72 310.005 41.86C309.838 41.9933 309.628 42.06 309.375 42.06ZM309.375 36.28C309.075 36.28 308.835 36.2033 308.655 36.05C308.482 35.89 308.395 35.68 308.395 35.42C308.395 35.16 308.482 34.9533 308.655 34.8C308.835 34.6467 309.075 34.57 309.375 34.57C309.668 34.57 309.905 34.6467 310.085 34.8C310.265 34.9533 310.355 35.16 310.355 35.42C310.355 35.68 310.265 35.89 310.085 36.05C309.912 36.2033 309.675 36.28 309.375 36.28ZM315.597 34.9C315.864 34.9 316.081 34.9767 316.247 35.13C316.421 35.2767 316.507 35.4667 316.507 35.7V41.24C316.507 41.4933 316.427 41.6933 316.267 41.84C316.107 41.9867 315.894 42.06 315.627 42.06C315.381 42.06 315.177 41.9967 315.017 41.87C314.864 41.7367 314.777 41.5567 314.757 41.33C314.617 41.5633 314.411 41.7467 314.137 41.88C313.871 42.0133 313.574 42.08 313.247 42.08C312.827 42.08 312.451 41.9733 312.117 41.76C311.791 41.54 311.534 41.2333 311.347 40.84C311.161 40.4467 311.067 39.9967 311.067 39.49C311.067 38.9833 311.157 38.54 311.337 38.16C311.524 37.7733 311.781 37.4767 312.107 37.27C312.441 37.0633 312.821 36.96 313.247 36.96C313.561 36.96 313.847 37.0233 314.107 37.15C314.374 37.2767 314.581 37.4467 314.727 37.66V35.67C314.727 35.4367 314.804 35.25 314.957 35.11C315.117 34.97 315.331 34.9 315.597 34.9ZM313.787 40.75C314.101 40.75 314.341 40.6433 314.507 40.43C314.674 40.2167 314.757 39.91 314.757 39.51C314.757 39.1167 314.674 38.8167 314.507 38.61C314.341 38.3967 314.101 38.29 313.787 38.29C313.481 38.29 313.244 38.3933 313.077 38.6C312.911 38.8067 312.827 39.1033 312.827 39.49C312.827 39.89 312.911 40.2 313.077 40.42C313.251 40.64 313.487 40.75 313.787 40.75ZM321.617 36.98C321.891 36.98 322.107 37.0533 322.267 37.2C322.427 37.3467 322.507 37.5467 322.507 37.8V41.26C322.507 41.4933 322.424 41.6867 322.257 41.84C322.091 41.9867 321.874 42.06 321.607 42.06C321.367 42.06 321.171 41.9967 321.017 41.87C320.864 41.7367 320.784 41.56 320.777 41.34C320.624 41.58 320.427 41.7633 320.187 41.89C319.954 42.0167 319.684 42.08 319.377 42.08C318.744 42.08 318.274 41.9067 317.967 41.56C317.661 41.2067 317.507 40.6733 317.507 39.96V37.8C317.507 37.5467 317.587 37.3467 317.747 37.2C317.907 37.0533 318.124 36.98 318.397 36.98C318.671 36.98 318.887 37.0533 319.047 37.2C319.207 37.3467 319.287 37.5467 319.287 37.8V40C319.287 40.48 319.494 40.72 319.907 40.72C320.147 40.72 320.344 40.6333 320.497 40.46C320.651 40.2867 320.727 40.06 320.727 39.78V37.8C320.727 37.5467 320.807 37.3467 320.967 37.2C321.127 37.0533 321.344 36.98 321.617 36.98ZM325.833 36.96C326.593 36.96 327.153 37.1433 327.513 37.51C327.88 37.87 328.063 38.42 328.063 39.16V41.25C328.063 41.5033 327.987 41.7033 327.833 41.85C327.687 41.99 327.48 42.06 327.213 42.06C326.98 42.06 326.787 41.9933 326.633 41.86C326.487 41.7267 326.407 41.5467 326.393 41.32C326.3 41.56 326.143 41.7467 325.923 41.88C325.703 42.0133 325.44 42.08 325.133 42.08C324.793 42.08 324.487 42.0133 324.213 41.88C323.94 41.74 323.723 41.55 323.563 41.31C323.41 41.0633 323.333 40.7867 323.333 40.48C323.333 40.1267 323.423 39.8467 323.603 39.64C323.79 39.4267 324.083 39.2733 324.483 39.18C324.883 39.0867 325.423 39.04 326.103 39.04H326.373V38.92C326.373 38.6867 326.32 38.52 326.213 38.42C326.107 38.3133 325.927 38.26 325.673 38.26C325.4 38.26 325 38.3533 324.473 38.54C324.32 38.5933 324.19 38.62 324.083 38.62C323.917 38.62 323.783 38.56 323.683 38.44C323.583 38.32 323.533 38.1633 323.533 37.97C323.533 37.8233 323.563 37.7033 323.623 37.61C323.683 37.5167 323.78 37.4333 323.913 37.36C324.147 37.24 324.44 37.1433 324.793 37.07C325.147 36.9967 325.493 36.96 325.833 36.96ZM325.553 40.89C325.793 40.89 325.99 40.8067 326.143 40.64C326.297 40.4667 326.373 40.2467 326.373 39.98V39.86H326.213C325.787 39.86 325.483 39.9 325.303 39.98C325.123 40.0533 325.033 40.18 325.033 40.36C325.033 40.5133 325.08 40.64 325.173 40.74C325.273 40.84 325.4 40.89 325.553 40.89ZM329.951 42.06C329.698 42.06 329.484 41.9933 329.311 41.86C329.144 41.72 329.061 41.5133 329.061 41.24V35.73C329.061 35.4567 329.144 35.25 329.311 35.11C329.484 34.97 329.698 34.9 329.951 34.9C330.204 34.9 330.414 34.97 330.581 35.11C330.754 35.25 330.841 35.4567 330.841 35.73V41.24C330.841 41.5133 330.754 41.72 330.581 41.86C330.414 41.9933 330.204 42.06 329.951 42.06ZM335.184 36.96C335.77 36.96 336.207 37.1367 336.494 37.49C336.78 37.8367 336.924 38.3667 336.924 39.08V41.24C336.924 41.4933 336.844 41.6933 336.684 41.84C336.524 41.9867 336.307 42.06 336.034 42.06C335.76 42.06 335.544 41.9867 335.384 41.84C335.224 41.6933 335.144 41.4933 335.144 41.24V39.16C335.144 38.8667 335.09 38.6533 334.984 38.52C334.884 38.3867 334.73 38.32 334.524 38.32C334.257 38.32 334.044 38.4067 333.884 38.58C333.73 38.7467 333.654 38.9733 333.654 39.26V41.24C333.654 41.4933 333.574 41.6933 333.414 41.84C333.254 41.9867 333.037 42.06 332.764 42.06C332.49 42.06 332.274 41.9867 332.114 41.84C331.954 41.6933 331.874 41.4933 331.874 41.24V37.78C331.874 37.5467 331.957 37.3567 332.124 37.21C332.29 37.0567 332.507 36.98 332.774 36.98C333.027 36.98 333.227 37.05 333.374 37.19C333.527 37.33 333.604 37.5133 333.604 37.74C333.777 37.4867 334 37.2933 334.274 37.16C334.547 37.0267 334.85 36.96 335.184 36.96ZM341.928 40.42C342.082 40.42 342.205 40.48 342.298 40.6C342.398 40.72 342.448 40.8767 342.448 41.07C342.448 41.3367 342.318 41.54 342.058 41.68C341.832 41.7933 341.562 41.89 341.248 41.97C340.942 42.0433 340.658 42.08 340.398 42.08C339.852 42.08 339.375 41.9767 338.968 41.77C338.562 41.5633 338.248 41.2667 338.028 40.88C337.808 40.4933 337.698 40.04 337.698 39.52C337.698 39.0267 337.802 38.5867 338.008 38.2C338.222 37.8067 338.515 37.5033 338.888 37.29C339.268 37.07 339.695 36.96 340.168 36.96C340.628 36.96 341.032 37.06 341.378 37.26C341.725 37.46 341.992 37.7433 342.178 38.11C342.372 38.4767 342.468 38.9067 342.468 39.4C342.468 39.5533 342.432 39.6733 342.358 39.76C342.292 39.84 342.192 39.88 342.058 39.88H339.418C339.465 40.2 339.568 40.43 339.728 40.57C339.888 40.71 340.125 40.78 340.438 40.78C340.605 40.78 340.758 40.7633 340.898 40.73C341.038 40.69 341.195 40.6367 341.368 40.57C341.468 40.53 341.565 40.4967 341.658 40.47C341.758 40.4367 341.848 40.42 341.928 40.42ZM340.218 38.16C339.985 38.16 339.798 38.2367 339.658 38.39C339.518 38.5367 339.435 38.7533 339.408 39.04H340.978C340.938 38.4533 340.685 38.16 340.218 38.16ZM349.401 36.96C349.821 36.96 350.194 37.07 350.521 37.29C350.854 37.5033 351.111 37.8067 351.291 38.2C351.478 38.5933 351.571 39.0433 351.571 39.55C351.571 40.0567 351.478 40.5033 351.291 40.89C351.111 41.27 350.858 41.5633 350.531 41.77C350.204 41.9767 349.828 42.08 349.401 42.08C349.088 42.08 348.798 42.0167 348.531 41.89C348.271 41.7633 348.068 41.5933 347.921 41.38V43.08C347.921 43.3133 347.841 43.5 347.681 43.64C347.521 43.78 347.311 43.85 347.051 43.85C346.778 43.85 346.558 43.7733 346.391 43.62C346.224 43.4733 346.141 43.2833 346.141 43.05V37.8C346.141 37.5533 346.218 37.3567 346.371 37.21C346.531 37.0567 346.744 36.98 347.011 36.98C347.264 36.98 347.468 37.0467 347.621 37.18C347.781 37.3133 347.871 37.49 347.891 37.71C348.031 37.4767 348.234 37.2933 348.501 37.16C348.774 37.0267 349.074 36.96 349.401 36.96ZM348.861 40.75C349.168 40.75 349.401 40.6467 349.561 40.44C349.728 40.2333 349.811 39.9367 349.811 39.55C349.811 39.1433 349.728 38.8333 349.561 38.62C349.394 38.4 349.158 38.29 348.851 38.29C348.544 38.29 348.308 38.3967 348.141 38.61C347.974 38.8233 347.891 39.13 347.891 39.53C347.891 39.9233 347.974 40.2267 348.141 40.44C348.308 40.6467 348.548 40.75 348.861 40.75ZM355.511 36.98C355.738 36.96 355.918 37.0133 356.051 37.14C356.184 37.26 356.251 37.44 356.251 37.68C356.251 37.9467 356.188 38.14 356.061 38.26C355.941 38.38 355.721 38.4567 355.401 38.49L355.101 38.52C354.768 38.56 354.528 38.6667 354.381 38.84C354.241 39.0067 354.171 39.2367 354.171 39.53V41.24C354.171 41.5133 354.084 41.72 353.911 41.86C353.744 41.9933 353.534 42.06 353.281 42.06C353.028 42.06 352.814 41.9933 352.641 41.86C352.474 41.72 352.391 41.5133 352.391 41.24V37.78C352.391 37.5267 352.474 37.33 352.641 37.19C352.814 37.05 353.021 36.98 353.261 36.98C353.508 36.98 353.704 37.0467 353.851 37.18C354.004 37.3133 354.081 37.5 354.081 37.74V37.93C354.188 37.6367 354.361 37.41 354.601 37.25C354.848 37.09 355.104 37.0033 355.371 36.99L355.511 36.98ZM358.963 42.08C358.423 42.08 357.946 41.9767 357.533 41.77C357.126 41.5567 356.81 41.2567 356.583 40.87C356.363 40.4833 356.253 40.03 356.253 39.51C356.253 38.99 356.363 38.54 356.583 38.16C356.81 37.7733 357.126 37.4767 357.533 37.27C357.94 37.0633 358.416 36.96 358.963 36.96C359.51 36.96 359.986 37.0633 360.393 37.27C360.8 37.4767 361.113 37.7733 361.333 38.16C361.56 38.54 361.673 38.99 361.673 39.51C361.673 40.03 361.56 40.4833 361.333 40.87C361.113 41.2567 360.8 41.5567 360.393 41.77C359.986 41.9767 359.51 42.08 358.963 42.08ZM358.963 40.75C359.596 40.75 359.913 40.3367 359.913 39.51C359.913 38.6833 359.596 38.27 358.963 38.27C358.33 38.27 358.013 38.6833 358.013 39.51C358.013 40.3367 358.33 40.75 358.963 40.75ZM362.149 43.82C361.829 43.84 361.576 43.7933 361.389 43.68C361.202 43.5733 361.109 43.4 361.109 43.16C361.109 42.9667 361.166 42.82 361.279 42.72C361.386 42.6267 361.552 42.5733 361.779 42.56L362.059 42.54C362.186 42.5333 362.286 42.4867 362.359 42.4C362.439 42.3133 362.479 42.2033 362.479 42.07V37.8C362.479 37.5267 362.562 37.3233 362.729 37.19C362.902 37.05 363.116 36.98 363.369 36.98C363.622 36.98 363.832 37.05 363.999 37.19C364.172 37.3233 364.259 37.5267 364.259 37.8V41.93C364.259 42.49 364.106 42.93 363.799 43.25C363.499 43.57 363.042 43.7533 362.429 43.8L362.149 43.82ZM363.349 36.28C363.049 36.28 362.809 36.2033 362.629 36.05C362.456 35.89 362.369 35.68 362.369 35.42C362.369 35.16 362.456 34.9533 362.629 34.8C362.809 34.6467 363.049 34.57 363.349 34.57C363.642 34.57 363.879 34.6467 364.059 34.8C364.239 34.9533 364.329 35.16 364.329 35.42C364.329 35.68 364.239 35.89 364.059 36.05C363.886 36.2033 363.649 36.28 363.349 36.28ZM369.291 40.42C369.445 40.42 369.568 40.48 369.661 40.6C369.761 40.72 369.811 40.8767 369.811 41.07C369.811 41.3367 369.681 41.54 369.421 41.68C369.195 41.7933 368.925 41.89 368.611 41.97C368.305 42.0433 368.021 42.08 367.761 42.08C367.215 42.08 366.738 41.9767 366.331 41.77C365.925 41.5633 365.611 41.2667 365.391 40.88C365.171 40.4933 365.061 40.04 365.061 39.52C365.061 39.0267 365.165 38.5867 365.371 38.2C365.585 37.8067 365.878 37.5033 366.251 37.29C366.631 37.07 367.058 36.96 367.531 36.96C367.991 36.96 368.395 37.06 368.741 37.26C369.088 37.46 369.355 37.7433 369.541 38.11C369.735 38.4767 369.831 38.9067 369.831 39.4C369.831 39.5533 369.795 39.6733 369.721 39.76C369.655 39.84 369.555 39.88 369.421 39.88H366.781C366.828 40.2 366.931 40.43 367.091 40.57C367.251 40.71 367.488 40.78 367.801 40.78C367.968 40.78 368.121 40.7633 368.261 40.73C368.401 40.69 368.558 40.6367 368.731 40.57C368.831 40.53 368.928 40.4967 369.021 40.47C369.121 40.4367 369.211 40.42 369.291 40.42ZM367.581 38.16C367.348 38.16 367.161 38.2367 367.021 38.39C366.881 38.5367 366.798 38.7533 366.771 39.04H368.341C368.301 38.4533 368.048 38.16 367.581 38.16ZM375.553 40.62C375.726 40.7867 375.813 40.98 375.813 41.2C375.813 41.42 375.733 41.6167 375.573 41.79C375.42 41.9633 375.233 42.05 375.013 42.05C374.826 42.05 374.64 41.9667 374.453 41.8L372.423 39.87V41.22C372.423 41.4933 372.336 41.7 372.163 41.84C371.996 41.98 371.786 42.05 371.533 42.05C371.28 42.05 371.066 41.98 370.893 41.84C370.726 41.7 370.643 41.4933 370.643 41.22V35.73C370.643 35.4567 370.726 35.25 370.893 35.11C371.066 34.97 371.28 34.9 371.533 34.9C371.786 34.9 371.996 34.97 372.163 35.11C372.336 35.25 372.423 35.4567 372.423 35.73V39.12L374.273 37.24C374.44 37.0667 374.633 36.98 374.853 36.98C375.066 36.98 375.253 37.0633 375.413 37.23C375.58 37.39 375.663 37.5733 375.663 37.78C375.663 37.9867 375.576 38.1767 375.403 38.35L374.313 39.43L375.553 40.62ZM379.364 40.79C379.81 40.8167 380.034 41.0167 380.034 41.39C380.034 41.6233 379.944 41.7967 379.764 41.91C379.584 42.0233 379.327 42.07 378.994 42.05L378.714 42.03C378.114 41.9833 377.657 41.8033 377.344 41.49C377.037 41.17 376.884 40.7267 376.884 40.16V38.39H376.594C376.06 38.39 375.794 38.17 375.794 37.73C375.794 37.2967 376.06 37.08 376.594 37.08H376.884V36.43C376.884 36.1767 376.964 35.9767 377.124 35.83C377.284 35.6767 377.5 35.6 377.774 35.6C378.047 35.6 378.264 35.6767 378.424 35.83C378.584 35.9767 378.664 36.1767 378.664 36.43V37.08H379.214C379.747 37.08 380.014 37.2967 380.014 37.73C380.014 38.17 379.747 38.39 379.214 38.39H378.664V40.31C378.664 40.4367 378.7 40.5433 378.774 40.63C378.854 40.7167 378.954 40.7633 379.074 40.77L379.364 40.79ZM383.904 37.48C383.977 37.3133 384.077 37.19 384.204 37.11C384.33 37.03 384.47 36.99 384.624 36.99C384.844 36.99 385.04 37.0633 385.214 37.21C385.387 37.3567 385.474 37.5333 385.474 37.74C385.474 37.8533 385.447 37.9633 385.394 38.07L382.744 43.38C382.664 43.5467 382.557 43.67 382.424 43.75C382.297 43.83 382.157 43.87 382.004 43.87C381.784 43.87 381.587 43.7967 381.414 43.65C381.247 43.51 381.164 43.3367 381.164 43.13C381.164 43.0167 381.194 42.9 381.254 42.78L381.904 41.47L380.204 38.07C380.15 37.95 380.124 37.8433 380.124 37.75C380.124 37.5367 380.217 37.3567 380.404 37.21C380.59 37.0567 380.8 36.98 381.034 36.98C381.194 36.98 381.34 37.0233 381.474 37.11C381.614 37.19 381.72 37.3133 381.794 37.48L382.854 39.78L383.904 37.48Z" fill="#EBF0F2"/>
<path d="M102.177 23.932C102.237 23.782 102.321 23.671 102.429 23.599C102.543 23.521 102.666 23.482 102.798 23.482C102.996 23.482 103.173 23.551 103.329 23.689C103.485 23.821 103.563 23.983 103.563 24.175C103.563 24.265 103.539 24.364 103.491 24.472L102.033 27.595C101.967 27.745 101.865 27.862 101.727 27.946C101.595 28.024 101.448 28.063 101.286 28.063C101.124 28.063 100.977 28.024 100.845 27.946C100.713 27.862 100.614 27.745 100.548 27.595L99.6929 25.696L98.8919 27.595C98.8319 27.745 98.7329 27.862 98.5949 27.946C98.4629 28.024 98.3159 28.063 98.1539 28.063C97.9919 28.063 97.8419 28.024 97.7039 27.946C97.5719 27.862 97.4699 27.745 97.3979 27.595L95.9489 24.472C95.9069 24.382 95.8859 24.286 95.8859 24.184C95.8859 23.986 95.9669 23.821 96.1289 23.689C96.2969 23.551 96.4829 23.482 96.6869 23.482C96.8309 23.482 96.9599 23.521 97.0739 23.599C97.1939 23.671 97.2839 23.785 97.3439 23.941L98.1989 26.02L99.0719 23.95C99.1319 23.8 99.2249 23.686 99.3509 23.608C99.4769 23.53 99.6119 23.491 99.7559 23.491C99.8999 23.491 100.035 23.53 100.161 23.608C100.287 23.686 100.38 23.8 100.44 23.95L101.34 26.029L102.177 23.932ZM110.026 23.932C110.086 23.782 110.17 23.671 110.278 23.599C110.392 23.521 110.515 23.482 110.647 23.482C110.845 23.482 111.022 23.551 111.178 23.689C111.334 23.821 111.412 23.983 111.412 24.175C111.412 24.265 111.388 24.364 111.34 24.472L109.882 27.595C109.816 27.745 109.714 27.862 109.576 27.946C109.444 28.024 109.297 28.063 109.135 28.063C108.973 28.063 108.826 28.024 108.694 27.946C108.562 27.862 108.463 27.745 108.397 27.595L107.542 25.696L106.741 27.595C106.681 27.745 106.582 27.862 106.444 27.946C106.312 28.024 106.165 28.063 106.003 28.063C105.841 28.063 105.691 28.024 105.553 27.946C105.421 27.862 105.319 27.745 105.247 27.595L103.798 24.472C103.756 24.382 103.735 24.286 103.735 24.184C103.735 23.986 103.816 23.821 103.978 23.689C104.146 23.551 104.332 23.482 104.536 23.482C104.68 23.482 104.809 23.521 104.923 23.599C105.043 23.671 105.133 23.785 105.193 23.941L106.048 26.02L106.921 23.95C106.981 23.8 107.074 23.686 107.2 23.608C107.326 23.53 107.461 23.491 107.605 23.491C107.749 23.491 107.884 23.53 108.01 23.608C108.136 23.686 108.229 23.8 108.289 23.95L109.189 26.029L110.026 23.932ZM117.874 23.932C117.934 23.782 118.018 23.671 118.126 23.599C118.24 23.521 118.363 23.482 118.495 23.482C118.693 23.482 118.87 23.551 119.026 23.689C119.182 23.821 119.26 23.983 119.26 24.175C119.26 24.265 119.236 24.364 119.188 24.472L117.73 27.595C117.664 27.745 117.562 27.862 117.424 27.946C117.292 28.024 117.145 28.063 116.983 28.063C116.821 28.063 116.674 28.024 116.542 27.946C116.41 27.862 116.311 27.745 116.245 27.595L115.39 25.696L114.589 27.595C114.529 27.745 114.43 27.862 114.292 27.946C114.16 28.024 114.013 28.063 113.851 28.063C113.689 28.063 113.539 28.024 113.401 27.946C113.269 27.862 113.167 27.745 113.095 27.595L111.646 24.472C111.604 24.382 111.583 24.286 111.583 24.184C111.583 23.986 111.664 23.821 111.826 23.689C111.994 23.551 112.18 23.482 112.384 23.482C112.528 23.482 112.657 23.521 112.771 23.599C112.891 23.671 112.981 23.785 113.041 23.941L113.896 26.02L114.769 23.95C114.829 23.8 114.922 23.686 115.048 23.608C115.174 23.53 115.309 23.491 115.453 23.491C115.597 23.491 115.732 23.53 115.858 23.608C115.984 23.686 116.077 23.8 116.137 23.95L117.037 26.029L117.874 23.932ZM120.197 28.054C119.945 28.054 119.735 27.97 119.567 27.802C119.405 27.634 119.324 27.427 119.324 27.181C119.324 26.935 119.405 26.728 119.567 26.56C119.735 26.392 119.945 26.308 120.197 26.308C120.443 26.308 120.647 26.392 120.809 26.56C120.977 26.728 121.061 26.935 121.061 27.181C121.061 27.427 120.977 27.634 120.809 27.802C120.647 27.97 120.443 28.054 120.197 28.054ZM124.239 26.911C124.641 26.935 124.842 27.115 124.842 27.451C124.842 27.661 124.761 27.817 124.599 27.919C124.437 28.021 124.206 28.063 123.906 28.045L123.654 28.027C123.114 27.985 122.703 27.823 122.421 27.541C122.145 27.253 122.007 26.854 122.007 26.344V24.751H121.746C121.266 24.751 121.026 24.553 121.026 24.157C121.026 23.767 121.266 23.572 121.746 23.572H122.007V22.987C122.007 22.759 122.079 22.579 122.223 22.447C122.367 22.309 122.562 22.24 122.808 22.24C123.054 22.24 123.249 22.309 123.393 22.447C123.537 22.579 123.609 22.759 123.609 22.987V23.572H124.104C124.584 23.572 124.824 23.767 124.824 24.157C124.824 24.553 124.584 24.751 124.104 24.751H123.609V26.479C123.609 26.593 123.642 26.689 123.708 26.767C123.78 26.845 123.87 26.887 123.978 26.893L124.239 26.911ZM131.277 23.932C131.337 23.782 131.421 23.671 131.529 23.599C131.643 23.521 131.766 23.482 131.898 23.482C132.096 23.482 132.273 23.551 132.429 23.689C132.585 23.821 132.663 23.983 132.663 24.175C132.663 24.265 132.639 24.364 132.591 24.472L131.133 27.595C131.067 27.745 130.965 27.862 130.827 27.946C130.695 28.024 130.548 28.063 130.386 28.063C130.224 28.063 130.077 28.024 129.945 27.946C129.813 27.862 129.714 27.745 129.648 27.595L128.793 25.696L127.992 27.595C127.932 27.745 127.833 27.862 127.695 27.946C127.563 28.024 127.416 28.063 127.254 28.063C127.092 28.063 126.942 28.024 126.804 27.946C126.672 27.862 126.57 27.745 126.498 27.595L125.049 24.472C125.007 24.382 124.986 24.286 124.986 24.184C124.986 23.986 125.067 23.821 125.229 23.689C125.397 23.551 125.583 23.482 125.787 23.482C125.931 23.482 126.06 23.521 126.174 23.599C126.294 23.671 126.384 23.785 126.444 23.941L127.299 26.02L128.172 23.95C128.232 23.8 128.325 23.686 128.451 23.608C128.577 23.53 128.712 23.491 128.856 23.491C129 23.491 129.135 23.53 129.261 23.608C129.387 23.686 129.48 23.8 129.54 23.95L130.44 26.029L131.277 23.932ZM135.348 28.072C134.862 28.072 134.433 27.979 134.061 27.793C133.695 27.601 133.41 27.331 133.206 26.983C133.008 26.635 132.909 26.227 132.909 25.759C132.909 25.291 133.008 24.886 133.206 24.544C133.41 24.196 133.695 23.929 134.061 23.743C134.427 23.557 134.856 23.464 135.348 23.464C135.84 23.464 136.269 23.557 136.635 23.743C137.001 23.929 137.283 24.196 137.481 24.544C137.685 24.886 137.787 25.291 137.787 25.759C137.787 26.227 137.685 26.635 137.481 26.983C137.283 27.331 137.001 27.601 136.635 27.793C136.269 27.979 135.84 28.072 135.348 28.072ZM135.348 26.875C135.918 26.875 136.203 26.503 136.203 25.759C136.203 25.015 135.918 24.643 135.348 24.643C134.778 24.643 134.493 25.015 134.493 25.759C134.493 26.503 134.778 26.875 135.348 26.875ZM138.216 29.638C137.928 29.656 137.7 29.614 137.532 29.512C137.364 29.416 137.28 29.26 137.28 29.044C137.28 28.87 137.331 28.738 137.433 28.648C137.529 28.564 137.679 28.516 137.883 28.504L138.135 28.486C138.249 28.48 138.339 28.438 138.405 28.36C138.477 28.282 138.513 28.183 138.513 28.063V24.22C138.513 23.974 138.588 23.791 138.738 23.671C138.894 23.545 139.086 23.482 139.314 23.482C139.542 23.482 139.731 23.545 139.881 23.671C140.037 23.791 140.115 23.974 140.115 24.22V27.937C140.115 28.441 139.977 28.837 139.701 29.125C139.431 29.413 139.02 29.578 138.468 29.62L138.216 29.638ZM139.296 22.852C139.026 22.852 138.81 22.783 138.648 22.645C138.492 22.501 138.414 22.312 138.414 22.078C138.414 21.844 138.492 21.658 138.648 21.52C138.81 21.382 139.026 21.313 139.296 21.313C139.56 21.313 139.773 21.382 139.935 21.52C140.097 21.658 140.178 21.844 140.178 22.078C140.178 22.312 140.097 22.501 139.935 22.645C139.779 22.783 139.566 22.852 139.296 22.852ZM143.105 23.464C143.789 23.464 144.293 23.629 144.617 23.959C144.947 24.283 145.112 24.778 145.112 25.444V27.325C145.112 27.553 145.043 27.733 144.905 27.865C144.773 27.991 144.587 28.054 144.347 28.054C144.137 28.054 143.963 27.994 143.825 27.874C143.693 27.754 143.621 27.592 143.609 27.388C143.525 27.604 143.384 27.772 143.186 27.892C142.988 28.012 142.751 28.072 142.475 28.072C142.169 28.072 141.893 28.012 141.647 27.892C141.401 27.766 141.206 27.595 141.062 27.379C140.924 27.157 140.855 26.908 140.855 26.632C140.855 26.314 140.936 26.062 141.098 25.876C141.266 25.684 141.53 25.546 141.89 25.462C142.25 25.378 142.736 25.336 143.348 25.336H143.591V25.228C143.591 25.018 143.543 24.868 143.447 24.778C143.351 24.682 143.189 24.634 142.961 24.634C142.715 24.634 142.355 24.718 141.881 24.886C141.743 24.934 141.626 24.958 141.53 24.958C141.38 24.958 141.26 24.904 141.17 24.796C141.08 24.688 141.035 24.547 141.035 24.373C141.035 24.241 141.062 24.133 141.116 24.049C141.17 23.965 141.257 23.89 141.377 23.824C141.587 23.716 141.851 23.629 142.169 23.563C142.487 23.497 142.799 23.464 143.105 23.464ZM142.853 27.001C143.069 27.001 143.246 26.926 143.384 26.776C143.522 26.62 143.591 26.422 143.591 26.182V26.074H143.447C143.063 26.074 142.79 26.11 142.628 26.182C142.466 26.248 142.385 26.362 142.385 26.524C142.385 26.662 142.427 26.776 142.511 26.866C142.601 26.956 142.715 27.001 142.853 27.001ZM146.145 28.909C145.959 28.909 145.812 28.867 145.704 28.783C145.596 28.699 145.542 28.588 145.542 28.45C145.542 28.312 145.596 28.201 145.704 28.117C145.812 28.039 145.959 28 146.145 28H149.439C149.625 28 149.772 28.039 149.88 28.117C149.988 28.201 150.042 28.312 150.042 28.45C150.042 28.588 149.988 28.699 149.88 28.783C149.772 28.867 149.625 28.909 149.439 28.909H146.145ZM152.3 28.072C151.898 28.072 151.559 28.042 151.283 27.982C151.007 27.922 150.764 27.826 150.554 27.694C150.47 27.652 150.404 27.58 150.356 27.478C150.308 27.376 150.284 27.262 150.284 27.136C150.284 26.974 150.326 26.842 150.41 26.74C150.5 26.632 150.611 26.578 150.743 26.578C150.833 26.578 150.917 26.59 150.995 26.614C151.073 26.632 151.169 26.665 151.283 26.713C151.475 26.779 151.643 26.83 151.787 26.866C151.937 26.902 152.126 26.92 152.354 26.92C152.516 26.92 152.642 26.899 152.732 26.857C152.828 26.809 152.876 26.743 152.876 26.659C152.876 26.593 152.852 26.542 152.804 26.506C152.762 26.47 152.678 26.437 152.552 26.407C152.426 26.371 152.213 26.323 151.913 26.263C151.379 26.161 150.992 26.008 150.752 25.804C150.518 25.594 150.401 25.3 150.401 24.922C150.401 24.646 150.485 24.397 150.653 24.175C150.827 23.953 151.064 23.779 151.364 23.653C151.664 23.527 152 23.464 152.372 23.464C152.642 23.464 152.903 23.497 153.155 23.563C153.413 23.629 153.641 23.722 153.839 23.842C154.025 23.95 154.118 24.124 154.118 24.364C154.118 24.532 154.073 24.673 153.983 24.787C153.893 24.901 153.782 24.958 153.65 24.958C153.494 24.958 153.308 24.907 153.092 24.805C152.948 24.739 152.819 24.691 152.705 24.661C152.597 24.625 152.468 24.607 152.318 24.607C152.168 24.607 152.051 24.631 151.967 24.679C151.883 24.721 151.841 24.784 151.841 24.868C151.841 24.964 151.898 25.039 152.012 25.093C152.132 25.147 152.366 25.207 152.714 25.273C153.296 25.375 153.707 25.531 153.947 25.741C154.187 25.945 154.307 26.242 154.307 26.632C154.307 27.07 154.124 27.421 153.758 27.685C153.398 27.943 152.912 28.072 152.3 28.072ZM157.541 26.911C157.943 26.935 158.144 27.115 158.144 27.451C158.144 27.661 158.063 27.817 157.901 27.919C157.739 28.021 157.508 28.063 157.208 28.045L156.956 28.027C156.416 27.985 156.005 27.823 155.723 27.541C155.447 27.253 155.309 26.854 155.309 26.344V24.751H155.048C154.568 24.751 154.328 24.553 154.328 24.157C154.328 23.767 154.568 23.572 155.048 23.572H155.309V22.987C155.309 22.759 155.381 22.579 155.525 22.447C155.669 22.309 155.864 22.24 156.11 22.24C156.356 22.24 156.551 22.309 156.695 22.447C156.839 22.579 156.911 22.759 156.911 22.987V23.572H157.406C157.886 23.572 158.126 23.767 158.126 24.157C158.126 24.553 157.886 24.751 157.406 24.751H156.911V26.479C156.911 26.593 156.944 26.689 157.01 26.767C157.082 26.845 157.172 26.887 157.28 26.893L157.541 26.911ZM161.378 23.482C161.582 23.464 161.744 23.512 161.864 23.626C161.984 23.734 162.044 23.896 162.044 24.112C162.044 24.352 161.987 24.526 161.873 24.634C161.765 24.742 161.567 24.811 161.279 24.841L161.009 24.868C160.709 24.904 160.493 25 160.361 25.156C160.235 25.306 160.172 25.513 160.172 25.777V27.316C160.172 27.562 160.094 27.748 159.938 27.874C159.788 27.994 159.599 28.054 159.371 28.054C159.143 28.054 158.951 27.994 158.795 27.874C158.645 27.748 158.57 27.562 158.57 27.316V24.202C158.57 23.974 158.645 23.797 158.795 23.671C158.951 23.545 159.137 23.482 159.353 23.482C159.575 23.482 159.752 23.542 159.884 23.662C160.022 23.782 160.091 23.95 160.091 24.166V24.337C160.187 24.073 160.343 23.869 160.559 23.725C160.781 23.581 161.012 23.503 161.252 23.491L161.378 23.482ZM164.484 28.072C163.998 28.072 163.569 27.979 163.197 27.793C162.831 27.601 162.546 27.331 162.342 26.983C162.144 26.635 162.045 26.227 162.045 25.759C162.045 25.291 162.144 24.886 162.342 24.544C162.546 24.196 162.831 23.929 163.197 23.743C163.563 23.557 163.992 23.464 164.484 23.464C164.976 23.464 165.405 23.557 165.771 23.743C166.137 23.929 166.419 24.196 166.617 24.544C166.821 24.886 166.923 25.291 166.923 25.759C166.923 26.227 166.821 26.635 166.617 26.983C166.419 27.331 166.137 27.601 165.771 27.793C165.405 27.979 164.976 28.072 164.484 28.072ZM164.484 26.875C165.054 26.875 165.339 26.503 165.339 25.759C165.339 25.015 165.054 24.643 164.484 24.643C163.914 24.643 163.629 25.015 163.629 25.759C163.629 26.503 163.914 26.875 164.484 26.875ZM170.628 23.464C171.156 23.464 171.549 23.623 171.807 23.941C172.065 24.253 172.194 24.73 172.194 25.372V27.316C172.194 27.544 172.122 27.724 171.978 27.856C171.834 27.988 171.639 28.054 171.393 28.054C171.147 28.054 170.952 27.988 170.808 27.856C170.664 27.724 170.592 27.544 170.592 27.316V25.444C170.592 25.18 170.544 24.988 170.448 24.868C170.358 24.748 170.22 24.688 170.034 24.688C169.794 24.688 169.602 24.766 169.458 24.922C169.32 25.072 169.251 25.276 169.251 25.534V27.316C169.251 27.544 169.179 27.724 169.035 27.856C168.891 27.988 168.696 28.054 168.45 28.054C168.204 28.054 168.009 27.988 167.865 27.856C167.721 27.724 167.649 27.544 167.649 27.316V24.202C167.649 23.992 167.724 23.821 167.874 23.689C168.024 23.551 168.219 23.482 168.459 23.482C168.687 23.482 168.867 23.545 168.999 23.671C169.137 23.797 169.206 23.962 169.206 24.166C169.362 23.938 169.563 23.764 169.809 23.644C170.055 23.524 170.328 23.464 170.628 23.464ZM175.159 23.464C175.843 23.464 176.347 23.629 176.671 23.959C177.001 24.283 177.166 24.778 177.166 25.444V27.325C177.166 27.553 177.097 27.733 176.959 27.865C176.827 27.991 176.641 28.054 176.401 28.054C176.191 28.054 176.017 27.994 175.879 27.874C175.747 27.754 175.675 27.592 175.663 27.388C175.579 27.604 175.438 27.772 175.24 27.892C175.042 28.012 174.805 28.072 174.529 28.072C174.223 28.072 173.947 28.012 173.701 27.892C173.455 27.766 173.26 27.595 173.116 27.379C172.978 27.157 172.909 26.908 172.909 26.632C172.909 26.314 172.99 26.062 173.152 25.876C173.32 25.684 173.584 25.546 173.944 25.462C174.304 25.378 174.79 25.336 175.402 25.336H175.645V25.228C175.645 25.018 175.597 24.868 175.501 24.778C175.405 24.682 175.243 24.634 175.015 24.634C174.769 24.634 174.409 24.718 173.935 24.886C173.797 24.934 173.68 24.958 173.584 24.958C173.434 24.958 173.314 24.904 173.224 24.796C173.134 24.688 173.089 24.547 173.089 24.373C173.089 24.241 173.116 24.133 173.17 24.049C173.224 23.965 173.311 23.89 173.431 23.824C173.641 23.716 173.905 23.629 174.223 23.563C174.541 23.497 174.853 23.464 175.159 23.464ZM174.907 27.001C175.123 27.001 175.3 26.926 175.438 26.776C175.576 26.62 175.645 26.422 175.645 26.182V26.074H175.501C175.117 26.074 174.844 26.11 174.682 26.182C174.52 26.248 174.439 26.362 174.439 26.524C174.439 26.662 174.481 26.776 174.565 26.866C174.655 26.956 174.769 27.001 174.907 27.001ZM178.82 28.054C178.568 28.054 178.358 27.97 178.19 27.802C178.028 27.634 177.947 27.427 177.947 27.181C177.947 26.935 178.028 26.728 178.19 26.56C178.358 26.392 178.568 26.308 178.82 26.308C179.066 26.308 179.27 26.392 179.432 26.56C179.6 26.728 179.684 26.935 179.684 27.181C179.684 27.427 179.6 27.634 179.432 27.802C179.27 27.97 179.066 28.054 178.82 28.054ZM183.45 23.464C183.828 23.464 184.164 23.563 184.458 23.761C184.758 23.953 184.989 24.226 185.151 24.58C185.319 24.934 185.403 25.339 185.403 25.795C185.403 26.251 185.319 26.653 185.151 27.001C184.989 27.343 184.761 27.607 184.467 27.793C184.173 27.979 183.834 28.072 183.45 28.072C183.168 28.072 182.907 28.015 182.667 27.901C182.433 27.787 182.25 27.634 182.118 27.442V28.972C182.118 29.182 182.046 29.35 181.902 29.476C181.758 29.602 181.569 29.665 181.335 29.665C181.089 29.665 180.891 29.596 180.741 29.458C180.591 29.326 180.516 29.155 180.516 28.945V24.22C180.516 23.998 180.585 23.821 180.723 23.689C180.867 23.551 181.059 23.482 181.299 23.482C181.527 23.482 181.71 23.542 181.848 23.662C181.992 23.782 182.073 23.941 182.091 24.139C182.217 23.929 182.4 23.764 182.64 23.644C182.886 23.524 183.156 23.464 183.45 23.464ZM182.964 26.875C183.24 26.875 183.45 26.782 183.594 26.596C183.744 26.41 183.819 26.143 183.819 25.795C183.819 25.429 183.744 25.15 183.594 24.958C183.444 24.76 183.231 24.661 182.955 24.661C182.679 24.661 182.466 24.757 182.316 24.949C182.166 25.141 182.091 25.417 182.091 25.777C182.091 26.131 182.166 26.404 182.316 26.596C182.466 26.782 182.682 26.875 182.964 26.875ZM186.942 28.054C186.714 28.054 186.522 27.994 186.366 27.874C186.216 27.748 186.141 27.562 186.141 27.316V22.357C186.141 22.111 186.216 21.925 186.366 21.799C186.522 21.673 186.714 21.61 186.942 21.61C187.17 21.61 187.359 21.673 187.509 21.799C187.665 21.925 187.743 22.111 187.743 22.357V27.316C187.743 27.562 187.665 27.748 187.509 27.874C187.359 27.994 187.17 28.054 186.942 28.054Z" fill="black"/>
</g>
<defs>
<filter id="filter0_d" x="12" y="7" width="574" height="48" filterUnits="userSpaceOnUse" color-interpolation-filters="sRGB">
<feFlood flood-opacity="0" result="BackgroundImageFix"/>
<feColorMatrix in="SourceAlpha" type="matrix" values="0 0 0 0 0 0 0 0 0 0 0 0 0 0 0 0 0 0 127 0"/>
<feOffset dx="5" dy="5"/>
<feGaussianBlur stdDeviation="2.5"/>
<feColorMatrix type="matrix" values="0 0 0 0 0 0 0 0 0 0 0 0 0 0 0 0 0 0 0.25 0"/>
<feBlend mode="normal" in2="BackgroundImageFix" result="effect1_dropShadow"/>
<feBlend mode="normal" in="SourceGraphic" in2="effect1_dropShadow" result="shape"/>
</filter>
<linearGradient id="paint0_linear" x1="293.479" y1="467" x2="293.479" y2="416.308" gradientUnits="userSpaceOnUse">
<stop offset="0.23" stop-color="#B3B0B0"/>
<stop offset="0.4" stop-color="#C1BEBE"/>
<stop offset="0.81" stop-color="#939090"/>
<stop offset="0.96" stop-color="#6C6969"/>
</linearGradient>
<linearGradient id="paint1_linear" x1="293.658" y1="416.308" x2="293.658" y2="363.88" gradientUnits="userSpaceOnUse">
<stop offset="0.02" stop-color="#7D7C7C"/>
<stop offset="0.23" stop-color="#C6BEBE"/>
<stop offset="0.41" stop-color="#CBCBCB"/>
<stop offset="0.63" stop-color="#9C9A9A"/>
<stop offset="0.87"/>
</linearGradient>
<linearGradient id="paint2_linear" x1="3" y1="186.161" x2="584" y2="186.161" gradientUnits="userSpaceOnUse">
<stop/>
<stop offset="0.53" stop-color="#606060"/>
<stop offset="1"/>
</linearGradient>
<linearGradient id="paint3_linear" x1="99.7833" y1="330.422" x2="179.346" y2="330.422" gradientUnits="userSpaceOnUse">
<stop/>
<stop offset="0.53" stop-color="white"/>
<stop offset="1"/>
</linearGradient>
<clipPath id="clip0">
<rect width="581" height="467" fill="white"/>
</clipPath>
</defs>
</svg>
